<?xml version="1.0" encoding="UTF-8"?>
<!DOCTYPE svg PUBLIC "-//W3C//DTD SVG 1.1//EN"
    "http://www.w3.org/Graphics/SVG/1.1/DTD/svg11.dtd">
<svg xmlns="http://www.w3.org/2000/svg" xmlns:xlink="http://www.w3.org/1999/xlink" width="1052.3622" height="744.09448" xmlns:svg="http://www.w3.org/2000/svg" xmlns:dc="http://purl.org/dc/elements/1.1/" xmlns:cc="http://creativecommons.org/ns#" xmlns:rdf="http://www.w3.org/1999/02/22-rdf-syntax-ns#" version="1.1"><defs><marker id="arrow" viewBox="0 0 10 10" refX="1" refY="5" markerUnits="strokeWidth" orient="auto" markerWidth="7" markerHeight="7"><polyline points="0,1 10,5 0,9" fill="black" /></marker></defs><g id="regions"><path id="regionp1" class="region" d="M872.9544,541.69048 872.9544,423.84148 845.67111,423.84148 822.29762,423.84148 791.0601700000001,423.84148 740.8410000000001,423.84148 740.8410000000001,237.34461 740.8410000000001,160.11138 845.3012500000001,160.11138 930.7797800000001,160.11138 1038.5793,160.35238999999999 1037.6831000000002,345.376 1037.6831000000002,502.74369 1037.6831000000002,693.44448 953.3638600000002,693.44448 872.9544000000002,693.44448 872.9544000000002,541.6904999999999" style="fill:#f298ff;opacity:0.7;fill-opacity:0.58;" /><path id="regionp2" class="region" d="M740.84103,551.62569 740.841,423.84156999999993 800.05155,423.84156999999993 872.3100000000001,423.84147999999993 872.3100000000001,551.6258099999999 872.3100000000001,693.4444799999999 800.05155,693.4444799999999 740.841,693.4444799999999" style="fill:#ff008f;opacity:0.7;fill-opacity:0.58;" /><path id="regionp3" class="region" d="M476.806,553.53262 476.806,448.70805999999993 608.38489,448.70805999999993 740.841,448.70847999999995 740.841,553.53248 740.841,693.44448 608.38489,693.44448 476.80600000000004,693.44448" style="fill:#1c00a2;opacity:0.7;fill-opacity:0.58;" /><path id="regionp4" class="region" d="M476.806,389.71338 476.806,330.54706 476.806,245.51724 476.806,160.48739999999998 686.95711,160.25155999999998 740.8409999999999,160.01548 740.8409999999999,304.44768999999997 740.8409999999999,448.87968 632.2693199999999,448.87968 476.80599999999987,448.87968" style="fill:#c60000;opacity:0.7;fill-opacity:0.58;" /><path id="regionp5" class="region" d="M298.945,563.90813 298.945,470.33627 298.945,442.09448000000003 324.174,442.09448000000003 324.174,292.92218 324.174,151.33964000000003 324.174,122.39227000000002 324.174,62.09448200000003 324.174,62.09448200000003 381.19191,62.09448200000003 476.80594,62.09448200000003 476.80594,360.98876 476.80600000000004,693.44448 394.7884,693.44448 298.94500000000005,693.44448" style="fill:#c6e1ff;opacity:0.7;fill-opacity:0.58;" /><path id="regionp6" class="region" d="M199.61296,675.02385 199.613,656.60279 218.03401,656.60279 231.321,656.60248 231.321,519.7606900000001 231.321,382.9185800000001 280.31471,382.9185800000001 324.17436,382.9185800000001 324.17436,405.7970900000001 324.174,442.0944800000001 298.945,442.0944800000001 298.945,494.9230800000001 298.945,594.1839900000001 298.945,693.4449000000001 244.7884,693.4444800000001 199.61296,693.4449000000001" style="fill:#c6ff20;opacity:0.7;fill-opacity:0.58;" /><path id="regionp7" class="region" d="M25.051555,465.37472 25.051555,260.11157000000003 118.91120000000001,260.11157000000003 231.32100000000003,260.11157000000003 231.32100000000003,285.55016 231.32100000000003,358.35748 172.85857000000004,358.35748 141.76600000000005,358.35748 141.76600000000005,490.81332 141.76600000000005,693.44448 78.99892300000005,693.44448 25.05155500000005,693.44448" style="fill:#2fff2b;opacity:0.7;fill-opacity:0.58;" /><path id="regionp8" class="region" d="M141.766,504.40981 141.766,358.35717999999997 188.64804999999998,358.35717999999997 231.32099999999997,358.35747999999995 231.32099999999997,504.40981 231.32099999999997,656.60248 199.61299999999997,656.60248 199.61299999999997,693.44448 141.76599999999996,693.44448 141.76599999999996,656.60248" style="fill:#2f692b;opacity:0.7;fill-opacity:0.58;" /></g><g id="nodes" style="stroke:#000000;"><g id="csc438" class="node" data-group="theory" text-rendering="geometricPrecision" shape-rendering="geometricPrecision" style=""><rect rx="4" ry="4" x="429.13643899999994" y="611.048" width="40.0" height="32.0" style="fill:#B1C8D1;" /><text x="435.788839" y="633.33319" style="font-family:sans-serif;stroke:none;">438</text></g><rect /><g id="csc463" class="node" data-group="theory" text-rendering="geometricPrecision" shape-rendering="geometricPrecision" style=""><rect rx="4" ry="4" x="318.945029" y="456.68689000000006" width="40.0" height="32.0" style="fill:#B1C8D1;" /><text x="325.59740899999997" y="478.97199" style="font-family:sans-serif;stroke:none;">463</text></g><rect /><g id="csc448" class="node" data-group="theory" text-rendering="geometricPrecision" shape-rendering="geometricPrecision" style=""><rect rx="4" ry="4" x="318.945029" y="611.048" width="40.0" height="32.0" style="fill:#B1C8D1;" /><text x="325.59740899999997" y="633.33319" style="font-family:sans-serif;stroke:none;">448</text></g><rect /><g id="csc165" class="node" data-group="theory" text-rendering="geometricPrecision" shape-rendering="geometricPrecision" style=""><rect rx="4" ry="4" x="349.108909" y="70.24439000000001" width="65.207497" height="32.0" style="fill:#B1C8D1;" /><text x="352.79472899999996" y="92.52958999999998" style="font-family:sans-serif;stroke:none;">165/240</text></g><rect /><g id="csc236" class="node" data-group="theory" text-rendering="geometricPrecision" shape-rendering="geometricPrecision" style=""><rect rx="4" ry="4" x="349.108909" y="172.03409" width="65.207497" height="32.0" style="fill:#B1C8D1;" /><text x="352.79472899999996" y="194.31919000000005" style="font-family:sans-serif;stroke:none;">236/240</text></g><rect /><g id="csc373" class="node" data-group="theory" text-rendering="geometricPrecision" shape-rendering="geometricPrecision" style=""><rect rx="4" ry="4" x="361.712609" y="394.68689000000006" width="40.0" height="32.0" style="fill:#B1C8D1;" /><text x="368.36501899999996" y="416.971993" style="font-family:sans-serif;stroke:none;">373</text></g><rect /><g id="csc108" class="node" data-group="core" text-rendering="geometricPrecision" shape-rendering="geometricPrecision" style=""><rect rx="4" ry="4" x="490.71681899999993" y="70.24439000000001" width="40.0" height="32.0" style="fill:#C9C9C9;" /><text x="497.3691089999999" y="92.52958999999998" style="font-family:sans-serif;stroke:none;">108</text></g><rect /><g id="csc148" class="node" data-group="core" text-rendering="geometricPrecision" shape-rendering="geometricPrecision" style=""><rect rx="4" ry="4" x="490.71681899999993" y="121.01929000000001" width="40.0" height="32.0" style="fill:#C9C9C9;" /><text x="497.3691089999999" y="143.30449" style="font-family:sans-serif;stroke:none;">148</text></g><rect /><g id="csc207" class="node" data-group="se" text-rendering="geometricPrecision" shape-rendering="geometricPrecision" style=""><rect rx="4" ry="4" x="663.362149" y="172.03409" width="40.0" height="32.0" style="fill:#E68080;" /><text x="670.0144290000001" y="194.31919000000005" style="font-family:sans-serif;stroke:none;">207</text></g><rect /><g id="csc209" class="node" data-group="systems" text-rendering="geometricPrecision" shape-rendering="geometricPrecision" style=""><rect rx="4" ry="4" x="783.362149" y="260.66359" width="40.0" height="32.0" style="fill:#C285FF;" /><text x="790.0144290000001" y="282.94868899999994" style="font-family:sans-serif;stroke:none;">209</text></g><rect /><g id="csc258" class="node" data-group="systems" text-rendering="geometricPrecision" shape-rendering="geometricPrecision" style=""><rect rx="4" ry="4" x="852.310209" y="172.03409" width="40.0" height="32.0" style="fill:#C285FF;" /><text x="858.962489" y="194.31919000000005" style="font-family:sans-serif;stroke:none;">258</text></g><rect /><g id="csc369" class="node" data-group="systems" text-rendering="geometricPrecision" shape-rendering="geometricPrecision" style=""><rect rx="4" ry="4" x="813.362149" y="344.129691" width="40.0" height="32.0" style="fill:#C285FF;" /><text x="820.0144290000001" y="366.414891" style="font-family:sans-serif;stroke:none;">369</text></g><rect /><g id="csc318" class="node" data-group="hci" text-rendering="geometricPrecision" shape-rendering="geometricPrecision" style=""><rect rx="4" ry="4" x="77.90341900000001" y="394.68689000000006" width="40.0" height="32.0" style="fill:#91F27A;" /><text x="84.55580900000001" y="416.971993" style="font-family:sans-serif;stroke:none;">318</text></g><rect /><g id="csc320" class="node" data-group="graphics" text-rendering="geometricPrecision" shape-rendering="geometricPrecision" style=""><rect rx="4" ry="4" x="174.58251900000002" y="395.804887" width="40.0" height="32.0" style="fill:#66A366;" /><text x="181.23482900000002" y="418.09008900000003" style="font-family:sans-serif;stroke:none;">320</text></g><rect /><g id="csc418" class="node" data-group="graphics" text-rendering="geometricPrecision" shape-rendering="geometricPrecision" style=""><rect rx="4" ry="4" x="174.58251900000002" y="456.68689000000006" width="40.0" height="32.0" style="fill:#66A366;" /><text x="181.23482900000002" y="478.97199" style="font-family:sans-serif;stroke:none;">418</text></g><rect /><g id="csc454" class="node" data-group="hci" text-rendering="geometricPrecision" shape-rendering="geometricPrecision" style=""><rect rx="4" ry="4" x="77.90341900000001" y="611.048" width="40.0" height="32.0" style="fill:#91F27A;" /><text x="84.55580900000001" y="633.33319" style="font-family:sans-serif;stroke:none;">454</text></g><rect /><g id="csc300" class="node" data-group="hci" text-rendering="geometricPrecision" shape-rendering="geometricPrecision" style=""><rect rx="4" ry="4" x="77.90341900000001" y="331.43199000000004" width="40.0" height="32.0" style="fill:#91F27A;" /><text x="84.55580900000001" y="353.7170910000001" style="font-family:sans-serif;stroke:none;">300</text></g><rect /><g id="csc200" class="node" data-group="hci" text-rendering="geometricPrecision" shape-rendering="geometricPrecision" style=""><rect rx="4" ry="4" x="77.90341900000001" y="269.43198800000005" width="40.0" height="32.0" style="fill:#91F27A;" /><text x="84.55580900000001" y="291.7170890000001" style="font-family:sans-serif;stroke:none;">200</text></g><rect /><g id="csc404" class="node" data-group="hci" text-rendering="geometricPrecision" shape-rendering="geometricPrecision" style=""><rect rx="4" ry="4" x="77.90341900000001" y="544.78749" width="40.0" height="32.0" style="fill:#91F27A;" /><text x="84.55580900000001" y="567.0726900000001" style="font-family:sans-serif;stroke:none;">404</text></g><rect /><g id="csc428" class="node" data-group="hci" text-rendering="geometricPrecision" shape-rendering="geometricPrecision" style=""><rect rx="4" ry="4" x="77.90341900000001" y="456.68689000000006" width="40.0" height="32.0" style="fill:#91F27A;" /><text x="84.55580900000001" y="478.97199" style="font-family:sans-serif;stroke:none;">428</text></g><rect /><g id="csc336" class="node" data-group="num" text-rendering="geometricPrecision" shape-rendering="geometricPrecision" style=""><rect rx="4" ry="4" x="278.945029" y="395.804887" width="40.0" height="32.0" style="fill:#B8FF70;" /><text x="285.59740899999997" y="418.09008900000003" style="font-family:sans-serif;stroke:none;">336</text></g><rect /><g id="csc446" class="node" data-group="num" text-rendering="geometricPrecision" shape-rendering="geometricPrecision" style=""><rect rx="4" ry="4" x="244.116909" y="542.73099" width="40.0" height="32.0" style="fill:#B8FF70;" /><text x="250.769309" y="565.01619" style="font-family:sans-serif;stroke:none;">446</text></g><rect /><g id="csc456" class="node" data-group="num" text-rendering="geometricPrecision" shape-rendering="geometricPrecision" style=""><rect rx="4" ry="4" x="244.116909" y="611.048" width="40.0" height="32.0" style="fill:#B8FF70;" /><text x="250.769309" y="633.33319" style="font-family:sans-serif;stroke:none;">456</text></g><rect /><g id="csc436" class="node" data-group="num" text-rendering="geometricPrecision" shape-rendering="geometricPrecision" style=""><rect rx="4" ry="4" x="244.116909" y="454.9148" width="40.0" height="32.0" style="fill:#B8FF70;" /><text x="250.769309" y="477.20000000000005" style="font-family:sans-serif;stroke:none;">436</text></g><rect /><g id="csc384" class="node" data-group="ai" text-rendering="geometricPrecision" shape-rendering="geometricPrecision" style=""><rect rx="4" ry="4" x="548.696319" y="512.9148" width="40.0" height="32.0" style="fill:#80B2FF;" /><text x="555.348599" y="535.2" style="font-family:sans-serif;stroke:none;">384</text></g><rect /><g id="csc486" class="node" data-group="ai" text-rendering="geometricPrecision" shape-rendering="geometricPrecision" style=""><rect rx="4" ry="4" x="548.696319" y="611.048" width="40.0" height="32.0" style="fill:#80B2FF;" /><text x="555.348599" y="633.33319" style="font-family:sans-serif;stroke:none;">486</text></g><rect /><g id="csc401" class="node" data-group="ai" text-rendering="geometricPrecision" shape-rendering="geometricPrecision" style=""><rect rx="4" ry="4" x="620.620939" y="512.9148" width="40.0" height="32.0" style="fill:#80B2FF;" /><text x="627.273219" y="535.2" style="font-family:sans-serif;stroke:none;">401</text></g><rect /><g id="csc485" class="node" data-group="ai" text-rendering="geometricPrecision" shape-rendering="geometricPrecision" style=""><rect rx="4" ry="4" x="692.5454990000001" y="512.9148" width="40.0" height="32.0" style="fill:#80B2FF;" /><text x="699.197839" y="535.2" style="font-family:sans-serif;stroke:none;">485</text></g><rect /><g id="csc321" class="node" data-group="ai" text-rendering="geometricPrecision" shape-rendering="geometricPrecision" style=""><rect rx="4" ry="4" x="484.348899" y="456.68689000000006" width="40.0" height="32.0" style="fill:#80B2FF;" /><text x="491.00130899999994" y="478.97199" style="font-family:sans-serif;stroke:none;">321</text></g><rect /><g id="csc411" class="node" data-group="ai" text-rendering="geometricPrecision" shape-rendering="geometricPrecision" style=""><rect rx="4" ry="4" x="488.916409" y="512.9148" width="40.0" height="32.0" style="fill:#80B2FF;" /><text x="495.568689" y="535.2" style="font-family:sans-serif;stroke:none;">411</text></g><rect /><g id="csc301" class="node" data-group="se" text-rendering="geometricPrecision" shape-rendering="geometricPrecision" style=""><rect rx="4" ry="4" x="663.362149" y="344.129691" width="40.0" height="32.0" style="fill:#E68080;" /><text x="670.0144290000001" y="366.414891" style="font-family:sans-serif;stroke:none;">301</text></g><rect /><g id="csc302" class="node" data-group="se" text-rendering="geometricPrecision" shape-rendering="geometricPrecision" style=""><rect rx="4" ry="4" x="663.362149" y="406.129693" width="40.0" height="32.0" style="fill:#E68080;" /><text x="670.0144290000001" y="428.41489" style="font-family:sans-serif;stroke:none;">302</text></g><rect /><g id="csc410" class="node" data-group="se" text-rendering="geometricPrecision" shape-rendering="geometricPrecision" style=""><rect rx="4" ry="4" x="589.380029" y="406.129693" width="40.0" height="32.0" style="fill:#E68080;" /><text x="596.0324390000001" y="428.41489" style="font-family:sans-serif;stroke:none;">410</text></g><rect /><g id="csc324" class="node" data-group="theory" text-rendering="geometricPrecision" shape-rendering="geometricPrecision" style=""><rect rx="4" ry="4" x="431.712609" y="406.129693" width="40.0" height="32.0" style="fill:#B1C8D1;" /><text x="438.364889" y="428.41489" style="font-family:sans-serif;stroke:none;">324</text></g><rect /><g id="csc488" class="node" data-group="systems" text-rendering="geometricPrecision" shape-rendering="geometricPrecision" style=""><rect rx="4" ry="4" x="986.506819" y="456.96320000000003" width="40.0" height="32.0" style="fill:#C285FF;" /><text x="993.1591189999999" y="479.24838" style="font-family:sans-serif;stroke:none;">488</text></g><rect /><g id="ece489" class="node" data-group="systems" text-rendering="geometricPrecision" shape-rendering="geometricPrecision" style=""><rect rx="4" ry="4" x="986.506819" y="511.79669" width="40.0" height="32.0" style="fill:#C285FF;" /><text x="992.113719" y="524.72049" style="font-family:sans-serif;stroke:none;">ECE</text><text x="994.8275189999999" y="541.87189" style="font-family:sans-serif;stroke:none;">489</text></g><rect /><g id="csc469" class="node" data-group="systems" text-rendering="geometricPrecision" shape-rendering="geometricPrecision" style=""><rect rx="4" ry="4" x="892.4270190000001" y="611.048" width="40.0" height="32.0" style="fill:#C285FF;" /><text x="899.079419" y="633.33319" style="font-family:sans-serif;stroke:none;">469</text></g><rect /><g id="csc358" class="node" data-group="systems" text-rendering="geometricPrecision" shape-rendering="geometricPrecision" style=""><rect rx="4" ry="4" x="892.4270190000001" y="344.129691" width="40.0" height="32.0" style="fill:#C285FF;" /><text x="899.079419" y="366.414891" style="font-family:sans-serif;stroke:none;">358</text></g><rect /><g id="csc458" class="node" data-group="systems" text-rendering="geometricPrecision" shape-rendering="geometricPrecision" style=""><rect rx="4" ry="4" x="892.4270190000001" y="400.54648699999996" width="40.0" height="32.0" style="fill:#C285FF;" /><text x="899.079419" y="422.83159" style="font-family:sans-serif;stroke:none;">458</text></g><rect /><g id="ece385" class="node" data-group="systems" text-rendering="geometricPrecision" shape-rendering="geometricPrecision" style=""><rect rx="4" ry="4" x="892.4270190000001" y="512.9148" width="40.0" height="32.0" style="fill:#C285FF;" /><text x="898.0339190000001" y="525.83859" style="font-family:sans-serif;stroke:none;">ECE</text><text x="900.747819" y="542.98999" style="font-family:sans-serif;stroke:none;">385</text></g><rect /><g id="csc309" class="node" data-group="dbweb" text-rendering="geometricPrecision" shape-rendering="geometricPrecision" style=""><rect rx="4" ry="4" x="783.362149" y="542.73099" width="40.0" height="32.0" style="fill:#C42B97;" /><text x="790.0144290000001" y="565.01619" style="font-family:sans-serif;stroke:none;">309</text></g><rect /><g id="csc343" class="node" data-group="dbweb" text-rendering="geometricPrecision" shape-rendering="geometricPrecision" style=""><rect rx="4" ry="4" x="755.025539" y="456.96320000000003" width="40.0" height="32.0" style="fill:#C42B97;" /><text x="761.677819" y="479.24838" style="font-family:sans-serif;stroke:none;">343</text></g><rect /><g id="csc443" class="node" data-group="dbweb" text-rendering="geometricPrecision" shape-rendering="geometricPrecision" style=""><rect rx="4" ry="4" x="744.994409" y="611.048" width="40.0" height="32.0" style="fill:#C42B97;" /><text x="751.646689" y="633.33319" style="font-family:sans-serif;stroke:none;">443</text></g><rect /><g id="hcsc318" class="hybrid" data-group="" text-rendering="geometricPrecision" shape-rendering="geometricPrecision" style=""><rect rx="4" ry="4" x="44.921628999999996" y="504.73717999999997" width="50.0" height="24.0" style="fill:grey;" /><text x="50.458719" y="514.53989" style="font-size:7.5pt;fill:white;font-family:sans-serif;stroke:none;">318/418/</text><text x="51.84792899999999" y="526.79089" style="font-size:7.5pt;fill:white;font-family:sans-serif;stroke:none;">301/384</text></g><rect /><g id="hcsc263" class="hybrid" data-group="" text-rendering="geometricPrecision" shape-rendering="geometricPrecision" style=""><rect rx="4" ry="4" x="945.966919" y="264.66359" width="27.0" height="24.0" style="fill:grey;" /><text x="951.1246189999999" y="280.59179000000006" style="font-size:7.5pt;fill:white;font-family:sans-serif;stroke:none;">263</text></g><rect /><g id="hcsc336" class="hybrid" data-group="" text-rendering="geometricPrecision" shape-rendering="geometricPrecision" style=""><rect rx="4" ry="4" x="154.73882899999998" y="510.86739" width="64.826897" height="24.0" style="fill:grey;" /><text x="157.957909" y="520.6702" style="font-size:7.5pt;fill:white;font-family:sans-serif;stroke:none;">336/373/463,</text><text x="174.369109" y="532.92119" style="font-size:7.5pt;fill:white;font-family:sans-serif;stroke:none;">Calc1</text></g><rect /><g id="hcsc258,324" class="hybrid" data-group="" text-rendering="geometricPrecision" shape-rendering="geometricPrecision" style=""><rect rx="4" ry="4" x="986.506819" y="380.129689" width="40.0" height="24.0" style="fill:grey;" /><text x="988.4330190000001" y="396.057992" style="font-size:7.5pt;fill:white;font-family:sans-serif;stroke:none;">258,324</text></g><rect /><g id="hcsc373" class="hybrid" data-group="" text-rendering="geometricPrecision" shape-rendering="geometricPrecision" style=""><rect rx="4" ry="4" x="692.5454990000001" y="573.79669" width="27.0" height="24.0" style="fill:grey;" /><text x="697.703209" y="589.7249800000001" style="font-size:7.5pt;fill:white;font-family:sans-serif;stroke:none;">373</text></g><rect /><g id="hsta1" class="hybrid" data-group="" text-rendering="geometricPrecision" shape-rendering="geometricPrecision" style=""><rect rx="4" ry="4" x="450.17091899999997" y="237.02468899999997" width="27.0" height="24.0" style="fill:grey;" /><text x="453.385339" y="252.95288900000003" style="font-size:7.5pt;fill:white;font-family:sans-serif;stroke:none;">Sta1</text></g><rect /><g id="hlin1" class="hybrid" data-group="" text-rendering="geometricPrecision" shape-rendering="geometricPrecision" style=""><rect rx="4" ry="4" x="512.268399" y="237.02468899999997" width="27.0" height="24.0" style="fill:grey;" /><text x="516.315329" y="252.95288900000003" style="font-size:7.5pt;fill:white;font-family:sans-serif;stroke:none;">Lin1</text></g><rect /><g id="hsta1" class="hybrid" data-group="" text-rendering="geometricPrecision" shape-rendering="geometricPrecision" style=""><rect rx="4" ry="4" x="627.120939" y="582.048" width="27.0" height="24.0" style="fill:grey;" /><text x="630.335229" y="597.97629" style="font-size:7.5pt;fill:white;font-family:sans-serif;stroke:none;">Sta1</text></g><rect /><g id="hsta1" class="hybrid" data-group="" text-rendering="geometricPrecision" shape-rendering="geometricPrecision" style=""><rect rx="4" ry="4" x="437.343409" y="565.9813800000001" width="25.27507" height="23.191942" style="fill:grey;" /><text x="440.158786" y="581.90958" style="font-size:7.5pt;fill:white;font-family:sans-serif;stroke:none;">Sta1</text></g><rect /><g id="calc1" class="node" data-group="core" text-rendering="geometricPrecision" shape-rendering="geometricPrecision" style=""><rect rx="4" ry="4" x="200.57091899999998" y="70.24439000000001" width="61.5" height="32.0" style="fill:#C9C9C9;" /><text x="209.97322899999998" y="92.52958999999998" style="font-family:sans-serif;stroke:none;">Calc1</text></g><rect /><g id="sta1" class="node" data-group="core" text-rendering="geometricPrecision" shape-rendering="geometricPrecision" style=""><rect rx="4" ry="4" x="75.888709" y="121.01929000000001" width="50.0" height="32.0" style="fill:#C9C9C9;" /><text x="83.990219" y="143.30449" style="font-family:sans-serif;stroke:none;">Sta1</text></g><rect /><g id="sta2" class="node" data-group="core" text-rendering="geometricPrecision" shape-rendering="geometricPrecision" style=""><rect rx="4" ry="4" x="75.888709" y="183.01929" width="50.0" height="32.0" style="fill:#C9C9C9;" /><text x="83.990219" y="205.30449" style="font-family:sans-serif;stroke:none;">Sta2</text></g><rect /><g id="csc412" class="node" data-group="ai" text-rendering="geometricPrecision" shape-rendering="geometricPrecision" style=""><rect rx="4" ry="4" x="488.916409" y="611.048" width="40.0" height="32.0" style="fill:#80B2FF;" /><text x="495.568689" y="633.33319" style="font-family:sans-serif;stroke:none;">412</text></g><rect /><g id="csc420" class="node" data-group="graphics" text-rendering="geometricPrecision" shape-rendering="geometricPrecision" style=""><rect rx="4" ry="4" x="175.518829" y="611.048" width="40.0" height="32.0" style="fill:#66A366;" /><text x="182.17110900000003" y="633.53238" style="font-family:sans-serif;stroke:none;">420</text></g><rect /><g id="csc104" class="node" data-group="core" text-rendering="geometricPrecision" shape-rendering="geometricPrecision" style=""><rect rx="4" ry="4" x="577.039389" y="70.24439000000001" width="40.0" height="32.0" style="fill:#C9C9C9;" /><text x="583.6917990000001" y="92.52958999999998" style="font-family:sans-serif;stroke:none;">104</text></g><rect /><g id="csc120" class="node" data-group="core" text-rendering="geometricPrecision" shape-rendering="geometricPrecision" style=""><rect rx="4" ry="4" x="663.362149" y="70.24439000000001" width="40.0" height="32.0" style="fill:#C9C9C9;" /><text x="670.0144290000001" y="92.52958999999998" style="font-family:sans-serif;stroke:none;">120</text></g><rect /><g id="lin1" class="node" data-group="core" text-rendering="geometricPrecision" shape-rendering="geometricPrecision" style=""><rect rx="4" ry="4" x="155.88872899999998" y="183.01929" width="50.0" height="32.0" style="fill:#C9C9C9;" /><text x="164.44341899999998" y="205.30449" style="font-family:sans-serif;stroke:none;">Lin1</text></g><rect /><g id="hcsc263" class="hybrid" data-group="" text-rendering="geometricPrecision" shape-rendering="geometricPrecision" style=""><rect rx="4" ry="4" x="669.862149" y="264.66359" width="27.0" height="24.0" style="fill:grey;" /><text x="675.019799" y="280.59179000000006" style="font-size:7.5pt;fill:white;font-family:sans-serif;stroke:none;">263</text></g><rect /><g id="hcsc236" class="hybrid" data-group="" text-rendering="geometricPrecision" shape-rendering="geometricPrecision" style=""><rect rx="4" ry="4" x="945.966919" y="557.04799" width="27.0" height="24.0" style="fill:grey;" /><text x="951.1246189999999" y="572.97629" style="font-size:7.5pt;fill:white;font-family:sans-serif;stroke:none;">236</text></g><rect /><g id="csc372" class="node" data-group="systems" text-rendering="geometricPrecision" shape-rendering="geometricPrecision" style=""><rect rx="4" ry="4" x="892.4270190000001" y="456.96320000000003" width="40.0" height="32.0" style="fill:#C285FF;" /><text x="899.079419" y="479.24838" style="font-family:sans-serif;stroke:none;">372</text></g><rect /><g id="hcsc209" class="hybrid" data-group="" text-rendering="geometricPrecision" shape-rendering="geometricPrecision" style=""><rect rx="4" ry="4" x="128.266019" y="363.71318899999994" width="27.0" height="24.0" style="fill:grey;" /><text x="133.423719" y="379.641389" style="font-size:7.5pt;fill:white;font-family:sans-serif;stroke:none;">209</text></g><rect /><g id="csc310" class="node" data-group="theory" text-rendering="geometricPrecision" shape-rendering="geometricPrecision" style=""><rect rx="4" ry="4" x="431.712609" y="344.129691" width="40.0" height="32.0" style="fill:#B1C8D1;" /><text x="438.364889" y="366.414891" style="font-family:sans-serif;stroke:none;">310</text></g><rect /><g id="hcsc148" class="hybrid" data-group="" text-rendering="geometricPrecision" shape-rendering="geometricPrecision" style=""><rect rx="4" ry="4" x="438.212609" y="302.94969100000003" width="27.0" height="24.0" style="fill:grey;" /><text x="443.370329" y="318.87799010000003" style="font-size:7.5pt;fill:white;font-family:sans-serif;stroke:none;">148</text></g><rect /><g id="hcsc207" class="hybrid" data-group="" text-rendering="geometricPrecision" shape-rendering="geometricPrecision" style=""><rect rx="4" ry="4" x="770.9774990000001" y="391.106492" width="27.0" height="24.0" style="fill:grey;" /><text x="776.135219" y="407.03469200000006" style="font-size:7.5pt;fill:white;font-family:sans-serif;stroke:none;">207</text></g><rect /><g id="hcsc263" class="hybrid" data-group="" text-rendering="geometricPrecision" shape-rendering="geometricPrecision" style=""><rect rx="4" ry="4" x="163.105309" y="557.04799" width="27.0" height="24.0" style="fill:grey;" /><text x="168.263029" y="572.97629" style="font-size:7.5pt;fill:white;font-family:sans-serif;stroke:none;">263</text></g><rect /><g id="hcsc165" class="hybrid" data-group="" text-rendering="geometricPrecision" shape-rendering="geometricPrecision" style=""><rect rx="4" ry="4" x="733.362149" y="352.129691" width="50.0" height="24.0" style="fill:grey;" /><text x="735.847439" y="368.057992" style="font-size:7.5pt;fill:white;font-family:sans-serif;stroke:none;">165/Calc1</text></g><rect /><g id="csc263" class="node" data-group="theory" text-rendering="geometricPrecision" shape-rendering="geometricPrecision" style=""><rect rx="4" ry="4" x="349.108909" y="260.66359" width="65.207497" height="32.0" style="fill:#B1C8D1;" /><text x="352.79472899999996" y="282.94868899999994" style="font-family:sans-serif;stroke:none;">263/265</text></g><rect /><g id="csc465" class="node" data-group="se" text-rendering="geometricPrecision" shape-rendering="geometricPrecision" style=""><rect rx="4" ry="4" x="536.985189" y="406.129693" width="40.0" height="32.0" style="fill:#E68080;" /><text x="543.637599" y="428.41489" style="font-family:sans-serif;stroke:none;">465</text></g><rect /><g id="hcsc236" class="hybrid" data-group="" text-rendering="geometricPrecision" shape-rendering="geometricPrecision" style=""><rect rx="4" ry="4" x="517.167139" y="348.129691" width="27.0" height="24.0" style="fill:grey;" /><text x="522.324789" y="364.057992" style="font-size:7.5pt;fill:white;font-family:sans-serif;stroke:none;">236</text></g><rect /></g><g id="bools"><g id="bool0" class="bool"><ellipse cx="510.71681899999993" cy="217.02469000000008" rx="9.8800001" ry="7.3684001" style="stroke:#000000;fill:none;" /><text x="504.050809" y="220.26689" style="font-size:7.5pt;font-family:sans-serif;stroke:none;">and</text></g><g id="bool1" class="bool"><ellipse cx="872.310209" cy="276.66359" rx="9.8800001" ry="7.3684001" style="stroke:#000000;fill:none;" /><text x="865.644189" y="279.905789" style="font-size:7.5pt;font-family:sans-serif;stroke:none;">and</text></g><g id="bool2" class="bool"><ellipse cx="381.712609" cy="558.73099" rx="9.8800001" ry="7.3684001" style="stroke:#000000;fill:none;" /><text x="377.68721899999997" y="561.97319" style="font-size:7.5pt;font-family:sans-serif;stroke:none;">or</text></g><g id="bool3" class="bool"><ellipse cx="504.348899" cy="314.94969000000003" rx="9.8800001" ry="7.3684001" style="stroke:#000000;fill:none;" /><text x="497.68294899999995" y="318.1918899000001" style="font-size:7.5pt;font-family:sans-serif;stroke:none;">and</text></g><g id="bool4" class="bool"><ellipse cx="231.32091899999998" cy="268.03199099999995" rx="9.8800001" ry="7.3684001" style="stroke:#000000;fill:none;" /><text x="224.65480900000003" y="271.27419" style="font-size:7.5pt;font-family:sans-serif;stroke:none;">and</text></g></g><g id="edges" style="stroke:#000000"><path id="pathp9" class="path" d="M510.71681899999993,102.26029000000005 510.71681899999993,113.03159000000005" marker-end="url(#arrow)" source-node="csc108" target-node="csc148" style="fill:none;fill-opacity:1;" /><path id="pathp10" class="path" d="M490.69051899999994,137.01929 395.34701899999993,137.01929 395.34701899999993,164.05249000000003" marker-end="url(#arrow)" source-node="csc148" target-node="csc236" style="fill:none;fill-opacity:1;" /><path id="pathp11" class="path" d="M530.737919,137.01929 683.362119,137.01929 683.362119,164.04219" marker-end="url(#arrow)" source-node="csc148" target-node="csc207" style="fill:none;fill-opacity:1;" /><path id="pathp12" class="path" d="M703.3718190000001,193.23579 803.3621190000001,219.22919000000002 803.3621190000001,252.65039000000002" marker-end="url(#arrow)" source-node="csc207" target-node="csc209" style="fill:none;fill-opacity:1;" /><path id="pathp13" class="path" d="M530.704919,137.01929 721.453519,137.01929 721.453519,188.03409 844.300419,188.03409" marker-end="url(#arrow)" source-node="csc148" target-node="csc258" style="fill:none;fill-opacity:1;" /><path id="pathp14" class="path" d="M381.71261899999996,70.27239000000003 381.71261899999996,47.94159000000002 740.840999,47.94159000000002 740.840999,174.54448000000002 844.5978190000001,174.54429000000005" marker-end="url(#arrow)" source-node="csc165" target-node="csc258" style="fill:none;fill-opacity:1;" /><path id="pathp15" class="path" d="M97.90341900000001,426.70149000000004 97.90341900000001,448.65479000000005" marker-end="url(#arrow)" source-node="csc318" target-node="csc428" style="fill:none;fill-opacity:1;" /><path id="pathp16" class="path" d="M490.73401899999993,137.01929 298.94501899999995,137.01929 298.94501899999995,387.80489" marker-end="url(#arrow)" source-node="csc148" target-node="csc336" style="fill:none;fill-opacity:1;" /><path id="pathp17" class="path" d="M298.945019,427.83909000000006 298.945019,558.73099 292.149919,558.73099" marker-end="url(#arrow)" source-node="csc336" target-node="csc446" style="fill:none;fill-opacity:1;" /><path id="pathp18" class="path" d="M298.945019,427.80629 298.945019,627.04799 292.149919,627.04799" marker-end="url(#arrow)" source-node="csc336" target-node="csc456" style="fill:none;fill-opacity:1;" /><path id="pathp19" class="path" d="M298.944999,427.82349 298.945019,470.91479000000004 292.149919,470.91479000000004" marker-end="url(#arrow)" source-node="csc336" target-node="csc436" style="fill:none;fill-opacity:1;" /><path id="pathp20" class="path" d="M568.696319,544.87099 568.696319,603.03799" marker-end="url(#arrow)" source-node="csc384" target-node="csc486" style="fill:none;fill-opacity:1;" /><path id="pathp21" class="path" d="M663.368919,188.03409 640.620919,188.03409 640.620919,504.89439000000004" marker-end="url(#arrow)" source-node="csc207" target-node="csc401" style="fill:none;fill-opacity:1;" /><path id="pathp22" class="path" d="M783.365619,276.66359 725.3569190000001,276.66359 725.3569190000001,504.89519000000007" marker-end="url(#arrow)" source-node="csc209" target-node="csc485" style="fill:none;fill-opacity:1;" /><path id="pathp23" class="path" d="M783.379719,276.66359 725.1137190000001,276.66359 725.1137190000001,360.1296900000001 711.3817190000001,360.1296900000001" marker-end="url(#arrow)" source-node="csc209" target-node="csc301" style="fill:none;fill-opacity:1;" /><path id="pathp24" class="path" d="M683.362119,376.14439000000004 683.362119,398.09769000000006" marker-end="url(#arrow)" source-node="csc301" target-node="csc302" style="fill:none;fill-opacity:1;" /><path id="pathp25" class="path" d="M833.362119,376.1278900000001 833.362119,627.04799 884.390619,627.04799" marker-end="url(#arrow)" source-node="csc369" target-node="csc469" style="fill:none;fill-opacity:1;" /><path id="pathp26" class="path" d="M803.362119,292.67449 803.362119,534.7194900000001" marker-end="url(#arrow)" source-node="csc209" target-node="csc309" style="fill:none;fill-opacity:1;" /><path id="pathp27" class="path" d="M764.994419,488.99618999999996 764.994419,603.03859" marker-end="url(#arrow)" source-node="csc343" target-node="csc443" style="fill:none;fill-opacity:1;" /><path id="pathp28" class="path" d="M833.362119,376.1278900000001 833.362119,627.04799 792.990619,627.04799" marker-end="url(#arrow)" source-node="csc369" target-node="csc443" style="fill:none;fill-opacity:1;" /><path id="pathp29" class="path" d="M77.544319,528.73719 83.454219,538.04089" marker-end="url(#arrow)" source-node="hcsc318" target-node="csc404" style="fill:none;fill-opacity:1;" /><path id="pathp30" class="path" d="M959.466919,288.66359 959.466919,472.96319000000005 978.5241189999999,472.96319000000005" marker-end="url(#arrow)" source-node="hcsc263" target-node="csc488" style="fill:none;fill-opacity:1;" /><path id="pathp31" class="path" d="M959.466919,288.66359 959.466919,360.1296900000001 940.409819,360.1296900000001" marker-end="url(#arrow)" source-node="hcsc263" target-node="csc358" style="fill:none;fill-opacity:1;" /><path id="pathp32" class="path" d="M959.466919,288.66359 959.466919,416.54649000000006 940.409819,416.54649000000006" marker-end="url(#arrow)" source-node="hcsc263" target-node="csc458" style="fill:none;fill-opacity:1;" /><path id="pathp33" class="path" d="M187.152319,510.36739 189.87841899999998,496.54259" marker-end="url(#arrow)" source-node="hcsc336" target-node="csc418" style="fill:none;fill-opacity:1;" /><path id="pathp34" class="path" d="M414.33271899999994,188.03409 480.68451899999997,188.03409 498.92061899999993,205.63759000000005" marker-end="url(#arrow)" source-node="csc236" target-node="bool0" style="fill:none;fill-opacity:1;" /><path id="pathp35" class="path" d="M663.3460190000001,188.03409 547.3990190000001,188.03409 523.774219,206.70519000000002" marker-end="url(#arrow)" source-node="csc207" target-node="bool0" style="fill:none;fill-opacity:1;" /><path id="pathp36" class="path" d="M520.596819,217.02469000000008 552.891519,217.02469000000008 552.891519,361.31389 589.068719,400.26239" marker-end="url(#arrow)" source-node="bool0" target-node="csc410" style="fill:none;fill-opacity:1;" /><path id="pathp37" class="path" d="M1006.506719,404.1296900000001 1006.506719,448.93119" marker-end="url(#arrow)" source-node="hcsc258,324" target-node="csc488" style="fill:none;fill-opacity:1;" /><path id="pathp38" class="path" d="M719.545519,595.2437900000001 738.844419,608.74879" marker-end="url(#arrow)" source-node="hcsc373" target-node="csc443" style="fill:none;fill-opacity:1;" /><path id="pathp39" class="path" d="M823.393419,276.66359 854.430219,276.66359" marker-end="url(#arrow)" source-node="csc209" target-node="bool1" style="fill:none;fill-opacity:1;" /><path id="pathp40" class="path" d="M872.3102190000001,204.00299000000007 872.3102190000001,261.29508999999996" marker-end="url(#arrow)" source-node="csc258" target-node="bool1" style="fill:none;fill-opacity:1;" /><path id="pathp41" class="path" d="M872.3102190000001,284.03199000000006 872.3102190000001,360.1296900000001 861.3306190000001,360.1296900000001" marker-end="url(#arrow)" source-node="bool1" target-node="csc369" style="fill:none;fill-opacity:1;" /><path id="pathp42" class="path" d="M872.3102190000001,284.03199000000006 872.3102190000001,527.79669 884.410919,528.13399" marker-end="url(#arrow)" source-node="bool1" target-node="ece385" style="fill:none;fill-opacity:1;" /><path id="pathp43" class="path" d="M872.3102190000001,284.03199000000006 872.3102190000001,360.1296900000001 884.407819,360.1296900000001" marker-end="url(#arrow)" source-node="bool1" target-node="csc358" style="fill:none;fill-opacity:1;" /><path id="pathp44" class="path" d="M872.3102190000001,284.03199000000006 872.3102190000001,416.54649000000006 884.407819,416.54649000000006" marker-end="url(#arrow)" source-node="bool1" target-node="csc458" style="fill:none;fill-opacity:1;" /><path id="pathp45" class="path" d="M338.945019,488.6940900000001 338.945019,558.73099 363.832619,558.73099" marker-end="url(#arrow)" source-node="csc463" target-node="bool2" style="fill:none;fill-opacity:1;" /><path id="pathp46" class="path" d="M381.71261899999996,426.65738999999996 381.71261899999996,531.6025900000001 381.71261899999996,543.3625900000001" marker-end="url(#arrow)" source-node="csc373" target-node="bool2" style="fill:none;fill-opacity:1;" /><path id="pathp47" class="path" d="M381.71261899999996,566.0994900000001 381.71261899999996,627.04799 421.15291899999994,627.04799" marker-end="url(#arrow)" source-node="bool2" target-node="csc438" style="fill:none;fill-opacity:1;" /><path id="pathp48" class="path" d="M381.71261899999996,566.0994900000001 381.71261899999996,663.04799 568.696319,663.04799 568.696319,651.04409" marker-end="url(#arrow)" source-node="bool2" target-node="csc486" style="fill:none;fill-opacity:1;" /><path id="pathp49" class="path" d="M627.3696190000001,582.04799 592.016219,550.03279" marker-end="url(#arrow)" source-node="hsta1" target-node="csc384" style="fill:none;fill-opacity:1;" /><path id="pathp50" class="path" d="M640.6209190000001,582.04799 640.6209190000001,552.92219" marker-end="url(#arrow)" source-node="hsta1" target-node="csc401" style="fill:none;fill-opacity:1;" /><path id="pathp51" class="path" d="M653.872119,582.04799 689.225619,550.0327900000001" marker-end="url(#arrow)" source-node="hsta1" target-node="csc485" style="fill:none;fill-opacity:1;" /><path id="pathp52" class="path" d="M640.6209190000001,582.04799 640.6209190000001,552.92219" marker-end="url(#arrow)" source-node="hsta1" target-node="csc401" style="fill:none;fill-opacity:1;" /><path id="pathp53" class="path" d="M455.434019,565.98139 482.67691899999994,547.10029" marker-end="url(#arrow)" source-node="hsta1" target-node="csc411" style="fill:none;fill-opacity:1;" /><path id="pathp54" class="path" d="M231.320819,102.26029000000005 231.320819,137.01929 133.88611899999998,137.01929" marker-end="url(#arrow)" source-node="calc1" target-node="sta1" style="fill:none;fill-opacity:1;" /><path id="pathp55" class="path" d="M100.88871900000001,153.03399000000002 100.88871900000001,174.98729000000003" marker-end="url(#arrow)" source-node="sta1" target-node="sta2" style="fill:none;fill-opacity:1;" /><path id="pathp56" class="path" d="M75.88381899999999,199.01929 55.88871899999998,199.01929 55.88871899999998,472.96319000000005 69.90531899999999,472.96319000000005" marker-end="url(#arrow)" source-node="sta2" target-node="csc428" style="fill:none;fill-opacity:1;" /><path id="pathp57" class="path" d="M508.91641899999996,544.87099 508.91641899999996,603.03799" marker-end="url(#arrow)" source-node="csc411" target-node="csc412" style="fill:none;fill-opacity:1;" /><path id="pathp58" class="path" d="M683.362119,288.66359 683.362119,336.11269000000004" marker-end="url(#arrow)" source-node="hcsc263" target-node="csc301" style="fill:none;fill-opacity:1;" /><path id="pathp59" class="path" d="M972.966919,557.20929 982.706719,548.66809" marker-end="url(#arrow)" source-node="hcsc236" target-node="ece489" style="fill:none;fill-opacity:1;" /><path id="pathp60" class="path" d="M872.3099990000001,284.03248199999996 872.3102190000001,472.96319000000005 884.407819,472.96319000000005" marker-end="url(#arrow)" source-node="bool1" target-node="csc372" style="fill:none;fill-opacity:1;" /><path id="pathp61" class="path" d="M141.766019,387.71319000000005 141.766019,663.04799 264.116919,663.04799 264.116919,651.04409" marker-end="url(#arrow)" source-node="hcsc209" target-node="csc456" style="fill:none;fill-opacity:1;" /><path id="pathp62" class="path" d="M141.766019,387.71319000000005 141.766019,472.68689000000006 125.907219,472.68689000000006" marker-end="url(#arrow)" source-node="hcsc209" target-node="csc428" style="fill:none;fill-opacity:1;" /><path id="pathp63" class="path" d="M141.766019,387.71319000000005 141.766019,411.80489 166.59581899999998,411.80489" marker-end="url(#arrow)" source-node="hcsc209" target-node="csc320" style="fill:none;fill-opacity:1;" /><path id="pathp64" class="path" d="M141.765999,387.71319000000005 141.766019,472.68689000000006 166.59581899999998,472.68689000000006" marker-end="url(#arrow)" source-node="hcsc209" target-node="csc418" style="fill:none;fill-opacity:1;" /><path id="pathp65" class="path" d="M521.8695190000001,261.0246900000001 509.147719,300.17999" marker-end="url(#arrow)" source-node="hlin1" target-node="bool3" style="fill:none;fill-opacity:1;" /><path id="pathp66" class="path" d="M471.075319,261.0246900000001 496.017819,301.44779000000005" marker-end="url(#arrow)" source-node="hsta1" target-node="bool3" style="fill:none;fill-opacity:1;" /><path id="pathp67" class="path" d="M504.34891899999997,322.3181900000001 504.34891899999997,448.71749" marker-end="url(#arrow)" source-node="bool3" target-node="csc321" style="fill:none;fill-opacity:1;" /><path id="pathp68" class="path" d="M504.34891899999997,322.3181900000001 504.34891899999997,360.1296900000001 479.73401899999993,360.1296900000001" marker-end="url(#arrow)" source-node="bool3" target-node="csc310" style="fill:none;fill-opacity:1;" /><path id="pathp69" class="path" d="M451.71261899999996,326.94969000000003 451.71261899999996,336.15539" marker-end="url(#arrow)" source-node="hcsc148" target-node="csc310" style="fill:none;fill-opacity:1;" /><path id="pathp70" class="path" d="M782.853819,415.10649 778.2654190000001,449.01749000000007" marker-end="url(#arrow)" source-node="hcsc207" target-node="csc343" style="fill:none;fill-opacity:1;" /><path id="pathp71" class="path" d="M180.518519,581.04799 187.809019,603.4050900000001" marker-end="url(#arrow)" source-node="hcsc263" target-node="csc420" style="fill:none;fill-opacity:1;" /><path id="pathp72" class="path" d="M745.1064190000001,376.14639 761.983319,449.15759" marker-end="url(#arrow)" source-node="hcsc165" target-node="csc343" style="fill:none;fill-opacity:1;" /><path id="pathp73" class="path" d="M192.58561899999998,215.02569000000005 221.872719,255.10289" marker-end="url(#arrow)" source-node="lin1" target-node="bool4" style="fill:none;fill-opacity:1;" /><path id="pathp74" class="path" d="M231.320819,102.26619000000005 231.320819,252.66359" marker-end="url(#arrow)" source-node="calc1" target-node="bool4" style="fill:none;fill-opacity:1;" /><path id="pathp75" class="path" d="M231.320819,275.40049 231.320819,411.80489 270.96811899999994,411.80489" marker-end="url(#arrow)" source-node="bool4" target-node="csc336" style="fill:none;fill-opacity:1;" /><path id="pathp76" class="path" d="M231.320819,275.40049 231.320819,411.80489 222.566119,411.80489" marker-end="url(#arrow)" source-node="bool4" target-node="csc320" style="fill:none;fill-opacity:1;" /><path id="pathp77" class="path" d="M231.320999,275.40049 231.320819,627.04799 223.55261900000002,627.04799" marker-end="url(#arrow)" source-node="bool4" target-node="csc420" style="fill:none;fill-opacity:1;" /><path id="pathp78" class="path" d="M463.67091899999997,261.0246900000001 463.67091899999997,276.66359 422.3278189999999,276.66359" marker-end="url(#arrow)" source-node="hsta1" target-node="csc263" style="fill:none;fill-opacity:1;" /><path id="pathp79" class="path" d="M500.836919,217.02469000000008 381.712619,217.02469000000008 381.712619,252.67638999999997" marker-end="url(#arrow)" source-node="bool0" target-node="csc263" style="fill:none;fill-opacity:1;" /><path id="pathp80" class="path" d="M381.71261899999996,292.66389000000004 381.71261899999996,386.6949900000001" marker-end="url(#arrow)" source-node="csc263" target-node="csc373" style="fill:none;fill-opacity:1;" /><path id="pathp81" class="path" d="M411.68961899999994,292.4322900000001 411.68961899999994,528.91479 480.93911899999995,528.91479" marker-end="url(#arrow)" source-node="csc263" target-node="csc411" style="fill:none;fill-opacity:1;" /><path id="pathp82" class="path" d="M411.434819,292.53238999999996 411.434819,422.12969 423.691719,422.12969" marker-end="url(#arrow)" source-node="csc263" target-node="csc324" style="fill:none;fill-opacity:1;" /><path id="pathp83" class="path" d="M411.871319,292.37629000000004 411.871319,496.51899000000003 568.6963190000001,496.51899000000003 568.6963190000001,504.93828999999994" marker-end="url(#arrow)" source-node="csc263" target-node="csc384" style="fill:none;fill-opacity:1;" /><path id="pathp84" class="path" d="M535.7609190000001,372.1296900000001 547.071319,398.77449" marker-end="url(#arrow)" source-node="hcsc236" target-node="csc465" style="fill:none;fill-opacity:1;" /><path id="pathp85" class="path" d="M338.945019,488.70329000000004 338.945019,603.07219" marker-end="url(#arrow)" source-node="csc463" target-node="csc448" style="fill:none;fill-opacity:1;" /><path id="pathp86" class="path" d="M370.03581899999995,102.24939 370.03581899999995,164.03579000000002" marker-end="url(#arrow)" source-node="csc165" target-node="csc236" style="fill:none;fill-opacity:1;" /><path id="pathp87" class="path" d="M349.095919,188.03409 338.945019,188.03409 338.945019,448.66819" marker-end="url(#arrow)" source-node="csc236" target-node="csc463" style="fill:none;fill-opacity:1;" /></g><g id="region-labels"><text x="218.54964100000004" y="675.191687" style="font-size:9pt;font-family:sans-serif;stroke:none;">Numerical</text><text x="218.54964100000004" y="688.323" style="font-size:9pt;font-family:sans-serif;stroke:none;">Computing</text><text x="139.687131" y="307.405216" style="font-size:9pt;font-family:sans-serif;stroke:none;">Humans and</text><text x="144.69103099999998" y="322.106316" style="font-size:9pt;font-family:sans-serif;stroke:none;">Computing</text><text x="170.573729" y="377.76338999999996" style="font-size:9pt;font-family:sans-serif;stroke:none;">Graphics</text><text x="422.71604899999994" y="119.5952335" style="font-size:9pt;font-family:sans-serif;stroke:none;">Theory</text><text x="638.741849" y="640.743" style="font-size:9pt;font-family:sans-serif;stroke:none;">Artificial</text><text x="629.390219" y="655.4441800000001" style="font-size:9pt;font-family:sans-serif;stroke:none;">Intelligence</text><text x="574.1792290000001" y="330.01129019999996" style="font-size:9pt;font-family:sans-serif;stroke:none;">Software</text><text x="565.8325490000001" y="344.712491" style="font-size:9pt;font-family:sans-serif;stroke:none;">Engineering</text><text x="937.706119" y="222.6586920000001" style="font-size:9pt;font-family:sans-serif;stroke:none;">Systems</text><text x="792.9131090000001" y="660.16998" style="font-size:9pt;font-family:sans-serif;stroke:none;">Web and</text><text x="788.243189" y="674.87119" style="font-size:9pt;font-family:sans-serif;stroke:none;">Databases</text></g></svg>