<?xml version="1.0" encoding="UTF-8"?>
<!DOCTYPE svg PUBLIC "-//W3C//DTD SVG 1.1//EN"
    "http://www.w3.org/Graphics/SVG/1.1/DTD/svg11.dtd">
<svg xmlns="http://www.w3.org/2000/svg" xmlns:xlink="http://www.w3.org/1999/xlink" version="1.1" width="600.0" height="560.0" font-size="1" viewBox="0 0 600 560" stroke="rgb(0,0,0)" stroke-opacity="1"><g><g fill="rgb(0,0,0)" fill-opacity="0.0"><g stroke="rgb(0,0,0)" stroke-opacity="1.0" stroke-width="2.3186202793903106" stroke-linecap="butt" stroke-linejoin="miter" font-size="1.0em" stroke-miterlimit="10.0"><g><g><g><g><g><g fill="rgb(255,255,255)" fill-opacity="1.0" stroke-width="0.0"><g fill="rgb(255,255,255)" fill-opacity="1.0"><g fill="rgb(255,255,255)" fill-opacity="1.0"><path d="M 600.0,560.0 l -1.1102230246251565e-14,-40.0 h -100.0 l -1.1102230246251565e-14,40.0 Z" /></g></g></g><g fill="rgb(255,255,255)" fill-opacity="1.0" font-size="16.0px" font-family="Trebuchet MS"><g fill="rgb(255,255,255)" fill-opacity="1.0"><text transform="matrix(1.0,0.0,0.0,1.0,550.0,540.0)" dominant-baseline="middle" text-anchor="middle" stroke="none"></text></g></g></g><g><g fill="rgb(255,255,255)" fill-opacity="1.0" stroke-width="0.0"><g fill="rgb(255,255,255)" fill-opacity="1.0"><g fill="rgb(255,255,255)" fill-opacity="1.0"><path d="M 500.0,560.0 l -1.1102230246251565e-14,-40.0 h -100.0 l -1.1102230246251565e-14,40.0 Z" /></g></g></g><g fill="rgb(255,255,255)" fill-opacity="1.0" font-size="16.0px" font-family="Trebuchet MS"><g fill="rgb(255,255,255)" fill-opacity="1.0"><text transform="matrix(1.0,0.0,0.0,1.0,450.0,540.0)" dominant-baseline="middle" text-anchor="middle" stroke="none"></text></g></g></g><g fill="rgb(255,255,255)" fill-opacity="1.0" stroke-width="0.0"><g fill="rgb(255,255,255)" fill-opacity="1.0"><g fill="rgb(255,255,255)" fill-opacity="1.0"><path d="M 400.0,560.0 l -1.1102230246251565e-14,-40.0 h -100.0 l -1.1102230246251565e-14,40.0 Z" /></g></g></g><g fill="rgb(255,255,255)" fill-opacity="1.0" font-size="16.0px" font-family="Trebuchet MS"><g fill="rgb(255,255,255)" fill-opacity="1.0"><text transform="matrix(1.0,0.0,0.0,1.0,350.0,540.0)" dominant-baseline="middle" text-anchor="middle" stroke="none"></text></g></g></g><g><g><g fill="rgb(255,255,255)" fill-opacity="1.0" stroke-width="0.0"><g fill="rgb(255,255,255)" fill-opacity="1.0"><g fill="rgb(255,255,255)" fill-opacity="1.0"><path d="M 300.0,560.0 l -1.1102230246251565e-14,-40.0 h -100.0 l -1.1102230246251565e-14,40.0 Z" /></g></g></g><g fill="rgb(255,255,255)" fill-opacity="1.0" font-size="16.0px" font-family="Trebuchet MS"><g fill="rgb(255,255,255)" fill-opacity="1.0"><text transform="matrix(1.0,0.0,0.0,1.0,250.0,540.0)" dominant-baseline="middle" text-anchor="middle" stroke="none"></text></g></g></g><g fill="rgb(255,255,255)" fill-opacity="1.0" stroke-width="0.0"><g fill="rgb(255,255,255)" fill-opacity="1.0"><g fill="rgb(255,255,255)" fill-opacity="1.0"><path d="M 200.0,560.0 l -1.1102230246251565e-14,-40.0 h -100.0 l -1.1102230246251565e-14,40.0 Z" /></g></g></g><g fill="rgb(255,255,255)" fill-opacity="1.0" font-size="16.0px" font-family="Trebuchet MS"><g fill="rgb(255,255,255)" fill-opacity="1.0"><text transform="matrix(1.0,0.0,0.0,1.0,150.0,540.0)" dominant-baseline="middle" text-anchor="middle" stroke="none"></text></g></g></g><g stroke-width="1.1593101396951553"><path d="M 100.00000000000001,520.0 v 40.0 " /></g><g stroke-width="0.0"><path d="M 100.00000000000001,560.0 l -1.1102230246251565e-14,-40.0 h -100.0 l -1.1102230246251565e-14,40.0 Z" /></g><g fill="rgb(0,0,0)" fill-opacity="1.0" font-size="16.0px" font-family="Trebuchet MS"><g fill="rgb(0,0,0)" fill-opacity="1.0"><text transform="matrix(1.0,0.0,0.0,1.0,50.0,540.0)" dominant-baseline="middle" text-anchor="middle" stroke="none">8:00</text></g></g></g><g stroke="rgb(128,128,128)" stroke-opacity="1.0" stroke-width="1.1593101396951553"><path d="M 0.0,520.0 h 600.0 " /></g></g><g><g><g><g><g><g fill="rgb(255,255,255)" fill-opacity="1.0" stroke-width="0.0"><g fill="rgb(255,255,255)" fill-opacity="1.0"><g fill="rgb(255,255,255)" fill-opacity="1.0"><path d="M 600.0,520.0 l -1.1102230246251565e-14,-40.0 h -100.0 l -1.1102230246251565e-14,40.0 Z" /></g></g></g><g fill="rgb(255,255,255)" fill-opacity="1.0" font-size="16.0px" font-family="Trebuchet MS"><g fill="rgb(255,255,255)" fill-opacity="1.0"><text transform="matrix(1.0,0.0,0.0,1.0,550.0,500.00000000000006)" dominant-baseline="middle" text-anchor="middle" stroke="none"></text></g></g></g><g><g fill="rgb(255,255,255)" fill-opacity="1.0" stroke-width="0.0"><g fill="rgb(255,255,255)" fill-opacity="1.0"><g fill="rgb(255,255,255)" fill-opacity="1.0"><path d="M 500.0,520.0 l -1.1102230246251565e-14,-40.0 h -100.0 l -1.1102230246251565e-14,40.0 Z" /></g></g></g><g fill="rgb(255,255,255)" fill-opacity="1.0" font-size="16.0px" font-family="Trebuchet MS"><g fill="rgb(255,255,255)" fill-opacity="1.0"><text transform="matrix(1.0,0.0,0.0,1.0,450.0,500.00000000000006)" dominant-baseline="middle" text-anchor="middle" stroke="none"></text></g></g></g><g fill="rgb(255,255,255)" fill-opacity="1.0" stroke-width="0.0"><g fill="rgb(255,255,255)" fill-opacity="1.0"><g fill="rgb(255,255,255)" fill-opacity="1.0"><path d="M 400.0,520.0 l -1.1102230246251565e-14,-40.0 h -100.0 l -1.1102230246251565e-14,40.0 Z" /></g></g></g><g fill="rgb(255,255,255)" fill-opacity="1.0" font-size="16.0px" font-family="Trebuchet MS"><g fill="rgb(255,255,255)" fill-opacity="1.0"><text transform="matrix(1.0,0.0,0.0,1.0,350.0,500.00000000000006)" dominant-baseline="middle" text-anchor="middle" stroke="none"></text></g></g></g><g><g><g fill="rgb(255,255,255)" fill-opacity="1.0" stroke-width="0.0"><g fill="rgb(255,255,255)" fill-opacity="1.0"><g fill="rgb(255,255,255)" fill-opacity="1.0"><path d="M 300.0,520.0 l -1.1102230246251565e-14,-40.0 h -100.0 l -1.1102230246251565e-14,40.0 Z" /></g></g></g><g fill="rgb(255,255,255)" fill-opacity="1.0" font-size="16.0px" font-family="Trebuchet MS"><g fill="rgb(255,255,255)" fill-opacity="1.0"><text transform="matrix(1.0,0.0,0.0,1.0,250.0,500.00000000000006)" dominant-baseline="middle" text-anchor="middle" stroke="none"></text></g></g></g><g fill="rgb(255,255,255)" fill-opacity="1.0" stroke-width="0.0"><g fill="rgb(255,255,255)" fill-opacity="1.0"><g fill="rgb(255,255,255)" fill-opacity="1.0"><path d="M 200.0,520.0 l -1.1102230246251565e-14,-40.0 h -100.0 l -1.1102230246251565e-14,40.0 Z" /></g></g></g><g fill="rgb(255,255,255)" fill-opacity="1.0" font-size="16.0px" font-family="Trebuchet MS"><g fill="rgb(255,255,255)" fill-opacity="1.0"><text transform="matrix(1.0,0.0,0.0,1.0,150.0,500.00000000000006)" dominant-baseline="middle" text-anchor="middle" stroke="none"></text></g></g></g><g stroke-width="1.1593101396951553"><path d="M 100.00000000000001,480.00000000000006 v 40.0 " /></g><g stroke-width="0.0"><path d="M 100.00000000000001,520.0 l -1.1102230246251565e-14,-40.0 h -100.0 l -1.1102230246251565e-14,40.0 Z" /></g><g fill="rgb(0,0,0)" fill-opacity="1.0" font-size="16.0px" font-family="Trebuchet MS"><g fill="rgb(0,0,0)" fill-opacity="1.0"><text transform="matrix(1.0,0.0,0.0,1.0,50.0,500.00000000000006)" dominant-baseline="middle" text-anchor="middle" stroke="none">7:00</text></g></g></g><g stroke="rgb(128,128,128)" stroke-opacity="1.0" stroke-width="1.1593101396951553"><path d="M 0.0,480.00000000000006 h 600.0 " /></g></g><g><g><g><g fill="rgb(255,255,255)" fill-opacity="1.0" stroke-width="0.0"><g fill="rgb(255,255,255)" fill-opacity="1.0"><g fill="rgb(255,255,255)" fill-opacity="1.0"><path d="M 600.0,480.00000000000006 l -1.1102230246251565e-14,-40.0 h -100.0 l -1.1102230246251565e-14,40.0 Z" /></g></g></g><g fill="rgb(255,255,255)" fill-opacity="1.0" font-size="16.0px" font-family="Trebuchet MS"><g fill="rgb(255,255,255)" fill-opacity="1.0"><text transform="matrix(1.0,0.0,0.0,1.0,550.0,460.00000000000006)" dominant-baseline="middle" text-anchor="middle" stroke="none"></text></g></g></g><g><g fill="rgb(255,255,255)" fill-opacity="1.0" stroke-width="0.0"><g fill="rgb(255,255,255)" fill-opacity="1.0"><g fill="rgb(255,255,255)" fill-opacity="1.0"><path d="M 500.0,480.00000000000006 l -1.1102230246251565e-14,-40.0 h -100.0 l -1.1102230246251565e-14,40.0 Z" /></g></g></g><g fill="rgb(255,255,255)" fill-opacity="1.0" font-size="16.0px" font-family="Trebuchet MS"><g fill="rgb(255,255,255)" fill-opacity="1.0"><text transform="matrix(1.0,0.0,0.0,1.0,450.0,460.00000000000006)" dominant-baseline="middle" text-anchor="middle" stroke="none"></text></g></g></g><g fill="rgb(255,255,255)" fill-opacity="1.0" stroke-width="0.0"><g fill="rgb(255,255,255)" fill-opacity="1.0"><g fill="rgb(255,255,255)" fill-opacity="1.0"><path d="M 400.0,480.00000000000006 l -1.1102230246251565e-14,-40.0 h -100.0 l -1.1102230246251565e-14,40.0 Z" /></g></g></g><g fill="rgb(255,255,255)" fill-opacity="1.0" font-size="16.0px" font-family="Trebuchet MS"><g fill="rgb(255,255,255)" fill-opacity="1.0"><text transform="matrix(1.0,0.0,0.0,1.0,350.0,460.00000000000006)" dominant-baseline="middle" text-anchor="middle" stroke="none"></text></g></g></g><g><g><g fill="rgb(255,255,255)" fill-opacity="1.0" stroke-width="0.0"><g fill="rgb(255,255,255)" fill-opacity="1.0"><g fill="rgb(255,255,255)" fill-opacity="1.0"><path d="M 300.0,480.00000000000006 l -1.1102230246251565e-14,-40.0 h -100.0 l -1.1102230246251565e-14,40.0 Z" /></g></g></g><g fill="rgb(255,255,255)" fill-opacity="1.0" font-size="16.0px" font-family="Trebuchet MS"><g fill="rgb(255,255,255)" fill-opacity="1.0"><text transform="matrix(1.0,0.0,0.0,1.0,250.0,460.00000000000006)" dominant-baseline="middle" text-anchor="middle" stroke="none"></text></g></g></g><g fill="rgb(255,255,255)" fill-opacity="1.0" stroke-width="0.0"><g fill="rgb(255,255,255)" fill-opacity="1.0"><g fill="rgb(255,255,255)" fill-opacity="1.0"><path d="M 200.0,480.00000000000006 l -1.1102230246251565e-14,-40.0 h -100.0 l -1.1102230246251565e-14,40.0 Z" /></g></g></g><g fill="rgb(255,255,255)" fill-opacity="1.0" font-size="16.0px" font-family="Trebuchet MS"><g fill="rgb(255,255,255)" fill-opacity="1.0"><text transform="matrix(1.0,0.0,0.0,1.0,150.0,460.00000000000006)" dominant-baseline="middle" text-anchor="middle" stroke="none"></text></g></g></g><g stroke-width="1.1593101396951553"><path d="M 100.00000000000001,440.00000000000006 v 40.0 " /></g><g stroke-width="0.0"><path d="M 100.00000000000001,480.00000000000006 l -1.1102230246251565e-14,-40.0 h -100.0 l -1.1102230246251565e-14,40.0 Z" /></g><g fill="rgb(0,0,0)" fill-opacity="1.0" font-size="16.0px" font-family="Trebuchet MS"><g fill="rgb(0,0,0)" fill-opacity="1.0"><text transform="matrix(1.0,0.0,0.0,1.0,50.0,460.00000000000006)" dominant-baseline="middle" text-anchor="middle" stroke="none">6:00</text></g></g></g><g stroke="rgb(128,128,128)" stroke-opacity="1.0" stroke-width="1.1593101396951553"><path d="M 0.0,440.00000000000006 h 600.0 " /></g></g><g><g><g><g><g fill="rgb(255,255,255)" fill-opacity="1.0" stroke-width="0.0"><g fill="rgb(255,255,255)" fill-opacity="1.0"><g fill="rgb(255,255,255)" fill-opacity="1.0"><path d="M 600.0,440.00000000000006 l -1.1102230246251565e-14,-40.0 h -100.0 l -1.1102230246251565e-14,40.0 Z" /></g></g></g><g fill="rgb(255,255,255)" fill-opacity="1.0" font-size="16.0px" font-family="Trebuchet MS"><g fill="rgb(255,255,255)" fill-opacity="1.0"><text transform="matrix(1.0,0.0,0.0,1.0,550.0,420.00000000000006)" dominant-baseline="middle" text-anchor="middle" stroke="none"></text></g></g></g><g><g fill="rgb(255,255,255)" fill-opacity="1.0" stroke-width="0.0"><g fill="rgb(255,255,255)" fill-opacity="1.0"><g fill="rgb(255,255,255)" fill-opacity="1.0"><path d="M 500.0,440.00000000000006 l -1.1102230246251565e-14,-40.0 h -100.0 l -1.1102230246251565e-14,40.0 Z" /></g></g></g><g fill="rgb(255,255,255)" fill-opacity="1.0" font-size="16.0px" font-family="Trebuchet MS"><g fill="rgb(255,255,255)" fill-opacity="1.0"><text transform="matrix(1.0,0.0,0.0,1.0,450.0,420.00000000000006)" dominant-baseline="middle" text-anchor="middle" stroke="none"></text></g></g></g><g fill="rgb(255,255,255)" fill-opacity="1.0" stroke-width="0.0"><g fill="rgb(255,255,255)" fill-opacity="1.0"><g fill="rgb(255,255,255)" fill-opacity="1.0"><path d="M 400.0,440.00000000000006 l -1.1102230246251565e-14,-40.0 h -100.0 l -1.1102230246251565e-14,40.0 Z" /></g></g></g><g fill="rgb(255,255,255)" fill-opacity="1.0" font-size="16.0px" font-family="Trebuchet MS"><g fill="rgb(255,255,255)" fill-opacity="1.0"><text transform="matrix(1.0,0.0,0.0,1.0,350.0,420.00000000000006)" dominant-baseline="middle" text-anchor="middle" stroke="none"></text></g></g></g><g><g><g fill="rgb(255,255,255)" fill-opacity="1.0" stroke-width="0.0"><g fill="rgb(255,255,255)" fill-opacity="1.0"><g fill="rgb(255,255,255)" fill-opacity="1.0"><path d="M 300.0,440.00000000000006 l -1.1102230246251565e-14,-40.0 h -100.0 l -1.1102230246251565e-14,40.0 Z" /></g></g></g><g fill="rgb(255,255,255)" fill-opacity="1.0" font-size="16.0px" font-family="Trebuchet MS"><g fill="rgb(255,255,255)" fill-opacity="1.0"><text transform="matrix(1.0,0.0,0.0,1.0,250.0,420.00000000000006)" dominant-baseline="middle" text-anchor="middle" stroke="none"></text></g></g></g><g fill="rgb(255,255,255)" fill-opacity="1.0" stroke-width="0.0"><g fill="rgb(255,255,255)" fill-opacity="1.0"><g fill="rgb(255,255,255)" fill-opacity="1.0"><path d="M 200.0,440.00000000000006 l -1.1102230246251565e-14,-40.0 h -100.0 l -1.1102230246251565e-14,40.0 Z" /></g></g></g><g fill="rgb(255,255,255)" fill-opacity="1.0" font-size="16.0px" font-family="Trebuchet MS"><g fill="rgb(255,255,255)" fill-opacity="1.0"><text transform="matrix(1.0,0.0,0.0,1.0,150.0,420.00000000000006)" dominant-baseline="middle" text-anchor="middle" stroke="none"></text></g></g></g><g stroke-width="1.1593101396951553"><path d="M 100.00000000000001,400.00000000000006 v 40.0 " /></g><g stroke-width="0.0"><path d="M 100.00000000000001,440.00000000000006 l -1.1102230246251565e-14,-40.0 h -100.0 l -1.1102230246251565e-14,40.0 Z" /></g><g fill="rgb(0,0,0)" fill-opacity="1.0" font-size="16.0px" font-family="Trebuchet MS"><g fill="rgb(0,0,0)" fill-opacity="1.0"><text transform="matrix(1.0,0.0,0.0,1.0,50.0,420.00000000000006)" dominant-baseline="middle" text-anchor="middle" stroke="none">5:00</text></g></g></g><g stroke="rgb(128,128,128)" stroke-opacity="1.0" stroke-width="1.1593101396951553"><path d="M 0.0,400.00000000000006 h 600.0 " /></g></g><g><g><g><g fill="rgb(255,255,255)" fill-opacity="1.0" stroke-width="0.0"><g fill="rgb(255,255,255)" fill-opacity="1.0"><g fill="rgb(255,255,255)" fill-opacity="1.0"><path d="M 600.0,400.00000000000006 l -1.1102230246251565e-14,-40.0 h -100.0 l -1.1102230246251565e-14,40.0 Z" /></g></g></g><g fill="rgb(255,255,255)" fill-opacity="1.0" font-size="16.0px" font-family="Trebuchet MS"><g fill="rgb(255,255,255)" fill-opacity="1.0"><text transform="matrix(1.0,0.0,0.0,1.0,550.0,380.00000000000006)" dominant-baseline="middle" text-anchor="middle" stroke="none"></text></g></g></g><g><g fill="rgb(255,255,255)" fill-opacity="1.0" stroke-width="0.0"><g fill="rgb(255,255,255)" fill-opacity="1.0"><g fill="rgb(255,255,255)" fill-opacity="1.0"><path d="M 500.0,400.00000000000006 l -1.1102230246251565e-14,-40.0 h -100.0 l -1.1102230246251565e-14,40.0 Z" /></g></g></g><g fill="rgb(255,255,255)" fill-opacity="1.0" font-size="16.0px" font-family="Trebuchet MS"><g fill="rgb(255,255,255)" fill-opacity="1.0"><text transform="matrix(1.0,0.0,0.0,1.0,450.0,380.00000000000006)" dominant-baseline="middle" text-anchor="middle" stroke="none"></text></g></g></g><g fill="rgb(255,255,255)" fill-opacity="1.0" stroke-width="0.0"><g fill="rgb(255,255,255)" fill-opacity="1.0"><g fill="rgb(255,255,255)" fill-opacity="1.0"><path d="M 400.0,400.00000000000006 l -1.1102230246251565e-14,-40.0 h -100.0 l -1.1102230246251565e-14,40.0 Z" /></g></g></g><g fill="rgb(255,255,255)" fill-opacity="1.0" font-size="16.0px" font-family="Trebuchet MS"><g fill="rgb(255,255,255)" fill-opacity="1.0"><text transform="matrix(1.0,0.0,0.0,1.0,350.0,380.00000000000006)" dominant-baseline="middle" text-anchor="middle" stroke="none"></text></g></g></g><g><g><g fill="rgb(255,255,255)" fill-opacity="1.0" stroke-width="0.0"><g fill="rgb(255,255,255)" fill-opacity="1.0"><g fill="rgb(255,255,255)" fill-opacity="1.0"><path d="M 300.0,400.00000000000006 l -1.1102230246251565e-14,-40.0 h -100.0 l -1.1102230246251565e-14,40.0 Z" /></g></g></g><g fill="rgb(255,255,255)" fill-opacity="1.0" font-size="16.0px" font-family="Trebuchet MS"><g fill="rgb(255,255,255)" fill-opacity="1.0"><text transform="matrix(1.0,0.0,0.0,1.0,250.0,380.00000000000006)" dominant-baseline="middle" text-anchor="middle" stroke="none"></text></g></g></g><g fill="rgb(255,255,255)" fill-opacity="1.0" stroke-width="0.0"><g fill="rgb(255,255,255)" fill-opacity="1.0"><g fill="rgb(255,255,255)" fill-opacity="1.0"><path d="M 200.0,400.00000000000006 l -1.1102230246251565e-14,-40.0 h -100.0 l -1.1102230246251565e-14,40.0 Z" /></g></g></g><g fill="rgb(255,255,255)" fill-opacity="1.0" font-size="16.0px" font-family="Trebuchet MS"><g fill="rgb(255,255,255)" fill-opacity="1.0"><text transform="matrix(1.0,0.0,0.0,1.0,150.0,380.00000000000006)" dominant-baseline="middle" text-anchor="middle" stroke="none"></text></g></g></g><g stroke-width="1.1593101396951553"><path d="M 100.00000000000001,360.00000000000006 v 40.0 " /></g><g stroke-width="0.0"><path d="M 100.00000000000001,400.00000000000006 l -1.1102230246251565e-14,-40.0 h -100.0 l -1.1102230246251565e-14,40.0 Z" /></g><g fill="rgb(0,0,0)" fill-opacity="1.0" font-size="16.0px" font-family="Trebuchet MS"><g fill="rgb(0,0,0)" fill-opacity="1.0"><text transform="matrix(1.0,0.0,0.0,1.0,50.0,380.00000000000006)" dominant-baseline="middle" text-anchor="middle" stroke="none">4:00</text></g></g></g><g stroke="rgb(128,128,128)" stroke-opacity="1.0" stroke-width="1.1593101396951553"><path d="M 0.0,360.00000000000006 h 600.0 " /></g></g><g><g><g><g><g><g><g fill="rgb(255,255,255)" fill-opacity="1.0" stroke-width="0.0"><g fill="rgb(255,255,255)" fill-opacity="1.0"><g fill="rgb(255,255,255)" fill-opacity="1.0"><path d="M 600.0,360.0 l -1.1102230246251565e-14,-40.0 h -100.0 l -1.1102230246251565e-14,40.0 Z" /></g></g></g><g fill="rgb(255,255,255)" fill-opacity="1.0" font-size="16.0px" font-family="Trebuchet MS"><g fill="rgb(255,255,255)" fill-opacity="1.0"><text transform="matrix(1.0,0.0,0.0,1.0,550.0,340.0)" dominant-baseline="middle" text-anchor="middle" stroke="none"></text></g></g></g><g><g fill="rgb(255,255,255)" fill-opacity="1.0" stroke-width="0.0"><g fill="rgb(255,255,255)" fill-opacity="1.0"><g fill="rgb(255,255,255)" fill-opacity="1.0"><path d="M 500.0,360.0 l -1.1102230246251565e-14,-40.0 h -100.0 l -1.1102230246251565e-14,40.0 Z" /></g></g></g><g fill="rgb(255,255,255)" fill-opacity="1.0" font-size="16.0px" font-family="Trebuchet MS"><g fill="rgb(255,255,255)" fill-opacity="1.0"><text transform="matrix(1.0,0.0,0.0,1.0,450.0,340.0)" dominant-baseline="middle" text-anchor="middle" stroke="none"></text></g></g></g><g fill="rgb(255,255,255)" fill-opacity="1.0" stroke-width="0.0"><g fill="rgb(255,255,255)" fill-opacity="1.0"><g fill="rgb(255,255,255)" fill-opacity="1.0"><path d="M 400.0,360.0 l -1.1102230246251565e-14,-40.0 h -100.0 l -1.1102230246251565e-14,40.0 Z" /></g></g></g><g fill="rgb(255,255,255)" fill-opacity="1.0" font-size="16.0px" font-family="Trebuchet MS"><g fill="rgb(255,255,255)" fill-opacity="1.0"><text transform="matrix(1.0,0.0,0.0,1.0,350.0,340.0)" dominant-baseline="middle" text-anchor="middle" stroke="none"></text></g></g></g><g><g><g fill="rgb(255,255,255)" fill-opacity="1.0" stroke-width="0.0"><g fill="rgb(255,255,255)" fill-opacity="1.0"><g fill="rgb(255,255,255)" fill-opacity="1.0"><path d="M 300.0,360.0 l -1.1102230246251565e-14,-40.0 h -100.0 l -1.1102230246251565e-14,40.0 Z" /></g></g></g><g fill="rgb(255,255,255)" fill-opacity="1.0" font-size="16.0px" font-family="Trebuchet MS"><g fill="rgb(255,255,255)" fill-opacity="1.0"><text transform="matrix(1.0,0.0,0.0,1.0,250.0,340.0)" dominant-baseline="middle" text-anchor="middle" stroke="none"></text></g></g></g><g fill="rgb(255,255,255)" fill-opacity="1.0" stroke-width="0.0"><g fill="rgb(255,255,255)" fill-opacity="1.0"><g fill="rgb(255,255,255)" fill-opacity="1.0"><path d="M 200.0,360.0 l -1.1102230246251565e-14,-40.0 h -100.0 l -1.1102230246251565e-14,40.0 Z" /></g></g></g><g fill="rgb(255,255,255)" fill-opacity="1.0" font-size="16.0px" font-family="Trebuchet MS"><g fill="rgb(255,255,255)" fill-opacity="1.0"><text transform="matrix(1.0,0.0,0.0,1.0,150.0,340.0)" dominant-baseline="middle" text-anchor="middle" stroke="none"></text></g></g></g><g stroke-width="1.1593101396951553"><path d="M 100.00000000000001,320.0 v 40.0 " /></g><g stroke-width="0.0"><path d="M 100.00000000000001,360.0 l -1.1102230246251565e-14,-40.0 h -100.0 l -1.1102230246251565e-14,40.0 Z" /></g><g fill="rgb(0,0,0)" fill-opacity="1.0" font-size="16.0px" font-family="Trebuchet MS"><g fill="rgb(0,0,0)" fill-opacity="1.0"><text transform="matrix(1.0,0.0,0.0,1.0,50.0,340.0)" dominant-baseline="middle" text-anchor="middle" stroke="none">3:00</text></g></g></g><g stroke="rgb(128,128,128)" stroke-opacity="1.0" stroke-width="1.1593101396951553"><path d="M 0.0,320.0 h 600.0 " /></g></g><g><g><g><g fill="rgb(255,255,255)" fill-opacity="1.0" stroke-width="0.0"><g fill="rgb(255,255,255)" fill-opacity="1.0"><g fill="rgb(255,255,255)" fill-opacity="1.0"><path d="M 600.0,320.0 l -1.1102230246251565e-14,-40.0 h -100.0 l -1.1102230246251565e-14,40.0 Z" /></g></g></g><g fill="rgb(255,255,255)" fill-opacity="1.0" font-size="16.0px" font-family="Trebuchet MS"><g fill="rgb(255,255,255)" fill-opacity="1.0"><text transform="matrix(1.0,0.0,0.0,1.0,550.0,300.0)" dominant-baseline="middle" text-anchor="middle" stroke="none"></text></g></g></g><g><g fill="rgb(255,255,255)" fill-opacity="1.0" stroke-width="0.0"><g fill="rgb(255,255,255)" fill-opacity="1.0"><g fill="rgb(255,255,255)" fill-opacity="1.0"><path d="M 500.0,320.0 l -1.1102230246251565e-14,-40.0 h -100.0 l -1.1102230246251565e-14,40.0 Z" /></g></g></g><g fill="rgb(255,255,255)" fill-opacity="1.0" font-size="16.0px" font-family="Trebuchet MS"><g fill="rgb(255,255,255)" fill-opacity="1.0"><text transform="matrix(1.0,0.0,0.0,1.0,450.0,300.0)" dominant-baseline="middle" text-anchor="middle" stroke="none"></text></g></g></g><g fill="rgb(255,255,255)" fill-opacity="1.0" stroke-width="0.0"><g fill="rgb(255,255,255)" fill-opacity="1.0"><g fill="rgb(255,255,255)" fill-opacity="1.0"><path d="M 400.0,320.0 l -1.1102230246251565e-14,-40.0 h -100.0 l -1.1102230246251565e-14,40.0 Z" /></g></g></g><g fill="rgb(255,255,255)" fill-opacity="1.0" font-size="16.0px" font-family="Trebuchet MS"><g fill="rgb(255,255,255)" fill-opacity="1.0"><text transform="matrix(1.0,0.0,0.0,1.0,350.0,300.0)" dominant-baseline="middle" text-anchor="middle" stroke="none"></text></g></g></g><g><g><g fill="rgb(255,255,255)" fill-opacity="1.0" stroke-width="0.0"><g fill="rgb(255,255,255)" fill-opacity="1.0"><g fill="rgb(255,255,255)" fill-opacity="1.0"><path d="M 300.0,320.0 l -1.1102230246251565e-14,-40.0 h -100.0 l -1.1102230246251565e-14,40.0 Z" /></g></g></g><g fill="rgb(255,255,255)" fill-opacity="1.0" font-size="16.0px" font-family="Trebuchet MS"><g fill="rgb(255,255,255)" fill-opacity="1.0"><text transform="matrix(1.0,0.0,0.0,1.0,250.0,300.0)" dominant-baseline="middle" text-anchor="middle" stroke="none"></text></g></g></g><g fill="rgb(255,255,255)" fill-opacity="1.0" stroke-width="0.0"><g fill="rgb(255,255,255)" fill-opacity="1.0"><g fill="rgb(255,255,255)" fill-opacity="1.0"><path d="M 200.0,320.0 l -1.1102230246251565e-14,-40.0 h -100.0 l -1.1102230246251565e-14,40.0 Z" /></g></g></g><g fill="rgb(255,255,255)" fill-opacity="1.0" font-size="16.0px" font-family="Trebuchet MS"><g fill="rgb(255,255,255)" fill-opacity="1.0"><text transform="matrix(1.0,0.0,0.0,1.0,150.0,300.0)" dominant-baseline="middle" text-anchor="middle" stroke="none"></text></g></g></g><g stroke-width="1.1593101396951553"><path d="M 100.00000000000001,280.0 v 40.0 " /></g><g stroke-width="0.0"><path d="M 100.00000000000001,320.0 l -1.1102230246251565e-14,-40.0 h -100.0 l -1.1102230246251565e-14,40.0 Z" /></g><g fill="rgb(0,0,0)" fill-opacity="1.0" font-size="16.0px" font-family="Trebuchet MS"><g fill="rgb(0,0,0)" fill-opacity="1.0"><text transform="matrix(1.0,0.0,0.0,1.0,50.0,300.0)" dominant-baseline="middle" text-anchor="middle" stroke="none">2:00</text></g></g></g><g stroke="rgb(128,128,128)" stroke-opacity="1.0" stroke-width="1.1593101396951553"><path d="M 0.0,280.0 h 600.0 " /></g></g><g><g><g><g><g fill="rgb(255,255,255)" fill-opacity="1.0" stroke-width="0.0"><g fill="rgb(255,255,255)" fill-opacity="1.0"><g fill="rgb(255,255,255)" fill-opacity="1.0"><path d="M 600.0,280.0 l -1.1102230246251565e-14,-40.0 h -100.0 l -1.1102230246251565e-14,40.0 Z" /></g></g></g><g fill="rgb(255,255,255)" fill-opacity="1.0" font-size="16.0px" font-family="Trebuchet MS"><g fill="rgb(255,255,255)" fill-opacity="1.0"><text transform="matrix(1.0,0.0,0.0,1.0,550.0,260.0)" dominant-baseline="middle" text-anchor="middle" stroke="none"></text></g></g></g><g><g fill="rgb(255,255,255)" fill-opacity="1.0" stroke-width="0.0"><g fill="rgb(255,255,255)" fill-opacity="1.0"><g fill="rgb(255,255,255)" fill-opacity="1.0"><path d="M 500.0,280.0 l -1.1102230246251565e-14,-40.0 h -100.0 l -1.1102230246251565e-14,40.0 Z" /></g></g></g><g fill="rgb(255,255,255)" fill-opacity="1.0" font-size="16.0px" font-family="Trebuchet MS"><g fill="rgb(255,255,255)" fill-opacity="1.0"><text transform="matrix(1.0,0.0,0.0,1.0,450.0,260.0)" dominant-baseline="middle" text-anchor="middle" stroke="none"></text></g></g></g><g fill="rgb(255,255,255)" fill-opacity="1.0" stroke-width="0.0"><g fill="rgb(255,255,255)" fill-opacity="1.0"><g fill="rgb(255,255,255)" fill-opacity="1.0"><path d="M 400.0,280.0 l -1.1102230246251565e-14,-40.0 h -100.0 l -1.1102230246251565e-14,40.0 Z" /></g></g></g><g fill="rgb(255,255,255)" fill-opacity="1.0" font-size="16.0px" font-family="Trebuchet MS"><g fill="rgb(255,255,255)" fill-opacity="1.0"><text transform="matrix(1.0,0.0,0.0,1.0,350.0,260.0)" dominant-baseline="middle" text-anchor="middle" stroke="none"></text></g></g></g><g><g><g fill="rgb(255,255,255)" fill-opacity="1.0" stroke-width="0.0"><g fill="rgb(255,255,255)" fill-opacity="1.0"><g fill="rgb(255,255,255)" fill-opacity="1.0"><path d="M 300.0,280.0 l -1.1102230246251565e-14,-40.0 h -100.0 l -1.1102230246251565e-14,40.0 Z" /></g></g></g><g fill="rgb(255,255,255)" fill-opacity="1.0" font-size="16.0px" font-family="Trebuchet MS"><g fill="rgb(255,255,255)" fill-opacity="1.0"><text transform="matrix(1.0,0.0,0.0,1.0,250.0,260.0)" dominant-baseline="middle" text-anchor="middle" stroke="none"></text></g></g></g><g fill="rgb(255,255,255)" fill-opacity="1.0" stroke-width="0.0"><g fill="rgb(255,255,255)" fill-opacity="1.0"><g fill="rgb(255,255,255)" fill-opacity="1.0"><path d="M 200.0,280.0 l -1.1102230246251565e-14,-40.0 h -100.0 l -1.1102230246251565e-14,40.0 Z" /></g></g></g><g fill="rgb(255,255,255)" fill-opacity="1.0" font-size="16.0px" font-family="Trebuchet MS"><g fill="rgb(255,255,255)" fill-opacity="1.0"><text transform="matrix(1.0,0.0,0.0,1.0,150.0,260.0)" dominant-baseline="middle" text-anchor="middle" stroke="none"></text></g></g></g><g stroke-width="1.1593101396951553"><path d="M 100.00000000000001,240.0 v 40.0 " /></g><g stroke-width="0.0"><path d="M 100.00000000000001,280.0 l -1.1102230246251565e-14,-40.0 h -100.0 l -1.1102230246251565e-14,40.0 Z" /></g><g fill="rgb(0,0,0)" fill-opacity="1.0" font-size="16.0px" font-family="Trebuchet MS"><g fill="rgb(0,0,0)" fill-opacity="1.0"><text transform="matrix(1.0,0.0,0.0,1.0,50.0,260.0)" dominant-baseline="middle" text-anchor="middle" stroke="none">1:00</text></g></g></g><g stroke="rgb(128,128,128)" stroke-opacity="1.0" stroke-width="1.1593101396951553"><path d="M 0.0,240.0 h 600.0 " /></g></g><g><g><g><g fill="rgb(0,0,255)" fill-opacity="1.0" stroke-width="0.0"><g fill="rgb(0,0,255)" fill-opacity="1.0"><g fill="rgb(0,0,255)" fill-opacity="1.0"><path d="M 600.0,240.0 l -1.1102230246251565e-14,-40.0 h -100.0 l -1.1102230246251565e-14,40.0 Z" /></g></g></g><g fill="rgb(255,255,255)" fill-opacity="1.0" font-size="16.0px" font-family="Trebuchet MS"><g fill="rgb(255,255,255)" fill-opacity="1.0"><text transform="matrix(1.0,0.0,0.0,1.0,550.0,220.0)" dominant-baseline="middle" text-anchor="middle" stroke="none">AST222 (L)</text></g></g></g><g><g fill="rgb(255,255,255)" fill-opacity="1.0" stroke-width="0.0"><g fill="rgb(255,255,255)" fill-opacity="1.0"><g fill="rgb(255,255,255)" fill-opacity="1.0"><path d="M 500.0,240.0 l -1.1102230246251565e-14,-40.0 h -100.0 l -1.1102230246251565e-14,40.0 Z" /></g></g></g><g fill="rgb(255,255,255)" fill-opacity="1.0" font-size="16.0px" font-family="Trebuchet MS"><g fill="rgb(255,255,255)" fill-opacity="1.0"><text transform="matrix(1.0,0.0,0.0,1.0,450.0,220.0)" dominant-baseline="middle" text-anchor="middle" stroke="none"></text></g></g></g><g fill="rgb(0,0,255)" fill-opacity="1.0" stroke-width="0.0"><g fill="rgb(0,0,255)" fill-opacity="1.0"><g fill="rgb(0,0,255)" fill-opacity="1.0"><path d="M 400.0,240.0 l -1.1102230246251565e-14,-40.0 h -100.0 l -1.1102230246251565e-14,40.0 Z" /></g></g></g><g fill="rgb(255,255,255)" fill-opacity="1.0" font-size="16.0px" font-family="Trebuchet MS"><g fill="rgb(255,255,255)" fill-opacity="1.0"><text transform="matrix(1.0,0.0,0.0,1.0,350.0,220.0)" dominant-baseline="middle" text-anchor="middle" stroke="none">AST222 (L)</text></g></g></g><g><g><g fill="rgb(255,255,255)" fill-opacity="1.0" stroke-width="0.0"><g fill="rgb(255,255,255)" fill-opacity="1.0"><g fill="rgb(255,255,255)" fill-opacity="1.0"><path d="M 300.0,240.0 l -1.1102230246251565e-14,-40.0 h -100.0 l -1.1102230246251565e-14,40.0 Z" /></g></g></g><g fill="rgb(255,255,255)" fill-opacity="1.0" font-size="16.0px" font-family="Trebuchet MS"><g fill="rgb(255,255,255)" fill-opacity="1.0"><text transform="matrix(1.0,0.0,0.0,1.0,250.0,220.0)" dominant-baseline="middle" text-anchor="middle" stroke="none"></text></g></g></g><g fill="rgb(0,0,255)" fill-opacity="1.0" stroke-width="0.0"><g fill="rgb(0,0,255)" fill-opacity="1.0"><g fill="rgb(0,0,255)" fill-opacity="1.0"><path d="M 200.0,240.0 l -1.1102230246251565e-14,-40.0 h -100.0 l -1.1102230246251565e-14,40.0 Z" /></g></g></g><g fill="rgb(255,255,255)" fill-opacity="1.0" font-size="16.0px" font-family="Trebuchet MS"><g fill="rgb(255,255,255)" fill-opacity="1.0"><text transform="matrix(1.0,0.0,0.0,1.0,150.0,220.0)" dominant-baseline="middle" text-anchor="middle" stroke="none">AST222 (L)</text></g></g></g><g stroke-width="1.1593101396951553"><path d="M 100.00000000000001,200.0 v 40.0 " /></g><g stroke-width="0.0"><path d="M 100.00000000000001,240.0 l -1.1102230246251565e-14,-40.0 h -100.0 l -1.1102230246251565e-14,40.0 Z" /></g><g fill="rgb(0,0,0)" fill-opacity="1.0" font-size="16.0px" font-family="Trebuchet MS"><g fill="rgb(0,0,0)" fill-opacity="1.0"><text transform="matrix(1.0,0.0,0.0,1.0,50.0,220.0)" dominant-baseline="middle" text-anchor="middle" stroke="none">12:00</text></g></g></g><g stroke="rgb(128,128,128)" stroke-opacity="1.0" stroke-width="1.1593101396951553"><path d="M 0.0,200.0 h 600.0 " /></g></g><g><g><g><g><g><g fill="rgb(255,255,255)" fill-opacity="1.0" stroke-width="0.0"><g fill="rgb(255,255,255)" fill-opacity="1.0"><g fill="rgb(255,255,255)" fill-opacity="1.0"><path d="M 600.0,200.0 l -1.1102230246251565e-14,-40.0 h -100.0 l -1.1102230246251565e-14,40.0 Z" /></g></g></g><g fill="rgb(255,255,255)" fill-opacity="1.0" font-size="16.0px" font-family="Trebuchet MS"><g fill="rgb(255,255,255)" fill-opacity="1.0"><text transform="matrix(1.0,0.0,0.0,1.0,550.0,180.0)" dominant-baseline="middle" text-anchor="middle" stroke="none"></text></g></g></g><g><g fill="rgb(255,255,255)" fill-opacity="1.0" stroke-width="0.0"><g fill="rgb(255,255,255)" fill-opacity="1.0"><g fill="rgb(255,255,255)" fill-opacity="1.0"><path d="M 500.0,200.0 l -1.1102230246251565e-14,-40.0 h -100.0 l -1.1102230246251565e-14,40.0 Z" /></g></g></g><g fill="rgb(255,255,255)" fill-opacity="1.0" font-size="16.0px" font-family="Trebuchet MS"><g fill="rgb(255,255,255)" fill-opacity="1.0"><text transform="matrix(1.0,0.0,0.0,1.0,450.0,180.0)" dominant-baseline="middle" text-anchor="middle" stroke="none"></text></g></g></g><g fill="rgb(255,255,255)" fill-opacity="1.0" stroke-width="0.0"><g fill="rgb(255,255,255)" fill-opacity="1.0"><g fill="rgb(255,255,255)" fill-opacity="1.0"><path d="M 400.0,200.0 l -1.1102230246251565e-14,-40.0 h -100.0 l -1.1102230246251565e-14,40.0 Z" /></g></g></g><g fill="rgb(255,255,255)" fill-opacity="1.0" font-size="16.0px" font-family="Trebuchet MS"><g fill="rgb(255,255,255)" fill-opacity="1.0"><text transform="matrix(1.0,0.0,0.0,1.0,350.0,180.0)" dominant-baseline="middle" text-anchor="middle" stroke="none"></text></g></g></g><g><g><g fill="rgb(255,255,255)" fill-opacity="1.0" stroke-width="0.0"><g fill="rgb(255,255,255)" fill-opacity="1.0"><g fill="rgb(255,255,255)" fill-opacity="1.0"><path d="M 300.0,200.0 l -1.1102230246251565e-14,-40.0 h -100.0 l -1.1102230246251565e-14,40.0 Z" /></g></g></g><g fill="rgb(255,255,255)" fill-opacity="1.0" font-size="16.0px" font-family="Trebuchet MS"><g fill="rgb(255,255,255)" fill-opacity="1.0"><text transform="matrix(1.0,0.0,0.0,1.0,250.0,180.0)" dominant-baseline="middle" text-anchor="middle" stroke="none"></text></g></g></g><g fill="rgb(255,255,255)" fill-opacity="1.0" stroke-width="0.0"><g fill="rgb(255,255,255)" fill-opacity="1.0"><g fill="rgb(255,255,255)" fill-opacity="1.0"><path d="M 200.0,200.0 l -1.1102230246251565e-14,-40.0 h -100.0 l -1.1102230246251565e-14,40.0 Z" /></g></g></g><g fill="rgb(255,255,255)" fill-opacity="1.0" font-size="16.0px" font-family="Trebuchet MS"><g fill="rgb(255,255,255)" fill-opacity="1.0"><text transform="matrix(1.0,0.0,0.0,1.0,150.0,180.0)" dominant-baseline="middle" text-anchor="middle" stroke="none"></text></g></g></g><g stroke-width="1.1593101396951553"><path d="M 100.00000000000001,160.0 v 40.0 " /></g><g stroke-width="0.0"><path d="M 100.00000000000001,200.0 l -1.1102230246251565e-14,-40.0 h -100.0 l -1.1102230246251565e-14,40.0 Z" /></g><g fill="rgb(0,0,0)" fill-opacity="1.0" font-size="16.0px" font-family="Trebuchet MS"><g fill="rgb(0,0,0)" fill-opacity="1.0"><text transform="matrix(1.0,0.0,0.0,1.0,50.0,180.0)" dominant-baseline="middle" text-anchor="middle" stroke="none">11:00</text></g></g></g><g stroke="rgb(128,128,128)" stroke-opacity="1.0" stroke-width="1.1593101396951553"><path d="M 0.0,160.0 h 600.0 " /></g></g><g><g><g><g fill="rgb(255,255,255)" fill-opacity="1.0" stroke-width="0.0"><g fill="rgb(255,255,255)" fill-opacity="1.0"><g fill="rgb(255,255,255)" fill-opacity="1.0"><path d="M 600.0,160.0 l -1.1102230246251565e-14,-40.0 h -100.0 l -1.1102230246251565e-14,40.0 Z" /></g></g></g><g fill="rgb(255,255,255)" fill-opacity="1.0" font-size="16.0px" font-family="Trebuchet MS"><g fill="rgb(255,255,255)" fill-opacity="1.0"><text transform="matrix(1.0,0.0,0.0,1.0,550.0,140.0)" dominant-baseline="middle" text-anchor="middle" stroke="none"></text></g></g></g><g><g fill="rgb(255,255,255)" fill-opacity="1.0" stroke-width="0.0"><g fill="rgb(255,255,255)" fill-opacity="1.0"><g fill="rgb(255,255,255)" fill-opacity="1.0"><path d="M 500.0,160.0 l -1.1102230246251565e-14,-40.0 h -100.0 l -1.1102230246251565e-14,40.0 Z" /></g></g></g><g fill="rgb(255,255,255)" fill-opacity="1.0" font-size="16.0px" font-family="Trebuchet MS"><g fill="rgb(255,255,255)" fill-opacity="1.0"><text transform="matrix(1.0,0.0,0.0,1.0,450.0,140.0)" dominant-baseline="middle" text-anchor="middle" stroke="none"></text></g></g></g><g fill="rgb(255,255,255)" fill-opacity="1.0" stroke-width="0.0"><g fill="rgb(255,255,255)" fill-opacity="1.0"><g fill="rgb(255,255,255)" fill-opacity="1.0"><path d="M 400.0,160.0 l -1.1102230246251565e-14,-40.0 h -100.0 l -1.1102230246251565e-14,40.0 Z" /></g></g></g><g fill="rgb(255,255,255)" fill-opacity="1.0" font-size="16.0px" font-family="Trebuchet MS"><g fill="rgb(255,255,255)" fill-opacity="1.0"><text transform="matrix(1.0,0.0,0.0,1.0,350.0,140.0)" dominant-baseline="middle" text-anchor="middle" stroke="none"></text></g></g></g><g><g><g fill="rgb(255,255,255)" fill-opacity="1.0" stroke-width="0.0"><g fill="rgb(255,255,255)" fill-opacity="1.0"><g fill="rgb(255,255,255)" fill-opacity="1.0"><path d="M 300.0,160.0 l -1.1102230246251565e-14,-40.0 h -100.0 l -1.1102230246251565e-14,40.0 Z" /></g></g></g><g fill="rgb(255,255,255)" fill-opacity="1.0" font-size="16.0px" font-family="Trebuchet MS"><g fill="rgb(255,255,255)" fill-opacity="1.0"><text transform="matrix(1.0,0.0,0.0,1.0,250.0,140.0)" dominant-baseline="middle" text-anchor="middle" stroke="none"></text></g></g></g><g fill="rgb(255,255,255)" fill-opacity="1.0" stroke-width="0.0"><g fill="rgb(255,255,255)" fill-opacity="1.0"><g fill="rgb(255,255,255)" fill-opacity="1.0"><path d="M 200.0,160.0 l -1.1102230246251565e-14,-40.0 h -100.0 l -1.1102230246251565e-14,40.0 Z" /></g></g></g><g fill="rgb(255,255,255)" fill-opacity="1.0" font-size="16.0px" font-family="Trebuchet MS"><g fill="rgb(255,255,255)" fill-opacity="1.0"><text transform="matrix(1.0,0.0,0.0,1.0,150.0,140.0)" dominant-baseline="middle" text-anchor="middle" stroke="none"></text></g></g></g><g stroke-width="1.1593101396951553"><path d="M 100.00000000000001,120.0 v 40.0 " /></g><g stroke-width="0.0"><path d="M 100.00000000000001,160.0 l -1.1102230246251565e-14,-40.0 h -100.0 l -1.1102230246251565e-14,40.0 Z" /></g><g fill="rgb(0,0,0)" fill-opacity="1.0" font-size="16.0px" font-family="Trebuchet MS"><g fill="rgb(0,0,0)" fill-opacity="1.0"><text transform="matrix(1.0,0.0,0.0,1.0,50.0,140.0)" dominant-baseline="middle" text-anchor="middle" stroke="none">10:00</text></g></g></g><g stroke="rgb(128,128,128)" stroke-opacity="1.0" stroke-width="1.1593101396951553"><path d="M 0.0,120.0 h 600.0 " /></g></g><g><g><g><g><g fill="rgb(255,255,255)" fill-opacity="1.0" stroke-width="0.0"><g fill="rgb(255,255,255)" fill-opacity="1.0"><g fill="rgb(255,255,255)" fill-opacity="1.0"><path d="M 600.0,120.0 l -1.1102230246251565e-14,-40.0 h -100.0 l -1.1102230246251565e-14,40.0 Z" /></g></g></g><g fill="rgb(255,255,255)" fill-opacity="1.0" font-size="16.0px" font-family="Trebuchet MS"><g fill="rgb(255,255,255)" fill-opacity="1.0"><text transform="matrix(1.0,0.0,0.0,1.0,550.0,100.0)" dominant-baseline="middle" text-anchor="middle" stroke="none"></text></g></g></g><g><g fill="rgb(255,255,255)" fill-opacity="1.0" stroke-width="0.0"><g fill="rgb(255,255,255)" fill-opacity="1.0"><g fill="rgb(255,255,255)" fill-opacity="1.0"><path d="M 500.0,120.0 l -1.1102230246251565e-14,-40.0 h -100.0 l -1.1102230246251565e-14,40.0 Z" /></g></g></g><g fill="rgb(255,255,255)" fill-opacity="1.0" font-size="16.0px" font-family="Trebuchet MS"><g fill="rgb(255,255,255)" fill-opacity="1.0"><text transform="matrix(1.0,0.0,0.0,1.0,450.0,100.0)" dominant-baseline="middle" text-anchor="middle" stroke="none"></text></g></g></g><g fill="rgb(255,255,255)" fill-opacity="1.0" stroke-width="0.0"><g fill="rgb(255,255,255)" fill-opacity="1.0"><g fill="rgb(255,255,255)" fill-opacity="1.0"><path d="M 400.0,120.0 l -1.1102230246251565e-14,-40.0 h -100.0 l -1.1102230246251565e-14,40.0 Z" /></g></g></g><g fill="rgb(255,255,255)" fill-opacity="1.0" font-size="16.0px" font-family="Trebuchet MS"><g fill="rgb(255,255,255)" fill-opacity="1.0"><text transform="matrix(1.0,0.0,0.0,1.0,350.0,100.0)" dominant-baseline="middle" text-anchor="middle" stroke="none"></text></g></g></g><g><g><g fill="rgb(255,255,255)" fill-opacity="1.0" stroke-width="0.0"><g fill="rgb(255,255,255)" fill-opacity="1.0"><g fill="rgb(255,255,255)" fill-opacity="1.0"><path d="M 300.0,120.0 l -1.1102230246251565e-14,-40.0 h -100.0 l -1.1102230246251565e-14,40.0 Z" /></g></g></g><g fill="rgb(255,255,255)" fill-opacity="1.0" font-size="16.0px" font-family="Trebuchet MS"><g fill="rgb(255,255,255)" fill-opacity="1.0"><text transform="matrix(1.0,0.0,0.0,1.0,250.0,100.0)" dominant-baseline="middle" text-anchor="middle" stroke="none"></text></g></g></g><g fill="rgb(255,255,255)" fill-opacity="1.0" stroke-width="0.0"><g fill="rgb(255,255,255)" fill-opacity="1.0"><g fill="rgb(255,255,255)" fill-opacity="1.0"><path d="M 200.0,120.0 l -1.1102230246251565e-14,-40.0 h -100.0 l -1.1102230246251565e-14,40.0 Z" /></g></g></g><g fill="rgb(255,255,255)" fill-opacity="1.0" font-size="16.0px" font-family="Trebuchet MS"><g fill="rgb(255,255,255)" fill-opacity="1.0"><text transform="matrix(1.0,0.0,0.0,1.0,150.0,100.0)" dominant-baseline="middle" text-anchor="middle" stroke="none"></text></g></g></g><g stroke-width="1.1593101396951553"><path d="M 100.00000000000001,80.0 v 40.0 " /></g><g stroke-width="0.0"><path d="M 100.00000000000001,120.0 l -1.1102230246251565e-14,-40.0 h -100.0 l -1.1102230246251565e-14,40.0 Z" /></g><g fill="rgb(0,0,0)" fill-opacity="1.0" font-size="16.0px" font-family="Trebuchet MS"><g fill="rgb(0,0,0)" fill-opacity="1.0"><text transform="matrix(1.0,0.0,0.0,1.0,50.0,100.0)" dominant-baseline="middle" text-anchor="middle" stroke="none">9:00</text></g></g></g><g stroke="rgb(128,128,128)" stroke-opacity="1.0" stroke-width="1.1593101396951553"><path d="M 0.0,80.0 h 600.0 " /></g></g><g><g><g><g fill="rgb(255,255,255)" fill-opacity="1.0" stroke-width="0.0"><g fill="rgb(255,255,255)" fill-opacity="1.0"><g fill="rgb(255,255,255)" fill-opacity="1.0"><path d="M 600.0,80.0 l -1.1102230246251565e-14,-40.0 h -100.0 l -1.1102230246251565e-14,40.0 Z" /></g></g></g><g fill="rgb(255,255,255)" fill-opacity="1.0" font-size="16.0px" font-family="Trebuchet MS"><g fill="rgb(255,255,255)" fill-opacity="1.0"><text transform="matrix(1.0,0.0,0.0,1.0,550.0,60.0)" dominant-baseline="middle" text-anchor="middle" stroke="none"></text></g></g></g><g><g fill="rgb(255,255,255)" fill-opacity="1.0" stroke-width="0.0"><g fill="rgb(255,255,255)" fill-opacity="1.0"><g fill="rgb(255,255,255)" fill-opacity="1.0"><path d="M 500.0,80.0 l -1.1102230246251565e-14,-40.0 h -100.0 l -1.1102230246251565e-14,40.0 Z" /></g></g></g><g fill="rgb(255,255,255)" fill-opacity="1.0" font-size="16.0px" font-family="Trebuchet MS"><g fill="rgb(255,255,255)" fill-opacity="1.0"><text transform="matrix(1.0,0.0,0.0,1.0,450.0,60.0)" dominant-baseline="middle" text-anchor="middle" stroke="none"></text></g></g></g><g fill="rgb(255,255,255)" fill-opacity="1.0" stroke-width="0.0"><g fill="rgb(255,255,255)" fill-opacity="1.0"><g fill="rgb(255,255,255)" fill-opacity="1.0"><path d="M 400.0,80.0 l -1.1102230246251565e-14,-40.0 h -100.0 l -1.1102230246251565e-14,40.0 Z" /></g></g></g><g fill="rgb(255,255,255)" fill-opacity="1.0" font-size="16.0px" font-family="Trebuchet MS"><g fill="rgb(255,255,255)" fill-opacity="1.0"><text transform="matrix(1.0,0.0,0.0,1.0,350.0,60.0)" dominant-baseline="middle" text-anchor="middle" stroke="none"></text></g></g></g><g><g><g fill="rgb(255,255,255)" fill-opacity="1.0" stroke-width="0.0"><g fill="rgb(255,255,255)" fill-opacity="1.0"><g fill="rgb(255,255,255)" fill-opacity="1.0"><path d="M 300.0,80.0 l -1.1102230246251565e-14,-40.0 h -100.0 l -1.1102230246251565e-14,40.0 Z" /></g></g></g><g fill="rgb(255,255,255)" fill-opacity="1.0" font-size="16.0px" font-family="Trebuchet MS"><g fill="rgb(255,255,255)" fill-opacity="1.0"><text transform="matrix(1.0,0.0,0.0,1.0,250.0,60.0)" dominant-baseline="middle" text-anchor="middle" stroke="none"></text></g></g></g><g fill="rgb(255,255,255)" fill-opacity="1.0" stroke-width="0.0"><g fill="rgb(255,255,255)" fill-opacity="1.0"><g fill="rgb(255,255,255)" fill-opacity="1.0"><path d="M 200.0,80.0 l -1.1102230246251565e-14,-40.0 h -100.0 l -1.1102230246251565e-14,40.0 Z" /></g></g></g><g fill="rgb(255,255,255)" fill-opacity="1.0" font-size="16.0px" font-family="Trebuchet MS"><g fill="rgb(255,255,255)" fill-opacity="1.0"><text transform="matrix(1.0,0.0,0.0,1.0,150.0,60.0)" dominant-baseline="middle" text-anchor="middle" stroke="none"></text></g></g></g><g stroke-width="1.1593101396951553"><path d="M 100.00000000000001,40.0 v 40.0 " /></g><g stroke-width="0.0"><path d="M 100.00000000000001,80.0 l -1.1102230246251565e-14,-40.0 h -100.0 l -1.1102230246251565e-14,40.0 Z" /></g><g fill="rgb(0,0,0)" fill-opacity="1.0" font-size="16.0px" font-family="Trebuchet MS"><g fill="rgb(0,0,0)" fill-opacity="1.0"><text transform="matrix(1.0,0.0,0.0,1.0,50.0,60.0)" dominant-baseline="middle" text-anchor="middle" stroke="none">8:00</text></g></g></g><g stroke="rgb(255,192,203)" stroke-opacity="1.0" stroke-width="2.3186202793903106"><path d="M 0.0,40.0 h 600.0 " /></g><g><g><g><g stroke-width="0.0"><path d="M 600.0,40.0 l -1.1102230246251565e-14,-40.0 h -100.0 l -1.1102230246251565e-14,40.0 Z" /></g><g fill="rgb(0,0,0)" fill-opacity="1.0" font-size="16.0px" font-family="Trebuchet MS"><g fill="rgb(0,0,0)" fill-opacity="1.0"><text transform="matrix(1.0,0.0,0.0,1.0,550.0,20.0)" dominant-baseline="middle" text-anchor="middle" stroke="none">Fri</text></g></g></g><g stroke-width="0.0"><path d="M 500.0,40.0 l -1.1102230246251565e-14,-40.0 h -100.0 l -1.1102230246251565e-14,40.0 Z" /></g><g fill="rgb(0,0,0)" fill-opacity="1.0" font-size="16.0px" font-family="Trebuchet MS"><g fill="rgb(0,0,0)" fill-opacity="1.0"><text transform="matrix(1.0,0.0,0.0,1.0,450.0,20.0)" dominant-baseline="middle" text-anchor="middle" stroke="none">Thu</text></g></g></g><g><g><g stroke-width="0.0"><path d="M 400.0,40.0 l -1.1102230246251565e-14,-40.0 h -100.0 l -1.1102230246251565e-14,40.0 Z" /></g><g fill="rgb(0,0,0)" fill-opacity="1.0" font-size="16.0px" font-family="Trebuchet MS"><g fill="rgb(0,0,0)" fill-opacity="1.0"><text transform="matrix(1.0,0.0,0.0,1.0,350.0,20.0)" dominant-baseline="middle" text-anchor="middle" stroke="none">Wed</text></g></g></g><g stroke-width="0.0"><path d="M 300.0,40.0 l -1.1102230246251565e-14,-40.0 h -100.0 l -1.1102230246251565e-14,40.0 Z" /></g><g fill="rgb(0,0,0)" fill-opacity="1.0" font-size="16.0px" font-family="Trebuchet MS"><g fill="rgb(0,0,0)" fill-opacity="1.0"><text transform="matrix(1.0,0.0,0.0,1.0,250.0,20.0)" dominant-baseline="middle" text-anchor="middle" stroke="none">Tue</text></g></g></g><g><g stroke-width="0.0"><path d="M 200.0,40.0 l -1.1102230246251565e-14,-40.0 h -100.0 l -1.1102230246251565e-14,40.0 Z" /></g><g fill="rgb(0,0,0)" fill-opacity="1.0" font-size="16.0px" font-family="Trebuchet MS"><g fill="rgb(0,0,0)" fill-opacity="1.0"><text transform="matrix(1.0,0.0,0.0,1.0,150.0,20.0)" dominant-baseline="middle" text-anchor="middle" stroke="none">Mon</text></g></g></g><g stroke-width="0.0"><path d="M 100.00000000000001,40.0 l -1.1102230246251565e-14,-40.0 h -100.0 l -1.1102230246251565e-14,40.0 Z" /></g><g fill="rgb(0,0,0)" fill-opacity="1.0" font-size="16.0px" font-family="Trebuchet MS"><g fill="rgb(0,0,0)" fill-opacity="1.0"><text transform="matrix(1.0,0.0,0.0,1.0,50.0,20.0)" dominant-baseline="middle" text-anchor="middle" stroke="none">Fall</text></g></g></g></g></g></g></svg>