<svg xmlns="http://www.w3.org/2000/svg"
     xmlns:xlink="http://www.w3.org/1999/xlink"
     id="graphRootSVG"
     viewBox="150 -300 1210 660"
     encoding="UTF-8">
<defs>
    <marker id="arrow" viewBox="0 0 10 10" refX="1" refY="5" markerUnits="strokeWidth" orient="auto" markerWidth="10" markerHeight="10">
        <polyline points="0,1 10,5 0,9" fill="black" />
    </marker>
</defs>
<!--<g inkscape:groupmode="layer" id="layer3" inkscape:label="Filled regions">
    <polygon transform="translate(125 -330)" fill="#2f692b" points=" 872,541 872,423 845,423 822,423 791,423 740,423 740,237 740,160 845,160 930,160 1038,160 1037,345 1037,502 1037,693 953,693 872,693 872,541"></polygon>
    <polygon transform="translate(125 -330)" fill="#2fff2b" points=" 740,551 740,423 800,423 872,423 872,551 872,693 800,693 740,693"></polygon>
    <polygon transform="translate(125 -330)" fill="#c6ff20" points=" 476,553 476,448 608,448 740,448 740,553 740,693 608,693 476,693"></polygon>
    <polygon transform="translate(125 -330)" fill="#cecece" points=" 476,389 476,330 476,245 476,160 686,160 740,160 740,304 740,448 632,448 476,448"></polygon>
    <polygon transform="translate(125 -330)" fill="#cecece" points=" 298,563 298,470 298,442 324,442 324,292 324,151 324,151 324,62 381,62 476,62 476,360 476,693 394,693 298,693"></polygon>
    <polygon transform="translate(125 -330)" fill="#cecece" points=" 199,675 199,656 218,656 231,656 231,519 231,382 280,382 324,382 324,405 324,442 298,442 298,494 298,594 298,693 244,693 199,693"></polygon>
    <polygon transform="translate(125 -330)" fill="#cecece" points=" 25,465 25,260 118,260 231,260 231,285 231,358 172,358 141,358 141,490 141,693 78,693 25,693"></polygon>
    <polygon transform="translate(125 -330)" fill="#cecece" points=" 141,504 141,358 188,358 231,358 231,504 231,656 199,656 199,693 141,693 141,656"></polygon>
  </g>-->
<!-- Nodes -->
<g id="nodes">

<g id="CSC438" class="node" data-group="theory">
    <rect x="545.5955" y="290.6064" width="40" rx="4" ry="4" height="32"/>
    <text x="565.5955" y="312.8916">438</text>
</g>
<g id="CSC463" class="node" data-group="theory">
    <rect x="435.4041" y="136.2453" width="40" rx="4" ry="4" height="32"/>
    <text x="455.4041" y="158.5304">463</text>
</g>
<g id="CSC448" class="node" data-group="theory">
    <rect x="435.4041" y="290.6064" width="40" rx="4" ry="4" height="32"/>
    <text x="455.4041" y="312.8916">448</text>
</g>
<g id="CSC165" class="node" data-group="theory">
    <rect x="465.568" y="-261.4223" width="66" rx="4" ry="4" height="32"/>
    <text x="498.568" y="-239.1371">165/240</text>
</g>
<g id="CSC236" class="node" data-group="theory">
    <rect x="465.568" y="-148.4075" width="66" rx="4" ry="4" height="32"/>
    <text x="498.568" y="-126.1224">236/240</text>
</g>
<g id="CSC263" class="node" data-group="theory">
    <rect x="465.568" y="-59.778" width="66" rx="4" ry="4" height="32"/>
    <text x="498.568" y="-37.4929">263/265</text>
</g>
<g id="CSC373" class="node" data-group="theory">
    <rect x="478" y="23.6881" width="40" rx="4" ry="4" height="32"/>
    <text x="498" y="45.9733">373</text>
</g>
<g id="CSC108" class="node" data-group="core">
    <rect x="607" y="-261.4223" width="40" rx="4" ry="4" height="32"/>
    <text x="627" y="-239.1371">108</text>
</g>
<g id="CSC148" class="node" data-group="core">
    <rect x="607" y="-199.4223" width="40" rx="4" ry="4" height="32"/>
    <text x="627" y="-177.1371">148</text>
</g>
<g id="CSC207" class="node" data-group="se">
    <rect x="790" y="-148.4075" width="40" rx="4" ry="4" height="32"/>
    <text x="810" y="-126.1224">207</text>
</g>
<g id="CSC209" class="node" data-group="systems">
    <rect x="933" y="-59.778" width="40" rx="4" ry="4" height="32"/>
    <text x="953" y="-37.4929">209</text>
</g>
<g id="CSC258" class="node" data-group="systems">
    <rect x="1006" y="-148.4075" width="40" rx="4" ry="4" height="32"/>
    <text x="1026" y="-126.1224">258</text>
</g>
<g id="CSC369" class="node" data-group="systems">
    <rect x="967" y="23.6881" width="40" rx="4" ry="4" height="32"/>
    <text x="987" y="45.9733">369</text>
</g>
<g id="CSC318" class="node" data-group="hci">
    <rect x="194" y="74.2453" width="40" rx="4" ry="4" height="32"/>
    <text x="214" y="96.5304">318</text>
</g>
<g id="CSC320" class="node" data-group="graphics">
    <rect x="287" y="75.3633" width="40" rx="4" ry="4" height="32"/>
    <text x="307" y="97.6485">320</text>
</g>
<g id="CSC418" class="node" data-group="graphics">
    <rect x="287" y="136.2453" width="40" rx="4" ry="4" height="32"/>
    <text x="307" y="158.5304">418</text>
</g>
<g id="CSC454" class="node" data-group="hci">
    <rect x="194" y="290.6064" width="40" rx="4" ry="4" height="32"/>
    <text x="214" y="312.8916">454</text>
</g>
<g id="CSC300" class="node" data-group="hci">
    <rect x="194" y="4.298" width="40" rx="4" ry="4" height="32"/>
    <text x="214" y="26.5831">300</text>
</g>
<g id="CSC200" class="node" data-group="hci">
    <rect x="194" y="-59.778" width="40" rx="4" ry="4" height="32"/>
    <text x="214" y="-37.4929">200</text>
</g>
<g id="CSC404" class="node" data-group="hci">
    <rect x="194" y="224.3459" width="40" rx="4" ry="4" height="32"/>
    <text x="214" y="246.6311">404</text>
</g>
<g id="CSC428" class="node" data-group="hci">
    <rect x="194" y="136.2453" width="40" rx="4" ry="4" height="32"/>
    <text x="214" y="158.5304">428</text>
</g>
<g id="CSC336" class="node" data-group="num">
    <rect x="395" y="75.3633" width="40" rx="4" ry="4" height="32"/>
    <text x="415" y="97.6485">336</text>
</g>
<g id="CSC446" class="node" data-group="num">
    <rect x="360" y="222.2894" width="40" rx="4" ry="4" height="32"/>
    <text x="380" y="244.5746">446</text>
</g>
<g id="CSC456" class="node" data-group="num">
    <rect x="360" y="290.6064" width="40" rx="4" ry="4" height="32"/>
    <text x="380" y="312.8916">456</text>
</g>
<g id="CSC436" class="node" data-group="num">
    <rect x="360" y="134.4732" width="40" rx="4" ry="4" height="32"/>
    <text x="380" y="156.7584">436</text>
</g>
<g id="CSC384" class="node" data-group="ai">
    <rect x="667" y="192.4732" width="40" rx="4" ry="4" height="32"/>
    <text x="687" y="214.7584">384</text>
</g>
<g id="CSC486" class="node" data-group="ai">
    <rect x="667" y="290.6064" width="40" rx="4" ry="4" height="32"/>
    <text x="687" y="312.8916">486</text>
</g>
<g id="CSC401" class="node" data-group="ai">
    <rect x="747" y="192.4732" width="40" rx="4" ry="4" height="32"/>
    <text x="767" y="214.7584">401</text>
</g>
<g id="CSC485" class="node" data-group="ai">
    <rect x="832" y="192.4732" width="40" rx="4" ry="4" height="32"/>
    <text x="852" y="214.7584">485</text>
</g>
<g id="CSC321" class="node" data-group="ai">
    <rect x="607" y="76.2453" width="40" rx="4" ry="4" height="32"/>
    <text x="627" y="98.5304">321</text>
</g>
<g id="CSC411" class="node" data-group="ai">
    <rect x="607" y="222.2894" width="40" rx="4" ry="4" height="32"/>
    <text x="627" y="244.5746">411</text>
</g>
<g id="CSC301" class="node" data-group="se">
    <rect x="790" y="23.6881" width="40" rx="4" ry="4" height="32"/>
    <text x="810" y="45.9733">301</text>
</g>
<g id="CSC302" class="node" data-group="se">
    <rect x="790" y="80.1049" width="40" rx="4" ry="4" height="32"/>
    <text x="810" y="102.39">302</text>
</g>
<g id="CSC410" class="node" data-group="se">
    <rect x="706" y="78.2453" width="40" rx="4" ry="4" height="32"/>
    <text x="726" y="99.5304">410</text>
</g>
<g id="CSC465" class="node" data-group="se">
    <rect x="656.7" y="78.2453" width="40" rx="4" ry="4" height="32"/>
    <text x="676.7" y="99.5304">465</text>
</g>
<g id="CSC324" class="node" data-group="theory">
    <rect x="545" y="76.6881" width="40" rx="4" ry="4" height="32"/>
    <text x="565" y="98.9733">324</text>
</g>
<g id="CSC488" class="node" data-group="systems">
    <rect x="1140" y="192.4732" width="40" rx="4" ry="4" height="32"/>
    <text x="1160" y="214.7584">488</text>
</g>
<g id="ECE489" class="node" data-group="systems">
    <rect x="1140" y="290.6064" width="40" rx="4" ry="4" height="37"/>
    <text x="1160" y="305.5303">ECE</text>
    <text x="1160" y="322.6816">489</text>
</g>
<g id="CSC469" class="node" data-group="systems">
    <rect x="1045" y="290.6064" width="40" rx="4" ry="4" height="32"/>
    <text x="1065" y="312.8916">469</text>
</g>
<g id="CSC358" class="node" data-group="systems">
    <rect x="1045" y="23.6881" width="40" rx="4" ry="4" height="32"/>
    <text x="1065" y="45.9733">358</text>
</g>
<g id="CSC458" class="node" data-group="systems">
    <rect x="1045" y="80.1049" width="40" rx="4" ry="4" height="32"/>
    <text x="1065" y="102.39">458</text>
</g>
<g id="ECE385" class="node" data-group="systems">
    <rect x="1045" y="192.4732" width="40" rx="4" ry="4" height="37"/>
    <text x="1065" y="207.397">ECE</text>
    <text x="1065" y="224.5484">385</text>
</g>
<g id="CSC309" class="node" data-group="dbweb">
    <rect x="933" y="222.2894" width="40" rx="4" ry="4" height="32"/>
    <text x="953" y="244.5746">309</text>
</g>
<g id="CSC343" class="node" data-group="dbweb">
    <rect x="894" y="136.5216" width="40" rx="4" ry="4" height="32"/>
    <text x="914" y="158.8068">343</text>
</g>
<g id="CSC443" class="node" data-group="dbweb">
    <rect x="884" y="290.6064" width="40" rx="4" ry="4" height="32"/>
    <text x="904" y="312.8916">443</text>
</g>
<g id="CSC494" class="node" data-group="core">
    <rect x="1210" y="270.1562" width="40" rx="4" ry="4" height="32"/>
    <text x="1230" y="292.4413">494</text>
</g>
<g id="CSC495" class="node" data-group="core">
    <rect x="1266" y="270.1562" width="40" rx="4" ry="4" height="32"/>
    <text x="1286" y="292.4413">495</text>
</g>
<g id="CSC490" class="node" data-group="core">
    <rect x="1210" y="222.2894" width="40" rx="4" ry="4" height="32"/>
    <text x="1230" y="244.5746">490</text>
</g>
<g id="CSC491" class="node" data-group="core">
    <rect x="1266" y="222.2894" width="40" rx="4" ry="4" height="32"/>
    <text x="1286" y="244.5746">491</text>
</g>
<g  id="Calc1" class="node" data-group="core">
    <rect x="317" y="-261.4223" width="62" rx="4" ry="4" height="32"/>
    <text x="348" y="-239.1371">Calc1</text>
</g>
<g id="Sta1" class="node" data-group="core">
    <rect x="192" y="-199.4223" width="50" rx="4" ry="4" height="32"/>
    <text x="217" y="-177.1371">Sta1</text>
</g>
<g id="Sta2" class="node" data-group="core">
    <rect x="192" y="-137.4223" width="50" rx="4" ry="4" height="32"/>
    <text x="217" y="-115.1371">Sta2</text>
</g>
<g id="CSC412" class="node" data-group="ai">
    <rect x="607" y="290.6064" width="40" rx="4" ry="4" height="32"/>
    <text x="627" y="312.8916">412</text>
</g>
<g id="CSC420" class="node" data-group="graphics">
    <rect x="287" y="290.6064" width="40" rx="4" ry="4" height="32"/>
    <text x="307" y="313.0908">420</text>
</g>
<g id="CSC104" class="node" data-group="core">
    <rect x="704" y="-261.4223" width="40" rx="4" ry="4" height="32"/>
    <text x="724" y="-239.1371">104</text>
</g>
<g id="CSC120" class="node" data-group="core">
    <rect x="790" y="-261.4223" width="40" rx="4" ry="4" height="32"/>
    <text x="810" y="-239.1371">120</text>
</g>
<g id="Lin1" class="node" data-group="core">
    <rect x="272" y="-137.4223" width="50" rx="4" ry="4" height="32"/>
    <text x="297" y="-115.1371">Lin1</text>
</g>
<g id="CSC372" class="node" data-group="systems">
    <rect x="1046" y="136.5216" width="40" rx="4" ry="4" height="32"/>
    <text x="1066" y="158.8068">372</text>
</g>
<g id="CSC310" class="node" data-group="theory">
    <rect x="545" y="25.3633" width="40" rx="4" ry="4" height="32"/>
    <text x="565" y="47.6485">310</text>
</g>
</g>


<!-- hybrids -->
<g>
    <g id="hybrid1" class="hybrid">
        <rect x="160" width="55" height="28" y="180.2956"/>
        <text x="187.5" y="192.0983">301/318/</text>
        <text x="187.5" y="204.3493">384/418</text>
    </g>
    <g id="hybrid2" class="hybrid">
        <rect x="1100" width="27" height="24" y="-55.778"/>
        <text x="1113.5" y="-39.8498">263</text>
    </g>
    <g id="hybrid3" class="hybrid">
        <rect x="272" width="72" height="28" y="196.4732"/>
        <text x="308" y="207.2759">336/373/463,</text>
        <text x="308" y="219.5269">Calc1</text>
    </g>
    <g id="hybrid4" class="hybrid">
        <rect x="1206" width="27" height="24" y="143.3476"/>
        <text x="1219.5" y="159.2758">324</text>
    </g>
    <g id="hybrid5" class="hybrid">
        <rect x="826" width="27" height="24" y="253.3551"/>
        <text x="839.5" y="269.2834">373</text>
    </g>
    <g id="hybrid6" class="hybrid">
        <rect x="574" width="27" height="24" y="-83.4169"/>
        <text x="587.5" y="-67.4887">Sta1</text>
    </g>
    <g id="hybrid7" class="hybrid">
        <rect x="650" width="27" height="24" y="-83.4169"/>
        <text x="663.5" y="-67.4887">Lin1</text>
    </g>
    <g id="hybrid8" class="hybrid">
        <rect x="753" width="27" height="24" y="261.6064"/>
        <text x="766.5" y="277.5347">Sta1</text>
    </g>
    <g id="hybrid9" class="hybrid">
        <rect x="510" width="110" height="24" y="182.7716"/>
        <text x="565" y="198">Calc1, Sta1, Sta2</text>
    </g>
    <g id="hybrid10" class="hybrid">
        <rect x="796" width="27" height="24" y="-55.778"/>
        <text x="809.5" y="-39.8498">263</text>
    </g>
    <g id="hybrid11" class="hybrid">
        <rect x="1099" width="27" height="24" y="249.3551"/>
        <text x="1112.5" y="265.2834">236</text>
    </g>
    <g id="hybrid12" class="hybrid">
        <rect x="254" width="27" height="24" y="-55.778"/>
        <text x="267.5" y="-39.8498">209</text>
    </g>
    <g id="hybrid13" class="hybrid">
        <rect x="552" width="27" height="24" y="-19.0449"/>
        <text x="565.5" y="-4.1">148</text>
    </g>
    <g id="hybrid14" class="hybrid">
        <rect x="910" width="27" height="24" y="70.6649"/>
        <text x="923.5" y="86.5931">207</text>
    </g>
    <g id="hybrid15" class="hybrid">
        <rect x="293" width="27" height="24" y="236.6064"/>
        <text x="306.5" y="252.5347">263</text>
    </g>
    <g id="hybrid16" class="hybrid">
        <rect x="864" width="58" height="24" y="31.6881"/>
        <text x="893" y="47.6164">165/Calc1</text>
    </g>
    <g id="hybrid17" class="hybrid">
        <rect x="649" width="58" height="24" y="-19.0449"/>
        <text x="678" y="-4.1">236</text>
    </g>
    <g id="bool1" class="bool">
        <ellipse rx="9.88" ry="7.3684" cx="627.1759" cy="-103.4169"/>
        <text x="627.1759" y="-100.4169">and</text>
    </g>
    <g id="bool2" class="bool">
        <ellipse rx="9.88" ry="7.3684" cx="1025.7129" cy="-43.778"/>
        <text x="1025.7129" y="-40.778">and</text>
    </g>
    <g id="bool3" class="bool">
        <ellipse rx="9.88" ry="7.3684" cx="498.1717" cy="238.2894"/>
        <text x="498.1717" y="241.2894">or</text>
    </g>
    <g id="bool4" class="bool">
        <ellipse rx="9.88" ry="7.3684" cx="627.1759" cy="-5.4919"/>
        <text x="627.1759" y="-2.4919">and</text>
    </g>
    <g id="bool5" class="bool">
        <ellipse rx="9.88" ry="7.3684" cx="347.78" cy="-52.4096"/>
        <text x="347.78" y="-49.4096">and</text>
    </g>
</g>


<!-- Edges -->
<g>
    <path id="p1" d="M455.4041 168.2617 L455.4041 282.6306" marker-end="url(#arrow)"/>
    <path id="p2" d="M486.4949 -229.423 L486.4949 -156.4426" marker-end="url(#arrow)"/>
    <path id="p3" d="M465.555 -132.4075 L455.4041 -132.4075 L455.4041 128.2266" marker-end="url(#arrow)"/>
    <path id="p4" d="M498.1717 -27.7613 L498.1717 15.715" marker-end="url(#arrow)"/>
    <path id="p5" d="M627.1759 -229.4076 L627.1759 -207.4543" marker-end="url(#arrow)"/>
    <path id="p6" d="M607.1496 -183.4223 L511.8061 -183.4223 L511.8061 -156.3891" marker-end="url(#arrow)"/>
    <path id="p7" d="M647.1322 -183.4223 L810.0412 -183.4223 L810.0412 -156.3994" marker-end="url(#arrow)"/>
    <path id="p8" d="M830.0372 -132.4075 L952.9791 -132.4075 L952.9791 -67.7469" marker-end="url(#arrow)"/>
    <path id="p9" d="M647.1285 -183.4223 L1017.2745 -183.4223 L1017.2745 -156.4256" marker-end="url(#arrow)"/>
    <path id="p10" d="M498.1717 -261.4184 L498.1717 -281.4223 L1035.7622 -281.4223 L1035.7622 -156.383" marker-end="url(#arrow)"/>
    <path id="p11" d="M607.1931 -183.4223 L415.4041 -183.4223 L415.4041 67.3633" marker-end="url(#arrow)"/>
    <path id="p12" d="M415.4041 107.3975 L415.4041 238.2894 L408.609 238.2894" marker-end="url(#arrow)"/>
    <path id="p13" d="M415.4041 107.3647 L415.4041 306.6064 L408.609 306.6064" marker-end="url(#arrow)"/>
    <path id="p14" d="M415.4041 107.3819 L415.4041 150.4732 L408.609 150.4732" marker-end="url(#arrow)"/>
    <path id="p15" d="M687.8184 224.4294 L687.8184 282.5964" marker-end="url(#arrow)"/>
    <path id="p16" d="M790.048 -132.4075 L767.3 -132.4075 L767.3 184.4528" marker-end="url(#arrow)"/>
    <path id="p17" d="M933.0172 -43.778 L852.0361 -43.778 L852.0361 184.492" marker-end="url(#arrow)"/>
    <path id="p18" d="M528.1487 -28.0056 L528.1487 152.2894 L627 152.2894 L627 213" marker-end="url(#arrow)"/>
    <path id="p19" d="M932.9691 -43.778 L851.7929 -43.778 L851.7929 39.6881 L838.0608 39.6881" marker-end="url(#arrow)"/>
    <path id="p20" d="M810.0412 55.6931 L810.0412 72.1217" marker-end="url(#arrow)"/>
    <path id="p21" d="M528.1487 -28.0056 L528.1487 152.2894 L688 152.2894 L688 184" marker-end="url(#arrow)"/>
    <path id="p22" d="M986.7648 55.6863 L986.7648 306.6064 L1037.7932 306.6064" marker-end="url(#arrow)"/>
    <path id="p23" d="M952.9791 -27.7671 L952.9791 214.2779" marker-end="url(#arrow)"/>
    <path id="p24" d="M921.1373 168.5612 L942.364 215.0442" marker-end="url(#arrow)"/>
    <path id="p25" d="M903.7817 168.5546 L903.7817 282.597" marker-end="url(#arrow)"/>
    <path id="p26" d="M986.7648 55.6863 L986.7648 306.6064 L931.7576 306.6064" marker-end="url(#arrow)"/>
    <path id="p27" d="M194.0034 208.2956 L199.9133 217.5993" marker-end="url(#arrow)"/>
    <path id="p28" d="M1112.8696 -31.778 L1112.8696 208.4732 L1131.9268 208.4732" marker-end="url(#arrow)"/>
    <path id="p29" d="M1112.8696 -31.778 L1112.8696 39.6881 L1093.8125 39.6881" marker-end="url(#arrow)"/>
    <path id="p30" d="M1112.8696 -31.778 L1112.8696 96.1049 L1093.8125 96.1049" marker-end="url(#arrow)"/>
    <path id="p31" d="M306.8166 195.9732 L306.8166 176.2589" marker-end="url(#arrow)"/>
    <path id="p32" d="M530.7434 -132.4075 L581.6596 -132.4075 L612.9153 -112.4999" marker-end="url(#arrow)"/>
    <path id="p33" d="M790.0251 -132.4075 L674.0781 -132.4075 L641.5879 -112.3251" marker-end="url(#arrow)"/>
    <path id="p34" d="M617.296 -103.4169 L498.1717 -103.4169 L498.1717 -67.7652" marker-end="url(#arrow)"/>
    <path id="p35" d="M637.0559 -103.4169 L726.3378 -103.4169 L726.3378 70.2352" marker-end="url(#arrow)"/>
    <path id="p37" d="M1205.9095 155.3476 L1177.9095 186.4487" marker-end="url(#arrow)"/>
    <path id="p38" d="M853.7817 274.1251 L877.1755 289.3224" marker-end="url(#arrow)"/>
    <path id="p39" d="M972.9738 -43.778 L1007.8329 -43.778" marker-end="url(#arrow)"/>
    <path id="p40" d="M1025.7129 -116.4386 L1025.7129 -59.1465" marker-end="url(#arrow)"/>
    <path id="p41" d="M1025.7129 -36.4096 L1025.7129 39.6881 L1014.7333 39.6881" marker-end="url(#arrow)"/>
    <path id="p42" d="M1025.7129 -36.4096 L1025.7129 207.3551 L1037.8136 207.6924" marker-end="url(#arrow)"/>
    <path id="p43" d="M1025.7129 -36.4096 L1025.7129 39.6881 L1037.8105 39.6881" marker-end="url(#arrow)"/>
    <path id="p44" d="M1025.7129 -36.4096 L1025.7129 96.1049 L1037.8105 96.1049" marker-end="url(#arrow)"/>
    <path id="p45" d="M455.4041 168.2525 L455.4041 238.2894 L480.2917 238.2894" marker-end="url(#arrow)"/>
    <path  id="p46" d="M498.1717 55.7219 L498.1717 211.161 L498.1717 222.921" marker-end="url(#arrow)"/>
    <path  id="p47" d="M498.1717 245.6579 L498.1717 306.6064 L537.612 306.6064" marker-end="url(#arrow)"/>
    <path  id="p48" d="M498.1717 245.6579 L498.1717 342.6064 L687.8184 342.6064 L687.8184 330.6025" marker-end="url(#arrow)"/>
    <path  id="p49" d="M587.5033 -59.4169 L587.5033 -43.778 L538.7551 -43.778" marker-end="url(#arrow)"/>
    <path  id="p50" d="M753.8 262.5435 L712.4668 228.672" marker-end="url(#arrow)"/>
    <path  id="p51" d="M767.3 261.6064 L767.3 232.4806" marker-end="url(#arrow)"/>
    <path  id="p52" d="M780.8 263.2295 L826.6669 227.9735" marker-end="url(#arrow)"/>
    <path  id="p54" d="M585.0955 206.5041 L603.2718 217.515" marker-end="url(#arrow)"/>
    <path  id="p55" d="M347.7799 -229.4076 L347.7799 -183.4223 L250.3452 -183.4223" marker-end="url(#arrow)"/>
    <path  id="p56" d="M192.3429 -121.4223 L172.3478 -121.4223 L172.3478 152.5216 L186.3644 152.5216" marker-end="url(#arrow)"/>
    <path  id="p57" d="M217.3478 -167.4076 L217.3478 -145.4543" marker-end="url(#arrow)"/>
    <path  id="p58" d="M627.1759 254.2679 L627.1759 282.5829" marker-end="url(#arrow)"/>
    <path  id="p59" d="M810.0412 -31.778 L810.0412 15.6711" marker-end="url(#arrow)"/>
    <path  id="p60" d="M1125.3439 273.3551 L1137.5702 285.1165" marker-end="url(#arrow)"/>
    <path  id="p61" d="M1025.7129 -36.4096 L1025.7129 152.5216 L1037.8105 152.5216" marker-end="url(#arrow)"/>
    <path  id="p62" d="M267.8231 -31.778 L266.7799 342.6064 L380.576 342.6064 L380.576 330.6025" marker-end="url(#arrow)"/>
    <path  id="p63" d="M267.8566 -31.778 L267.8566 152.2453 L242.3444 152.2453" marker-end="url(#arrow)"/>
    <path  id="p64" d="M267.8566 -31.778 L267.8566 91.3633 L278.842 91.3633" marker-end="url(#arrow)"/>
    <path  id="p65" d="M267.8566 -31.778 L267.8566 -4.4825 L267.8566 152.2453 L278.842 152.2453" marker-end="url(#arrow)"/>
    <path  id="p66" d="M657.0176 -59.4169 L634.8187 -19.3027" marker-end="url(#arrow)"/>
    <path  id="p67" d="M594.7247 -59.4169 L619.0055 -19.0689" marker-end="url(#arrow)"/>
    <path  id="p68" d="M627.1759 1.8766 L627.1759 68.2759" marker-end="url(#arrow)"/>
    <path  id="p69" d="M627.1759 1.8766 L627.1759 41.3633 L593.5911 41.3633" marker-end="url(#arrow)"/>
    <path  id="p70" d="M565.5955 4.9551 L565.5955 17.344" marker-end="url(#arrow)"/>
    <path  id="p71" d="M921.6411 94.6649 L917.0528 128.5759" marker-end="url(#arrow)"/>
    <path  id="p72" d="M306.8166 260.6064 L306.8166 282.5693" marker-end="url(#arrow)"/>
    <path  id="p73" d="M876.3403 55.7048 L900.0989 128.9013" marker-end="url(#arrow)"/>
    <path  id="p74" d="M309.0447 -105.4159 L338.3318 -65.3387" marker-end="url(#arrow)"/>
    <path  id="p75" d="M347.7799 -229.4478 L347.7799 -67.778" marker-end="url(#arrow)"/>
    <path  id="p76" d="M347.7799 -45.0411 L347.7799 91.3633 L387.4272 91.3633" marker-end="url(#arrow)"/>
    <path  id="p77" d="M347.7799 -45.0411 L347.7799 91.3633 L334.7782 91.3633" marker-end="url(#arrow)"/>
    <path  id="p78" d="M347.7799 -45.0411 L347.7799 306.6064 L334.7782 306.6064" marker-end="url(#arrow)"/>
    <path  id="p79" d="M1045.3652 -132.1224 L1150.3652 -132.1224 L1150.3652 185.1224" marker-end="url(#arrow)"/>
    <path id="p80" d="M214.3625 106.2599 L214.3625 128.2132" marker-end="url(#arrow)"/>
    <path id="p81" d="M528.1487 -28.0056 L528.1487 93.2894 L537 93.2894" marker-end="url(#arrow)"/>
    <path id="p82" d="M678.1487 5.0056 L678.1487 70.2894" marker-end="url(#arrow)"/>
</g>


<!-- Reset Button -->
<g onclick="reset()" cursor="pointer">
    <ellipse id="resetButton"  cx="220" cy="-255" rx="30" ry="30"/>
    <text  id="resetButtonText" x="220" y="-250">Reset</text>
</g>


<!-- Legend -->
<g>
    <g data-group="theory">
        <rect x="1170" width="175" height="30" y="-121.778"/>
        <text x="1257.5" y="-100.8857" >Theory</text>
    </g>
    <g data-group="systems">
        <rect x="1170" width="175" height="30" y="-91.778"/>
        <text x="1257.5" y="-70.8857" >Systems</text>
    </g>
    <g data-group="dbweb">
        <rect x="1170" width="175" height="30" y="-61.778"/>
        <text x="1257.5" y="-40.8857" >Databases &amp; Web</text>
    </g>
    <g data-group="num">
        <rect x="1170" width="175" height="30" y="28.222"/>
        <text x="1257.5" y="49.1143" >Numerical Computing</text>
    </g>
    <g data-group="se">
        <rect x="1170" width="175" height="30" y="-31.778"/>
        <text x="1257.5" y="-10.8857" >Software Engineering</text>
    </g>
    <g data-group="graphics">
        <rect x="1170" width="175" height="30" y="58.222"/>
        <text x="1257.5" y="79.1143" >Graphics</text>
    </g>
    <g data-group="hci">
        <rect x="1170" width="175" height="30" y="88.222"/>
        <text x="1257.5" y="109.1143" >Humans and Computing</text>
    </g>
    <g data-group="ai">
        <rect x="1170" width="175" height="30" y="-1.778"/>
        <text x="1257.5" y="19.1143" >Artificial Intelligence</text>
    </g>

    </g>
</svg>