<?xml version="1.0" encoding="UTF-8"?>
<!DOCTYPE svg PUBLIC "-//W3C//DTD SVG 1.1//EN"
    "http://www.w3.org/Graphics/SVG/1.1/DTD/svg11.dtd">
<svg xmlns="http://www.w3.org/2000/svg" xmlns:xlink="http://www.w3.org/1999/xlink" width="100%" height="100%" preserveAspectRatio="xMinYMin" viewBox="0 0 1209.0 646.0" xmlns:svg="http://www.w3.org/2000/svg" xmlns:dc="http://purl.org/dc/elements/1.1/" xmlns:cc="http://creativecommons.org/ns#" xmlns:rdf="http://www.w3.org/1999/02/22-rdf-syntax-ns#" version="1.1"><defs><marker id="arrow" viewBox="0 0 10 10" refX="4" refY="5" markerUnits="strokeWidth" orient="auto" markerWidth="7" markerHeight="7"><polyline points="0,1 10,5 0,9" fill="black" /></marker></defs><g id="regions"><path id="regionp82" class="region" d="M0.0,266.0 0.0,-0.65807975 298.99963,-0.658 299.0,266.0" style="fill:#6276b9;" /><path id="regionp83" class="region" d="M276.0,646.0 276.0,403.0 298.52,403.0 298.52,351.0 109.674,351.0 109.674,646.0" style="fill:#708a23;" /><path id="regionp84" class="region" d="M298.52,-0.658 575.0,-0.658 575.0,403.0 298.52,403.0" style="fill:#5ac0ca;" /><path id="regionp85" class="region" d="M3.0970132e-6,646.0 3.0970132e-6,266.0 297.861,266.0 297.861,351.0 109.674,351.0 109.674,646.0" style="fill:#00ff00;" /><path id="regionp86" class="region" d="M276.0,646.0 513.172,646.0 513.172,403.0 276.0,403.0" style="fill:#c2f013;" /><path id="regionp87" class="region" d="M870.0,452.092 870.0,646.0 512.57126,646.0 512.76461,403.0 575.0,403.0 575.0,452.092" style="fill:#3520ca;" /><path id="regionp88" class="region" d="M575.0,127.217 575.0,452.092 870.0,452.092 870.0,127.217" style="fill:#dc0c33;" /><path id="regionp89" class="region" d="M870.0,127.21715 1208.9944,127.217 1208.9944,645.99993 870.0,646.00007" style="fill:#c200b3;" /><path id="regionp90" class="region" d="M575.0903,-0.78266083 1208.9943,-0.78266083 1208.9943,127.21733 575.0903,127.217" style="fill:#c2f0b3;" /></g><g id="nodes" stroke="black"><g id="csc438" class="node" data-group="theory" text-rendering="geometricPrecision" shape-rendering="geometricPrecision" style=""><rect rx="4" ry="4" x="356.48779" y="355.847603" width="65.0" height="30.0" style="fill:#b1c8d1;" /><text x="388.98779" y="377.132797" stroke="none" text-anchor="middle">CSC438</text></g><rect /><g id="csc463" class="node" data-group="theory" text-rendering="geometricPrecision" shape-rendering="geometricPrecision" style=""><rect rx="4" ry="4" x="395.29169" y="312.688101" width="65.0" height="30.0" style="fill:#b1c8d1;" /><text x="427.79169" y="333.973301" stroke="none" text-anchor="middle">CSC463</text></g><rect /><g id="csc448" class="node" data-group="theory" text-rendering="geometricPrecision" shape-rendering="geometricPrecision" style=""><rect rx="4" ry="4" x="317.6839" y="312.688101" width="65.0" height="30.0" style="fill:#b1c8d1;" /><text x="350.1839" y="333.973301" stroke="none" text-anchor="middle">CSC448</text></g><rect /><g id="csc165240" class="node" data-group="" text-rendering="geometricPrecision" shape-rendering="geometricPrecision" style=""><rect rx="4" ry="4" x="464.11331" y="37.80279999999999" width="100.185" height="32.0" style="fill:#b1c8d1;" /><text x="514.20581" y="60.087999999999994" stroke="none" text-anchor="middle">CSC165/240</text></g><rect /><g id="csc236240" class="node" data-group="" text-rendering="geometricPrecision" shape-rendering="geometricPrecision" style=""><rect rx="4" ry="4" x="464.11331" y="139.5925" width="100.185" height="32.0" style="fill:#b1c8d1;" /><text x="514.20581" y="161.8776" stroke="none" text-anchor="middle">CSC236/240</text></g><rect /><g id="csc263265" class="node" data-group="" text-rendering="geometricPrecision" shape-rendering="geometricPrecision" style=""><rect rx="4" ry="4" x="464.11331" y="228.222" width="100.185" height="32.0" style="fill:#b1c8d1;" /><text x="514.20581" y="250.50709899999998" stroke="none" text-anchor="middle">CSC263/265</text></g><rect /><g id="csc373" class="node" data-group="theory" text-rendering="geometricPrecision" shape-rendering="geometricPrecision" style=""><rect rx="4" ry="4" x="480.67169" y="312.688101" width="65.0" height="30.0" style="fill:#b1c8d1;" /><text x="513.17169" y="333.973301" stroke="none" text-anchor="middle">CSC373</text></g><rect /><g id="csc108" class="node" data-group="intro" text-rendering="geometricPrecision" shape-rendering="geometricPrecision" style=""><rect rx="4" ry="4" x="609.6759" y="38.80279999999999" width="65.0" height="30.0" style="fill:#5dd5b8;" /><text x="642.1759" y="60.087999999999994" stroke="none" text-anchor="middle">CSC108</text></g><rect /><g id="csc148" class="node" data-group="intro" text-rendering="geometricPrecision" shape-rendering="geometricPrecision" style=""><rect rx="4" ry="4" x="609.6759" y="89.5777" width="65.0" height="30.0" style="fill:#5dd5b8;" /><text x="642.1759" y="110.8629" stroke="none" text-anchor="middle">CSC148</text></g><rect /><g id="csc207" class="node" data-group="se" text-rendering="geometricPrecision" shape-rendering="geometricPrecision" style=""><rect rx="4" ry="4" x="732.0658" y="140.5925" width="65.0" height="30.0" style="fill:#e68080;" /><text x="764.5658" y="161.8776" stroke="none" text-anchor="middle">CSC207</text></g><rect /><g id="csc209" class="node" data-group="systems" text-rendering="geometricPrecision" shape-rendering="geometricPrecision" style=""><rect rx="4" ry="4" x="880.11298" y="229.222" width="65.0" height="30.0" style="fill:#c285ff;" /><text x="912.61298" y="250.50709899999998" stroke="none" text-anchor="middle">CSC209</text></g><rect /><g id="csc258" class="node" data-group="systems" text-rendering="geometricPrecision" shape-rendering="geometricPrecision" style=""><rect rx="4" ry="4" x="979.97272" y="140.5925" width="65.0" height="30.0" style="fill:#c285ff;" /><text x="1012.47272" y="161.8776" stroke="none" text-anchor="middle">CSC258</text></g><rect /><g id="csc369" class="node" data-group="systems" text-rendering="geometricPrecision" shape-rendering="geometricPrecision" style=""><rect rx="4" ry="4" x="927.42822" y="312.688101" width="65.0" height="30.0" style="fill:#c285ff;" /><text x="959.92822" y="333.973301" stroke="none" text-anchor="middle">CSC369</text></g><rect /><g id="csc318" class="node" data-group="hci" text-rendering="geometricPrecision" shape-rendering="geometricPrecision" style=""><rect rx="4" ry="4" x="24.7566004" y="349.84929999999997" width="65.0" height="30.0" style="fill:#91f27a;" /><text x="57.256600399999996" y="371.13439900000003" stroke="none" text-anchor="middle">CSC318</text></g><rect /><g id="csc320" class="node" data-group="graphics" text-rendering="geometricPrecision" shape-rendering="geometricPrecision" style=""><rect rx="4" ry="4" x="130.7507" y="426.3633" width="65.0" height="30.0" style="fill:#66a366;" /><text x="163.2507" y="447.6485" stroke="none" text-anchor="middle">CSC320</text></g><rect /><g id="csc418" class="node" data-group="graphics" text-rendering="geometricPrecision" shape-rendering="geometricPrecision" style=""><rect rx="4" ry="4" x="127.0015" y="579.60641" width="65.0" height="30.0" style="fill:#66a366;" /><text x="159.5015" y="600.8915999999999" stroke="none" text-anchor="middle">CSC418</text></g><rect /><g id="csc454" class="node" data-group="hci" text-rendering="geometricPrecision" shape-rendering="geometricPrecision" style=""><rect rx="4" ry="4" x="24.7566004" y="579.60641" width="65.0" height="30.0" style="fill:#91f27a;" /><text x="57.256600399999996" y="600.8915999999999" stroke="none" text-anchor="middle">CSC454</text></g><rect /><g id="csc300" class="node" data-group="hci" text-rendering="geometricPrecision" shape-rendering="geometricPrecision" style=""><rect rx="4" ry="4" x="105.636002" y="293.2979999" width="65.0" height="30.0" style="fill:#91f27a;" /><text x="138.13600200000002" y="314.583099" stroke="none" text-anchor="middle">CSC300</text></g><rect /><g id="csc200" class="node" data-group="hci" text-rendering="geometricPrecision" shape-rendering="geometricPrecision" style=""><rect rx="4" ry="4" x="24.7566004" y="293.2979999" width="65.0" height="30.0" style="fill:#91f27a;" /><text x="57.256600399999996" y="314.583099" stroke="none" text-anchor="middle">CSC200</text></g><rect /><g id="csc404" class="node" data-group="hci" text-rendering="geometricPrecision" shape-rendering="geometricPrecision" style=""><rect rx="4" ry="4" x="24.7566004" y="522.951" width="65.0" height="30.0" style="fill:#91f27a;" /><text x="57.256600399999996" y="544.23621" stroke="none" text-anchor="middle">CSC404</text></g><rect /><g id="csc428" class="node" data-group="hci" text-rendering="geometricPrecision" shape-rendering="geometricPrecision" style=""><rect rx="4" ry="4" x="24.7566004" y="426.3633" width="65.0" height="30.0" style="fill:#91f27a;" /><text x="57.256600399999996" y="447.6485" stroke="none" text-anchor="middle">CSC428</text></g><rect /><g id="csc336" class="node" data-group="num" text-rendering="geometricPrecision" shape-rendering="geometricPrecision" style=""><rect rx="4" ry="4" x="332.02991" y="426.3633" width="65.0" height="30.0" style="fill:#b8ff70;" /><text x="364.52991" y="447.6485" stroke="none" text-anchor="middle">CSC336</text></g><rect /><g id="csc446" class="node" data-group="num" text-rendering="geometricPrecision" shape-rendering="geometricPrecision" style=""><rect rx="4" ry="4" x="397.02991" y="481.47321" width="65.0" height="30.0" style="fill:#b8ff70;" /><text x="429.52991" y="502.75841" stroke="none" text-anchor="middle">CSC446</text></g><rect /><g id="csc456" class="node" data-group="num" text-rendering="geometricPrecision" shape-rendering="geometricPrecision" style=""><rect rx="4" ry="4" x="282.3858" y="579.60641" width="65.0" height="30.0" style="fill:#b8ff70;" /><text x="314.8858" y="600.8915999999999" stroke="none" text-anchor="middle">CSC456</text></g><rect /><g id="csc436" class="node" data-group="num" text-rendering="geometricPrecision" shape-rendering="geometricPrecision" style=""><rect rx="4" ry="4" x="282.3858" y="481.47321" width="65.0" height="30.0" style="fill:#b8ff70;" /><text x="314.8858" y="502.75841" stroke="none" text-anchor="middle">CSC436</text></g><rect /><g id="csc384" class="node" data-group="ai" text-rendering="geometricPrecision" shape-rendering="geometricPrecision" style=""><rect rx="4" ry="4" x="597.19427" y="481.47321" width="65.0" height="30.0" style="fill:#80b2ff;" /><text x="629.69427" y="502.75841" stroke="none" text-anchor="middle">CSC384</text></g><rect /><g id="csc486" class="node" data-group="ai" text-rendering="geometricPrecision" shape-rendering="geometricPrecision" style=""><rect rx="4" ry="4" x="597.19427" y="579.60641" width="65.0" height="30.0" style="fill:#80b2ff;" /><text x="629.69427" y="600.8915999999999" stroke="none" text-anchor="middle">CSC486</text></g><rect /><g id="csc401" class="node" data-group="ai" text-rendering="geometricPrecision" shape-rendering="geometricPrecision" style=""><rect rx="4" ry="4" x="748.40112" y="481.47321" width="65.0" height="30.0" style="fill:#80b2ff;" /><text x="780.90112" y="502.75841" stroke="none" text-anchor="middle">CSC401</text></g><rect /><g id="csc485" class="node" data-group="ai" text-rendering="geometricPrecision" shape-rendering="geometricPrecision" style=""><rect rx="4" ry="4" x="824.00458" y="481.47321" width="65.0" height="30.0" style="fill:#80b2ff;" /><text x="856.50458" y="502.75841" stroke="none" text-anchor="middle">CSC485</text></g><rect /><g id="csc321" class="node" data-group="ai" text-rendering="geometricPrecision" shape-rendering="geometricPrecision" style=""><rect rx="4" ry="4" x="672.79773" y="481.47321" width="65.0" height="30.0" style="fill:#80b2ff;" /><text x="705.29773" y="502.75841" stroke="none" text-anchor="middle">CSC321</text></g><rect /><g id="csc411" class="node" data-group="ai" text-rendering="geometricPrecision" shape-rendering="geometricPrecision" style=""><rect rx="4" ry="4" x="520.17169" y="481.47321" width="65.0" height="30.0" style="fill:#80b2ff;" /><text x="552.67169" y="502.75841" stroke="none" text-anchor="middle">CSC411</text></g><rect /><g id="csc301" class="node" data-group="se" text-rendering="geometricPrecision" shape-rendering="geometricPrecision" style=""><rect rx="4" ry="4" x="800.11298" y="291.7753999" width="65.0" height="30.0" style="fill:#e68080;" /><text x="832.61298" y="313.060499" stroke="none" text-anchor="middle">CSC301</text></g><rect /><g id="csc302" class="node" data-group="se" text-rendering="geometricPrecision" shape-rendering="geometricPrecision" style=""><rect rx="4" ry="4" x="800.11298" y="349.84929999999997" width="65.0" height="30.0" style="fill:#e68080;" /><text x="832.61298" y="371.13439900000003" stroke="none" text-anchor="middle">CSC302</text></g><rect /><g id="csc410" class="node" data-group="se" text-rendering="geometricPrecision" shape-rendering="geometricPrecision" style=""><rect rx="4" ry="4" x="672.79773" y="291.7753999" width="65.0" height="30.0" style="fill:#e68080;" /><text x="705.29773" y="313.060499" stroke="none" text-anchor="middle">CSC410</text></g><rect /><g id="csc324" class="node" data-group="se" text-rendering="geometricPrecision" shape-rendering="geometricPrecision" style=""><rect rx="4" ry="4" x="575.67169" y="351.775398" width="65.0" height="30.0" style="fill:#e68080;" /><text x="608.17169" y="373.060501" stroke="none" text-anchor="middle">CSC324</text></g><rect /><g id="csc488" class="node" data-group="systems" text-rendering="geometricPrecision" shape-rendering="geometricPrecision" style=""><rect rx="4" ry="4" x="1128.9675" y="425.52161" width="65.0" height="30.0" style="fill:#c285ff;" /><text x="1161.4675" y="446.80679" stroke="none" text-anchor="middle">CSC488</text></g><rect /><g id="ece489" class="node" data-group="systems" text-rendering="geometricPrecision" shape-rendering="geometricPrecision" style=""><rect rx="4" ry="4" x="1128.9675" y="480.3551" width="65.0" height="30.0" style="fill:#c285ff;" /><text x="1161.4675" y="501.6403" stroke="none" text-anchor="middle">ECE489</text></g><rect /><g id="csc469" class="node" data-group="systems" text-rendering="geometricPrecision" shape-rendering="geometricPrecision" style=""><rect rx="4" ry="4" x="1011.38611" y="579.60641" width="65.0" height="30.0" style="fill:#c285ff;" /><text x="1043.88611" y="600.8915999999999" stroke="none" text-anchor="middle">CSC469</text></g><rect /><g id="csc358" class="node" data-group="systems" text-rendering="geometricPrecision" shape-rendering="geometricPrecision" style=""><rect rx="4" ry="4" x="1034.8878" y="312.688101" width="65.0" height="30.0" style="fill:#c285ff;" /><text x="1067.3878" y="333.973301" stroke="none" text-anchor="middle">CSC358</text></g><rect /><g id="csc458" class="node" data-group="systems" text-rendering="geometricPrecision" shape-rendering="geometricPrecision" style=""><rect rx="4" ry="4" x="1034.8878" y="369.104897" width="65.0" height="30.0" style="fill:#c285ff;" /><text x="1067.3878" y="390.39" stroke="none" text-anchor="middle">CSC458</text></g><rect /><g id="ece385" class="node" data-group="systems" text-rendering="geometricPrecision" shape-rendering="geometricPrecision" style=""><rect rx="4" ry="4" x="1034.8878" y="481.47321" width="65.0" height="30.0" style="fill:#c285ff;" /><text x="1067.3878" y="502.75841" stroke="none" text-anchor="middle">ECE385</text></g><rect /><g id="csc343" class="node" data-group="systems" text-rendering="geometricPrecision" shape-rendering="geometricPrecision" style=""><rect rx="4" ry="4" x="889.00458" y="437.092" width="65.0" height="30.0" style="fill:#c285ff;" /><text x="921.50458" y="458.3772" stroke="none" text-anchor="middle">CSC343</text></g><rect /><g id="csc443" class="node" data-group="systems" text-rendering="geometricPrecision" shape-rendering="geometricPrecision" style=""><rect rx="4" ry="4" x="889.00458" y="579.60641" width="65.0" height="30.0" style="fill:#c285ff;" /><text x="921.50458" y="600.8915999999999" stroke="none" text-anchor="middle">CSC443</text></g><rect /><g id="h87" class="hybrid" data-group="" text-rendering="geometricPrecision" shape-rendering="geometricPrecision"><rect rx="4" ry="4" x="16.7825" y="472.29559" width="65.207497" height="24.0" style="fill:#888888;" /><text x="49.3862485" y="482.0983" stroke="none" fill="white" text-anchor="middle">CSC318/418/</text><text x="49.3862485" y="494.34929999999997" stroke="none" fill="white" text-anchor="middle">301/384</text></g><rect /><g id="h89" class="hybrid" data-group="" text-rendering="geometricPrecision" shape-rendering="geometricPrecision"><rect rx="4" ry="4" x="1088.0432" y="232.222" width="52.768799" height="24.0" style="fill:#888888;" /><text x="1114.4275995" y="248.15019999999998" stroke="none" fill="white" text-anchor="middle">CSC263</text></g><rect /><g id="h91" class="hybrid" data-group="" text-rendering="geometricPrecision" shape-rendering="geometricPrecision"><rect rx="4" ry="4" x="120.2297" y="524.6064" width="86.041901" height="24.0" style="fill:#888888;" /><text x="163.2506505" y="534.40919" stroke="none" fill="white" text-anchor="middle">CSC336/373/463,</text><text x="163.2506505" y="546.6601900000001" stroke="none" fill="white" text-anchor="middle">Calc1</text></g><rect /><g id="h93" class="hybrid" data-group="" text-rendering="geometricPrecision" shape-rendering="geometricPrecision"><rect rx="4" ry="4" x="1123.1888" y="345.688099" width="50.0" height="24.0" style="fill:#888888;" /><text x="1148.1888" y="361.616402" stroke="none" fill="white" text-anchor="middle">CSC324</text></g><rect /><g id="h95" class="hybrid" data-group="" text-rendering="geometricPrecision" shape-rendering="geometricPrecision"><rect rx="4" ry="4" x="824.00458" y="544.7479900000001" width="52.768799" height="24.0" style="fill:#888888;" /><text x="850.3889795" y="560.6762100000001" stroke="none" fill="white" text-anchor="middle">CSC373</text></g><rect /><g id="h99" class="hybrid" data-group="" text-rendering="geometricPrecision" shape-rendering="geometricPrecision"><rect rx="4" ry="4" x="421.29599" y="187.9072" width="27.0" height="24.0" style="fill:#888888;" /><text x="434.79599" y="203.83550300000002" stroke="none" fill="white" text-anchor="middle">Sta1</text></g><rect /><g id="h101" class="hybrid" data-group="" text-rendering="geometricPrecision" shape-rendering="geometricPrecision"><rect rx="4" ry="4" x="691.79773" y="410.84929999999997" width="27.0" height="24.0" style="fill:#888888;" /><text x="705.29773" y="426.77750000000003" stroke="none" fill="white" text-anchor="middle">Lin1</text></g><rect /><g id="h103" class="hybrid" data-group="" text-rendering="geometricPrecision" shape-rendering="geometricPrecision"><rect rx="4" ry="4" x="727.7547" y="544.7479900000001" width="27.0" height="24.0" style="fill:#888888;" /><text x="741.2547" y="560.6762100000001" stroke="none" fill="white" text-anchor="middle">Sta1</text></g><rect /><g id="mat135136137157calc1" class="node" data-group="" text-rendering="geometricPrecision" shape-rendering="geometricPrecision" style=""><rect rx="4" ry="4" x="16.7825" y="36.797200000000004" width="173.6458" height="46.165798" style="fill:#8a67be;" /><text x="103.6054" y="56.36439999999999" stroke="none" text-anchor="middle">MAT(135,136)/137/157</text><text x="103.6054" y="75.96600000000001" stroke="none" text-anchor="middle">(Calc1)</text></g><rect /><g id="sta247255257sta1" class="node" data-group="" text-rendering="geometricPrecision" shape-rendering="geometricPrecision" style=""><rect rx="4" ry="4" x="26.6837" y="165.0476" width="131.1458" height="46.165798" style="fill:#8a67be;" /><text x="92.2566" y="184.6148" stroke="none" text-anchor="middle">STA247/255/257</text><text x="92.2566" y="204.2164" stroke="none" text-anchor="middle">(Sta1)</text></g><rect /><g id="sta248261" class="node" data-group="" text-rendering="geometricPrecision" shape-rendering="geometricPrecision" style=""><rect rx="4" ry="4" x="40.566998999999996" y="228.222" width="103.3793" height="32.0" style="fill:#8a67be;" /><text x="92.256649" y="250.50709899999998" stroke="none" text-anchor="middle">STA248/261</text></g><rect /><g id="csc412" class="node" data-group="ai" text-rendering="geometricPrecision" shape-rendering="geometricPrecision" style=""><rect rx="4" ry="4" x="520.17169" y="579.60641" width="65.0" height="30.0" style="fill:#80b2ff;" /><text x="552.67169" y="600.8915999999999" stroke="none" text-anchor="middle">CSC412</text></g><rect /><g id="csc420" class="node" data-group="graphics" text-rendering="geometricPrecision" shape-rendering="geometricPrecision" style=""><rect rx="4" ry="4" x="204.6936" y="579.60641" width="65.0" height="30.0" style="fill:#66a366;" /><text x="237.1936" y="600.09079" stroke="none" text-anchor="middle">CSC420</text></g><rect /><g id="csc104" class="node" data-group="intro" text-rendering="geometricPrecision" shape-rendering="geometricPrecision" style=""><rect rx="4" ry="4" x="710.72467" y="38.80279999999999" width="65.0" height="30.0" style="fill:#5dd5b8;" /><text x="743.22467" y="60.087999999999994" stroke="none" text-anchor="middle">CSC104</text></g><rect /><g id="csc120" class="node" data-group="intro" text-rendering="geometricPrecision" shape-rendering="geometricPrecision" style=""><rect rx="4" ry="4" x="811.77338" y="38.80279999999999" width="65.0" height="30.0" style="fill:#5dd5b8;" /><text x="844.27338" y="60.087999999999994" stroke="none" text-anchor="middle">CSC120</text></g><rect /><g id="mat221223240lin1" class="node" data-group="" text-rendering="geometricPrecision" shape-rendering="geometricPrecision" style=""><rect rx="4" ry="4" x="147.01469" y="93.42670000000001" width="142.07761" height="46.165798" style="fill:#8a67be;" /><text x="218.053495" y="112.994" stroke="none" text-anchor="middle">MAT221/223/240</text><text x="218.053495" y="132.5955" stroke="none" text-anchor="middle">(Lin1)</text></g><rect /><g id="h121" class="hybrid" data-group="" text-rendering="geometricPrecision" shape-rendering="geometricPrecision"><rect rx="4" ry="4" x="807.61298" y="232.222" width="50.0" height="24.0" style="fill:#888888;" /><text x="832.61298" y="248.15019999999998" stroke="none" fill="white" text-anchor="middle">CSC263</text></g><rect /><g id="h123" class="hybrid" data-group="" text-rendering="geometricPrecision" shape-rendering="geometricPrecision"><rect rx="4" ry="4" x="1089.4276" y="533.53979" width="50.0" height="24.0" style="fill:#888888;" /><text x="1114.4276" y="549.46799" stroke="none" fill="white" text-anchor="middle">CSC236</text></g><rect /><g id="csc372" class="node" data-group="systems" text-rendering="geometricPrecision" shape-rendering="geometricPrecision" style=""><rect rx="4" ry="4" x="1034.8878" y="425.52161" width="65.0" height="30.0" style="fill:#c285ff;" /><text x="1067.3878" y="446.80679" stroke="none" text-anchor="middle">CSC372</text></g><rect /><g id="h127" class="hybrid" data-group="" text-rendering="geometricPrecision" shape-rendering="geometricPrecision"><rect rx="4" ry="4" x="84.674004" y="391.10630000000003" width="50.0" height="24.0" style="fill:#888888;" /><text x="109.674004" y="407.0345" stroke="none" fill="white" text-anchor="middle">CSC209</text></g><rect /><g id="csc310" class="node" data-group="theory" text-rendering="geometricPrecision" shape-rendering="geometricPrecision" style=""><rect rx="4" ry="4" x="313.7341" y="229.222" width="65.0" height="30.0" style="fill:#b1c8d1;" /><text x="346.2341" y="250.50709899999998" stroke="none" text-anchor="middle">CSC310</text></g><rect /><g id="h131" class="hybrid" data-group="" text-rendering="geometricPrecision" shape-rendering="geometricPrecision"><rect rx="4" ry="4" x="181.66299" y="472.29559" width="50.0" height="24.0" style="fill:#888888;" /><text x="206.66299" y="488.2238" stroke="none" fill="white" text-anchor="middle">CSC263</text></g><rect /><g id="h133" class="hybrid" data-group="" text-rendering="geometricPrecision" shape-rendering="geometricPrecision"><rect rx="4" ry="4" x="789.00262" y="400.0376" width="76.110397" height="24.0" style="fill:#888888;" /><text x="827.0578184999999" y="415.9658" stroke="none" fill="white" text-anchor="middle">CSC165/Calc1</text></g><rect /><g id="csc466" class="node" data-group="num" text-rendering="geometricPrecision" shape-rendering="geometricPrecision" style=""><rect rx="4" ry="4" x="397.02991" y="579.60641" width="65.0" height="30.0" style="fill:#b8ff70;" /><text x="429.52991" y="600.8915999999999" stroke="none" text-anchor="middle">CSC466</text></g><rect /><g id="csc465" class="node" data-group="se" text-rendering="geometricPrecision" shape-rendering="geometricPrecision" style=""><rect rx="4" ry="4" x="672.79773" y="349.84929999999997" width="65.0" height="30.0" style="fill:#e68080;" /><text x="705.29773" y="371.13439900000003" stroke="none" text-anchor="middle">CSC465</text></g><rect /><g id="csc309" class="node" data-group="systems" text-rendering="geometricPrecision" shape-rendering="geometricPrecision" style=""><rect rx="4" ry="4" x="889.00458" y="383.696098" width="65.0" height="30.0" style="fill:#c285ff;" /><text x="921.50458" y="404.98130000000003" stroke="none" text-anchor="middle">CSC309</text></g><rect /><g id="h142" class="hybrid" data-group="" text-rendering="geometricPrecision" shape-rendering="geometricPrecision"><rect rx="4" ry="4" x="319.09229" y="154.37219" width="27.0" height="24.0" style="fill:#888888;" /><text x="332.59229" y="170.3004" stroke="none" fill="white" text-anchor="middle">Sta1</text></g><rect /></g><g id="bools"><g id="bool97" class="bool"><ellipse cx="1012.47272" cy="244.222" rx="9.8800001" ry="7.3684001" /><text x="1012.47272" y="247.464199" stroke="none" text-anchor="middle">and</text></g><g id="bool98" class="bool"><ellipse cx="513.17169" cy="403.10630000000003" rx="9.8800001" ry="7.3684001" /><text x="513.17169" y="406.3485" stroke="none" text-anchor="middle">or</text></g><g id="bool135" class="bool"><ellipse cx="237.1936" cy="190.7015" rx="9.8800001" ry="7.3684001" /><text x="237.1936" y="193.943703" stroke="none" text-anchor="middle">and</text></g><g id="bool144" class="bool"><ellipse cx="314.8858" cy="548.98489" rx="9.8800001" ry="7.3684001" /><text x="314.8858" y="552.22711" stroke="none" text-anchor="middle">or</text></g></g><g id="edges" stroke="black"><path id="pathp1" class="path" d="M496.2655,69.80779999999999 496.2655,131.5942" marker-end="url(#arrow)" source-node="csc165240" target-node="csc236240" /><path id="pathp2" class="path" d="M464.127,155.5925 387.1946,155.5925 387.1946,278.9841 366.4274,306.3126" marker-end="url(#arrow)" source-node="csc236240" target-node="csc448" /><path id="pathp3" class="path" d="M464.1434,155.5925 386.9212,155.5925 386.9212,278.9791 410.0571,306.55219999999997" marker-end="url(#arrow)" source-node="csc236240" target-node="csc463" /><path id="pathp4" class="path" d="M514.2058,171.614 514.2058,220.2326" marker-end="url(#arrow)" source-node="csc236240" target-node="csc263265" /><path id="pathp5" class="path" d="M514.0074,260.2387 513.4565,304.7036" marker-end="url(#arrow)" source-node="csc263265" target-node="csc373" /><path id="pathp6" class="path" d="M642.1759,68.827 642.1759,81.6001" marker-end="url(#arrow)" source-node="csc108" target-node="csc148" /><path id="pathp7" class="path" d="M609.6982,104.5777 535.1537,104.5777 535.1537,131.6109" marker-end="url(#arrow)" source-node="csc148" target-node="csc236240" /><path id="pathp8" class="path" d="M674.6559,104.5777 764.5658,104.5777 764.5658,132.5969" marker-end="url(#arrow)" source-node="csc148" target-node="csc207" /><path id="pathp9" class="path" d="M732.0789,167.0931 566.9335,225.5559" marker-end="url(#arrow)" source-node="csc207" target-node="csc263265" /><path id="pathp10" class="path" d="M797.0596,155.5925 912.613,155.5925 912.613,221.2052" marker-end="url(#arrow)" source-node="csc207" target-node="csc209" /><path id="pathp11" class="path" d="M674.6425,104.5777 1004.0344,104.5777 1004.0344,132.6269" marker-end="url(#arrow)" source-node="csc148" target-node="csc258" /><path id="pathp12" class="path" d="M514.2058,37.83080000000001 514.2058,15.5 1022.522,15.5 1022.522,132.5935" marker-end="url(#arrow)" source-node="csc165240" target-node="csc258" /><path id="pathp13" class="path" d="M57.2566,379.8308 57.2566,418.37080000000003" marker-end="url(#arrow)" source-node="csc318" target-node="csc428" /><path id="pathp14" class="path" d="M609.6646,104.5777 298.52,104.578 298.5199,376.9662 341.848,419.84450000000004" marker-end="url(#arrow)" source-node="csc148" target-node="csc336" /><path id="pathp15" class="path" d="M364.5299,456.3517 364.5299,496.4732 388.9982,496.4732" marker-end="url(#arrow)" source-node="csc336" target-node="csc446" /><path id="pathp16" class="path" d="M364.5299,456.3517 364.5299,496.4732 355.4163,496.4732" marker-end="url(#arrow)" source-node="csc336" target-node="csc436" /><path id="pathp17" class="path" d="M560.263,260.2002 560.263,451.9527 629.6943,451.9527 629.6943,473.47360000000003" marker-end="url(#arrow)" source-node="csc263265" target-node="csc384" /><path id="pathp18" class="path" d="M629.6943,511.4711 629.6943,571.6275" marker-end="url(#arrow)" source-node="csc384" target-node="csc486" /><path id="pathp19" class="path" d="M764.5658,170.6216 764.5658,452.2635 780.9011,452.2635 780.9011,473.49199999999996" marker-end="url(#arrow)" source-node="csc207" target-node="csc401" /><path id="pathp20" class="path" d="M764.5658,170.6129 764.5658,452.092 856.5046,452.092 856.5046,473.4339" marker-end="url(#arrow)" source-node="csc207" target-node="csc485" /><path id="pathp21" class="path" d="M560.263,260.2049 560.263,331.290767 560.2626,402.37663 560.2626,473.4625" marker-end="url(#arrow)" source-node="csc263265" target-node="csc411" /><path id="pathp22" class="path" d="M912.613,259.2189 912.613,306.7754 873.0739,306.7754" marker-end="url(#arrow)" source-node="csc209" target-node="csc301" /><path id="pathp23" class="path" d="M832.613,321.7759 832.613,341.8325" marker-end="url(#arrow)" source-node="csc301" target-node="csc302" /><path id="pathp24" class="path" d="M764.5658,170.6148 764.5658,306.7754 745.7968,306.7754" marker-end="url(#arrow)" source-node="csc207" target-node="csc410" /><path id="pathp25" class="path" d="M564.2767,155.5925 650.2977,155.5925 650.2977,306.7754 664.7758,306.7754" marker-end="url(#arrow)" source-node="csc236240" target-node="csc410" /><path id="pathp26" class="path" d="M559.6118,260.2098 608.1717,288.2805 608.1717,343.7893" marker-end="url(#arrow)" source-node="csc263265" target-node="csc324" /><path id="pathp27" class="path" d="M1044.9784,155.5925 1180.7954,155.5925 1180.7954,417.4951" marker-end="url(#arrow)" source-node="csc258" target-node="csc488" /><path id="pathp28" class="path" d="M977.4328,342.7027 977.4328,594.6064 1003.4058,594.6064" marker-end="url(#arrow)" source-node="csc369" target-node="csc469" /><path id="pathp29" class="path" d="M764.5658,170.6129 764.5658,452.092 880.975,452.092" marker-end="url(#arrow)" source-node="csc207" target-node="csc343" /><path id="pathp30" class="path" d="M921.5046,468.1135 921.5046,571.6286" marker-end="url(#arrow)" source-node="csc343" target-node="csc443" /><path id="pathp31" class="path" d="M977.5433,342.7273 977.5433,594.6064 961.984,594.6064" marker-end="url(#arrow)" source-node="csc369" target-node="csc443" /><path id="pathp32" class="path" d="M51.1464,496.29560000000004 53.8938,515.0251000000001" marker-end="url(#arrow)" source-node="h87" target-node="csc404" /><path id="pathp33" class="path" d="M1114.4276,256.222 1114.4276,440.52160000000003 1120.9897,440.52160000000003" marker-end="url(#arrow)" source-node="h89" target-node="csc488" /><path id="pathp34" class="path" d="M1114.4276,256.222 1114.4276,327.6881 1107.8655,327.6881" marker-end="url(#arrow)" source-node="h89" target-node="csc358" /><path id="pathp35" class="path" d="M1114.4276,256.222 1114.4276,384.1049 1107.8655,384.1049" marker-end="url(#arrow)" source-node="h89" target-node="csc458" /><path id="pathp36" class="path" d="M159.5015,548.6358 159.5015,571.5672" marker-end="url(#arrow)" source-node="h91" target-node="csc418" /><path id="pathp37" class="path" d="M1148.189,369.6881 1148.189,417.5129" marker-end="url(#arrow)" source-node="h93" target-node="csc488" /><path id="pathp38" class="path" d="M872.9305,568.748 886.2424,575.8346" marker-end="url(#arrow)" source-node="h95" target-node="csc443" /><path id="pathp39" class="path" d="M945.1357,244.222 994.5927,244.222" marker-end="url(#arrow)" source-node="csc209" target-node="bool97" /><path id="pathp40" class="path" d="M1012.4727,170.60930000000002 1012.4727,228.8535" marker-end="url(#arrow)" source-node="csc258" target-node="bool97" /><path id="pathp41" class="path" d="M1012.4727,251.5904 1012.4727,327.6881 1000.435,327.6881" marker-end="url(#arrow)" source-node="bool97" target-node="csc369" /><path id="pathp42" class="path" d="M1012.4727,251.5904 1012.4727,495.3551 1026.8641,495.6481" marker-end="url(#arrow)" source-node="bool97" target-node="ece385" /><path id="pathp43" class="path" d="M1012.4727,251.5904 1012.4727,327.6881 1026.8624,327.6881" marker-end="url(#arrow)" source-node="bool97" target-node="csc358" /><path id="pathp44" class="path" d="M1012.4727,251.5904 1012.4727,384.1049 1026.8624,384.1049" marker-end="url(#arrow)" source-node="bool97" target-node="csc458" /><path id="pathp45" class="path" d="M444.7802,342.6944 500.8021,392.18" marker-end="url(#arrow)" source-node="csc463" target-node="bool98" /><path id="pathp46" class="path" d="M513.1717,342.676 513.1717,387.73789999999997" marker-end="url(#arrow)" source-node="csc373" target-node="bool98" /><path id="pathp47" class="path" d="M503.2917,403.10630000000003 388.9878,403.10630000000003 388.9878,393.8744" marker-end="url(#arrow)" source-node="bool98" target-node="csc438" /><path id="pathp48" class="path" d="M513.1717,410.4748 513.172,630.6064 629.6943,630.6064 629.6943,617.6182" marker-end="url(#arrow)" source-node="bool98" target-node="csc486" /><path id="pathp49" class="path" d="M448.1851,211.9072 460.7288,223.1495" marker-end="url(#arrow)" source-node="h99" target-node="csc263265" /><path id="pathp50" class="path" d="M705.2977,434.84929999999997 705.2977,473.4584" marker-end="url(#arrow)" source-node="h101" target-node="csc321" /><path id="pathp51" class="path" d="M727.7547,549.4540999999999 664.4797,515.2674" marker-end="url(#arrow)" source-node="h103" target-node="csc384" /><path id="pathp52" class="path" d="M749.1478,544.748 766.6284,518.1721" marker-end="url(#arrow)" source-node="h103" target-node="csc401" /><path id="pathp53" class="path" d="M754.7547,549.6876 820.7239,515.1862" marker-end="url(#arrow)" source-node="h103" target-node="csc401" /><path id="pathp54" class="path" d="M734.0961,544.748 718.3535,518.3587" marker-end="url(#arrow)" source-node="h103" target-node="csc321" /><path id="pathp55" class="path" d="M56.3282,82.96690000000001 56.3282,157.0263" marker-end="url(#arrow)" source-node="mat135136137157calc1" target-node="sta247255257sta1" /><path id="pathp56" class="path" d="M92.2566,211.21890000000002 92.2566,220.2039" marker-end="url(#arrow)" source-node="sta247255257sta1" target-node="sta248261" /><path id="pathp57" class="path" d="M40.5499,244.222 15.2419,244.222 15.2419,407.808 23.4405,419.8272" marker-end="url(#arrow)" source-node="sta248261" target-node="csc428" /><path id="pathp58" class="path" d="M552.6717,511.4711 552.6717,571.6275" marker-end="url(#arrow)" source-node="csc411" target-node="csc412" /><path id="pathp59" class="path" d="M832.613,256.222 832.613,283.8167" marker-end="url(#arrow)" source-node="h121" target-node="csc301" /><path id="pathp60" class="path" d="M1125.6757,533.5398 1141.9279,516.201" marker-end="url(#arrow)" source-node="h123" target-node="ece489" /><path id="pathp61" class="path" d="M1012.4727,251.5904 1012.4727,440.52160000000003 1026.8624,440.52160000000003" marker-end="url(#arrow)" source-node="bool97" target-node="csc372" /><path id="pathp62" class="path" d="M109.674,415.10630000000003 109.674,630.6064 314.8858,630.6064 314.8858,617.6182" marker-end="url(#arrow)" source-node="h127" target-node="csc456" /><path id="pathp63" class="path" d="M109.674,415.10630000000003 109.674,441.3633 97.736,441.3633" marker-end="url(#arrow)" source-node="h127" target-node="csc428" /><path id="pathp64" class="path" d="M109.674,415.10630000000003 109.674,441.3633 122.7332,441.3633" marker-end="url(#arrow)" source-node="h127" target-node="csc320" /><path id="pathp65" class="path" d="M109.674,415.10630000000003 109.674,594.6064 119.0455,594.6064" marker-end="url(#arrow)" source-node="h127" target-node="csc418" /><path id="pathp66" class="path" d="M609.6807,104.5777 356.8585,104.5777 356.8585,221.215" marker-end="url(#arrow)" source-node="csc148" target-node="csc310" /><path id="pathp67" class="path" d="M222.7555,496.29920000000004 222.7555,571.5754" marker-end="url(#arrow)" source-node="h131" target-node="csc420" /><path id="pathp68" class="path" d="M865.1357,423.9566 882.676,434.98220000000003" marker-end="url(#arrow)" source-node="h133" target-node="csc343" /><path id="pathp69" class="path" d="M237.1936,139.6405 237.1936,175.333" marker-end="url(#arrow)" source-node="mat221223240lin1" target-node="bool135" /><path id="pathp70" class="path" d="M103.6054,82.94489999999999 103.6054,152.32 190.9601,152.32 224.4355,180.11020000000002" marker-end="url(#arrow)" source-node="mat135136137157calc1" target-node="bool135" /><path id="pathp71" class="path" d="M237.1936,198.06990000000002 237.1936,441.3633 324.043,441.3633" marker-end="url(#arrow)" source-node="bool135" target-node="csc336" /><path id="pathp72" class="path" d="M237.1936,198.06990000000002 237.1936,441.3633 203.7812,441.3633" marker-end="url(#arrow)" source-node="bool135" target-node="csc320" /><path id="pathp73" class="path" d="M237.1936,198.06990000000002 237.1936,571.6492000000001" marker-end="url(#arrow)" source-node="bool135" target-node="csc420" /><path id="pathp74" class="path" d="M237.1936,198.06990000000002 237.1936,244.222 305.7296,244.222" marker-end="url(#arrow)" source-node="bool135" target-node="csc310" /><path id="pathp75" class="path" d="M364.5299,456.3659 364.5299,594.6064 388.9982,594.6064" marker-end="url(#arrow)" source-node="csc336" target-node="csc466" /><path id="pathp76" class="path" d="M564.2767,155.5925 650.2977,155.5925 650.2977,364.84929999999997 664.7758,364.84929999999997" marker-end="url(#arrow)" source-node="csc236240" target-node="csc465" /><path id="pathp77" class="path" d="M912.613,259.2426 912.613,375.703" marker-end="url(#arrow)" source-node="csc209" target-node="csc309" /><path id="pathp78" class="path" d="M334.6951,178.37220000000002 342.2221,221.3265" marker-end="url(#arrow)" source-node="h142" target-node="csc310" /><path id="pathp79" class="path" d="M364.5299,456.3662 364.5299,548.9848999999999 332.7658,548.9848999999999" marker-end="url(#arrow)" source-node="csc336" target-node="bool144" /><path id="pathp80" class="path" d="M314.8858,511.4729 314.8858,533.6164" marker-end="url(#arrow)" source-node="csc436" target-node="bool144" /><path id="pathp81" class="path" d="M314.8858,556.3533 314.8858,571.6265000000001" marker-end="url(#arrow)" source-node="bool144" target-node="csc456" /></g><g id="region-labels"><text x="1071.475" y="199.95103" stroke="none" fill="#000000" text-anchor="begin">Systems</text><text x="896.7619" y="58.266659" stroke="none" fill="#000000" text-anchor="start">Introductory</text><text x="209.4404" y="49.888428" stroke="none" fill="#000000" text-anchor="begin">Math and</text><text x="209.4404" y="73.638428" stroke="none" fill="#000000" text-anchor="begin">Statistics</text><text x="159.20818" y="283.31537" stroke="none" fill="#000000" text-anchor="begin">Humans</text><text x="197.44344" y="313.90366" stroke="none" fill="#000000" text-anchor="begin">and</text><text x="138.61992" y="343.02127" stroke="none" fill="#000000" text-anchor="begin">Computing</text><text x="403.47482" y="539.07495" stroke="none" fill="#000000" text-anchor="begin">Numerical</text><text x="403.47482" y="562.82495" stroke="none" fill="#000000" text-anchor="begin">Computing</text><text x="148.75423" y="400.4101" stroke="none" fill="#000000" text-anchor="begin">Graphics</text><text x="683.55768" y="612.04059" stroke="none" fill="#000000" text-anchor="begin">Artificial Intelligence</text><text x="579.24506" y="405.78375" stroke="none" fill="#000000" text-anchor="begin">Software</text><text x="579.24506" y="429.53375" stroke="none" fill="#000000" text-anchor="begin">Engineering</text><text x="353.1282" y="59.428696" stroke="none" fill="#000000" text-anchor="start">Theory</text></g></svg>