<?xml version="1.0" encoding="UTF-8"?>
<!DOCTYPE svg PUBLIC "-//W3C//DTD SVG 1.1//EN"
    "http://www.w3.org/Graphics/SVG/1.1/DTD/svg11.dtd">
<svg xmlns="http://www.w3.org/2000/svg" xmlns:xlink="http://www.w3.org/1999/xlink" width="100%" height="100%" preserveAspectRatio="xMinYMin" viewBox="0 0 502.0 605.0" xmlns:svg="http://www.w3.org/2000/svg" xmlns:dc="http://purl.org/dc/elements/1.1/" xmlns:cc="http://creativecommons.org/ns#" xmlns:rdf="http://www.w3.org/1999/02/22-rdf-syntax-ns#" version="1.1"><defs><marker id="arrow" viewBox="0 0 10 10" refX="4" refY="5" markerUnits="strokeWidth" orient="auto" markerWidth="7" markerHeight="7"><polyline points="0,1 10,5 0,9" fill="black" /></marker></defs><g id="regions"><path id="regionp689" class="region" d="M504.35046,233.52084 504.62979,0.4351823599999989 -0.3702120699999796,0.4351823599999989 -0.3702120699999796,191.43518 384.62979,191.43518 384.62979,236.43518 504.62979,236.43518" style="fill:#ca8dff;" /><path id="regionp690" class="region" d="M384.53109,191.43518 384.53109,371.43518 269.53109,371.43518 269.53109,551.43518 160.62979,551.43518 160.62979,191.43517999999995" style="fill:#22b4ff;" /><path id="regionp691" class="region" d="M384.62979,371.43518 384.62979,606.43518 160.62979,606.43518 160.62979,551.43518 269.62983,551.43518 269.62979,371.43517999999995" style="fill:#ce1d41;" /><path id="regionp692" class="region" d="M-0.37021208,191.43518 160.25958,191.43518 160.25958,606.43518 -0.3702120799999875,606.43518" style="fill:#9eff2b;" /><path id="regionp693" class="region" d="M384.78021,236.31068 504.35044,236.31068 504.35044,606.43517 384.78021,606.43517" style="fill:#e9a32b;" /></g><g id="nodes" stroke="black"><g id="prt100" class="node" data-group="" text-rendering="geometricPrecision" shape-rendering="geometricPrecision" style=""><rect rx="4" ry="4" x="69.686239" y="18.118785999999993" width="74.0" height="29.0" style="fill:#cc99ff;" /><text x="106.686239" y="37.33268599999999" stroke="none" text-anchor="middle">PRT100</text></g><rect /><g id="prt120" class="node" data-group="" text-rendering="geometricPrecision" shape-rendering="geometricPrecision" style=""><rect rx="4" ry="4" x="69.686239" y="62.69068599999999" width="74.0" height="29.0" style="fill:#cc99ff;" /><text x="106.686239" y="81.904586" stroke="none" text-anchor="middle">PRT120</text></g><rect /><g id="prt217" class="node" data-group="" text-rendering="geometricPrecision" shape-rendering="geometricPrecision" style=""><rect rx="4" ry="4" x="69.686239" y="108.262696" width="74.0" height="29.0" style="fill:#cc99ff;" /><text x="106.686239" y="127.47648599999997" stroke="none" text-anchor="middle">PRT217</text></g><rect /><g id="prt219" class="node" data-group="" text-rendering="geometricPrecision" shape-rendering="geometricPrecision" style=""><rect rx="4" ry="4" x="183.68620900000002" y="108.262696" width="74.0" height="29.0" style="fill:#cc99ff;" /><text x="220.68620900000002" y="127.47648599999997" stroke="none" text-anchor="middle">PRT219</text></g><rect /><g id="prt220" class="node" data-group="" text-rendering="geometricPrecision" shape-rendering="geometricPrecision" style=""><rect rx="4" ry="4" x="69.686239" y="153.69419599999998" width="74.0" height="29.0" style="fill:#cc99ff;" /><text x="106.686239" y="172.90799599999997" stroke="none" text-anchor="middle">PRT220</text></g><rect /><g id="prt234" class="node" data-group="" text-rendering="geometricPrecision" shape-rendering="geometricPrecision" style=""><rect rx="4" ry="4" x="69.686239" y="199.12568599999997" width="74.0" height="29.0" style="fill:#99cc00;" /><text x="106.686239" y="218.33948599999997" stroke="none" text-anchor="middle">PRT234</text></g><rect /><g id="prt250" class="node" data-group="" text-rendering="geometricPrecision" shape-rendering="geometricPrecision" style=""><rect rx="4" ry="4" x="69.686239" y="289.988686" width="74.0" height="29.0" style="fill:#99cc00;" /><text x="106.686239" y="309.202586" stroke="none" text-anchor="middle">PRT250</text></g><rect /><g id="prt252" class="node" data-group="" text-rendering="geometricPrecision" shape-rendering="geometricPrecision" style=""><rect rx="4" ry="4" x="69.686239" y="335.42017599999997" width="74.0" height="29.0" style="fill:#99cc00;" /><text x="106.686239" y="354.634076" stroke="none" text-anchor="middle">PRT252</text></g><rect /><g id="prt255" class="node" data-group="" text-rendering="geometricPrecision" shape-rendering="geometricPrecision" style=""><rect rx="4" ry="4" x="69.686239" y="380.85169599999995" width="74.0" height="29.0" style="fill:#99cc00;" /><text x="106.686239" y="400.065566" stroke="none" text-anchor="middle">PRT255</text></g><rect /><g id="prt258" class="node" data-group="" text-rendering="geometricPrecision" shape-rendering="geometricPrecision" style=""><rect rx="4" ry="4" x="69.686239" y="244.55719599999998" width="74.0" height="29.0" style="fill:#99cc00;" /><text x="106.686239" y="263.771096" stroke="none" text-anchor="middle">PRT258</text></g><rect /><g id="prt299" class="node" data-group="" text-rendering="geometricPrecision" shape-rendering="geometricPrecision" style=""><rect rx="4" ry="4" x="411.686209" y="289.988686" width="74.0" height="29.0" style="fill:#ff9900;" /><text x="448.686209" y="309.202586" stroke="none" text-anchor="middle">PRT299</text></g><rect /><g id="prt320" class="node" data-group="" text-rendering="geometricPrecision" shape-rendering="geometricPrecision" style=""><rect rx="4" ry="4" x="297.686209" y="153.69419599999998" width="74.0" height="29.0" style="fill:#cc99ff;" /><text x="334.686209" y="172.90799599999997" stroke="none" text-anchor="middle">PRT320</text></g><rect /><g id="prt340" class="node" data-group="" text-rendering="geometricPrecision" shape-rendering="geometricPrecision" style=""><rect rx="4" ry="4" x="183.68620900000002" y="244.55719599999998" width="74.0" height="29.0" style="fill:#00ccff;" /><text x="220.68620900000002" y="263.771096" stroke="none" text-anchor="middle">PRT340</text></g><rect /><g id="prt345" class="node" data-group="" text-rendering="geometricPrecision" shape-rendering="geometricPrecision" style=""><rect rx="4" ry="4" x="183.68620900000002" y="289.988686" width="74.0" height="29.0" style="fill:#00ccff;" /><text x="220.68620900000002" y="309.202586" stroke="none" text-anchor="middle">PRT345</text></g><rect /><g id="prt351" class="node" data-group="" text-rendering="geometricPrecision" shape-rendering="geometricPrecision" style=""><rect rx="4" ry="4" x="183.68620900000002" y="335.42017599999997" width="74.0" height="29.0" style="fill:#00ccff;" /><text x="220.68620900000002" y="354.634076" stroke="none" text-anchor="middle">PRT351</text></g><rect /><g id="prt355" class="node" data-group="" text-rendering="geometricPrecision" shape-rendering="geometricPrecision" style=""><rect rx="4" ry="4" x="183.68620900000002" y="562.5777059999999" width="74.0" height="29.0" style="fill:#ff6666;" /><text x="220.68620900000002" y="581.791576" stroke="none" text-anchor="middle">PRT355</text></g><rect /><g id="prt357" class="node" data-group="" text-rendering="geometricPrecision" shape-rendering="geometricPrecision" style=""><rect rx="4" ry="4" x="297.686209" y="244.55719599999998" width="74.0" height="29.0" style="fill:#00ccff;" /><text x="334.686209" y="263.771096" stroke="none" text-anchor="middle">PRT357</text></g><rect /><g id="prt358" class="node" data-group="" text-rendering="geometricPrecision" shape-rendering="geometricPrecision" style=""><rect rx="4" ry="4" x="297.686209" y="380.85169599999995" width="74.0" height="29.0" style="fill:#ff6666;" /><text x="334.686209" y="400.065566" stroke="none" text-anchor="middle">PRT358</text></g><rect /><g id="prt359" class="node" data-group="" text-rendering="geometricPrecision" shape-rendering="geometricPrecision" style=""><rect rx="4" ry="4" x="297.686209" y="289.988686" width="74.0" height="29.0" style="fill:#00ccff;" /><text x="334.686209" y="309.202586" stroke="none" text-anchor="middle">PRT359</text></g><rect /><g id="prt365" class="node" data-group="" text-rendering="geometricPrecision" shape-rendering="geometricPrecision" style=""><rect rx="4" ry="4" x="297.686209" y="335.42017599999997" width="74.0" height="29.0" style="fill:#00ccff;" /><text x="334.686209" y="354.634076" stroke="none" text-anchor="middle">PRT365</text></g><rect /><g id="prt398" class="node" data-group="" text-rendering="geometricPrecision" shape-rendering="geometricPrecision" style=""><rect rx="4" ry="4" x="411.686209" y="335.42017599999997" width="74.0" height="29.0" style="fill:#ff9900;" /><text x="448.686209" y="354.634076" stroke="none" text-anchor="middle">PRT398</text></g><rect /><g id="prt399" class="node" data-group="" text-rendering="geometricPrecision" shape-rendering="geometricPrecision" style=""><rect rx="4" ry="4" x="411.686209" y="380.85169599999995" width="74.0" height="29.0" style="fill:#ff9900;" /><text x="448.686209" y="400.065566" stroke="none" text-anchor="middle">PRT399</text></g><rect /><g id="prt420" class="node" data-group="" text-rendering="geometricPrecision" shape-rendering="geometricPrecision" style=""><rect rx="4" ry="4" x="411.686209" y="153.69419599999998" width="74.0" height="29.0" style="fill:#cc99ff;" /><text x="448.686209" y="172.90799599999997" stroke="none" text-anchor="middle">PRT420</text></g><rect /><g id="prt423" class="node" data-group="" text-rendering="geometricPrecision" shape-rendering="geometricPrecision" style=""><rect rx="4" ry="4" x="411.686209" y="199.12568599999997" width="74.0" height="29.0" style="fill:#cc99ff;" /><text x="448.686209" y="218.33948599999997" stroke="none" text-anchor="middle">PRT423</text></g><rect /><g id="prt442" class="node" data-group="" text-rendering="geometricPrecision" shape-rendering="geometricPrecision" style=""><rect rx="4" ry="4" x="183.68620900000002" y="380.85169599999995" width="74.0" height="29.0" style="fill:#00ccff;" /><text x="220.68620900000002" y="400.065566" stroke="none" text-anchor="middle">PRT442</text></g><rect /><g id="prt443" class="node" data-group="" text-rendering="geometricPrecision" shape-rendering="geometricPrecision" style=""><rect rx="4" ry="4" x="183.68620900000002" y="426.2832159999999" width="74.0" height="29.0" style="fill:#00ccff;" /><text x="220.68620900000002" y="445.49708599999997" stroke="none" text-anchor="middle">PRT443</text></g><rect /><g id="prt452" class="node" data-group="" text-rendering="geometricPrecision" shape-rendering="geometricPrecision" style=""><rect rx="4" ry="4" x="183.68620900000002" y="471.71467599999994" width="74.0" height="29.0" style="fill:#00ccff;" /><text x="220.68620900000002" y="490.92859599999997" stroke="none" text-anchor="middle">PRT452</text></g><rect /><g id="prt458" class="node" data-group="" text-rendering="geometricPrecision" shape-rendering="geometricPrecision" style=""><rect rx="4" ry="4" x="183.68620900000002" y="517.146186" width="74.0" height="29.0" style="fill:#00ccff;" /><text x="220.68620900000002" y="536.360056" stroke="none" text-anchor="middle">PRT458</text></g><rect /><g id="prt490" class="node" data-group="" text-rendering="geometricPrecision" shape-rendering="geometricPrecision" style=""><rect rx="4" ry="4" x="411.686209" y="244.55719599999998" width="74.0" height="29.0" style="fill:#ff9900;" /><text x="448.686209" y="263.771096" stroke="none" text-anchor="middle">PRT490</text></g><rect /><g id="" class="node" data-group="" text-rendering="geometricPrecision" shape-rendering="geometricPrecision" style=""><rect rx="4" ry="4" x="-275.55502" y="175.88048" width="195.1848" height="41.620289" style="fill:#000000;" /></g></g><g id="bools"><g id="bool1363" class="bool"><ellipse cx="23.686239" cy="77.19068599999997" rx="9.8800001" ry="7.3684001" /><text x="23.686239" y="80.33329599999996" stroke="none" text-anchor="middle">or</text></g><g id="bool1380" class="bool"><ellipse cx="220.68620900000002" cy="168.19419599999998" rx="9.8800001" ry="7.3684001" /><text x="220.68620900000002" y="171.336776" stroke="none" text-anchor="middle">or</text></g><g id="bool1391" class="bool"><ellipse cx="220.68620900000002" cy="220.757186" rx="9.8800001" ry="7.3684001" /><text x="220.68620900000002" y="223.89979599999998" stroke="none" text-anchor="middle">and</text></g></g><g id="edges" stroke="black"><path id="pathp694" class="path" d="M69.684729,77.19068599999997 41.56622900000002,77.19068599999997" marker-end="url(#arrow)" data-source-node="prt120" data-target-node="bool1363" /><path id="pathp695" class="path" d="M69.684729,32.61878599999999 23.686128999999994,32.61878599999999 23.686128999999994,61.822285999999984" marker-end="url(#arrow)" data-source-node="prt100" data-target-node="bool1363" /><path id="pathp696" class="path" d="M23.686128999999994,84.55918600000001 23.686128999999994,122.76268599999997 61.684729000000004,122.76268599999997" marker-end="url(#arrow)" data-source-node="bool1363" data-target-node="prt217" /><path id="pathp697" class="path" d="M23.686128999999994,84.55918600000001 23.686128999999994,168.194186 61.684729000000004,168.194186" marker-end="url(#arrow)" data-source-node="bool1363" data-target-node="prt220" /><path id="pathp698" class="path" d="M143.67492900000002,168.19418599999995 202.8062290000001,168.19418599999995" marker-end="url(#arrow)" data-source-node="prt220" data-target-node="bool1380" /><path id="pathp699" class="path" d="M220.68622900000008,137.27058599999998 220.68622900000008,152.82568599999996" marker-end="url(#arrow)" data-source-node="prt219" data-target-node="bool1380" /><path id="pathp700" class="path" d="M230.56622900000008,168.19418599999995 289.7002290000001,168.19418599999995" marker-end="url(#arrow)" data-source-node="bool1380" data-target-node="prt320" /><path id="pathp701" class="path" d="M143.67492900000002,259.05718599999994 175.72222900000003,259.05718599999994" marker-end="url(#arrow)" data-source-node="prt258" data-target-node="prt340" /><path id="pathp702" class="path" d="M143.67492900000002,259.05718599999994 163.68622900000008,259.05718599999994 163.68622900000008,304.4886859999999 175.6974290000001,304.4886859999999" marker-end="url(#arrow)" data-source-node="prt258" data-target-node="prt345" /><path id="pathp703" class="path" d="M143.67492900000002,259.05718599999994 163.68622900000008,259.05718599999994 163.68622900000008,349.92018599999994 175.6974290000001,349.92018599999994" marker-end="url(#arrow)" data-source-node="prt258" data-target-node="prt351" /><path id="pathp704" class="path" d="M143.67492900000002,259.05718599999994 163.68622900000008,259.05718599999994 163.68622900000008,577.077686 175.6974290000001,577.077686" marker-end="url(#arrow)" data-source-node="prt258" data-target-node="prt355" /><path id="pathp705" class="path" d="M220.68622900000008,175.56258599999995 220.68622900000008,213.08218599999998 219.22172900000004,213.08218599999998 219.22172900000004,213.47188599999998" marker-end="url(#arrow)" data-source-node="bool1380" data-target-node="bool1391" /><path id="pathp706" class="path" d="M141.07092899999998,244.80038599999995 203.87012900000008,225.83558599999992" marker-end="url(#arrow)" data-source-node="prt258" data-target-node="bool1391" /><path id="pathp707" class="path" d="M230.56622900000008,220.757186 272.6862290000001,220.757186 272.6862290000001,259.057186 289.66182900000007,259.057186" marker-end="url(#arrow)" data-source-node="bool1391" data-target-node="prt357" /><path id="pathp708" class="path" d="M230.56622900000008,220.757186 272.6862290000001,220.757186 272.6862290000001,395.351686 289.66182900000007,395.351686" marker-end="url(#arrow)" data-source-node="bool1391" data-target-node="prt358" /><path id="pathp709" class="path" d="M230.56622900000008,220.757186 272.6862290000001,220.757186 272.6862290000001,304.488686 289.66182900000007,304.488686" marker-end="url(#arrow)" data-source-node="bool1391" data-target-node="prt359" /><path id="pathp710" class="path" d="M230.56622900000008,220.757186 272.6862290000001,220.757186 272.6862290000001,349.920186 289.66182900000007,349.920186" marker-end="url(#arrow)" data-source-node="bool1391" data-target-node="prt365" /><path id="pathp711" class="path" d="M371.6749290000001,168.19418599999995 403.722229,168.19418599999995" marker-end="url(#arrow)" data-source-node="prt320" data-target-node="prt420" /><path id="pathp712" class="path" d="M371.6803290000001,168.19418599999995 386.6862290000001,168.19418599999995 386.6862290000001,213.62568599999997 403.66182900000007,213.62568599999997" marker-end="url(#arrow)" data-source-node="prt320" data-target-node="prt423" /><path id="pathp713" class="path" d="M143.67492900000002,259.05718599999994 163.68622900000008,259.05718599999994 163.68622900000008,395.351686 175.6974290000001,395.351686" marker-end="url(#arrow)" data-source-node="prt258" data-target-node="prt442" /><path id="pathp714" class="path" d="M143.67492900000002,259.05718599999994 163.68622900000008,259.05718599999994 163.68622900000008,440.783186 175.6974290000001,440.783186" marker-end="url(#arrow)" data-source-node="prt258" data-target-node="prt443" /><path id="pathp715" class="path" d="M143.67492900000002,259.05718599999994 163.68622900000008,259.05718599999994 163.68622900000008,486.2146859999999 175.6974290000001,486.2146859999999" marker-end="url(#arrow)" data-source-node="prt258" data-target-node="prt452" /><path id="pathp716" class="path" d="M143.67492900000002,259.05718599999994 163.68622900000008,259.05718599999994 163.68622900000008,531.646186 175.6974290000001,531.646186" marker-end="url(#arrow)" data-source-node="prt258" data-target-node="prt458" /><path id="pathp717" class="path" d="M371.6803290000001,168.19418599999995 386.6862290000001,168.19418599999995 386.6862290000001,259.05718599999994 403.66182900000007,259.05718599999994" marker-end="url(#arrow)" data-source-node="prt320" data-target-node="prt490" /></g><g id="region-labels"><text x="218.14771" y="65.371437" stroke="none" fill="#000000" text-anchor="begin">Portuguese Language</text><text x="442.6485" y="450.89981" stroke="none" fill="#000000" text-anchor="middle">Reseach and </text><text x="442.6485" y="469.64981" stroke="none" fill="#000000" text-anchor="middle">Independent </text><text x="440.01178" y="488.39981" stroke="none" fill="#000000" text-anchor="middle">Study</text><text x="298.56839" y="452.33505" stroke="none" fill="#000000" text-anchor="begin">Special </text><text x="298.56839" y="471.08505" stroke="none" fill="#000000" text-anchor="begin">Topics</text><text x="47.411446" y="450.89984" stroke="none" fill="#000000" text-anchor="begin">Culture</text></g></svg>