<?xml version="1.0" encoding="UTF-8"?>
<!DOCTYPE svg PUBLIC "-//W3C//DTD SVG 1.1//EN"
    "http://www.w3.org/Graphics/SVG/1.1/DTD/svg11.dtd">
<svg xmlns="http://www.w3.org/2000/svg" xmlns:xlink="http://www.w3.org/1999/xlink" width="100%" height="100%" preserveAspectRatio="xMinYMin" viewBox="0 0 842.0 977.0" xmlns:svg="http://www.w3.org/2000/svg" xmlns:dc="http://purl.org/dc/elements/1.1/" xmlns:cc="http://creativecommons.org/ns#" xmlns:rdf="http://www.w3.org/1999/02/22-rdf-syntax-ns#" version="1.1"><defs><marker id="arrow" viewBox="0 0 10 10" refX="4" refY="5" markerUnits="strokeWidth" orient="auto" markerWidth="7" markerHeight="7"><polyline points="0,1 10,5 0,9" fill="black" /></marker></defs><g id="regions"></g><g id="nodes" stroke="black"><g id="ggr100" class="node" data-group="" text-rendering="geometricPrecision" shape-rendering="geometricPrecision" style=""><rect rx="4" ry="4" x="17.711810000000014" y="16.055999999999997" width="74.0" height="29.0" style="fill:#ccffff;" /><text x="54.711810000000014" y="35.269901" stroke="none" text-anchor="middle">GGR100</text></g><rect /><g id="ggr101" class="node" data-group="" text-rendering="geometricPrecision" shape-rendering="geometricPrecision" style=""><rect rx="4" ry="4" x="17.711810000000014" y="55.910202" width="74.0" height="29.0" style="fill:#ccffff;" /><text x="54.711810000000014" y="75.1241" stroke="none" text-anchor="middle">GGR101</text></g><rect /><g id="ggr107" class="node" data-group="" text-rendering="geometricPrecision" shape-rendering="geometricPrecision" style=""><rect rx="4" ry="4" x="115.32751000000002" y="55.910202" width="74.0" height="29.0" style="fill:#ccffff;" /><text x="152.32751000000002" y="75.1241" stroke="none" text-anchor="middle">GGR107</text></g><rect /><g id="ggr112" class="node" data-group="" text-rendering="geometricPrecision" shape-rendering="geometricPrecision" style=""><rect rx="4" ry="4" x="17.711810000000014" y="97.1096" width="74.0" height="29.0" style="fill:#ccffff;" /><text x="54.711810000000014" y="116.3235" stroke="none" text-anchor="middle">GGR112</text></g><rect /><g id="ggr124" class="node" data-group="" text-rendering="geometricPrecision" shape-rendering="geometricPrecision" style=""><rect rx="4" ry="4" x="17.711810000000014" y="226.8271" width="74.0" height="29.0" style="fill:#ccffff;" /><text x="54.711810000000014" y="246.04099000000002" stroke="none" text-anchor="middle">GGR124</text></g><rect /><g id="ggr201" class="node" data-group="" text-rendering="geometricPrecision" shape-rendering="geometricPrecision" style=""><rect rx="4" ry="4" x="17.711810000000014" y="509.1286" width="74.0" height="29.0" style="fill:#ccffff;" /><text x="54.711810000000014" y="528.34241" stroke="none" text-anchor="middle">GGR201</text></g><rect /><g id="ggr203" class="node" data-group="" text-rendering="geometricPrecision" shape-rendering="geometricPrecision" style=""><rect rx="4" ry="4" x="17.711810000000014" y="549.59167" width="74.0" height="29.0" style="fill:#ccffff;" /><text x="54.711810000000014" y="568.8056" stroke="none" text-anchor="middle">GGR203</text></g><rect /><g id="ggr205" class="node" data-group="" text-rendering="geometricPrecision" shape-rendering="geometricPrecision" style=""><rect rx="4" ry="4" x="17.711810000000014" y="590.05487" width="74.0" height="29.0" style="fill:#ccffff;" /><text x="54.711810000000014" y="609.2688" stroke="none" text-anchor="middle">GGR205</text></g><rect /><g id="ggr206" class="node" data-group="" text-rendering="geometricPrecision" shape-rendering="geometricPrecision" style=""><rect rx="4" ry="4" x="17.711810000000014" y="630.51813" width="74.0" height="29.0" style="fill:#ccffff;" /><text x="54.711810000000014" y="649.73199" stroke="none" text-anchor="middle">GGR206</text></g><rect /><g id="ggr216" class="node" data-group="" text-rendering="geometricPrecision" shape-rendering="geometricPrecision" style=""><rect rx="4" ry="4" x="372.92071999999996" y="15.880797999999999" width="74.0" height="29.0" style="fill:#ccffff;" /><text x="409.92071999999996" y="35.0947" stroke="none" text-anchor="middle">GGR216</text></g><rect /><g id="jgi216" class="node" data-group="" text-rendering="geometricPrecision" shape-rendering="geometricPrecision" style=""><rect rx="4" ry="4" x="372.92071999999996" y="55.191902" width="74.0" height="29.0" style="fill:#ccffff;" /><text x="409.92071999999996" y="74.4058" stroke="none" text-anchor="middle">JGI216</text></g><rect /><g id="ggr217" class="node" data-group="" text-rendering="geometricPrecision" shape-rendering="geometricPrecision" style=""><rect rx="4" ry="4" x="372.92071999999996" y="95.6551" width="74.0" height="29.0" style="fill:#ccffff;" /><text x="409.92071999999996" y="114.869" stroke="none" text-anchor="middle">GGR217</text></g><rect /><g id="ggr220" class="node" data-group="" text-rendering="geometricPrecision" shape-rendering="geometricPrecision" style=""><rect rx="4" ry="4" x="17.711810000000014" y="269.0354" width="74.0" height="29.0" style="fill:#ccffff;" /><text x="54.711810000000014" y="288.2493" stroke="none" text-anchor="middle">GGR220</text></g><rect /><g id="ggr221" class="node" data-group="" text-rendering="geometricPrecision" shape-rendering="geometricPrecision" style=""><rect rx="4" ry="4" x="17.711810000000014" y="309.4986" width="74.0" height="29.0" style="fill:#ccffff;" /><text x="54.711810000000014" y="328.7124" stroke="none" text-anchor="middle">GGR221</text></g><rect /><g id="ggr223" class="node" data-group="" text-rendering="geometricPrecision" shape-rendering="geometricPrecision" style=""><rect rx="4" ry="4" x="114.74239999999998" y="180.62891" width="74.0" height="29.0" style="fill:#ccffff;" /><text x="151.74239999999998" y="199.8428" stroke="none" text-anchor="middle">GGR223</text></g><rect /><g id="ggr225" class="node" data-group="" text-rendering="geometricPrecision" shape-rendering="geometricPrecision" style=""><rect rx="4" ry="4" x="371.46667" y="136.09039" width="74.0" height="29.0" style="fill:#ccffff;" /><text x="408.46667" y="155.3042" stroke="none" text-anchor="middle">GGR225</text></g><rect /><g id="ggr240" class="node" data-group="" text-rendering="geometricPrecision" shape-rendering="geometricPrecision" style=""><rect rx="4" ry="4" x="372.92071999999996" y="176.5256" width="74.0" height="29.0" style="fill:#ccffff;" /><text x="409.92071999999996" y="195.7395" stroke="none" text-anchor="middle">GGR240</text></g><rect /><g id="ggr241" class="node" data-group="" text-rendering="geometricPrecision" shape-rendering="geometricPrecision" style=""><rect rx="4" ry="4" x="372.92071999999996" y="217.7119" width="74.0" height="29.0" style="fill:#ccffff;" /><text x="409.92071999999996" y="236.92581" stroke="none" text-anchor="middle">GGR241</text></g><rect /><g id="ggr246" class="node" data-group="" text-rendering="geometricPrecision" shape-rendering="geometricPrecision" style=""><rect rx="4" ry="4" x="372.92071999999996" y="256.75351" width="74.0" height="29.0" style="fill:#ccffff;" /><text x="409.92071999999996" y="275.96741" stroke="none" text-anchor="middle">GGR246</text></g><rect /><g id="ggr251" class="node" data-group="" text-rendering="geometricPrecision" shape-rendering="geometricPrecision" style=""><rect rx="4" ry="4" x="371.46667" y="295.7951" width="74.0" height="29.0" style="fill:#ccffff;" /><text x="408.46667" y="315.00891" stroke="none" text-anchor="middle">GGR251</text></g><rect /><g id="ggr252" class="node" data-group="" text-rendering="geometricPrecision" shape-rendering="geometricPrecision" style=""><rect rx="4" ry="4" x="371.46667" y="335.67059" width="74.0" height="29.0" style="fill:#ccffff;" /><text x="408.46667" y="354.88449" stroke="none" text-anchor="middle">GGR252</text></g><rect /><g id="ggr270" class="node" data-group="" text-rendering="geometricPrecision" shape-rendering="geometricPrecision" style=""><rect rx="4" ry="4" x="15.890899999999988" y="796.52197" width="74.0" height="29.0" style="fill:#ccffff;" /><text x="52.89089999999999" y="815.7359" stroke="none" text-anchor="middle">GGR270</text></g><rect /><g id="ggr271" class="node" data-group="" text-rendering="geometricPrecision" shape-rendering="geometricPrecision" style=""><rect rx="4" ry="4" x="15.890899999999988" y="838.29529" width="74.0" height="29.0" style="fill:#ccffff;" /><text x="52.89089999999999" y="857.50922" stroke="none" text-anchor="middle">GGR271</text></g><rect /><g id="ggr272" class="node" data-group="" text-rendering="geometricPrecision" shape-rendering="geometricPrecision" style=""><rect rx="4" ry="4" x="17.711810000000014" y="880.52197" width="74.0" height="29.0" style="fill:#ccffff;" /><text x="54.711810000000014" y="899.7359" stroke="none" text-anchor="middle">GGR272</text></g><rect /><g id="ggr273" class="node" data-group="" text-rendering="geometricPrecision" shape-rendering="geometricPrecision" style=""><rect rx="4" ry="4" x="17.711810000000014" y="921.80151" width="74.0" height="29.0" style="fill:#ccffff;" /><text x="54.711810000000014" y="941.01532" stroke="none" text-anchor="middle">GGR273</text></g><rect /><g id="ggr299" class="node" data-group="" text-rendering="geometricPrecision" shape-rendering="geometricPrecision" style=""><rect rx="4" ry="4" x="372.92071999999996" y="415.4216" width="74.0" height="29.0" style="fill:#ccffff;" /><text x="409.92071999999996" y="434.6355" stroke="none" text-anchor="middle">GGR299</text></g><rect /><g id="ggr300" class="node" data-group="" text-rendering="geometricPrecision" shape-rendering="geometricPrecision" style=""><rect rx="4" ry="4" x="468.7912" y="16.624699" width="74.0" height="29.0" style="fill:#ccffff;" /><text x="505.7912" y="35.838501" stroke="none" text-anchor="middle">GGR300</text></g><rect /><g id="ggr301" class="node" data-group="" text-rendering="geometricPrecision" shape-rendering="geometricPrecision" style=""><rect rx="4" ry="4" x="230.7865" y="796.52197" width="74.0" height="29.0" style="fill:#ccffff;" /><text x="267.7865" y="815.7359" stroke="none" text-anchor="middle">GGR301</text></g><rect /><g id="ggr305" class="node" data-group="" text-rendering="geometricPrecision" shape-rendering="geometricPrecision" style=""><rect rx="4" ry="4" x="17.711810000000014" y="671.56897" width="74.0" height="29.0" style="fill:#ccffff;" /><text x="54.711810000000014" y="690.78278" stroke="none" text-anchor="middle">GGR305</text></g><rect /><g id="ggr307" class="node" data-group="" text-rendering="geometricPrecision" shape-rendering="geometricPrecision" style=""><rect rx="4" ry="4" x="468.7912" y="56.478798" width="74.0" height="29.0" style="fill:#ccffff;" /><text x="505.7912" y="75.6927" stroke="none" text-anchor="middle">GGR307</text></g><rect /><g id="ggr308" class="node" data-group="" text-rendering="geometricPrecision" shape-rendering="geometricPrecision" style=""><rect rx="4" ry="4" x="468.7912" y="96.333" width="74.0" height="29.0" style="fill:#ccffff;" /><text x="505.7912" y="115.54679999999999" stroke="none" text-anchor="middle">GGR308</text></g><rect /><g id="ggr314" class="node" data-group="" text-rendering="geometricPrecision" shape-rendering="geometricPrecision" style=""><rect rx="4" ry="4" x="468.7912" y="136.1871" width="74.0" height="29.0" style="fill:#ccffff;" /><text x="505.7912" y="155.401" stroke="none" text-anchor="middle">GGR314</text></g><rect /><g id="ggr320" class="node" data-group="" text-rendering="geometricPrecision" shape-rendering="geometricPrecision" style=""><rect rx="4" ry="4" x="468.7912" y="176.04131" width="74.0" height="29.0" style="fill:#ccffff;" /><text x="505.7912" y="195.2551" stroke="none" text-anchor="middle">GGR320</text></g><rect /><g id="jug320" class="node" data-group="" text-rendering="geometricPrecision" shape-rendering="geometricPrecision" style=""><rect rx="4" ry="4" x="468.7912" y="215.8954" width="74.0" height="29.0" style="fill:#ccffff;" /><text x="505.7912" y="235.10931" stroke="none" text-anchor="middle">JUG320</text></g><rect /><g id="ggr321" class="node" data-group="" text-rendering="geometricPrecision" shape-rendering="geometricPrecision" style=""><rect rx="4" ry="4" x="468.7912" y="254.67739999999998" width="74.0" height="29.0" style="fill:#ccffff;" /><text x="505.7912" y="273.8912" stroke="none" text-anchor="middle">GGR321</text></g><rect /><g id="jge321" class="node" data-group="" text-rendering="geometricPrecision" shape-rendering="geometricPrecision" style=""><rect rx="4" ry="4" x="468.7912" y="297.06381" width="74.0" height="29.0" style="fill:#ccffff;" /><text x="505.7912" y="316.27771" stroke="none" text-anchor="middle">JGE321</text></g><rect /><g id="ggr323" class="node" data-group="" text-rendering="geometricPrecision" shape-rendering="geometricPrecision" style=""><rect rx="4" ry="4" x="468.7912" y="336.918" width="74.0" height="29.0" style="fill:#ccffff;" /><text x="505.7912" y="356.13181" stroke="none" text-anchor="middle">GGR323</text></g><rect /><g id="ggr326" class="node" data-group="" text-rendering="geometricPrecision" shape-rendering="geometricPrecision" style=""><rect rx="4" ry="4" x="468.7912" y="377.7113" width="74.0" height="29.0" style="fill:#ccffff;" /><text x="505.7912" y="396.92511" stroke="none" text-anchor="middle">GGR326</text></g><rect /><g id="ggr327" class="node" data-group="" text-rendering="geometricPrecision" shape-rendering="geometricPrecision" style=""><rect rx="4" ry="4" x="161.27121" y="367.13831" width="74.0" height="29.0" style="fill:#ccffff;" /><text x="198.27121" y="386.3522" stroke="none" text-anchor="middle">GGR327</text></g><rect /><g id="ggr328" class="node" data-group="" text-rendering="geometricPrecision" shape-rendering="geometricPrecision" style=""><rect rx="4" ry="4" x="161.27121" y="407.86649" width="74.0" height="29.0" style="fill:#ccffff;" /><text x="198.27121" y="427.08029" stroke="none" text-anchor="middle">GGR328</text></g><rect /><g id="ggr329" class="node" data-group="" text-rendering="geometricPrecision" shape-rendering="geometricPrecision" style=""><rect rx="4" ry="4" x="468.7912" y="419.88589" width="74.0" height="29.0" style="fill:#ccffff;" /><text x="505.7912" y="439.09979" stroke="none" text-anchor="middle">GGR329</text></g><rect /><g id="jge331" class="node" data-group="" text-rendering="geometricPrecision" shape-rendering="geometricPrecision" style=""><rect rx="4" ry="4" x="255.9808" y="97.1096" width="74.0" height="29.0" style="fill:#ccffff;" /><text x="292.9808" y="116.3235" stroke="none" text-anchor="middle">JGE331</text></g><rect /><g id="env221" class="node" data-group="" text-rendering="geometricPrecision" shape-rendering="geometricPrecision" style=""><rect rx="4" ry="4" x="115.32751000000002" y="97.1096" width="74.0" height="29.0" style="fill:#ccffff;" /><text x="152.32751000000002" y="116.3235" stroke="none" text-anchor="middle">ENV221</text></g><rect /><g id="env222" class="node" data-group="" text-rendering="geometricPrecision" shape-rendering="geometricPrecision" style=""><rect rx="4" ry="4" x="115.32751000000002" y="138.38901" width="74.0" height="29.0" style="fill:#ccffff;" /><text x="152.32751000000002" y="157.60291" stroke="none" text-anchor="middle">ENV222</text></g><rect /><g id="ggr334" class="node" data-group="" text-rendering="geometricPrecision" shape-rendering="geometricPrecision" style=""><rect rx="4" ry="4" x="468.7912" y="541.59882" width="74.0" height="29.0" style="fill:#ccffff;" /><text x="505.7912" y="560.81268" stroke="none" text-anchor="middle">GGR334</text></g><rect /><g id="ggr336" class="node" data-group="" text-rendering="geometricPrecision" shape-rendering="geometricPrecision" style=""><rect rx="4" ry="4" x="468.7912" y="461.2601" width="74.0" height="29.0" style="fill:#ccffff;" /><text x="505.7912" y="480.474" stroke="none" text-anchor="middle">GGR336</text></g><rect /><g id="ggr337" class="node" data-group="" text-rendering="geometricPrecision" shape-rendering="geometricPrecision" style=""><rect rx="4" ry="4" x="468.7912" y="500.87591999999995" width="74.0" height="29.0" style="fill:#ccffff;" /><text x="505.7912" y="520.08978" stroke="none" text-anchor="middle">GGR337</text></g><rect /><g id="ggr338" class="node" data-group="" text-rendering="geometricPrecision" shape-rendering="geometricPrecision" style=""><rect rx="4" ry="4" x="468.7912" y="584.54688" width="74.0" height="29.0" style="fill:#ccffff;" /><text x="505.7912" y="603.76068" stroke="none" text-anchor="middle">GGR338</text></g><rect /><g id="ggr339" class="node" data-group="" text-rendering="geometricPrecision" shape-rendering="geometricPrecision" style=""><rect rx="4" ry="4" x="161.27121" y="448.5946" width="74.0" height="29.0" style="fill:#ccffff;" /><text x="198.27121" y="467.8085" stroke="none" text-anchor="middle">GGR339</text></g><rect /><g id="ggr340" class="node" data-group="" text-rendering="geometricPrecision" shape-rendering="geometricPrecision" style=""><rect rx="4" ry="4" x="468.7912" y="624.71631" width="74.0" height="29.0" style="fill:#ccffff;" /><text x="505.7912" y="643.93011" stroke="none" text-anchor="middle">GGR340</text></g><rect /><g id="ggr341" class="node" data-group="" text-rendering="geometricPrecision" shape-rendering="geometricPrecision" style=""><rect rx="4" ry="4" x="564.6618" y="16.209400000000002" width="74.0" height="29.0" style="fill:#ccffff;" /><text x="601.6618" y="35.423302" stroke="none" text-anchor="middle">GGR341</text></g><rect /><g id="ggr342" class="node" data-group="" text-rendering="geometricPrecision" shape-rendering="geometricPrecision" style=""><rect rx="4" ry="4" x="564.6618" y="56.838302999999996" width="74.0" height="29.0" style="fill:#ccffff;" /><text x="601.6618" y="76.0522" stroke="none" text-anchor="middle">GGR342</text></g><rect /><g id="ggr343" class="node" data-group="" text-rendering="geometricPrecision" shape-rendering="geometricPrecision" style=""><rect rx="4" ry="4" x="564.6618" y="97.4672" width="74.0" height="29.0" style="fill:#ccffff;" /><text x="601.6618" y="116.68110999999999" stroke="none" text-anchor="middle">GGR343</text></g><rect /><g id="jgi346" class="node" data-group="" text-rendering="geometricPrecision" shape-rendering="geometricPrecision" style=""><rect rx="4" ry="4" x="564.6618" y="136.1871" width="74.0" height="29.0" style="fill:#ccffff;" /><text x="601.6618" y="155.401" stroke="none" text-anchor="middle">JGI346</text></g><rect /><g id="ggr347" class="node" data-group="" text-rendering="geometricPrecision" shape-rendering="geometricPrecision" style=""><rect rx="4" ry="4" x="564.6618" y="174.9071" width="74.0" height="29.0" style="fill:#ccffff;" /><text x="601.6618" y="194.1209" stroke="none" text-anchor="middle">GGR347</text></g><rect /><g id="ggr348" class="node" data-group="" text-rendering="geometricPrecision" shape-rendering="geometricPrecision" style=""><rect rx="4" ry="4" x="564.6618" y="215.37019" width="74.0" height="29.0" style="fill:#ccffff;" /><text x="601.6618" y="234.58411" stroke="none" text-anchor="middle">GGR348</text></g><rect /><g id="ggr352" class="node" data-group="" text-rendering="geometricPrecision" shape-rendering="geometricPrecision" style=""><rect rx="4" ry="4" x="161.27121" y="489.32268999999997" width="74.0" height="29.0" style="fill:#ccffff;" /><text x="198.27121" y="508.53661999999997" stroke="none" text-anchor="middle">GGR352</text></g><rect /><g id="ggr356" class="node" data-group="" text-rendering="geometricPrecision" shape-rendering="geometricPrecision" style=""><rect rx="4" ry="4" x="564.6618" y="255.83339999999998" width="74.0" height="29.0" style="fill:#ccffff;" /><text x="601.6618" y="275.0473" stroke="none" text-anchor="middle">GGR356</text></g><rect /><g id="ggr357" class="node" data-group="" text-rendering="geometricPrecision" shape-rendering="geometricPrecision" style=""><rect rx="4" ry="4" x="564.6618" y="298.92789" width="74.0" height="29.0" style="fill:#ccffff;" /><text x="601.6618" y="318.14182" stroke="none" text-anchor="middle">GGR357</text></g><rect /><g id="ggr359" class="node" data-group="" text-rendering="geometricPrecision" shape-rendering="geometricPrecision" style=""><rect rx="4" ry="4" x="564.6618" y="339.39111" width="74.0" height="29.0" style="fill:#ccffff;" /><text x="601.6618" y="358.60501" stroke="none" text-anchor="middle">GGR359</text></g><rect /><g id="ggr360" class="node" data-group="" text-rendering="geometricPrecision" shape-rendering="geometricPrecision" style=""><rect rx="4" ry="4" x="161.27121" y="530.0509" width="74.0" height="29.0" style="fill:#ccffff;" /><text x="198.27121" y="549.26477" stroke="none" text-anchor="middle">GGR360</text></g><rect /><g id="ggr361" class="node" data-group="" text-rendering="geometricPrecision" shape-rendering="geometricPrecision" style=""><rect rx="4" ry="4" x="564.6618" y="379.85431" width="74.0" height="29.0" style="fill:#ccffff;" /><text x="601.6618" y="399.06821" stroke="none" text-anchor="middle">GGR361</text></g><rect /><g id="ggr363" class="node" data-group="" text-rendering="geometricPrecision" shape-rendering="geometricPrecision" style=""><rect rx="4" ry="4" x="161.27121" y="570.77899" width="74.0" height="29.0" style="fill:#ccffff;" /><text x="198.27121" y="589.99292" stroke="none" text-anchor="middle">GGR363</text></g><rect /><g id="ggr373" class="node" data-group="" text-rendering="geometricPrecision" shape-rendering="geometricPrecision" style=""><rect rx="4" ry="4" x="121.71179000000001" y="921.80151" width="74.0" height="29.0" style="fill:#ccffff;" /><text x="158.71179" y="941.01532" stroke="none" text-anchor="middle">GGR373</text></g><rect /><g id="ggr374" class="node" data-group="" text-rendering="geometricPrecision" shape-rendering="geometricPrecision" style=""><rect rx="4" ry="4" x="564.6618" y="420.3754" width="74.0" height="29.0" style="fill:#ccffff;" /><text x="601.6618" y="439.5892" stroke="none" text-anchor="middle">GGR374</text></g><rect /><g id="ggr381" class="node" data-group="" text-rendering="geometricPrecision" shape-rendering="geometricPrecision" style=""><rect rx="4" ry="4" x="564.6618" y="464.11429" width="74.0" height="29.0" style="fill:#ccffff;" /><text x="601.6618" y="483.32809" stroke="none" text-anchor="middle">GGR381</text></g><rect /><g id="ggr382" class="node" data-group="" text-rendering="geometricPrecision" shape-rendering="geometricPrecision" style=""><rect rx="4" ry="4" x="564.6618" y="506.32257000000004" width="74.0" height="29.0" style="fill:#ccffff;" /><text x="601.6618" y="525.53638" stroke="none" text-anchor="middle">GGR382</text></g><rect /><g id="ggr390" class="node" data-group="" text-rendering="geometricPrecision" shape-rendering="geometricPrecision" style=""><rect rx="4" ry="4" x="159.15179" y="610.51813" width="74.0" height="29.0" style="fill:#ccffff;" /><text x="196.15179" y="629.73199" stroke="none" text-anchor="middle">GGR390</text></g><rect /><g id="env234" class="node" data-group="" text-rendering="geometricPrecision" shape-rendering="geometricPrecision" style=""><rect rx="4" ry="4" x="17.711810000000014" y="751.90771" width="74.0" height="29.0" style="fill:#ccffff;" /><text x="54.711810000000014" y="771.12152" stroke="none" text-anchor="middle">ENV234</text></g><rect /><g id="ess102" class="node" data-group="" text-rendering="geometricPrecision" shape-rendering="geometricPrecision" style=""><rect rx="4" ry="4" x="17.711810000000014" y="711.73828" width="74.0" height="29.0" style="fill:#ccffff;" /><text x="54.711810000000014" y="730.95209" stroke="none" text-anchor="middle">ESS102</text></g><rect /><g id="h2926" class="hybrid" data-group="" text-rendering="geometricPrecision" shape-rendering="geometricPrecision"><rect rx="4" ry="4" x="28.742289999999997" y="471.45871" width="52.768799" height="24.0" style="fill:#888888;" /><text x="55.1266895" y="487.38689999999997" stroke="none" fill="white" text-anchor="middle">GGR100</text></g><rect /><g id="ggr398" class="node" data-group="" text-rendering="geometricPrecision" shape-rendering="geometricPrecision" style=""><rect rx="4" ry="4" x="564.6618" y="547.84662" width="74.0" height="29.0" style="fill:#ccffff;" /><text x="601.6618" y="567.06049" stroke="none" text-anchor="middle">GGR398</text></g><rect /><g id="ggr399" class="node" data-group="" text-rendering="geometricPrecision" shape-rendering="geometricPrecision" style=""><rect rx="4" ry="4" x="564.6618" y="590.05487" width="74.0" height="29.0" style="fill:#ccffff;" /><text x="601.6618" y="609.2688" stroke="none" text-anchor="middle">GGR399</text></g><rect /><g id="ggr400" class="node" data-group="" text-rendering="geometricPrecision" shape-rendering="geometricPrecision" style=""><rect rx="4" ry="4" x="660.53229" y="17.686901" width="74.0" height="29.0" style="fill:#ccffff;" /><text x="697.53229" y="36.900802999999996" stroke="none" text-anchor="middle">GGR400</text></g><rect /><g id="ggr401" class="node" data-group="" text-rendering="geometricPrecision" shape-rendering="geometricPrecision" style=""><rect rx="4" ry="4" x="660.53229" y="57.311797999999996" width="74.0" height="29.0" style="fill:#ccffff;" /><text x="697.53229" y="76.5257" stroke="none" text-anchor="middle">GGR401</text></g><rect /><g id="ggr405" class="node" data-group="" text-rendering="geometricPrecision" shape-rendering="geometricPrecision" style=""><rect rx="4" ry="4" x="660.53229" y="97.6454" width="74.0" height="29.0" style="fill:#ccffff;" /><text x="697.53229" y="116.85920999999999" stroke="none" text-anchor="middle">GGR405</text></g><rect /><g id="ggr413" class="node" data-group="" text-rendering="geometricPrecision" shape-rendering="geometricPrecision" style=""><rect rx="4" ry="4" x="660.53229" y="137.9789" width="74.0" height="29.0" style="fill:#ccffff;" /><text x="697.53229" y="157.19279" stroke="none" text-anchor="middle">GGR413</text></g><rect /><g id="ggr416" class="node" data-group="" text-rendering="geometricPrecision" shape-rendering="geometricPrecision" style=""><rect rx="4" ry="4" x="230.7865" y="838.29529" width="74.0" height="29.0" style="fill:#ccffff;" /><text x="267.7865" y="857.50922" stroke="none" text-anchor="middle">GGR416</text></g><rect /><g id="ggr418" class="node" data-group="" text-rendering="geometricPrecision" shape-rendering="geometricPrecision" style=""><rect rx="4" ry="4" x="255.9808" y="180.62891" width="74.0" height="29.0" style="fill:#ccffff;" /><text x="292.9808" y="199.8428" stroke="none" text-anchor="middle">GGR418</text></g><rect /><g id="ggr419" class="node" data-group="" text-rendering="geometricPrecision" shape-rendering="geometricPrecision" style=""><rect rx="4" ry="4" x="660.53229" y="176.00459" width="74.0" height="29.0" style="fill:#ccffff;" /><text x="697.53229" y="195.21851" stroke="none" text-anchor="middle">GGR419</text></g><rect /><g id="ggr421" class="node" data-group="" text-rendering="geometricPrecision" shape-rendering="geometricPrecision" style=""><rect rx="4" ry="4" x="660.53229" y="214.0304" width="74.0" height="29.0" style="fill:#ccffff;" /><text x="697.53229" y="233.24419999999998" stroke="none" text-anchor="middle">GGR421</text></g><rect /><g id="ggr424" class="node" data-group="" text-rendering="geometricPrecision" shape-rendering="geometricPrecision" style=""><rect rx="4" ry="4" x="255.9808" y="269.0354" width="74.0" height="29.0" style="fill:#ccffff;" /><text x="292.9808" y="288.2493" stroke="none" text-anchor="middle">GGR424</text></g><rect /><g id="ggr430" class="node" data-group="" text-rendering="geometricPrecision" shape-rendering="geometricPrecision" style=""><rect rx="4" ry="4" x="660.53229" y="252.05608999999998" width="74.0" height="29.0" style="fill:#ccffff;" /><text x="697.53229" y="271.26999" stroke="none" text-anchor="middle">GGR430</text></g><rect /><g id="ggr431" class="node" data-group="" text-rendering="geometricPrecision" shape-rendering="geometricPrecision" style=""><rect rx="4" ry="4" x="255.9808" y="309.4986" width="74.0" height="29.0" style="fill:#ccffff;" /><text x="292.9808" y="328.7124" stroke="none" text-anchor="middle">GGR431</text></g><rect /><g id="ggr433" class="node" data-group="" text-rendering="geometricPrecision" shape-rendering="geometricPrecision" style=""><rect rx="4" ry="4" x="660.53229" y="294.4704" width="74.0" height="29.0" style="fill:#ccffff;" /><text x="697.53229" y="313.6843" stroke="none" text-anchor="middle">GGR433</text></g><rect /><g id="ggr434" class="node" data-group="" text-rendering="geometricPrecision" shape-rendering="geometricPrecision" style=""><rect rx="4" ry="4" x="660.53229" y="336.67871" width="74.0" height="29.0" style="fill:#ccffff;" /><text x="697.53229" y="355.89261" stroke="none" text-anchor="middle">GGR434</text></g><rect /><g id="ggr438" class="node" data-group="" text-rendering="geometricPrecision" shape-rendering="geometricPrecision" style=""><rect rx="4" ry="4" x="660.53229" y="377.1998" width="74.0" height="29.0" style="fill:#ccffff;" /><text x="697.53229" y="396.4136" stroke="none" text-anchor="middle">GGR438</text></g><rect /><g id="ggr439" class="node" data-group="" text-rendering="geometricPrecision" shape-rendering="geometricPrecision" style=""><rect rx="4" ry="4" x="660.53229" y="417.66299" width="74.0" height="29.0" style="fill:#ccffff;" /><text x="697.53229" y="436.8768" stroke="none" text-anchor="middle">GGR439</text></g><rect /><g id="ggr452" class="node" data-group="" text-rendering="geometricPrecision" shape-rendering="geometricPrecision" style=""><rect rx="4" ry="4" x="307.96469" y="468.95871" width="74.0" height="29.0" style="fill:#ccffff;" /><text x="344.96469" y="488.17249000000004" stroke="none" text-anchor="middle">GGR452</text></g><rect /><g id="jgi454" class="node" data-group="" text-rendering="geometricPrecision" shape-rendering="geometricPrecision" style=""><rect rx="4" ry="4" x="660.53229" y="460.69958" width="74.0" height="29.0" style="fill:#ccffff;" /><text x="697.53229" y="479.91351" stroke="none" text-anchor="middle">JGI454</text></g><rect /><g id="ggr457" class="node" data-group="" text-rendering="geometricPrecision" shape-rendering="geometricPrecision" style=""><rect rx="4" ry="4" x="660.53229" y="501.16278" width="74.0" height="29.0" style="fill:#ccffff;" /><text x="697.53229" y="520.37659" stroke="none" text-anchor="middle">GGR457</text></g><rect /><g id="ggr458" class="node" data-group="" text-rendering="geometricPrecision" shape-rendering="geometricPrecision" style=""><rect rx="4" ry="4" x="660.53229" y="541.62598" width="74.0" height="29.0" style="fill:#ccffff;" /><text x="697.53229" y="560.83978" stroke="none" text-anchor="middle">GGR458</text></g><rect /><g id="ggr462" class="node" data-group="" text-rendering="geometricPrecision" shape-rendering="geometricPrecision" style=""><rect rx="4" ry="4" x="230.7865" y="880.52197" width="74.0" height="29.0" style="fill:#ccffff;" /><text x="267.7865" y="899.7359" stroke="none" text-anchor="middle">GGR462</text></g><rect /><g id="jfg470" class="node" data-group="" text-rendering="geometricPrecision" shape-rendering="geometricPrecision" style=""><rect rx="4" ry="4" x="660.53229" y="589.17969" width="74.0" height="29.0" style="fill:#ccffff;" /><text x="697.53229" y="608.39362" stroke="none" text-anchor="middle">JFG470</text></g><rect /><g id="ggr473" class="node" data-group="" text-rendering="geometricPrecision" shape-rendering="geometricPrecision" style=""><rect rx="4" ry="4" x="230.7865" y="921.80151" width="74.0" height="29.0" style="fill:#ccffff;" /><text x="267.7865" y="941.01532" stroke="none" text-anchor="middle">GGR473</text></g><rect /><g id="jfg475" class="node" data-group="" text-rendering="geometricPrecision" shape-rendering="geometricPrecision" style=""><rect rx="4" ry="4" x="752.18347" y="17.556702" width="74.0" height="29.0" style="fill:#ccffff;" /><text x="789.18347" y="36.7705" stroke="none" text-anchor="middle">JFG475</text></g><rect /><g id="ggr482" class="node" data-group="" text-rendering="geometricPrecision" shape-rendering="geometricPrecision" style=""><rect rx="4" ry="4" x="752.18347" y="56.27419999999999" width="74.0" height="29.0" style="fill:#ccffff;" /><text x="789.18347" y="75.4881" stroke="none" text-anchor="middle">GGR482</text></g><rect /><g id="ggr491" class="node" data-group="" text-rendering="geometricPrecision" shape-rendering="geometricPrecision" style=""><rect rx="4" ry="4" x="752.18347" y="94.9917" width="74.0" height="29.0" style="fill:#ccffff;" /><text x="789.18347" y="114.2056" stroke="none" text-anchor="middle">GGR491</text></g><rect /><g id="ggr492" class="node" data-group="" text-rendering="geometricPrecision" shape-rendering="geometricPrecision" style=""><rect rx="4" ry="4" x="752.18347" y="135.5128" width="74.0" height="29.0" style="fill:#ccffff;" /><text x="789.18347" y="154.7267" stroke="none" text-anchor="middle">GGR492</text></g><rect /><g id="ggr493" class="node" data-group="" text-rendering="geometricPrecision" shape-rendering="geometricPrecision" style=""><rect rx="4" ry="4" x="752.18347" y="174.77161" width="74.0" height="29.0" style="fill:#ccffff;" /><text x="789.18347" y="193.9854" stroke="none" text-anchor="middle">GGR493</text></g><rect /><g id="ggr497" class="node" data-group="" text-rendering="geometricPrecision" shape-rendering="geometricPrecision" style=""><rect rx="4" ry="4" x="752.18347" y="214.0304" width="74.0" height="29.0" style="fill:#ccffff;" /><text x="789.18347" y="233.24419999999998" stroke="none" text-anchor="middle">GGR497</text></g><rect /><g id="ggr498" class="node" data-group="" text-rendering="geometricPrecision" shape-rendering="geometricPrecision" style=""><rect rx="4" ry="4" x="752.18347" y="255.55441000000002" width="74.0" height="29.0" style="fill:#ccffff;" /><text x="789.18347" y="274.76831" stroke="none" text-anchor="middle">GGR498</text></g><rect /><g id="ggr499" class="node" data-group="" text-rendering="geometricPrecision" shape-rendering="geometricPrecision" style=""><rect rx="4" ry="4" x="752.18347" y="297.7627" width="74.0" height="29.0" style="fill:#ccffff;" /><text x="789.18347" y="316.97659" stroke="none" text-anchor="middle">GGR499</text></g><rect /><g id="nus250" class="node" data-group="" text-rendering="geometricPrecision" shape-rendering="geometricPrecision" style=""><rect rx="4" ry="4" x="371.46472000000006" y="683.71631" width="74.0" height="29.0" style="fill:#ccffff;" /><text x="408.46472000000006" y="702.93011" stroke="none" text-anchor="middle">NUS250</text></g><rect /><g id="nus251" class="node" data-group="" text-rendering="geometricPrecision" shape-rendering="geometricPrecision" style=""><rect rx="4" ry="4" x="371.46472000000006" y="723.34119" width="74.0" height="29.0" style="fill:#ccffff;" /><text x="408.46472000000006" y="742.55511" stroke="none" text-anchor="middle">NUS251</text></g><rect /><g id="nus252" class="node" data-group="" text-rendering="geometricPrecision" shape-rendering="geometricPrecision" style=""><rect rx="4" ry="4" x="371.46472000000006" y="763.67468" width="74.0" height="29.0" style="fill:#ccffff;" /><text x="408.46472000000006" y="782.88861" stroke="none" text-anchor="middle">NUS252</text></g><rect /><g id="nus253" class="node" data-group="" text-rendering="geometricPrecision" shape-rendering="geometricPrecision" style=""><rect rx="4" ry="4" x="371.46472000000006" y="804.7912" width="74.0" height="29.0" style="fill:#ccffff;" /><text x="408.46472000000006" y="824.00513" stroke="none" text-anchor="middle">NUS253</text></g><rect /><g id="nus254" class="node" data-group="" text-rendering="geometricPrecision" shape-rendering="geometricPrecision" style=""><rect rx="4" ry="4" x="371.46472000000006" y="847.92517" width="74.0" height="29.0" style="fill:#ccffff;" /><text x="408.46472000000006" y="867.1391" stroke="none" text-anchor="middle">NUS254</text></g><rect /><g id="nus255" class="node" data-group="" text-rendering="geometricPrecision" shape-rendering="geometricPrecision" style=""><rect rx="4" ry="4" x="371.46472000000006" y="891.0592" width="74.0" height="29.0" style="fill:#ccffff;" /><text x="408.46472000000006" y="910.27307" stroke="none" text-anchor="middle">NUS255</text></g><rect /><g id="nus256" class="node" data-group="" text-rendering="geometricPrecision" shape-rendering="geometricPrecision" style=""><rect rx="4" ry="4" x="371.46472000000006" y="932.3418" width="74.0" height="29.0" style="fill:#ccffff;" /><text x="408.46472000000006" y="951.55573" stroke="none" text-anchor="middle">NUS256</text></g><rect /><g id="nus350" class="node" data-group="" text-rendering="geometricPrecision" shape-rendering="geometricPrecision" style=""><rect rx="4" ry="4" x="468.7912" y="683.71631" width="74.0" height="29.0" style="fill:#ccffff;" /><text x="505.7912" y="702.93011" stroke="none" text-anchor="middle">NUS350</text></g><rect /><g id="nus351" class="node" data-group="" text-rendering="geometricPrecision" shape-rendering="geometricPrecision" style=""><rect rx="4" ry="4" x="468.7912" y="723.34119" width="74.0" height="29.0" style="fill:#ccffff;" /><text x="505.7912" y="742.55511" stroke="none" text-anchor="middle">NUS351</text></g><rect /><g id="nus352" class="node" data-group="" text-rendering="geometricPrecision" shape-rendering="geometricPrecision" style=""><rect rx="4" ry="4" x="468.7912" y="763.67468" width="74.0" height="29.0" style="fill:#ccffff;" /><text x="505.7912" y="782.88861" stroke="none" text-anchor="middle">NUS352</text></g><rect /><g id="nus353" class="node" data-group="" text-rendering="geometricPrecision" shape-rendering="geometricPrecision" style=""><rect rx="4" ry="4" x="468.7912" y="804.7912" width="74.0" height="29.0" style="fill:#ccffff;" /><text x="505.7912" y="824.00513" stroke="none" text-anchor="middle">NUS353</text></g><rect /><g id="nus354" class="node" data-group="" text-rendering="geometricPrecision" shape-rendering="geometricPrecision" style=""><rect rx="4" ry="4" x="468.7912" y="847.92517" width="74.0" height="29.0" style="fill:#ccffff;" /><text x="505.7912" y="867.1391" stroke="none" text-anchor="middle">NUS354</text></g><rect /><g id="ggr254" class="node" data-group="" text-rendering="geometricPrecision" shape-rendering="geometricPrecision" style=""><rect rx="4" ry="4" x="372.92071999999996" y="375.54611" width="74.0" height="29.0" style="fill:#ccffff;" /><text x="409.92071999999996" y="394.76001" stroke="none" text-anchor="middle">GGR254</text></g><rect /></g><g id="bools"><g id="bool2872" class="bool"><ellipse cx="229.20749" cy="111.6096" rx="9.8800001" ry="7.3684001" /><text x="229.20749" y="114.75219999999999" stroke="none" text-anchor="middle">or</text></g><g id="bool2925" class="bool"><ellipse cx="132.59179999999998" cy="623.03448" rx="9.8800001" ry="7.3684001" /><text x="132.59179999999998" y="626.17712" stroke="none" text-anchor="middle">or</text></g><g id="bool2942" class="bool"><ellipse cx="160.33871" cy="852.79529" rx="9.8800001" ry="7.3684001" /><text x="160.33871" y="855.93793" stroke="none" text-anchor="middle">and</text></g><g id="bool2951" class="bool"><ellipse cx="123.03179999999998" cy="283.5354" rx="9.8800001" ry="7.3684001" /><text x="123.03179999999998" y="286.67801" stroke="none" text-anchor="middle">or</text></g><g id="bool2964" class="bool"><ellipse cx="275.15121" cy="483.45871" rx="9.8800001" ry="7.3684001" /><text x="275.15121" y="486.60132" stroke="none" text-anchor="middle">or</text></g></g><g id="edges" stroke="black"><path id="pathp1045" class="path" d="M54.71180000000001,909.494 54.71180000000001,913.8244000000001" marker-end="url(#arrow)" source-node="ggr272" target-node="ggr273" /><path id="pathp1046" class="path" d="M89.90480000000002,811.022 222.82920000000001,811.022" marker-end="url(#arrow)" source-node="ggr270" target-node="ggr301" /><path id="pathp1047" class="path" d="M91.73250000000002,30.555999999999997 229.20749999999998,30.555999999999997 229.20749999999998,96.24119999999999" marker-end="url(#arrow)" source-node="ggr100" target-node="bool2872" /><path id="pathp1048" class="path" d="M189.3675,70.4102 217.8671,99.8823" marker-end="url(#arrow)" source-node="ggr107" target-node="bool2872" /><path id="pathp1049" class="path" d="M189.3675,111.6096 211.3275,111.6096" marker-end="url(#arrow)" source-node="env221" target-node="bool2872" /><path id="pathp1050" class="path" d="M189.3675,152.8891 217.88,123.34630000000001" marker-end="url(#arrow)" source-node="env222" target-node="bool2872" /><path id="pathp1051" class="path" d="M188.77280000000002,195.1289 229.20750000000004,195.1289 229.20750000000004,126.97809999999998" marker-end="url(#arrow)" source-node="ggr223" target-node="bool2872" /><path id="pathp1052" class="path" d="M239.08749999999998,111.6096 247.9554,111.6096" marker-end="url(#arrow)" source-node="bool2872" target-node="jge331" /><path id="pathp1053" class="path" d="M91.6875,936.3015 113.74889999999999,936.3015" marker-end="url(#arrow)" source-node="ggr273" target-node="ggr373" /><path id="pathp1054" class="path" d="M91.75150000000002,646.9559 117.9187,631.629" marker-end="url(#arrow)" source-node="ggr206" target-node="bool2925" /><path id="pathp1055" class="path" d="M91.72500000000002,688.1253 124.1483,636.483" marker-end="url(#arrow)" source-node="ggr305" target-node="bool2925" /><path id="pathp1056" class="path" d="M91.7267,730.934 127.07279999999997,637.6069" marker-end="url(#arrow)" source-node="ess102" target-node="bool2925" /><path id="pathp1057" class="path" d="M91.7124,766.4077 132.59179999999998,766.4077 132.59179999999998,638.403" marker-end="url(#arrow)" source-node="env234" target-node="bool2925" /><path id="pathp1058" class="path" d="M91.7124,613.3345 115.39300000000003,618.9535000000001" marker-end="url(#arrow)" source-node="ggr205" target-node="bool2925" /><path id="pathp1059" class="path" d="M91.7278,563.6627 123.54430000000002,609.8892999999999" marker-end="url(#arrow)" source-node="ggr203" target-node="bool2925" /><path id="pathp1060" class="path" d="M91.71230000000003,521.0063 126.78770000000003,608.5484" marker-end="url(#arrow)" source-node="ggr201" target-node="bool2925" /><path id="pathp1061" class="path" d="M142.47179999999997,623.0345 151.17829999999998,623.0345" marker-end="url(#arrow)" source-node="bool2925" target-node="ggr390" /><path id="pathp1062" class="path" d="M81.51119999999997,483.4587 132.59179999999998,483.4587 132.59179999999998,607.6661" marker-end="url(#arrow)" source-node="h2926" target-node="bool2925" /><path id="pathp1063" class="path" d="M89.90480000000002,811.022 160.33870000000002,811.022 160.33870000000002,837.4269" marker-end="url(#arrow)" source-node="ggr270" target-node="bool2942" /><path id="pathp1064" class="path" d="M89.90480000000002,852.7953 142.45870000000002,852.7953" marker-end="url(#arrow)" source-node="ggr271" target-node="bool2942" /><path id="pathp1065" class="path" d="M170.2188,852.7953 222.76979999999998,852.7953" marker-end="url(#arrow)" source-node="bool2942" target-node="ggr416" /><path id="pathp1066" class="path" d="M188.7416,195.1289 248.0034,195.1289" marker-end="url(#arrow)" source-node="ggr223" target-node="ggr418" /><path id="pathp1067" class="path" d="M91.7074,241.32709999999997 123.03180000000003,241.32709999999997 123.03180000000003,268.167" marker-end="url(#arrow)" source-node="ggr124" target-node="bool2951" /><path id="pathp1068" class="path" d="M91.7074,323.9986 123.03180000000003,323.9986 123.03180000000003,298.9038" marker-end="url(#arrow)" source-node="ggr221" target-node="bool2951" /><path id="pathp1069" class="path" d="M91.68779999999998,283.5354 93.15179999999998,283.5354 93.15179999999998,280.9939 105.78190000000001,280.9939" marker-end="url(#arrow)" source-node="ggr220" target-node="bool2951" /><path id="pathp1070" class="path" d="M132.91180000000003,283.5354 247.97270000000003,283.5354" marker-end="url(#arrow)" source-node="bool2951" target-node="ggr424" /><path id="pathp1071" class="path" d="M91.7378,323.9986 247.98469999999998,323.9986" marker-end="url(#arrow)" source-node="ggr221" target-node="ggr431" /><path id="pathp1072" class="path" d="M235.24720000000002,381.6383 275.1512,381.6383 275.1512,468.0902" marker-end="url(#arrow)" source-node="ggr327" target-node="bool2964" /><path id="pathp1073" class="path" d="M235.24720000000002,585.2791 275.1512,585.2791 275.1512,498.8271" marker-end="url(#arrow)" source-node="ggr363" target-node="bool2964" /><path id="pathp1074" class="path" d="M235.31119999999999,463.0946 259.8782,475.6519" marker-end="url(#arrow)" source-node="ggr339" target-node="bool2964" /><path id="pathp1075" class="path" d="M235.31119999999999,422.3665 266.4601,470.13129999999995" marker-end="url(#arrow)" source-node="ggr328" target-node="bool2964" /><path id="pathp1076" class="path" d="M235.31119999999999,503.82280000000003 259.8782,491.2654" marker-end="url(#arrow)" source-node="ggr352" target-node="bool2964" /><path id="pathp1077" class="path" d="M235.31119999999999,544.5509 266.4601,496.78599999999994" marker-end="url(#arrow)" source-node="ggr360" target-node="bool2964" /><path id="pathp1078" class="path" d="M285.0312,483.4587 299.9452,483.4587" marker-end="url(#arrow)" source-node="bool2964" target-node="ggr452" /><path id="pathp1079" class="path" d="M195.69209999999998,936.3015 213.4737,936.3015 213.4737,895.022 222.7912,895.022" marker-end="url(#arrow)" source-node="ggr373" target-node="ggr462" /><path id="pathp1080" class="path" d="M195.70030000000003,936.3015 222.79310000000004,936.3015" marker-end="url(#arrow)" source-node="ggr373" target-node="ggr473" /></g><g id="region-labels"></g></svg>