<?xml version="1.0" encoding="UTF-8"?>
<!DOCTYPE svg PUBLIC "-//W3C//DTD SVG 1.1//EN"
    "http://www.w3.org/Graphics/SVG/1.1/DTD/svg11.dtd">
<svg xmlns="http://www.w3.org/2000/svg" xmlns:xlink="http://www.w3.org/1999/xlink" width="100%" height="100%" preserveAspectRatio="xMinYMin" viewBox="0 0 754.0 516.0" xmlns:svg="http://www.w3.org/2000/svg" xmlns:dc="http://purl.org/dc/elements/1.1/" xmlns:cc="http://creativecommons.org/ns#" xmlns:rdf="http://www.w3.org/1999/02/22-rdf-syntax-ns#" version="1.1"><defs><marker id="arrow" viewBox="0 0 10 10" refX="4" refY="5" markerUnits="strokeWidth" orient="auto" markerWidth="7" markerHeight="7"><polyline points="0,1 10,5 0,9" fill="black" /></marker></defs><g id="regions"></g><g id="nodes" stroke="black"><g id="abs201" class="node" data-group="" text-rendering="geometricPrecision" shape-rendering="geometricPrecision" style=""><rect rx="4" ry="4" x="92.170314" y="83.148606" width="74.0" height="29.0" style="fill:#ffcc99;" /><text x="129.17031400000002" y="102.362504" stroke="none" text-anchor="middle">ABS201</text></g><rect /><g id="abs205" class="node" data-group="" text-rendering="geometricPrecision" shape-rendering="geometricPrecision" style=""><rect rx="4" ry="4" x="579.975302" y="83.148606" width="74.0" height="29.0" style="fill:#ff957c;" /><text x="616.975302" y="88.815567" stroke="none" fill="#bc0000" text-anchor="middle"></text><text x="616.975302" y="102.362504" stroke="none" text-anchor="middle">ABS205</text></g><rect /><g id="abs210" class="node" data-group="" text-rendering="geometricPrecision" shape-rendering="geometricPrecision" style=""><rect rx="4" ry="4" x="92.170314" y="383.476214" width="74.0" height="29.0" style="fill:#99ff66;" /><text x="129.17031400000002" y="402.690114" stroke="none" text-anchor="middle">ABS210</text></g><rect /><g id="abs215" class="node" data-group="" text-rendering="geometricPrecision" shape-rendering="geometricPrecision" style=""><rect rx="4" ry="4" x="338.920302" y="421.407514" width="74.0" height="29.0" style="fill:#ffff99;" /><text x="375.920302" y="440.621414" stroke="none" text-anchor="middle">ABS215</text></g><rect /><g id="abs220" class="node" data-group="" text-rendering="geometricPrecision" shape-rendering="geometricPrecision" style=""><rect rx="4" ry="4" x="92.170314" y="421.407514" width="74.0" height="29.0" style="fill:#cc99ff;" /><text x="129.17031400000002" y="440.621414" stroke="none" text-anchor="middle">ABS220</text></g><rect /><g id="abs230" class="node" data-group="" text-rendering="geometricPrecision" shape-rendering="geometricPrecision" style=""><rect rx="4" ry="4" x="92.170314" y="459.338914" width="74.0" height="29.0" style="fill:#99ccff;" /><text x="129.17031400000002" y="478.55269400000003" stroke="none" text-anchor="middle">ABS230</text></g><rect /><g id="abs231" class="node" data-group="" text-rendering="geometricPrecision" shape-rendering="geometricPrecision" style=""><rect rx="4" ry="4" x="203.670302" y="459.338914" width="74.0" height="29.0" style="fill:#99ccff;" /><text x="240.670302" y="478.55269400000003" stroke="none" text-anchor="middle">ABS231</text></g><rect /><g id="abs240" class="node" data-group="" text-rendering="geometricPrecision" shape-rendering="geometricPrecision" style=""><rect rx="4" ry="4" x="579.975302" y="120.299204" width="74.0" height="29.0" style="fill:#ff957c;" /><text x="616.975302" y="139.513104" stroke="none" text-anchor="middle">ABS240</text></g><rect /><g id="abs250" class="node" data-group="" text-rendering="geometricPrecision" shape-rendering="geometricPrecision" style=""><rect rx="4" ry="4" x="579.975302" y="157.449794" width="74.0" height="29.0" style="fill:#ff957c;" /><text x="616.975302" y="176.663604" stroke="none" text-anchor="middle">ABS250</text></g><rect /><g id="abs261" class="node" data-group="" text-rendering="geometricPrecision" shape-rendering="geometricPrecision" style=""><rect rx="4" ry="4" x="206.170302" y="83.148606" width="74.0" height="29.0" style="fill:#38a138;" /><text x="243.170302" y="102.362504" stroke="none" text-anchor="middle">ABS261</text></g><rect /><g id="abs300" class="node" data-group="" text-rendering="geometricPrecision" shape-rendering="geometricPrecision" style=""><rect rx="4" ry="4" x="206.170302" y="121.080004" width="74.0" height="29.0" style="fill:#38a138;" /><text x="243.170302" y="140.293804" stroke="none" text-anchor="middle">ABS300</text></g><rect /><g id="abs301" class="node" data-group="" text-rendering="geometricPrecision" shape-rendering="geometricPrecision" style=""><rect rx="4" ry="4" x="206.170302" y="159.011304" width="74.0" height="29.0" style="fill:#38a138;" /><text x="243.170302" y="178.225204" stroke="none" text-anchor="middle">ABS301</text></g><rect /><g id="abs302" class="node" data-group="" text-rendering="geometricPrecision" shape-rendering="geometricPrecision" style=""><rect rx="4" ry="4" x="206.170302" y="196.942594" width="74.0" height="29.0" style="fill:#38a138;" /><text x="243.170302" y="216.15651400000002" stroke="none" text-anchor="middle">ABS302</text></g><rect /><g id="abs310" class="node" data-group="" text-rendering="geometricPrecision" shape-rendering="geometricPrecision" style=""><rect rx="4" ry="4" x="203.670302" y="383.476214" width="74.0" height="29.0" style="fill:#99ff66;" /><text x="240.670302" y="402.690114" stroke="none" text-anchor="middle">ABS310</text></g><rect /><g id="abs322" class="node" data-group="" text-rendering="geometricPrecision" shape-rendering="geometricPrecision" style=""><rect rx="4" ry="4" x="203.670302" y="234.874004" width="74.0" height="29.0" style="fill:#38a138;" /><text x="240.670302" y="254.08781399999998" stroke="none" text-anchor="middle">ABS322</text></g><rect /><g id="abs323" class="node" data-group="" text-rendering="geometricPrecision" shape-rendering="geometricPrecision" style=""><rect rx="4" ry="4" x="203.670302" y="421.407514" width="74.0" height="29.0" style="fill:#cc99ff;" /><text x="240.670302" y="440.621414" stroke="none" text-anchor="middle">ABS323</text></g><rect /><g id="abs340" class="node" data-group="" text-rendering="geometricPrecision" shape-rendering="geometricPrecision" style=""><rect rx="4" ry="4" x="579.975302" y="194.600294" width="74.0" height="29.0" style="fill:#ff957c;" /><text x="616.975302" y="213.814214" stroke="none" text-anchor="middle">ABS340</text></g><rect /><g id="abs341" class="node" data-group="" text-rendering="geometricPrecision" shape-rendering="geometricPrecision" style=""><rect rx="4" ry="4" x="203.670302" y="272.024494" width="74.0" height="29.0" style="fill:#38a138;" /><text x="240.670302" y="291.238414" stroke="none" text-anchor="middle">ABS341</text></g><rect /><g id="abs350" class="node" data-group="" text-rendering="geometricPrecision" shape-rendering="geometricPrecision" style=""><rect rx="4" ry="4" x="579.975302" y="231.750904" width="74.0" height="29.0" style="fill:#ff957c;" /><text x="616.975302" y="250.96470399999998" stroke="none" text-anchor="middle">ABS350</text></g><rect /><g id="abs351" class="node" data-group="" text-rendering="geometricPrecision" shape-rendering="geometricPrecision" style=""><rect rx="4" ry="4" x="203.670302" y="308.784714" width="74.0" height="29.0" style="fill:#38a138;" /><text x="240.670302" y="327.998494" stroke="none" text-anchor="middle">ABS351</text></g><rect /><g id="abs352" class="node" data-group="" text-rendering="geometricPrecision" shape-rendering="geometricPrecision" style=""><rect rx="4" ry="4" x="338.920302" y="345.54490400000003" width="74.0" height="29.0" style="fill:#9999ff;" /><text x="375.920302" y="364.758714" stroke="none" text-anchor="middle">ABS352</text></g><rect /><g id="abs353" class="node" data-group="" text-rendering="geometricPrecision" shape-rendering="geometricPrecision" style=""><rect rx="4" ry="4" x="338.920302" y="383.476214" width="74.0" height="29.0" style="fill:#9999ff;" /><text x="375.920302" y="402.690114" stroke="none" text-anchor="middle">ABS353</text></g><rect /><g id="abs354" class="node" data-group="" text-rendering="geometricPrecision" shape-rendering="geometricPrecision" style=""><rect rx="4" ry="4" x="459.447802" y="383.476214" width="74.0" height="29.0" style="fill:#9999ff;" /><text x="496.447802" y="402.690114" stroke="none" text-anchor="middle">ABS354</text></g><rect /><g id="abs355" class="node" data-group="" text-rendering="geometricPrecision" shape-rendering="geometricPrecision" style=""><rect rx="4" ry="4" x="579.975302" y="269.682204" width="74.0" height="29.0" style="fill:#ff957c;" /><text x="616.975302" y="288.896104" stroke="none" text-anchor="middle">ABS355</text></g><rect /><g id="abs371" class="node" data-group="" text-rendering="geometricPrecision" shape-rendering="geometricPrecision" style=""><rect rx="4" ry="4" x="338.920302" y="83.148606" width="74.0" height="29.0" style="fill:#38a138;" /><text x="375.920302" y="102.362504" stroke="none" text-anchor="middle">ABS371</text></g><rect /><g id="abs372" class="node" data-group="" text-rendering="geometricPrecision" shape-rendering="geometricPrecision" style=""><rect rx="4" ry="4" x="338.920302" y="459.338914" width="74.0" height="29.0" style="fill:#ffff99;" /><text x="375.920302" y="478.55269400000003" stroke="none" text-anchor="middle">ABS372</text></g><rect /><g id="abs390" class="node" data-group="" text-rendering="geometricPrecision" shape-rendering="geometricPrecision" style=""><rect rx="4" ry="4" x="338.920302" y="272.024494" width="74.0" height="29.0" style="fill:#ca9a76;" /><text x="375.920302" y="291.238414" stroke="none" text-anchor="middle">ABS390</text></g><rect /><g id="abs398" class="node" data-group="" text-rendering="geometricPrecision" shape-rendering="geometricPrecision" style=""><rect rx="4" ry="4" x="459.447802" y="78.429406" width="74.0" height="29.0" style="fill:#ca9a76;" /><text x="496.447802" y="97.643304" stroke="none" text-anchor="middle">ABS398</text></g><rect /><g id="abs399" class="node" data-group="" text-rendering="geometricPrecision" shape-rendering="geometricPrecision" style=""><rect rx="4" ry="4" x="338.920302" y="308.47139400000003" width="74.0" height="29.0" style="fill:#ca9a76;" /><text x="375.920302" y="327.685194" stroke="none" text-anchor="middle">ABS399</text></g><rect /><g id="abs402" class="node" data-group="" text-rendering="geometricPrecision" shape-rendering="geometricPrecision" style=""><rect rx="4" ry="4" x="580.990432" y="307.613514" width="74.0" height="29.0" style="fill:#ff957c;" /><text x="617.990432" y="326.827404" stroke="none" text-anchor="middle">ABS402</text></g><rect /><g id="abs403." class="node" data-group="" text-rendering="geometricPrecision" shape-rendering="geometricPrecision" style=""><rect rx="4" ry="4" x="338.920302" y="121.080004" width="74.0" height="29.0" style="fill:#38a138;" /><text x="375.920302" y="140.293804" stroke="none" text-anchor="middle">ABS403.</text></g><rect /><g id="abs404" class="node" data-group="" text-rendering="geometricPrecision" shape-rendering="geometricPrecision" style=""><rect rx="4" ry="4" x="203.670302" y="345.54490400000003" width="74.0" height="29.0" style="fill:#99ff66;" /><text x="240.670302" y="364.758714" stroke="none" text-anchor="middle">ABS404</text></g><rect /><g id="abs405" class="node" data-group="" text-rendering="geometricPrecision" shape-rendering="geometricPrecision" style=""><rect rx="4" ry="4" x="338.920302" y="158.230504" width="74.0" height="29.0" style="fill:#38a138;" /><text x="375.920302" y="177.44439400000002" stroke="none" text-anchor="middle">ABS405</text></g><rect /><g id="abs407" class="node" data-group="" text-rendering="geometricPrecision" shape-rendering="geometricPrecision" style=""><rect rx="4" ry="4" x="338.920302" y="196.942594" width="74.0" height="29.0" style="fill:#38a138;" /><text x="375.920302" y="216.15651400000002" stroke="none" text-anchor="middle">ABS407</text></g><rect /><g id="jfp450" class="node" data-group="" text-rendering="geometricPrecision" shape-rendering="geometricPrecision" style=""><rect rx="4" ry="4" x="581.225302" y="345.54490400000003" width="74.0" height="29.0" style="fill:#ff957c;" /><text x="618.225302" y="364.758714" stroke="none" text-anchor="middle">JFP450</text></g><rect /><g id="abs460" class="node" data-group="" text-rendering="geometricPrecision" shape-rendering="geometricPrecision" style=""><rect rx="4" ry="4" x="459.447802" y="272.024494" width="74.0" height="29.0" style="fill:#ca9a76;" /><text x="496.447802" y="291.238414" stroke="none" text-anchor="middle">ABS460</text></g><rect /><g id="abs491" class="node" data-group="" text-rendering="geometricPrecision" shape-rendering="geometricPrecision" style=""><rect rx="4" ry="4" x="338.920302" y="234.483594" width="74.0" height="29.0" style="fill:#38a138;" /><text x="375.920302" y="253.697404" stroke="none" text-anchor="middle">ABS491</text></g><rect /><g id="abs493" class="node" data-group="" text-rendering="geometricPrecision" shape-rendering="geometricPrecision" style=""><rect rx="4" ry="4" x="459.447802" y="307.613514" width="74.0" height="29.0" style="fill:#ca9a76;" /><text x="496.447802" y="326.827404" stroke="none" text-anchor="middle">ABS493</text></g><rect /><g id="abs494" class="node" data-group="" text-rendering="geometricPrecision" shape-rendering="geometricPrecision" style=""><rect rx="4" ry="4" x="459.447802" y="345.54490400000003" width="74.0" height="29.0" style="fill:#ca9a76;" /><text x="496.447802" y="364.758714" stroke="none" text-anchor="middle">ABS494</text></g><rect /><g id="abs495" class="node" data-group="" text-rendering="geometricPrecision" shape-rendering="geometricPrecision" style=""><rect rx="4" ry="4" x="459.447802" y="121.080004" width="74.0" height="29.0" style="fill:#ca9a76;" /><text x="496.447802" y="140.293804" stroke="none" text-anchor="middle">ABS495</text></g><rect /><g id="abs496" class="node" data-group="" text-rendering="geometricPrecision" shape-rendering="geometricPrecision" style=""><rect rx="4" ry="4" x="459.447802" y="159.011304" width="74.0" height="29.0" style="fill:#ca9a76;" /><text x="496.447802" y="178.225204" stroke="none" text-anchor="middle">ABS496</text></g><rect /><g id="abs497" class="node" data-group="" text-rendering="geometricPrecision" shape-rendering="geometricPrecision" style=""><rect rx="4" ry="4" x="459.447802" y="196.942594" width="74.0" height="29.0" style="fill:#ca9a76;" /><text x="496.447802" y="216.15651400000002" stroke="none" text-anchor="middle">ABS497</text></g><rect /><g id="abs498" class="node" data-group="" text-rendering="geometricPrecision" shape-rendering="geometricPrecision" style=""><rect rx="4" ry="4" x="459.447802" y="234.874004" width="74.0" height="29.0" style="fill:#ca9a76;" /><text x="496.447802" y="254.08781399999998" stroke="none" text-anchor="middle">ABS498</text></g><rect /></g><g id="bools"><g id="bool3023" class="bool"><ellipse cx="313.295302" cy="473.838914" rx="9.8800001" ry="7.3684001" /><text x="313.295302" y="476.981404" stroke="none" text-anchor="middle">and</text></g></g><g id="edges" stroke="black"><path id="pathp1081" class="path" d="M166.164512,97.648604 181.170312,97.648604 181.170312,63.148604 313.29541200000006,63.148604 313.29541200000006,458.470404" marker-end="url(#arrow)" source-node="abs201" target-node="bool3023" /><path id="pathp1082" class="path" d="M166.164512,97.648604 181.170312,97.648604 181.170312,63.148604 552.822812,63.148604 552.822812,97.648604 571.981112,97.648604" marker-end="url(#arrow)" source-node="abs201" target-node="abs205" /><path id="pathp1083" class="path" d="M166.164612,473.838804 195.672112,473.838804" marker-end="url(#arrow)" source-node="abs230" target-node="abs231" /><path id="pathp1084" class="path" d="M277.656612,473.838804 295.41541199999995,473.838804" marker-end="url(#arrow)" source-node="abs231" target-node="bool3023" /><path id="pathp1085" class="path" d="M166.164512,97.648604 181.170312,97.648604 181.170312,63.148604 552.822812,63.148604 552.822812,134.799204 571.981112,134.799204" marker-end="url(#arrow)" source-node="abs201" target-node="abs240" /><path id="pathp1086" class="path" d="M166.164512,97.648604 181.170312,97.648604 181.170312,63.148604 552.822812,63.148604 552.822812,171.949704 571.981112,171.949704" marker-end="url(#arrow)" source-node="abs201" target-node="abs250" /><path id="pathp1087" class="path" d="M166.159112,97.648604 198.206512,97.648604" marker-end="url(#arrow)" source-node="abs201" target-node="abs261" /><path id="pathp1088" class="path" d="M166.164512,97.648604 181.170312,97.648604 181.170312,135.580004 198.14591199999998,135.580004" marker-end="url(#arrow)" source-node="abs201" target-node="abs300" /><path id="pathp1089" class="path" d="M166.164512,97.648604 181.170312,97.648604 181.170312,173.511304 198.14591199999998,173.511304" marker-end="url(#arrow)" source-node="abs201" target-node="abs301" /><path id="pathp1090" class="path" d="M166.164512,97.648604 181.170312,97.648604 181.170312,211.44260400000002 198.14591199999998,211.44260400000002" marker-end="url(#arrow)" source-node="abs201" target-node="abs302" /><path id="pathp1091" class="path" d="M166.164612,397.976204 195.672112,397.976204" marker-end="url(#arrow)" source-node="abs210" target-node="abs310" /><path id="pathp1092" class="path" d="M166.164512,97.648604 181.170312,97.648604 181.170312,249.374004 195.68621199999998,249.374004" marker-end="url(#arrow)" source-node="abs201" target-node="abs322" /><path id="pathp1093" class="path" d="M166.164612,435.907504 195.672112,435.907504" marker-end="url(#arrow)" source-node="abs220" target-node="abs323" /><path id="pathp1094" class="path" d="M166.164512,97.648604 181.170312,97.648604 181.170312,63.148604 552.822812,63.148604 552.822812,209.100304 571.981112,209.100304" marker-end="url(#arrow)" source-node="abs201" target-node="abs340" /><path id="pathp1095" class="path" d="M166.164512,97.648604 181.170312,97.648604 181.170312,286.52450400000004 195.68621199999998,286.52450400000004" marker-end="url(#arrow)" source-node="abs201" target-node="abs341" /><path id="pathp1096" class="path" d="M166.164512,97.648604 181.170312,97.648604 181.170312,63.148604 552.822812,63.148604 552.822812,246.25090400000002 571.981112,246.25090400000002" marker-end="url(#arrow)" source-node="abs201" target-node="abs350" /><path id="pathp1097" class="path" d="M166.164512,97.648604 181.170312,97.648604 181.170312,323.284704 195.68621199999998,323.284704" marker-end="url(#arrow)" source-node="abs201" target-node="abs351" /><path id="pathp1098" class="path" d="M166.164512,97.648604 181.170312,97.648604 181.170312,63.148604 313.29041200000006,63.148604 313.29041200000006,360.04490400000003 330.9479120000001,360.04490400000003" marker-end="url(#arrow)" source-node="abs201" target-node="abs352" /><path id="pathp1099" class="path" d="M166.164512,97.648604 181.170312,97.648604 181.170312,63.148604 313.29041200000006,63.148604 313.29041200000006,397.976204 330.9479120000001,397.976204" marker-end="url(#arrow)" source-node="abs201" target-node="abs353" /><path id="pathp1100" class="path" d="M412.908412,397.976204 451.450612,397.976204" marker-end="url(#arrow)" source-node="abs353" target-node="abs354" /><path id="pathp1101" class="path" d="M166.164512,97.648604 181.170312,97.648604 181.170312,63.148604 552.822812,63.148604 552.822812,284.182204 571.981112,284.182204" marker-end="url(#arrow)" source-node="abs201" target-node="abs355" /><path id="pathp1102" class="path" d="M166.164512,97.648604 181.170312,97.648604 181.170312,63.148604 313.29541200000006,63.148604 313.29541200000006,97.648604 330.95081200000004,97.648604" marker-end="url(#arrow)" source-node="abs201" target-node="abs371" /><path id="pathp1103" class="path" d="M323.17531199999996,473.838804 330.91131199999995,473.838804" marker-end="url(#arrow)" source-node="bool3023" target-node="abs372" /><path id="pathp1104" class="path" d="M166.164512,97.648604 181.170312,97.648604 181.170312,63.148604 312.67041200000006,63.148604 312.67041200000006,286.52450400000004 330.890712,286.52450400000004" marker-end="url(#arrow)" source-node="abs201" target-node="abs390" /><path id="pathp1105" class="path" d="M166.164512,97.648604 181.170312,97.648604 181.170312,63.148604 439.447912,63.148604 439.447912,92.929404 451.459112,92.929404" marker-end="url(#arrow)" source-node="abs201" target-node="abs398" /><path id="pathp1106" class="path" d="M166.164512,97.648604 181.170312,97.648604 181.170312,63.148604 312.67041200000006,63.148604 312.67041200000006,322.97140399999995 330.890712,322.97140399999995" marker-end="url(#arrow)" source-node="abs201" target-node="abs399" /><path id="pathp1107" class="path" d="M166.164512,97.648604 181.170312,97.648604 181.170312,63.148604 552.822812,63.148604 552.822812,322.113504 572.983612,322.113504" marker-end="url(#arrow)" source-node="abs201" target-node="abs402" /><path id="pathp1108" class="path" d="M166.164512,97.648604 181.170312,97.648604 181.170312,63.148604 313.29541200000006,63.148604 313.29541200000006,135.580004 330.95081200000004,135.580004" marker-end="url(#arrow)" source-node="abs201" target-node="abs403." /><path id="pathp1109" class="path" d="M166.164512,97.648604 181.170312,97.648604 181.170312,360.04490400000003 195.68621199999998,360.04490400000003" marker-end="url(#arrow)" source-node="abs201" target-node="abs404" /><path id="pathp1110" class="path" d="M166.164512,97.648604 181.170312,97.648604 181.170312,63.148604 313.29541200000006,63.148604 313.29541200000006,172.730504 330.95081200000004,172.730504" marker-end="url(#arrow)" source-node="abs201" target-node="abs405" /><path id="pathp1111" class="path" d="M166.164512,97.648604 181.170312,97.648604 181.170312,63.148604 313.29541200000006,63.148604 313.29541200000006,211.44260400000002 330.95081200000004,211.44260400000002" marker-end="url(#arrow)" source-node="abs201" target-node="abs407" /><path id="pathp1112" class="path" d="M412.908412,286.524504 451.450612,286.524504" marker-end="url(#arrow)" source-node="abs390" target-node="abs460" /><path id="pathp1113" class="path" d="M166.164512,97.648604 181.170312,97.648604 181.170312,63.148604 313.29541200000006,63.148604 313.29541200000006,248.983604 330.922412,248.983604" marker-end="url(#arrow)" source-node="abs201" target-node="abs491" /><path id="pathp1114" class="path" d="M412.90421200000003,286.524504 431.572812,286.524504 431.572812,322.113504 451.417112,322.113504" marker-end="url(#arrow)" source-node="abs390" target-node="abs493" /><path id="pathp1115" class="path" d="M412.90421200000003,286.524504 431.572812,286.524504 431.572812,360.044904 451.417112,360.044904" marker-end="url(#arrow)" source-node="abs390" target-node="abs494" /><path id="pathp1116" class="path" d="M166.164512,97.648604 181.170312,97.648604 181.170312,63.148604 439.447912,63.148604 439.447912,127.429404 451.459112,127.429404" marker-end="url(#arrow)" source-node="abs201" target-node="abs495" /><path id="pathp1117" class="path" d="M166.164512,97.648604 181.170312,97.648604 181.170312,63.148604 439.447912,63.148604 439.447912,165.360704 451.459112,165.360704" marker-end="url(#arrow)" source-node="abs201" target-node="abs496" /><path id="pathp1118" class="path" d="M166.164512,97.648604 181.170312,97.648604 181.170312,63.148604 439.447912,63.148604 439.447912,203.292104 451.459112,203.292104" marker-end="url(#arrow)" source-node="abs201" target-node="abs497" /><path id="pathp1119" class="path" d="M166.164512,97.648604 181.170312,97.648604 181.170312,63.148604 439.447912,63.148604 439.447912,241.22340400000002 451.459112,241.22340400000002" marker-end="url(#arrow)" source-node="abs201" target-node="abs498" /></g><g id="region-labels"><text x="650.71381" y="43.815571" stroke="none" fill="#bc0000" text-anchor="middle">Indigenous Health</text><text x="652.41302" y="58.815567" stroke="none" fill="#bc0000" text-anchor="middle">and </text><text x="650.71381" y="73.815567" stroke="none" fill="#bc0000" text-anchor="middle">Environmental Sciences</text><text x="497.55316" y="32.384716" stroke="none" fill="#531700" text-anchor="middle">Research and </text><text x="495.85394" y="53.495209" stroke="none" fill="#531700" text-anchor="middle">Independent Studies</text><text x="314.3038" y="33.18491" stroke="none" fill="#005d01" text-anchor="middle">Indigenous Culture </text><text x="312.60458" y="54.295403" stroke="none" fill="#005d01" text-anchor="middle">and Literatures</text><text x="96.64267" y="131.25281" stroke="none" fill="#005d01" text-anchor="middle">Introduction to </text><text x="94.943451" y="152.3633" stroke="none" fill="#005d01" text-anchor="middle">Indigenous Studies</text><text x="103.97944" y="350.03635" stroke="none" fill="#51ac24" text-anchor="middle">Anishinaabemowin </text><text x="102.28022" y="368.78635" stroke="none" fill="#51ac24" text-anchor="middle">Language and Culture</text><text x="43.924576" y="427.52353" stroke="none" fill="#51ac24" text-anchor="middle">Iroquoian </text><text x="42.225357" y="446.27353" stroke="none" fill="#51ac24" text-anchor="middle">Language</text><text x="46.002171" y="471.33481" stroke="none" fill="#377575" text-anchor="middle">Inuktitut </text><text x="44.302952" y="490.08481" stroke="none" fill="#377575" text-anchor="middle">Language</text><text x="460.88092" y="448.75256" stroke="none" fill="#88741f" text-anchor="middle">Indigenous </text><text x="459.1817" y="467.50256" stroke="none" fill="#88741f" text-anchor="middle">Languages</text><text x="578.27136" y="393.54242" stroke="none" fill="#185087" text-anchor="middle">Indigenous </text><text x="576.57214" y="412.29242" stroke="none" fill="#185087" text-anchor="middle">Politics</text></g></svg>