<?xml version="1.0" encoding="UTF-8"?>
<!DOCTYPE svg PUBLIC "-//W3C//DTD SVG 1.1//EN"
    "http://www.w3.org/Graphics/SVG/1.1/DTD/svg11.dtd">
<svg xmlns="http://www.w3.org/2000/svg" xmlns:xlink="http://www.w3.org/1999/xlink" width="100%" height="100%" preserveAspectRatio="xMinYMin" viewBox="0 0 1070.0 579.0" xmlns:svg="http://www.w3.org/2000/svg" xmlns:dc="http://purl.org/dc/elements/1.1/" xmlns:cc="http://creativecommons.org/ns#" xmlns:rdf="http://www.w3.org/1999/02/22-rdf-syntax-ns#" version="1.1"><defs><marker id="arrow" viewBox="0 0 10 10" refX="4" refY="5" markerUnits="strokeWidth" orient="auto" markerWidth="7" markerHeight="7"><polyline points="0,1 10,5 0,9" fill="black" /></marker></defs><g id="regions"></g><g id="nodes" stroke="black"><g id="sta247" class="node" data-group="" text-rendering="geometricPrecision" shape-rendering="geometricPrecision" style=""><rect rx="4" ry="4" x="433.51001" y="179.5" width="65.0" height="35.0" style="fill:#ff9900;" /><text x="466.01001" y="203.28519999999997" stroke="none" text-anchor="middle">STA247</text></g><rect /><g id="sta248" class="node" data-group="" text-rendering="geometricPrecision" shape-rendering="geometricPrecision" style=""><rect rx="4" ry="4" x="535.51001" y="179.5" width="65.0" height="35.0" style="fill:#ffec7a;" /><text x="568.01001" y="203.28519999999997" stroke="none" text-anchor="middle">STA248</text></g><rect /><g id="sta221" class="node" data-group="" text-rendering="geometricPrecision" shape-rendering="geometricPrecision" style=""><rect rx="4" ry="4" x="51.613997999999995" y="318.5" width="65.0" height="35.0" style="fill:#ffec7a;" /><text x="84.113998" y="342.28519" stroke="none" text-anchor="middle">STA221</text></g><rect /><g id="sta255" class="node" data-group="" text-rendering="geometricPrecision" shape-rendering="geometricPrecision" style=""><rect rx="4" ry="4" x="288.5" y="182.26" width="65.0" height="35.0" style="fill:#ff6600;" /><text x="321.0" y="206.04519999999997" stroke="none" text-anchor="middle">STA255</text></g><rect /><g id="sta220" class="node" data-group="" text-rendering="geometricPrecision" shape-rendering="geometricPrecision" style=""><rect rx="4" ry="4" x="170.05701" y="182.26" width="65.0" height="35.0" style="fill:#ffec7a;" /><text x="202.55701" y="206.04519999999997" stroke="none" text-anchor="middle">STA220</text></g><rect /><g id="sta257" class="node" data-group="" text-rendering="geometricPrecision" shape-rendering="geometricPrecision" style=""><rect rx="4" ry="4" x="671.5" y="179.5" width="65.0" height="35.0" style="fill:#ff9900;" /><text x="704.0" y="203.28519999999997" stroke="none" text-anchor="middle">STA257</text></g><rect /><g id="sta261" class="node" data-group="" text-rendering="geometricPrecision" shape-rendering="geometricPrecision" style=""><rect rx="4" ry="4" x="773.5" y="179.5" width="65.0" height="35.0" style="fill:#e68080;" /><text x="806.0" y="203.28519999999997" stroke="none" text-anchor="middle">STA261</text></g><rect /><g id="sta302" class="node" data-group="" text-rendering="geometricPrecision" shape-rendering="geometricPrecision" style=""><rect rx="4" ry="4" x="535.51001" y="318.5" width="65.0" height="35.0" style="fill:#80b2ff;" /><text x="568.01001" y="342.28519" stroke="none" text-anchor="middle">STA302</text></g><rect /><g id="sta304" class="node" data-group="" text-rendering="geometricPrecision" shape-rendering="geometricPrecision" style=""><rect rx="4" ry="4" x="329.5" y="382.2291" width="65.0" height="35.0" style="fill:#80b2ff;" /><text x="362.0" y="406.01431" stroke="none" text-anchor="middle">STA304</text></g><rect /><g id="sta355" class="node" data-group="" text-rendering="geometricPrecision" shape-rendering="geometricPrecision" style=""><rect rx="4" ry="4" x="773.5" y="370.64001" width="65.0" height="35.0" style="fill:#e68080;" /><text x="806.0" y="394.4252" stroke="none" text-anchor="middle">STA355</text></g><rect /><g id="sta347" class="node" data-group="" text-rendering="geometricPrecision" shape-rendering="geometricPrecision" style=""><rect rx="4" ry="4" x="989.5" y="370.64001" width="65.0" height="35.0" style="fill:#ff9900;" /><text x="1022.0" y="394.4252" stroke="none" text-anchor="middle">STA347</text></g><rect /><g id="sta447" class="node" data-group="" text-rendering="geometricPrecision" shape-rendering="geometricPrecision" style=""><rect rx="4" ry="4" x="989.5" y="468.5" width="65.0" height="35.0" style="fill:#ff9900;" /><text x="1022.0" y="492.28518999999994" stroke="none" text-anchor="middle">STA447</text></g><rect /><g id="sta303" class="node" data-group="" text-rendering="geometricPrecision" shape-rendering="geometricPrecision" style=""><rect rx="4" ry="4" x="628.28967" y="382.2291" width="65.0" height="35.0" style="fill:#80b2ff;" /><text x="660.78967" y="406.01431" stroke="none" text-anchor="middle">STA303</text></g><rect /><g id="sta305" class="node" data-group="" text-rendering="geometricPrecision" shape-rendering="geometricPrecision" style=""><rect rx="4" ry="4" x="457.69061" y="382.2291" width="65.0" height="35.0" style="fill:#80b2ff;" /><text x="490.19061" y="406.01431" stroke="none" text-anchor="middle">STA305</text></g><rect /><g id="sta490" class="node" data-group="" text-rendering="geometricPrecision" shape-rendering="geometricPrecision" style=""><rect rx="4" ry="4" x="671.5" y="468.5" width="65.0" height="35.0" style="fill:#5dd5b8;" /><text x="704.0" y="492.28518999999994" stroke="none" text-anchor="middle">STA490</text></g><rect /><g id="sta480" class="node" data-group="" text-rendering="geometricPrecision" shape-rendering="geometricPrecision" style=""><rect rx="4" ry="4" x="587.73279" y="468.5" width="65.0" height="35.0" style="fill:#80b2ff;" /><text x="620.23279" y="492.28518999999994" stroke="none" text-anchor="middle">STA480</text></g><rect /><g id="sta452" class="node" data-group="" text-rendering="geometricPrecision" shape-rendering="geometricPrecision" style=""><rect rx="4" ry="4" x="881.5" y="468.5" width="65.0" height="35.0" style="fill:#e68080;" /><text x="914.0" y="492.28518999999994" stroke="none" text-anchor="middle">STA452</text></g><rect /><g id="sta453" class="node" data-group="" text-rendering="geometricPrecision" shape-rendering="geometricPrecision" style=""><rect rx="4" ry="4" x="881.5" y="528.5" width="65.0" height="35.0" style="fill:#e68080;" /><text x="914.0" y="552.2851900000001" stroke="none" text-anchor="middle">STA453</text></g><rect /><g id="sta422" class="node" data-group="" text-rendering="geometricPrecision" shape-rendering="geometricPrecision" style=""><rect rx="4" ry="4" x="773.5" y="468.5" width="65.0" height="35.0" style="fill:#e68080;" /><text x="806.0" y="492.28518999999994" stroke="none" text-anchor="middle">STA422</text></g><rect /><g id="sta410" class="node" data-group="" text-rendering="geometricPrecision" shape-rendering="geometricPrecision" style=""><rect rx="4" ry="4" x="15.640597999999997" y="468.5" width="65.0" height="35.0" style="fill:#91f27a;" /><text x="48.140598" y="492.28518999999994" stroke="none" text-anchor="middle">STA410</text></g><rect /><g id="sta414" class="node" data-group="" text-rendering="geometricPrecision" shape-rendering="geometricPrecision" style=""><rect rx="4" ry="4" x="108.93369999999999" y="468.5" width="65.0" height="35.0" style="fill:#80b2ff;" /><text x="141.4337" y="492.28518999999994" stroke="none" text-anchor="middle">STA414</text></g><rect /><g id="sta437" class="node" data-group="" text-rendering="geometricPrecision" shape-rendering="geometricPrecision" style=""><rect rx="4" ry="4" x="202.2269" y="468.5" width="65.0" height="35.0" style="fill:#80b2ff;" /><text x="234.7269" y="492.28518999999994" stroke="none" text-anchor="middle">STA437</text></g><rect /><g id="sta442" class="node" data-group="" text-rendering="geometricPrecision" shape-rendering="geometricPrecision" style=""><rect rx="4" ry="4" x="295.51999" y="468.5" width="65.0" height="35.0" style="fill:#80b2ff;" /><text x="328.01999" y="492.28518999999994" stroke="none" text-anchor="middle">STA442</text></g><rect /><g id="sta201" class="node" data-group="" text-rendering="geometricPrecision" shape-rendering="geometricPrecision" style=""><rect rx="4" ry="4" x="51.613997999999995" y="182.26" width="65.0" height="35.0" style="fill:#ffec7a;" /><text x="84.113998" y="206.04519999999997" stroke="none" text-anchor="middle">STA201</text></g><rect /><g id="mat135136137157" class="node" data-group="" text-rendering="geometricPrecision" shape-rendering="geometricPrecision" style=""><rect rx="4" ry="4" x="280.39999" y="59.5591002" width="101.9072" height="38.414101" style="fill:#8a67be;" /><text x="331.35359" y="75.47019960000002" stroke="none" text-anchor="middle">MAT135,136/</text><text x="331.35359" y="93.84670100000001" stroke="none" text-anchor="middle">137/157</text></g><rect /><g id="csc108120148" class="node" data-group="" text-rendering="geometricPrecision" shape-rendering="geometricPrecision" style=""><rect rx="4" ry="4" x="421.2337" y="58.71089980000001" width="121.5325" height="39.262299" style="fill:#8a67be;" /><text x="481.99995" y="84.234301" stroke="none" text-anchor="middle">CSC108/120/148</text></g><rect /><g id="h199" class="hybrid" data-group="" text-rendering="geometricPrecision" shape-rendering="geometricPrecision"><rect rx="4" ry="4" x="46.037200999999996" y="531.0" width="97.5" height="30.0" style="fill:#888888;" /><text x="94.787201" y="550.7139" stroke="none" fill="white" text-anchor="middle">CSC108/120/148</text></g><rect /><g id="sta457" class="node" data-group="" text-rendering="geometricPrecision" shape-rendering="geometricPrecision" style=""><rect rx="4" ry="4" x="388.81311" y="468.5" width="65.0" height="35.0" style="fill:#80b2ff;" /><text x="421.31311" y="492.28518999999994" stroke="none" text-anchor="middle">STA457</text></g><rect /><g id="sta465" class="node" data-group="" text-rendering="geometricPrecision" shape-rendering="geometricPrecision" style=""><rect rx="4" ry="4" x="482.10629" y="468.5" width="65.0" height="35.0" style="fill:#80b2ff;" /><text x="514.60629" y="492.28518999999994" stroke="none" text-anchor="middle">STA465</text></g><rect /><g id="h206" class="hybrid" data-group="" text-rendering="geometricPrecision" shape-rendering="geometricPrecision"><rect rx="4" ry="4" x="370.3595" y="531.0" width="101.9072" height="30.0" style="fill:#888888;" /><text x="421.3131" y="550.7139" stroke="none" fill="white" text-anchor="middle">MAT235/237/257</text></g><rect /><g id="mat13370" class="node" data-group="" text-rendering="geometricPrecision" shape-rendering="geometricPrecision" style=""><rect rx="4" ry="4" x="163.507" y="59.5591002" width="70.0" height="38.414101" style="fill:#8a67be;" /><text x="198.507" y="75.47019960000002" stroke="none" text-anchor="middle">MAT133</text><text x="198.507" y="93.84670100000001" stroke="none" text-anchor="middle">&gt;70%</text></g><rect /><g id="h211" class="hybrid" data-group="" text-rendering="geometricPrecision" shape-rendering="geometricPrecision"><rect rx="4" ry="4" x="957.0" y="250.8302" width="97.5" height="30.0" style="fill:#888888;" /><text x="1005.75" y="270.54409999999996" stroke="none" fill="white" text-anchor="middle">STA247/255/257</text></g><rect /><g id="sta130" class="node" data-group="" text-rendering="geometricPrecision" shape-rendering="geometricPrecision" style=""><rect rx="4" ry="4" x="51.613997999999995" y="61.266099899999986" width="65.0" height="35.0" style="fill:#ffec7a;" /><text x="84.113998" y="85.05129999999998" stroke="none" text-anchor="middle">STA130</text></g><rect /><g id="mat223240" class="node" data-group="" text-rendering="geometricPrecision" shape-rendering="geometricPrecision" style=""><rect rx="4" ry="4" x="634.59277" y="58.71089980000001" width="101.9072" height="39.262299" style="fill:#8a67be;" /><text x="685.54637" y="84.234301" stroke="none" text-anchor="middle">MAT223/240</text></g><rect /><g id="mat235237257" class="node" data-group="" text-rendering="geometricPrecision" shape-rendering="geometricPrecision" style=""><rect rx="4" ry="4" x="751.31268" y="58.71089980000001" width="121.5325" height="39.262299" style="fill:#8a67be;" /><text x="812.07893" y="84.234301" stroke="none" text-anchor="middle">MAT235/237/257</text></g><rect /></g><g id="bools"><g id="bool197" class="bool"><ellipse cx="568.01001" cy="265.8302" rx="10.0" ry="7.5" /><text x="568.01001" y="268.97279000000003" stroke="none" text-anchor="middle">or</text></g><g id="bool198" class="bool"><ellipse cx="362.0" cy="331.147" rx="10.0" ry="7.5" /><text x="362.0" y="334.28961" stroke="none" text-anchor="middle">or</text></g><g id="bool205" class="bool"><ellipse cx="914.0" cy="423.14000999999996" rx="10.0" ry="7.5" /><text x="914.0" y="426.28259" stroke="none" text-anchor="middle">or</text></g><g id="bool210" class="bool"><ellipse cx="321.0" cy="136.3666" rx="10.0" ry="7.5" /><text x="321.0" y="139.50920100000002" stroke="none" text-anchor="middle">or</text></g><g id="bool215" class="bool"><ellipse cx="743.90631" cy="135.473099" rx="10.0" ry="7.5" /><text x="743.90631" y="138.6157" stroke="none" text-anchor="middle">and</text></g></g><g id="edges" stroke="black"><path id="pathp91" class="path" d="M498.5325,197.0 527.4763,197.0" marker-end="url(#arrow)" data-source-node="sta247" data-target-node="sta248" /><path id="pathp92" class="path" d="M202.5281,217.27189999999996 107.1959,312.8569" marker-end="url(#arrow)" data-source-node="sta220" data-target-node="sta221" /><path id="pathp93" class="path" d="M235.04109999999997,199.76 280.497,199.76" marker-end="url(#arrow)" data-source-node="sta220" data-target-node="sta255" /><path id="pathp94" class="path" d="M736.5225,197.0 765.4663,197.0" marker-end="url(#arrow)" data-source-node="sta257" data-target-node="sta261" /><path id="pathp95" class="path" d="M1022.0,405.67639999999994 1022.0,460.4684" marker-end="url(#arrow)" data-source-node="sta347" data-target-node="sta447" /><path id="pathp96" class="path" d="M580.4667,353.5193 580.4667,399.7291 620.2761,399.7291" marker-end="url(#arrow)" data-source-node="sta302" data-target-node="sta303" /><path id="pathp97" class="path" d="M556.4349,353.5217 556.4349,399.7291 530.6982,399.7291" marker-end="url(#arrow)" data-source-node="sta302" data-target-node="sta305" /><path id="pathp98" class="path" d="M669.5457,417.21079999999995 691.6523,461.34749999999997" marker-end="url(#arrow)" data-source-node="sta303" data-target-node="sta490" /><path id="pathp99" class="path" d="M652.5714,417.21079999999995 631.8631,461.2605" marker-end="url(#arrow)" data-source-node="sta303" data-target-node="sta480" /><path id="pathp100" class="path" d="M914.0,503.49019999999996 914.0,520.5228" marker-end="url(#arrow)" data-source-node="sta452" data-target-node="sta453" /><path id="pathp101" class="path" d="M806.0,405.67639999999994 806.0,460.4684" marker-end="url(#arrow)" data-source-node="sta355" data-target-node="sta422" /><path id="pathp102" class="path" d="M556.4349,353.52 556.4349,442.3881 48.140600000000006,442.3881 48.140600000000006,460.49559999999997" marker-end="url(#arrow)" data-source-node="sta302" data-target-node="sta410" /><path id="pathp103" class="path" d="M556.5581,353.5178 556.5581,442.8316 141.4337,442.8316 141.4337,460.505" marker-end="url(#arrow)" data-source-node="sta302" data-target-node="sta414" /><path id="pathp104" class="path" d="M556.01,353.5234 556.01,442.8646 234.7269,442.8646 234.7269,460.51829999999995" marker-end="url(#arrow)" data-source-node="sta302" data-target-node="sta437" /><path id="pathp105" class="path" d="M556.01,353.5078 556.01,442.8646 328.02,442.8646 328.02,460.51829999999995" marker-end="url(#arrow)" data-source-node="sta302" data-target-node="sta442" /><path id="pathp106" class="path" d="M353.2156,97.9618 440.0887,174.24" marker-end="url(#arrow)" data-source-node="mat135136137157" data-target-node="sta247" /><path id="pathp107" class="path" d="M347.3676,59.5697 347.3676,15.047700000000006 620.2328,15.047700000000006 620.2328,197.0 663.483,197.0" marker-end="url(#arrow)" data-source-node="mat135136137157" data-target-node="sta257" /><path id="pathp108" class="path" d="M482.0,97.97589999999998 482.0,171.50990000000002" marker-end="url(#arrow)" data-source-node="csc108120148" data-target-node="sta247" /><path id="pathp109" class="path" d="M542.7698,78.342 568.01,78.342 568.01,171.47359999999998" marker-end="url(#arrow)" data-source-node="csc108120148" data-target-node="sta248" /><path id="pathp110" class="path" d="M806.0,214.51 806.0,265.8302 586.01,265.8302" marker-end="url(#arrow)" data-source-node="sta261" data-target-node="bool197" /><path id="pathp111" class="path" d="M568.01,214.51 568.01,250.3302" marker-end="url(#arrow)" data-source-node="sta248" data-target-node="bool197" /><path id="pathp112" class="path" d="M321.0,217.2776 321.0,265.8302 550.01,265.8302" marker-end="url(#arrow)" data-source-node="sta255" data-target-node="bool197" /><path id="pathp113" class="path" d="M568.01,273.3302 568.01,310.5271" marker-end="url(#arrow)" data-source-node="bool197" data-target-node="sta302" /><path id="pathp114" class="path" d="M568.01,273.3302 568.01,292.7978 806.0,292.7978 806.0,362.6823" marker-end="url(#arrow)" data-source-node="bool197" data-target-node="sta355" /><path id="pathp115" class="path" d="M202.5959,217.27069999999998 348.2495,321.3238" marker-end="url(#arrow)" data-source-node="sta220" data-target-node="bool198" /><path id="pathp116" class="path" d="M568.01,273.3302 568.01,292.7978 362.0,292.7978 362.0,315.647" marker-end="url(#arrow)" data-source-node="bool197" data-target-node="bool198" /><path id="pathp117" class="path" d="M362.0,338.647 362.0,374.2217" marker-end="url(#arrow)" data-source-node="bool198" data-target-node="sta304" /><path id="pathp118" class="path" d="M83.1255,531.0 66.6656,509.82809999999995" marker-end="url(#arrow)" data-source-node="h199" data-target-node="sta410" /><path id="pathp119" class="path" d="M106.4488,531.0 122.90880000000001,509.82809999999995" marker-end="url(#arrow)" data-source-node="h199" data-target-node="sta414" /><path id="pathp120" class="path" d="M143.5372,546.0 328.02,546.0 328.02,511.49019999999996" marker-end="url(#arrow)" data-source-node="h199" data-target-node="sta442" /><path id="pathp121" class="path" d="M556.2795,353.5055 556.2795,442.3881 421.3131,442.3881 421.3131,460.49559999999997" marker-end="url(#arrow)" data-source-node="sta302" data-target-node="sta457" /><path id="pathp122" class="path" d="M556.4349,353.5078 556.4349,399.3333 556.4349,442.8646 514.6063,442.8646 514.6063,460.51829999999995" marker-end="url(#arrow)" data-source-node="sta302" data-target-node="sta465" /><path id="pathp123" class="path" d="M838.5344,388.1571 898.2356,415.83219999999994" marker-end="url(#arrow)" data-source-node="sta355" data-target-node="bool205" /><path id="pathp124" class="path" d="M989.4656,388.1571 929.7644,415.83219999999994" marker-end="url(#arrow)" data-source-node="sta347" data-target-node="bool205" /><path id="pathp125" class="path" d="M914.0,430.64 914.0,460.5108" marker-end="url(#arrow)" data-source-node="bool205" data-target-node="sta452" /><path id="pathp126" class="path" d="M421.3131,531.0 421.3131,511.53419999999994" marker-end="url(#arrow)" data-source-node="h206" data-target-node="sta457" /><path id="pathp127" class="path" d="M327.9008,97.9756 323.7513,121.06000000000002" marker-end="url(#arrow)" data-source-node="mat135136137157" data-target-node="bool210" /><path id="pathp128" class="path" d="M233.48739999999998,97.35460000000002 305.097,129.2772" marker-end="url(#arrow)" data-source-node="mat13370" data-target-node="bool210" /><path id="pathp129" class="path" d="M321.0,143.8666 321.0,174.26600000000002" marker-end="url(#arrow)" data-source-node="bool210" data-target-node="sta255" /><path id="pathp130" class="path" d="M1022.0,280.8465 1022.0,362.6158" marker-end="url(#arrow)" data-source-node="h211" data-target-node="sta347" /><path id="pathp131" class="path" d="M317.0361,59.5483 317.0361,15.047700000000006 84.114,15.047700000000006 84.114,53.24980000000001" marker-end="url(#arrow)" data-source-node="mat135136137157" data-target-node="sta130" /><path id="pathp132" class="path" d="M738.2858,141.6764 709.405,173.55169999999998" marker-end="url(#arrow)" data-source-node="bool215" data-target-node="sta257" /><path id="pathp133" class="path" d="M751.1717,140.6266 799.4481,174.86969999999997" marker-end="url(#arrow)" data-source-node="bool215" data-target-node="sta261" /><path id="pathp134" class="path" d="M753.9063,135.4731 854.9285,135.4731 854.9285,292.57 830.3019,292.57 830.3019,362.6247" marker-end="url(#arrow)" data-source-node="bool215" data-target-node="sta355" /><path id="pathp135" class="path" d="M753.9063,135.4731 854.5438,135.4731 854.5438,292.7978 990.0148,292.7978 990.0148,364.6962" marker-end="url(#arrow)" data-source-node="bool215" data-target-node="sta347" /><path id="pathp136" class="path" d="M705.5791,97.95290000000001 732.108,123.92320000000002" marker-end="url(#arrow)" data-source-node="mat223240" data-target-node="bool215" /><path id="pathp137" class="path" d="M788.6779,97.95290000000001 756.7067,124.74590000000002" marker-end="url(#arrow)" data-source-node="mat235237257" data-target-node="bool215" /></g><g id="region-labels"><text x="1060.7817" y="43.58376299999999" stroke="none" fill="#ffd57a" text-anchor="end">Introductory</text><text x="1060.23" y="70.747047" stroke="none" fill="#ff9900" text-anchor="end">Probability</text><text x="1059.9517" y="99.03441599999998" stroke="none" fill="#e68080" text-anchor="end">Statistical Theory</text><text x="1059.2473" y="127.07707999999998" stroke="none" fill="#80b2ff" text-anchor="end">Statistical Methods</text><text x="1059.5286" y="155.33128" stroke="none" fill="#91f27a" text-anchor="end">Computation</text><text x="1058.9984" y="182.99500999999998" stroke="none" fill="#5dd5b8" text-anchor="end">Capstone</text></g></svg>