<?xml version="1.0" encoding="UTF-8"?>
<!DOCTYPE svg PUBLIC "-//W3C//DTD SVG 1.1//EN"
    "http://www.w3.org/Graphics/SVG/1.1/DTD/svg11.dtd">
<svg xmlns="http://www.w3.org/2000/svg" xmlns:xlink="http://www.w3.org/1999/xlink" width="1195" height="650" xmlns:svg="http://www.w3.org/2000/svg" xmlns:dc="http://purl.org/dc/elements/1.1/" xmlns:cc="http://creativecommons.org/ns#" xmlns:rdf="http://www.w3.org/1999/02/22-rdf-syntax-ns#" version="1.1"><defs><marker id="arrow" viewBox="0 0 10 10" refX="4" refY="5" markerUnits="strokeWidth" orient="auto" markerWidth="7" markerHeight="7"><polyline points="0,1 10,5 0,9" fill="black" /></marker></defs><g id="regions"><path id="regionp1077" class="region" d="M174.2962,593.7771799999999 55.241496999999995,595.20575 56.67006799999999,877.37262 437.41995000000003,877.37262 437.41995000000003,477.3522099999999 549.5229800000001,477.3522099999999 548.09441,232.0584599999999 439.45819000000006,234.91559999999993 439.45819000000006,370.27603999999997 174.48739000000006,370.27603999999997 175.91596000000007,595.20575" style="fill:#ee00b5;" /><path id="regionp1078" class="region" d="M171.72593,370.86777 438.4062,370.86777 438.4062,232.89529000000005 175.76654000000002,232.89529000000005 175.76654000000002,370.86777000000006" style="fill:#eea900;" /><path id="regionp1079" class="region" d="M65.213353,596.0425799999999 172.9094,596.0425799999999 172.9094,315.72779999999995 55.24149700000001,315.72779999999995 55.24149700000001,596.0425799999999" style="fill:#eef300;" /><path id="regionp1080" class="region" d="M62.384354,313.7075 174.60154,315.13606999999996 174.60154,232.30355999999995 543.81447,230.87498999999997 543.81447,333.91054999999994 850.54844,333.91054999999994 850.54844,89.45362999999996 61.33554800000002,89.45362999999996 61.33554800000002,312.27892999999995" style="fill:#42f300;" /><path id="regionp1081" class="region" d="M437.56937,478.18900999999994 551.54329,478.18900999999994 551.54329,877.96431 437.56936999999994,877.96431" style="fill:#4238e4;" /><path id="regionp1082" class="region" d="M551.54327,331.89024 652.90517,331.89024 652.90517,877.12755 551.54327,877.12755" style="fill:#423800;" /><path id="regionp1083" class="region" d="M653.15027,331.89024 753.6753199999999,331.89024 753.6753199999999,877.7192200000001 653.15027,877.7192200000001" style="fill:#7a38ff;" /><path id="regionp1084" class="region" d="M754.26701,331.0534 849.95666,331.0534 849.95666,874.27038 754.26701,874.27038" style="fill:#7ad8ff;" /></g><g id="nodes" stroke="black"><g id="ita100" class="node" data-group="" text-rendering="geometricPrecision" shape-rendering="geometricPrecision" style=""><rect rx="4" ry="4" x="222.430347" y="131.37768" width="74.0" height="29.0" style="fill:#99cc00;" /><text x="259.430347" y="150.59158000000002" stroke="none" text-anchor="middle">ITA100</text></g><rect /><g id="ita102" class="node" data-group="" text-rendering="geometricPrecision" shape-rendering="geometricPrecision" style=""><rect rx="4" ry="4" x="338.901737" y="131.37768" width="74.0" height="29.0" style="fill:#99cc00;" /><text x="375.901737" y="150.59158000000002" stroke="none" text-anchor="middle">ITA102</text></g><rect /><g id="ita135" class="node" data-group="" text-rendering="geometricPrecision" shape-rendering="geometricPrecision" style=""><rect rx="4" ry="4" x="455.373137" y="131.37768" width="74.0" height="29.0" style="fill:#99cc00;" /><text x="492.373137" y="150.59158000000002" stroke="none" text-anchor="middle">ITA135</text></g><rect /><g id="ita151" class="node" data-group="" text-rendering="geometricPrecision" shape-rendering="geometricPrecision" style=""><rect rx="4" ry="4" x="559.373137" y="131.37768" width="74.0" height="29.0" style="fill:#99cc00;" /><text x="596.373137" y="150.59158000000002" stroke="none" text-anchor="middle">ITA151</text></g><rect /><g id="ita200" class="node" data-group="" text-rendering="geometricPrecision" shape-rendering="geometricPrecision" style=""><rect rx="4" ry="4" x="192.430347" y="384.70987" width="74.0" height="29.0" style="fill:#ff99cc;" /><text x="229.430347" y="403.92367" stroke="none" text-anchor="middle">ITA200</text></g><rect /><g id="ita201" class="node" data-group="" text-rendering="geometricPrecision" shape-rendering="geometricPrecision" style=""><rect rx="4" ry="4" x="192.430347" y="434.27298" width="74.0" height="29.0" style="fill:#ff99cc;" /><text x="229.430347" y="453.48678" stroke="none" text-anchor="middle">ITA201</text></g><rect /><g id="ita210" class="node" data-group="" text-rendering="geometricPrecision" shape-rendering="geometricPrecision" style=""><rect rx="4" ry="4" x="192.430347" y="482.83609" width="74.0" height="29.0" style="fill:#ff99cc;" /><text x="229.430347" y="502.04989" stroke="none" text-anchor="middle">ITA210</text></g><rect /><g id="ita233" class="node" data-group="" text-rendering="geometricPrecision" shape-rendering="geometricPrecision" style=""><rect rx="4" ry="4" x="192.430347" y="531.39917" width="74.0" height="29.0" style="fill:#ff99cc;" /><text x="229.430347" y="550.6131" stroke="none" text-anchor="middle">ITA233</text></g><rect /><g id="ita235" class="node" data-group="" text-rendering="geometricPrecision" shape-rendering="geometricPrecision" style=""><rect rx="4" ry="4" x="763.1588469999999" y="346.27298" width="74.0" height="29.0" style="fill:#99ccff;" /><text x="800.1588469999999" y="365.48678" stroke="none" text-anchor="middle">ITA235</text></g><rect /><g id="ita240" class="node" data-group="" text-rendering="geometricPrecision" shape-rendering="geometricPrecision" style=""><rect rx="4" ry="4" x="564.430327" y="344.77298" width="74.0" height="29.0" style="fill:#c0c0c0;" /><text x="601.430327" y="363.98678" stroke="none" text-anchor="middle">ITA240</text></g><rect /><g id="ita249" class="node" data-group="" text-rendering="geometricPrecision" shape-rendering="geometricPrecision" style=""><rect rx="4" ry="4" x="192.430347" y="579.96228" width="74.0" height="29.0" style="fill:#ff99cc;" /><text x="229.430347" y="599.17621" stroke="none" text-anchor="middle">ITA249</text></g><rect /><g id="ita250" class="node" data-group="" text-rendering="geometricPrecision" shape-rendering="geometricPrecision" style=""><rect rx="4" ry="4" x="222.430347" y="190.37768" width="74.0" height="29.0" style="fill:#99cc00;" /><text x="259.430347" y="209.59158000000002" stroke="none" text-anchor="middle">ITA250</text></g><rect /><g id="ita251" class="node" data-group="" text-rendering="geometricPrecision" shape-rendering="geometricPrecision" style=""><rect rx="4" ry="4" x="559.373137" y="190.37768" width="74.0" height="29.0" style="fill:#99cc00;" /><text x="596.373137" y="209.59158000000002" stroke="none" text-anchor="middle">ITA251</text></g><rect /><g id="ita299" class="node" data-group="" text-rendering="geometricPrecision" shape-rendering="geometricPrecision" style=""><rect rx="4" ry="4" x="668.430327" y="347.27298" width="74.0" height="29.0" style="fill:#cc99ff;" /><text x="705.430327" y="366.48678" stroke="none" text-anchor="middle">ITA299</text></g><rect /><g id="ita300" class="node" data-group="" text-rendering="geometricPrecision" shape-rendering="geometricPrecision" style=""><rect rx="4" ry="4" x="296.430347" y="382.70987" width="74.0" height="29.0" style="fill:#ff99cc;" /><text x="333.430347" y="401.92367" stroke="none" text-anchor="middle">ITA300</text></g><rect /><g id="ita310" class="node" data-group="" text-rendering="geometricPrecision" shape-rendering="geometricPrecision" style=""><rect rx="4" ry="4" x="192.430347" y="628.52539" width="74.0" height="29.0" style="fill:#ff99cc;" /><text x="229.430347" y="647.7392600000001" stroke="none" text-anchor="middle">ITA310</text></g><rect /><g id="ita311" class="node" data-group="" text-rendering="geometricPrecision" shape-rendering="geometricPrecision" style=""><rect rx="4" ry="4" x="192.430347" y="677.0885000000001" width="74.0" height="29.0" style="fill:#ff99cc;" /><text x="229.430347" y="696.30237" stroke="none" text-anchor="middle">ITA311</text></g><rect /><g id="ita301" class="node" data-group="" text-rendering="geometricPrecision" shape-rendering="geometricPrecision" style=""><rect rx="4" ry="4" x="296.430347" y="431.27298" width="74.0" height="29.0" style="fill:#ff99cc;" /><text x="333.430347" y="450.48678" stroke="none" text-anchor="middle">ITA301</text></g><rect /><g id="ita312" class="node" data-group="" text-rendering="geometricPrecision" shape-rendering="geometricPrecision" style=""><rect rx="4" ry="4" x="192.430347" y="725.65161" width="74.0" height="29.0" style="fill:#ff99cc;" /><text x="229.430347" y="744.86548" stroke="none" text-anchor="middle">ITA312</text></g><rect /><g id="ita315" class="node" data-group="" text-rendering="geometricPrecision" shape-rendering="geometricPrecision" style=""><rect rx="4" ry="4" x="296.430347" y="479.83609" width="74.0" height="29.0" style="fill:#ff99cc;" /><text x="333.430347" y="499.04989" stroke="none" text-anchor="middle">ITA315</text></g><rect /><g id="ita320" class="node" data-group="" text-rendering="geometricPrecision" shape-rendering="geometricPrecision" style=""><rect rx="4" ry="4" x="296.430347" y="528.39917" width="74.0" height="29.0" style="fill:#ff99cc;" /><text x="333.430347" y="547.6131" stroke="none" text-anchor="middle">ITA320</text></g><rect /><g id="ita321" class="node" data-group="" text-rendering="geometricPrecision" shape-rendering="geometricPrecision" style=""><rect rx="4" ry="4" x="296.430347" y="577.5838600000001" width="74.0" height="29.0" style="fill:#ff99cc;" /><text x="333.430347" y="596.79779" stroke="none" text-anchor="middle">ITA321</text></g><rect /><g id="ita325" class="node" data-group="" text-rendering="geometricPrecision" shape-rendering="geometricPrecision" style=""><rect rx="4" ry="4" x="296.430347" y="626.76855" width="74.0" height="29.0" style="fill:#ff99cc;" /><text x="333.430347" y="645.98248" stroke="none" text-anchor="middle">ITA325</text></g><rect /><g id="ita326" class="node" data-group="" text-rendering="geometricPrecision" shape-rendering="geometricPrecision" style=""><rect rx="4" ry="4" x="296.430347" y="675.33178" width="74.0" height="29.0" style="fill:#ff99cc;" /><text x="333.430347" y="694.5455900000001" stroke="none" text-anchor="middle">ITA326</text></g><rect /><g id="ita330" class="node" data-group="" text-rendering="geometricPrecision" shape-rendering="geometricPrecision" style=""><rect rx="4" ry="4" x="296.430347" y="723.89489" width="74.0" height="29.0" style="fill:#ff99cc;" /><text x="333.430347" y="743.1087" stroke="none" text-anchor="middle">ITA330</text></g><rect /><g id="ita332" class="node" data-group="" text-rendering="geometricPrecision" shape-rendering="geometricPrecision" style=""><rect rx="4" ry="4" x="192.430347" y="774.21466" width="74.0" height="29.0" style="fill:#ff99cc;" /><text x="229.430347" y="793.42859" stroke="none" text-anchor="middle">ITA332</text></g><rect /><g id="ita340" class="node" data-group="" text-rendering="geometricPrecision" shape-rendering="geometricPrecision" style=""><rect rx="4" ry="4" x="564.430327" y="392.83609" width="74.0" height="29.0" style="fill:#c0c0c0;" /><text x="601.430327" y="412.04989" stroke="none" text-anchor="middle">ITA340</text></g><rect /><g id="ita341" class="node" data-group="" text-rendering="geometricPrecision" shape-rendering="geometricPrecision" style=""><rect rx="4" ry="4" x="564.430327" y="442.39917" width="74.0" height="29.0" style="fill:#c0c0c0;" /><text x="601.430327" y="461.61306" stroke="none" text-anchor="middle">ITA341</text></g><rect /><g id="ita342" class="node" data-group="" text-rendering="geometricPrecision" shape-rendering="geometricPrecision" style=""><rect rx="4" ry="4" x="564.430327" y="490.96228" width="74.0" height="29.0" style="fill:#c0c0c0;" /><text x="601.430327" y="510.17618000000004" stroke="none" text-anchor="middle">ITA342</text></g><rect /><g id="ita345" class="node" data-group="" text-rendering="geometricPrecision" shape-rendering="geometricPrecision" style=""><rect rx="4" ry="4" x="564.430327" y="538.52539" width="74.0" height="29.0" style="fill:#c0c0c0;" /><text x="601.430327" y="557.7392600000001" stroke="none" text-anchor="middle">ITA345</text></g><rect /><g id="ita347" class="node" data-group="" text-rendering="geometricPrecision" shape-rendering="geometricPrecision" style=""><rect rx="4" ry="4" x="564.430327" y="586.0885000000001" width="74.0" height="29.0" style="fill:#c0c0c0;" /><text x="601.430327" y="605.30237" stroke="none" text-anchor="middle">ITA347</text></g><rect /><g id="ita348" class="node" data-group="" text-rendering="geometricPrecision" shape-rendering="geometricPrecision" style=""><rect rx="4" ry="4" x="192.430347" y="822.77777" width="74.0" height="29.0" style="fill:#ff99cc;" /><text x="229.430347" y="841.9917" stroke="none" text-anchor="middle">ITA348</text></g><rect /><g id="ita350" class="node" data-group="" text-rendering="geometricPrecision" shape-rendering="geometricPrecision" style=""><rect rx="4" ry="4" x="88.430347" y="270.14679" width="74.0" height="29.0" style="fill:#99cc00;" /><text x="125.430347" y="289.36059" stroke="none" text-anchor="middle">ITA350</text></g><rect /><g id="ita351" class="node" data-group="" text-rendering="geometricPrecision" shape-rendering="geometricPrecision" style=""><rect rx="4" ry="4" x="564.430327" y="296.70987" width="74.0" height="29.0" style="fill:#99cc00;" /><text x="601.430327" y="315.92367" stroke="none" text-anchor="middle">ITA351</text></g><rect /><g id="ita356" class="node" data-group="" text-rendering="geometricPrecision" shape-rendering="geometricPrecision" style=""><rect rx="4" ry="4" x="763.1588469999999" y="394.83609" width="74.0" height="29.0" style="fill:#99ccff;" /><text x="800.1588469999999" y="414.04989" stroke="none" text-anchor="middle">ITA356</text></g><rect /><g id="ita357" class="node" data-group="" text-rendering="geometricPrecision" shape-rendering="geometricPrecision" style=""><rect rx="4" ry="4" x="763.1588469999999" y="443.39917" width="74.0" height="29.0" style="fill:#99ccff;" /><text x="800.1588469999999" y="462.61306" stroke="none" text-anchor="middle">ITA357</text></g><rect /><g id="ita358" class="node" data-group="" text-rendering="geometricPrecision" shape-rendering="geometricPrecision" style=""><rect rx="4" ry="4" x="763.1588469999999" y="490.96228" width="74.0" height="29.0" style="fill:#99ccff;" /><text x="800.1588469999999" y="510.17618000000004" stroke="none" text-anchor="middle">ITA358</text></g><rect /><g id="ita359" class="node" data-group="" text-rendering="geometricPrecision" shape-rendering="geometricPrecision" style=""><rect rx="4" ry="4" x="763.1588469999999" y="541.52539" width="74.0" height="29.0" style="fill:#99ccff;" /><text x="800.1588469999999" y="560.7392600000001" stroke="none" text-anchor="middle">ITA359</text></g><rect /><g id="ita360" class="node" data-group="" text-rendering="geometricPrecision" shape-rendering="geometricPrecision" style=""><rect rx="4" ry="4" x="296.430347" y="270.14679" width="74.0" height="29.0" style="fill:#ffcc00;" /><text x="333.430347" y="289.36059" stroke="none" text-anchor="middle">ITA360</text></g><rect /><g id="ita363" class="node" data-group="" text-rendering="geometricPrecision" shape-rendering="geometricPrecision" style=""><rect rx="4" ry="4" x="296.430347" y="329.14679" width="74.0" height="29.0" style="fill:#ffcc00;" /><text x="333.430347" y="348.36059" stroke="none" text-anchor="middle">ITA363</text></g><rect /><g id="ita370" class="node" data-group="" text-rendering="geometricPrecision" shape-rendering="geometricPrecision" style=""><rect rx="4" ry="4" x="296.430347" y="772.4580100000001" width="74.0" height="29.0" style="fill:#ff99cc;" /><text x="333.430347" y="791.67175" stroke="none" text-anchor="middle">ITA370</text></g><rect /><g id="ita371" class="node" data-group="" text-rendering="geometricPrecision" shape-rendering="geometricPrecision" style=""><rect rx="4" ry="4" x="663.794527" y="296.70987" width="74.0" height="29.0" style="fill:#99cc00;" /><text x="700.794527" y="315.92367" stroke="none" text-anchor="middle">ITA371</text></g><rect /><g id="ita380" class="node" data-group="" text-rendering="geometricPrecision" shape-rendering="geometricPrecision" style=""><rect rx="4" ry="4" x="88.430347" y="628.52539" width="74.0" height="29.0" style="fill:#ff99cc;" /><text x="125.430347" y="647.7392600000001" stroke="none" text-anchor="middle">ITA380</text></g><rect /><g id="ita381" class="node" data-group="" text-rendering="geometricPrecision" shape-rendering="geometricPrecision" style=""><rect rx="4" ry="4" x="296.430347" y="821.0210500000001" width="74.0" height="29.0" style="fill:#ff99cc;" /><text x="333.430347" y="840.23486" stroke="none" text-anchor="middle">ITA381</text></g><rect /><g id="ita390" class="node" data-group="" text-rendering="geometricPrecision" shape-rendering="geometricPrecision" style=""><rect rx="4" ry="4" x="88.430347" y="678.0885000000001" width="74.0" height="29.0" style="fill:#ff99cc;" /><text x="125.430347" y="697.30237" stroke="none" text-anchor="middle">ITA390</text></g><rect /><g id="ita395" class="node" data-group="" text-rendering="geometricPrecision" shape-rendering="geometricPrecision" style=""><rect rx="4" ry="4" x="763.1588469999999" y="589.0885000000001" width="74.0" height="29.0" style="fill:#99ccff;" /><text x="800.1588469999999" y="608.30237" stroke="none" text-anchor="middle">ITA395</text></g><rect /><g id="ita398" class="node" data-group="" text-rendering="geometricPrecision" shape-rendering="geometricPrecision" style=""><rect rx="4" ry="4" x="668.430327" y="394.83609" width="74.0" height="29.0" style="fill:#cc99ff;" /><text x="705.430327" y="414.04989" stroke="none" text-anchor="middle">ITA398</text></g><rect /><g id="ita399" class="node" data-group="" text-rendering="geometricPrecision" shape-rendering="geometricPrecision" style=""><rect rx="4" ry="4" x="668.430327" y="445.39917" width="74.0" height="29.0" style="fill:#cc99ff;" /><text x="705.430327" y="464.61306" stroke="none" text-anchor="middle">ITA399</text></g><rect /><g id="ita410" class="node" data-group="" text-rendering="geometricPrecision" shape-rendering="geometricPrecision" style=""><rect rx="4" ry="4" x="460.430357" y="296.70987" width="74.0" height="29.0" style="fill:#ff99cc;" /><text x="497.430357" y="315.92367" stroke="none" text-anchor="middle">ITA410</text></g><rect /><g id="ita420" class="node" data-group="" text-rendering="geometricPrecision" shape-rendering="geometricPrecision" style=""><rect rx="4" ry="4" x="460.430357" y="345.27298" width="74.0" height="29.0" style="fill:#ff99cc;" /><text x="497.430357" y="364.48678" stroke="none" text-anchor="middle">ITA420</text></g><rect /><g id="ita421" class="node" data-group="" text-rendering="geometricPrecision" shape-rendering="geometricPrecision" style=""><rect rx="4" ry="4" x="460.430357" y="393.83609" width="74.0" height="29.0" style="fill:#ff99cc;" /><text x="497.430357" y="413.04989" stroke="none" text-anchor="middle">ITA421</text></g><rect /><g id="ita431" class="node" data-group="" text-rendering="geometricPrecision" shape-rendering="geometricPrecision" style=""><rect rx="4" ry="4" x="460.430357" y="490.96228" width="74.0" height="29.0" style="fill:#9999ff;" /><text x="497.430357" y="510.17618000000004" stroke="none" text-anchor="middle">ITA431</text></g><rect /><g id="ita432" class="node" data-group="" text-rendering="geometricPrecision" shape-rendering="geometricPrecision" style=""><rect rx="4" ry="4" x="460.430357" y="539.52539" width="74.0" height="29.0" style="fill:#9999ff;" /><text x="497.430357" y="558.7392600000001" stroke="none" text-anchor="middle">ITA432</text></g><rect /><g id="ita451" class="node" data-group="" text-rendering="geometricPrecision" shape-rendering="geometricPrecision" style=""><rect rx="4" ry="4" x="192.430347" y="270.14679" width="74.0" height="29.0" style="fill:#ffcc00;" /><text x="229.430347" y="289.36059" stroke="none" text-anchor="middle">ITA451</text></g><rect /><g id="ita441" class="node" data-group="" text-rendering="geometricPrecision" shape-rendering="geometricPrecision" style=""><rect rx="4" ry="4" x="564.430327" y="635.65161" width="74.0" height="29.0" style="fill:#c0c0c0;" /><text x="601.430327" y="654.86548" stroke="none" text-anchor="middle">ITA441</text></g><rect /><g id="ita452" class="node" data-group="" text-rendering="geometricPrecision" shape-rendering="geometricPrecision" style=""><rect rx="4" ry="4" x="192.430347" y="329.14679" width="74.0" height="29.0" style="fill:#ffcc00;" /><text x="229.430347" y="348.36059" stroke="none" text-anchor="middle">ITA452</text></g><rect /><g id="ita455" class="node" data-group="" text-rendering="geometricPrecision" shape-rendering="geometricPrecision" style=""><rect rx="4" ry="4" x="460.430357" y="442.39917" width="74.0" height="29.0" style="fill:#ff99cc;" /><text x="497.430357" y="461.61306" stroke="none" text-anchor="middle">ITA455</text></g><rect /><g id="ita460" class="node" data-group="" text-rendering="geometricPrecision" shape-rendering="geometricPrecision" style=""><rect rx="4" ry="4" x="88.430347" y="336.58368" width="74.0" height="29.0" style="fill:#ffff99;" /><text x="125.430347" y="355.79748" stroke="none" text-anchor="middle">ITA460</text></g><rect /><g id="ita471" class="node" data-group="" text-rendering="geometricPrecision" shape-rendering="geometricPrecision" style=""><rect rx="4" ry="4" x="763.1588469999999" y="296.70987" width="74.0" height="29.0" style="fill:#99cc00;" /><text x="800.1588469999999" y="315.92367" stroke="none" text-anchor="middle">ITA471</text></g><rect /><g id="ita489" class="node" data-group="" text-rendering="geometricPrecision" shape-rendering="geometricPrecision" style=""><rect rx="4" ry="4" x="88.430347" y="388.14679" width="74.0" height="29.0" style="fill:#ffff99;" /><text x="125.430347" y="407.36059" stroke="none" text-anchor="middle">ITA489</text></g><rect /><g id="ita490" class="node" data-group="" text-rendering="geometricPrecision" shape-rendering="geometricPrecision" style=""><rect rx="4" ry="4" x="88.430347" y="434.27298" width="74.0" height="29.0" style="fill:#ffff99;" /><text x="125.430347" y="453.48678" stroke="none" text-anchor="middle">ITA490</text></g><rect /><g id="ita495" class="node" data-group="" text-rendering="geometricPrecision" shape-rendering="geometricPrecision" style=""><rect rx="4" ry="4" x="668.430327" y="492.96228" width="74.0" height="29.0" style="fill:#cc99ff;" /><text x="705.430327" y="512.17618" stroke="none" text-anchor="middle">ITA495</text></g><rect /><g id="ita496" class="node" data-group="" text-rendering="geometricPrecision" shape-rendering="geometricPrecision" style=""><rect rx="4" ry="4" x="668.430327" y="540.52539" width="74.0" height="29.0" style="fill:#cc99ff;" /><text x="705.430327" y="559.7392600000001" stroke="none" text-anchor="middle">ITA496</text></g><rect /><g id="ita445" class="node" data-group="" text-rendering="geometricPrecision" shape-rendering="geometricPrecision" style=""><rect rx="4" ry="4" x="88.430347" y="726.65161" width="74.0" height="29.0" style="fill:#ff99cc;" /><text x="125.430347" y="745.86548" stroke="none" text-anchor="middle">ITA445</text></g><rect /></g><g id="bools"></g><g id="edges" stroke="black"><path id="pathp1050" class="path" d="M259.430347,160.36847999999998 259.430347,182.40348" marker-end="url(#arrow)" source-node="ita100" target-node="ita250" /><path id="pathp1051" class="path" d="M596.373147,160.36847999999998 596.373147,182.40348" marker-end="url(#arrow)" source-node="ita151" target-node="ita251" /><path id="pathp1052" class="path" d="M296.411747,204.87768 392.430347,204.87768" marker-end="url(#arrow)" source-node="ita250" target-node="" /><path id="pathp1053" class="path" d="M559.352947,204.87768 493.430347,204.87768 493.430347,204.87768 438.430347,204.87768" marker-end="url(#arrow)" source-node="ita251" target-node="" /><path id="pathp1054" class="path" d="M415.430347,219.87768 415.430347,397.20988 378.46644699999996,397.20988" marker-end="url(#arrow)" source-node="" target-node="ita300" /><path id="pathp1055" class="path" d="M415.430347,219.87768 415.430347,445.77298 378.46644699999996,445.77298" marker-end="url(#arrow)" source-node="" target-node="ita301" /><path id="pathp1056" class="path" d="M415.430347,219.87768 415.430347,494.33608000000004 378.46644699999996,494.33608000000004" marker-end="url(#arrow)" source-node="" target-node="ita315" /><path id="pathp1057" class="path" d="M415.430347,219.87768 415.430347,542.89918 378.46644699999996,542.89918" marker-end="url(#arrow)" source-node="" target-node="ita320" /><path id="pathp1058" class="path" d="M333.430347,557.3567800000001 333.430347,569.6029800000001" marker-end="url(#arrow)" source-node="ita320" target-node="ita321" /><path id="pathp1059" class="path" d="M415.430347,219.87768 415.430347,641.26858 378.46644699999996,641.26858" marker-end="url(#arrow)" source-node="" target-node="ita325" /><path id="pathp1060" class="path" d="M415.430347,219.87768 415.430347,689.83168 378.46644699999996,689.83168" marker-end="url(#arrow)" source-node="" target-node="ita326" /><path id="pathp1061" class="path" d="M415.430347,219.87768 415.430347,738.3948800000001 378.46644699999996,738.3948800000001" marker-end="url(#arrow)" source-node="" target-node="ita330" /><path id="pathp1062" class="path" d="M222.429847,204.87768 125.430347,204.87768 125.430347,262.11848000000003" marker-end="url(#arrow)" source-node="ita250" target-node="ita350" /><path id="pathp1063" class="path" d="M601.430347,219.38938000000002 601.430347,288.72838" marker-end="url(#arrow)" source-node="ita251" target-node="ita351" /><path id="pathp1064" class="path" d="M415.430347,219.87768 415.430347,284.64668000000006 378.46644699999996,284.64668000000006" marker-end="url(#arrow)" source-node="" target-node="ita360" /><path id="pathp1065" class="path" d="M415.430347,219.87768 415.430347,343.64668000000006 378.46644699999996,343.64668000000006" marker-end="url(#arrow)" source-node="" target-node="ita363" /><path id="pathp1066" class="path" d="M415.430347,219.87768 415.430347,786.95798 378.46644699999996,786.95798" marker-end="url(#arrow)" source-node="" target-node="ita370" /><path id="pathp1067" class="path" d="M415.430347,219.87768 415.430347,835.5210800000001 378.46644699999996,835.5210800000001" marker-end="url(#arrow)" source-node="" target-node="ita381" /><path id="pathp1068" class="path" d="M415.430347,219.87768 415.430347,311.20988 452.394147,311.20988" marker-end="url(#arrow)" source-node="" target-node="ita410" /><path id="pathp1069" class="path" d="M415.430347,219.87768 415.430347,359.77298 452.394147,359.77298" marker-end="url(#arrow)" source-node="" target-node="ita420" /><path id="pathp1070" class="path" d="M415.430347,219.87768 415.430347,408.33608000000004 452.394147,408.33608000000004" marker-end="url(#arrow)" source-node="" target-node="ita421" /><path id="pathp1071" class="path" d="M415.430347,219.87768 415.430347,505.4622800000001 452.394147,505.4622800000001" marker-end="url(#arrow)" source-node="" target-node="ita431" /><path id="pathp1072" class="path" d="M415.430347,219.87768 415.430347,554.02538 452.394147,554.02538" marker-end="url(#arrow)" source-node="" target-node="ita432" /><path id="pathp1073" class="path" d="M162.424447,284.64668 184.426547,284.64668" marker-end="url(#arrow)" source-node="ita350" target-node="ita451" /><path id="pathp1074" class="path" d="M229.430347,299.13748000000004 229.430347,321.17258000000004" marker-end="url(#arrow)" source-node="ita451" target-node="ita452" /><path id="pathp1075" class="path" d="M415.430347,219.87768 415.430347,456.89918 452.394147,456.89918" marker-end="url(#arrow)" source-node="" target-node="ita455" /><path id="pathp1076" class="path" d="M125.430347,299.14738 125.430347,328.60338" marker-end="url(#arrow)" source-node="ita350" target-node="ita460" /></g><g id="region-labels"><text x="406.430357" y="209.59158000000002" stroke="none" text-anchor="begin">OR</text><text x="654.28571" y="184.63441" stroke="none" fill="#000000" text-anchor="begin">Italian Language</text><text x="211.39297" y="257.30949" stroke="none" fill="#000000" text-anchor="begin">Italian Linguistics</text><text x="446.52695" y="618.61455" stroke="none" fill="#000000" text-anchor="begin">History of</text><text x="446.52695" y="643.61455" stroke="none" fill="#000000" text-anchor="begin">Italian </text><text x="446.52695" y="668.61455" stroke="none" fill="#000000" text-anchor="begin">Language</text><text x="568.53589" y="705.8809699999999" stroke="none" fill="#000000" text-anchor="begin">Italian </text><text x="568.53589" y="730.8809699999999" stroke="none" fill="#000000" text-anchor="begin">Cinema</text><text x="657.1073" y="615.8809" stroke="none" fill="#000000" text-anchor="begin">Research</text><text x="766.82684" y="657.79503" stroke="none" fill="#000000" text-anchor="begin">Courses </text><text x="766.82684" y="682.79503" stroke="none" fill="#000000" text-anchor="begin">Taught </text><text x="766.82684" y="707.79503" stroke="none" fill="#000000" text-anchor="begin">Abroad</text><text x="75.398293" y="792.0806699999999" stroke="none" fill="#000000" text-anchor="begin">Literature </text><text x="75.398293" y="817.0806699999999" stroke="none" fill="#000000" text-anchor="begin">and </text><text x="75.398293" y="842.0806699999999" stroke="none" fill="#000000" text-anchor="begin">Culture</text><text x="63.364956" y="495.37388999999996" stroke="none" fill="#000000" text-anchor="begin">Internship / </text><text x="63.364956" y="517.24889" stroke="none" fill="#000000" text-anchor="begin">Independent </text><text x="63.364956" y="539.12389" stroke="none" fill="#000000" text-anchor="begin">Study</text></g></svg>