<?xml version="1.0" encoding="UTF-8"?>
<!DOCTYPE svg PUBLIC "-//W3C//DTD SVG 1.1//EN"
    "http://www.w3.org/Graphics/SVG/1.1/DTD/svg11.dtd">
<svg xmlns="http://www.w3.org/2000/svg" xmlns:xlink="http://www.w3.org/1999/xlink" width="1195" height="650" xmlns:svg="http://www.w3.org/2000/svg" xmlns:dc="http://purl.org/dc/elements/1.1/" xmlns:cc="http://creativecommons.org/ns#" xmlns:rdf="http://www.w3.org/1999/02/22-rdf-syntax-ns#" version="1.1"><defs><marker id="arrow" viewBox="0 0 10 10" refX="4" refY="5" markerUnits="strokeWidth" orient="auto" markerWidth="7" markerHeight="7"><polyline points="0,1 10,5 0,9" fill="black" /></marker></defs><g id="regions"><path id="regionp1885" class="region" d="M4.27e-3,202.95968 1.567e-2,5.64e-4 164.71246,7.296e-3 164.71269,202.95968" style="fill:#6276b9;" /><path id="regionp1886" class="region" d="M303.18339,276.8198 429.47729,276.5947 429.59109,202.9319 688.82348,202.9057 688.82066,522.90709 395.74591,522.91879 395.74404,419.57075 303.4717,419.62196" style="fill:#5ac0ca;" /><path id="regionp1887" class="region" d="M204.62544,522.90745 204.63036,396.63079 303.42319,396.53803 303.26019,276.69286 429.56569,276.84447 429.56569,203.04609 110.2867,202.9677 110.27793,522.90669" style="fill:#708a23;" /><path id="regionp1888" class="region" d="M1175.2827,95.955461 1175.2826,337.25733 1071.1596,337.25649 1071.1606,522.92069 688.81458,522.90382 688.82447,95.946231 688.81632,95.957621 688.81798,95.951341" style="fill:#3520ca;" /><path id="regionp1889" class="region" d="M164.7109,0.0 164.70699,203.08125 688.82579,203.1581 688.82478,95.952521 365.1958,95.944661 365.17241,4.518e-3" style="fill:#dc0c33;" /><path id="regionp1890" class="region" d="M1071.1593,337.25558 1175.2806,337.25553 1175.2799,522.89964 1071.1593,522.90752" style="fill:#c200b3;" /><path id="regionp1891" class="region" d="M0.0,202.95168 110.27838,202.94787 110.27838,522.90718 3.82e-3,522.90312" style="fill:#00ff00;" /><path id="regionp1892" class="region" d="M204.62103,522.89933 204.6217,522.89753 395.7471,522.92368 395.75093,419.57059 303.47249,419.61992 303.40119,396.53475 204.62303,396.6121" style="fill:#c2f013;" /><path id="regionp1893" class="region" d="M365.17412,1.594e-3 1175.2676,1.563e-3 1175.2805,95.950381 365.17412,95.950411" style="fill:#c2f0b3;" /></g><g id="nodes" stroke="black"><g id="bch445" class="node" data-group="" text-rendering="geometricPrecision" shape-rendering="geometricPrecision" style=""><rect rx="4" ry="4" x="315.608334" y="322.418032" width="65.0" height="30.0" style="fill:#b1c8d1;" /><text x="348.108334" y="343.464942" stroke="none" text-anchor="middle">BCH445</text></g><rect /><g id="bch422" class="node" data-group="" text-rendering="geometricPrecision" shape-rendering="geometricPrecision" style=""><rect rx="4" ry="4" x="410.608334" y="322.418032" width="65.0" height="30.0" style="fill:#b1c8d1;" /><text x="443.108334" y="343.464942" stroke="none" text-anchor="middle">BCH422</text></g><rect /><g id="bch426" class="node" data-group="" text-rendering="geometricPrecision" shape-rendering="geometricPrecision" style=""><rect rx="4" ry="4" x="516.408174" y="322.418032" width="65.0" height="30.0" style="fill:#b1c8d1;" /><text x="548.908174" y="343.464942" stroke="none" text-anchor="middle">BCH426</text></g><rect /><g id="bch440" class="node" data-group="" text-rendering="geometricPrecision" shape-rendering="geometricPrecision" style=""><rect rx="4" ry="4" x="410.608334" y="382.418032" width="65.0" height="30.0" style="fill:#b1c8d1;" /><text x="443.108334" y="403.464942" stroke="none" text-anchor="middle">BCH440</text></g><rect /><g id="bch444" class="node" data-group="" text-rendering="geometricPrecision" shape-rendering="geometricPrecision" style=""><rect rx="4" ry="4" x="516.408174" y="382.418032" width="65.0" height="30.0" style="fill:#b1c8d1;" /><text x="548.908174" y="403.464942" stroke="none" text-anchor="middle">BCH444</text></g><rect /><g id="bch447" class="node" data-group="" text-rendering="geometricPrecision" shape-rendering="geometricPrecision" style=""><rect rx="4" ry="4" x="410.608334" y="442.418032" width="65.0" height="30.0" style="fill:#b1c8d1;" /><text x="443.108334" y="463.464942" stroke="none" text-anchor="middle">BCH447</text></g><rect /><g id="bch448" class="node" data-group="" text-rendering="geometricPrecision" shape-rendering="geometricPrecision" style=""><rect rx="4" ry="4" x="516.408174" y="442.418032" width="65.0" height="30.0" style="fill:#b1c8d1;" /><text x="548.908174" y="463.464942" stroke="none" text-anchor="middle">BCH448</text></g><rect /><g id="bch441" class="node" data-group="" text-rendering="geometricPrecision" shape-rendering="geometricPrecision" style=""><rect rx="4" ry="4" x="125.60833400000001" y="262.418032" width="65.0" height="30.0" style="fill:#66a366;" /><text x="158.108334" y="283.464942" stroke="none" text-anchor="middle">BCH441</text></g><rect /><g id="bcb420" class="node" data-group="" text-rendering="geometricPrecision" shape-rendering="geometricPrecision" style=""><rect rx="4" ry="4" x="125.54834400000001" y="322.418032" width="65.0" height="30.0" style="fill:#66a366;" /><text x="158.04834400000001" y="343.464942" stroke="none" text-anchor="middle">BCB420</text></g><rect /><g id="bcb330" class="node" data-group="" text-rendering="geometricPrecision" shape-rendering="geometricPrecision" style=""><rect rx="4" ry="4" x="125.54834400000001" y="382.418032" width="65.0" height="30.0" style="fill:#66a366;" /><text x="158.04834400000001" y="403.464942" stroke="none" text-anchor="middle">BCB330</text></g><rect /><g id="bcb430" class="node" data-group="" text-rendering="geometricPrecision" shape-rendering="geometricPrecision" style=""><rect rx="4" ry="4" x="125.54834400000001" y="442.418032" width="65.0" height="30.0" style="fill:#66a366;" /><text x="158.04834400000001" y="463.464942" stroke="none" text-anchor="middle">BCB430</text></g><rect /><g id="bcb410" class="node" data-group="" text-rendering="geometricPrecision" shape-rendering="geometricPrecision" style=""><rect rx="4" ry="4" x="220.60833399999999" y="322.418032" width="65.0" height="30.0" style="fill:#66a366;" /><text x="253.10833399999999" y="343.464942" stroke="none" text-anchor="middle">BCB410</text></g><rect /><g id="bch210" class="node" data-group="" text-rendering="geometricPrecision" shape-rendering="geometricPrecision" style=""><rect rx="4" ry="4" x="357.988344" y="111.733842" width="65.0" height="30.0" style="fill:#e68080;" /><text x="390.488344" y="132.780642" stroke="none" text-anchor="middle">BCH210</text></g><rect /><g id="bch311" class="node" data-group="" text-rendering="geometricPrecision" shape-rendering="geometricPrecision" style=""><rect rx="4" ry="4" x="262.988344" y="111.733842" width="65.0" height="30.0" style="fill:#e68080;" /><text x="295.488344" y="132.780642" stroke="none" text-anchor="middle">BCH311</text></g><rect /><g id="bch242" class="node" data-group="" text-rendering="geometricPrecision" shape-rendering="geometricPrecision" style=""><rect rx="4" ry="4" x="569.0281640000001" y="111.733842" width="65.0" height="30.0" style="fill:#e68080;" /><text x="601.5281640000001" y="132.780642" stroke="none" text-anchor="middle">BCH242</text></g><rect /><g id="chm247249" class="node" data-group="" text-rendering="geometricPrecision" shape-rendering="geometricPrecision" style=""><rect rx="4" ry="4" x="972.2186439999999" y="50.23384299999999" width="103.3793" height="32.0" style="fill:#5dd5b8;" /><text x="1023.908294" y="72.28064599999999" stroke="none" text-anchor="middle">CHM247/249</text></g><rect /><g id="bch427" class="node" data-group="" text-rendering="geometricPrecision" shape-rendering="geometricPrecision" style=""><rect rx="4" ry="4" x="30.488343999999998" y="322.418032" width="65.0" height="30.0" style="fill:#91f27a;" /><text x="62.988344" y="343.464942" stroke="none" text-anchor="middle">BCH427</text></g><rect /><g id="bch425" class="node" data-group="" text-rendering="geometricPrecision" shape-rendering="geometricPrecision" style=""><rect rx="4" ry="4" x="30.608344000000002" y="262.418032" width="65.0" height="30.0" style="fill:#91f27a;" /><text x="63.108344" y="283.464942" stroke="none" text-anchor="middle">BCH425</text></g><rect /><g id="bch372" class="node" data-group="" text-rendering="geometricPrecision" shape-rendering="geometricPrecision" style=""><rect rx="4" ry="4" x="706.408174" y="111.733842" width="65.0" height="30.0" style="fill:#80b2ff;" /><text x="738.908174" y="132.780642" stroke="none" text-anchor="middle">BCH372</text></g><rect /><g id="bch370" class="node" data-group="" text-rendering="geometricPrecision" shape-rendering="geometricPrecision" style=""><rect rx="4" ry="4" x="706.408174" y="382.418032" width="65.0" height="30.0" style="fill:#80b2ff;" /><text x="738.908174" y="403.464942" stroke="none" text-anchor="middle">BCH370</text></g><rect /><g id="bch378" class="node" data-group="" text-rendering="geometricPrecision" shape-rendering="geometricPrecision" style=""><rect rx="4" ry="4" x="896.408174" y="262.418032" width="65.0" height="30.0" style="fill:#80b2ff;" /><text x="928.908174" y="283.464942" stroke="none" text-anchor="middle">BCH378</text></g><rect /><g id="bch299" class="node" data-group="" text-rendering="geometricPrecision" shape-rendering="geometricPrecision" style=""><rect rx="4" ry="4" x="801.408174" y="111.733842" width="65.0" height="30.0" style="fill:#80b2ff;" /><text x="833.908174" y="132.780642" stroke="none" text-anchor="middle">BCH299</text></g><rect /><g id="bch377" class="node" data-group="" text-rendering="geometricPrecision" shape-rendering="geometricPrecision" style=""><rect rx="4" ry="4" x="801.408174" y="262.418032" width="65.0" height="30.0" style="fill:#80b2ff;" /><text x="833.908174" y="283.464942" stroke="none" text-anchor="middle">BCH377</text></g><rect /><g id="bch478" class="node" data-group="" text-rendering="geometricPrecision" shape-rendering="geometricPrecision" style=""><rect rx="4" ry="4" x="896.408174" y="382.418032" width="65.0" height="30.0" style="fill:#80b2ff;" /><text x="928.908174" y="403.464942" stroke="none" text-anchor="middle">BCH478</text></g><rect /><g id="bch479" class="node" data-group="" text-rendering="geometricPrecision" shape-rendering="geometricPrecision" style=""><rect rx="4" ry="4" x="1086.408144" y="382.418032" width="65.0" height="30.0" style="fill:#c285ff;" /><text x="1118.908144" y="403.464942" stroke="none" text-anchor="middle">BCH479</text></g><rect /><g id="bch472" class="node" data-group="" text-rendering="geometricPrecision" shape-rendering="geometricPrecision" style=""><rect rx="4" ry="4" x="991.4081440000001" y="382.418032" width="65.0" height="30.0" style="fill:#80b2ff;" /><text x="1023.9081440000001" y="403.464942" stroke="none" text-anchor="middle">BCH472</text></g><rect /><g id="bch473" class="node" data-group="" text-rendering="geometricPrecision" shape-rendering="geometricPrecision" style=""><rect rx="4" ry="4" x="896.408174" y="442.418032" width="65.0" height="30.0" style="fill:#80b2ff;" /><text x="928.908174" y="463.464942" stroke="none" text-anchor="middle">BCH473</text></g><rect /><g id="bch375" class="node" data-group="" text-rendering="geometricPrecision" shape-rendering="geometricPrecision" style=""><rect rx="4" ry="4" x="1086.408144" y="262.418032" width="65.0" height="30.0" style="fill:#80b2ff;" /><text x="1118.908144" y="283.464942" stroke="none" text-anchor="middle">BCH375</text></g><rect /><g id="h4217" class="hybrid" data-group="" text-rendering="geometricPrecision" shape-rendering="geometricPrecision"><rect rx="4" ry="4" x="1093.908144" y="160.325952" width="50.0" height="24.0" style="fill:#888888;" /><text x="1118.908144" y="176.105242" stroke="none" fill="white" text-anchor="middle">BIO230</text></g><rect /><g id="bch373" class="node" data-group="" text-rendering="geometricPrecision" shape-rendering="geometricPrecision" style=""><rect rx="4" ry="4" x="991.4081440000001" y="262.418032" width="65.0" height="30.0" style="fill:#80b2ff;" /><text x="1023.9081440000001" y="283.464942" stroke="none" text-anchor="middle">BCH373</text></g><rect /><g id="h4223" class="hybrid" data-group="" text-rendering="geometricPrecision" shape-rendering="geometricPrecision"><rect rx="4" ry="4" x="618.908174" y="445.418032" width="50.0" height="24.0" style="fill:#888888;" /><text x="643.908174" y="461.197332" stroke="none" fill="white" text-anchor="middle">BCH311</text></g><rect /><g id="h4226" class="hybrid" data-group="" text-rendering="geometricPrecision" shape-rendering="geometricPrecision"><rect rx="4" ry="4" x="618.908174" y="325.418032" width="50.0" height="24.0" style="fill:#888888;" /><text x="643.908174" y="341.197332" stroke="none" fill="white" text-anchor="middle">MGY311</text></g><rect /><g id="h4228" class="hybrid" data-group="" text-rendering="geometricPrecision" shape-rendering="geometricPrecision"><rect rx="4" ry="4" x="618.908174" y="385.418032" width="50.0" height="24.0" style="fill:#888888;" /><text x="643.908174" y="401.197332" stroke="none" fill="white" text-anchor="middle">BCH210</text></g><rect /><g id="mgy311" class="node" data-group="" text-rendering="geometricPrecision" shape-rendering="geometricPrecision" style=""><rect rx="4" ry="4" x="178.228344" y="111.733842" width="65.0" height="30.0" style="fill:#e68080;" /><text x="210.728344" y="132.780642" stroke="none" text-anchor="middle">MGY311</text></g><rect /><g id="h4236" class="hybrid" data-group="" text-rendering="geometricPrecision" shape-rendering="geometricPrecision"><rect rx="4" ry="4" x="270.488344" y="54.23384299999999" width="50.0" height="24.0" style="fill:#888888;" /><text x="295.488344" y="70.013144" stroke="none" fill="white" text-anchor="middle">BCH242</text></g><rect /><g id="csc324" class="node" data-group="se" text-rendering="geometricPrecision" shape-rendering="geometricPrecision" style=""><rect rx="4" ry="4" x="220.54834400000001" y="442.418032" width="65.0" height="30.0" style="fill:#b8ff70;" /><text x="253.04834400000001" y="463.464942" stroke="none" text-anchor="middle">CSC324</text></g><rect /><g id="csc373" class="node" data-group="theory" text-rendering="geometricPrecision" shape-rendering="geometricPrecision" style=""><rect rx="4" ry="4" x="315.54834400000004" y="442.418032" width="65.0" height="30.0" style="fill:#b8ff70;" /><text x="348.04834400000004" y="463.464942" stroke="none" text-anchor="middle">CSC373</text></g><rect /><g id="chm138139151" class="node" data-group="" text-rendering="geometricPrecision" shape-rendering="geometricPrecision" style=""><rect rx="4" ry="4" x="420.687134" y="50.73384299999999" width="150.6423" height="31.0" style="fill:#5dd5b8;" /><text x="496.008284" y="72.28064599999999" stroke="none" text-anchor="middle">CHM(138,139)/151</text></g><rect /><g id="bio230" class="node" data-group="" text-rendering="geometricPrecision" shape-rendering="geometricPrecision" style=""><rect rx="4" ry="4" x="85.968334" y="51.23384299999999" width="65.0" height="30.0" style="fill:#8a67be;" /><text x="118.468334" y="72.28064599999999" stroke="none" text-anchor="middle">BIO230</text></g><rect /><g id="h4248" class="hybrid" data-group="" text-rendering="geometricPrecision" shape-rendering="geometricPrecision"><rect rx="4" ry="4" x="323.108334" y="385.418032" width="50.0" height="24.0" style="fill:#888888;" /><text x="348.108334" y="401.197332" stroke="none" fill="white" text-anchor="middle">BIO230</text></g><rect /><g id="bch340" class="node" data-group="" text-rendering="geometricPrecision" shape-rendering="geometricPrecision" style=""><rect rx="4" ry="4" x="611.408174" y="262.418032" width="65.0" height="30.0" style="fill:#b1c8d1;" /><text x="643.908174" y="283.464942" stroke="none" text-anchor="middle">BCH340</text></g><rect /></g><g id="bools"><g id="bool4216" class="bool"><ellipse cx="1023.9081440000001" cy="203.086252" rx="9.8800001" ry="7.3684001" /><text x="1023.9081440000001" y="206.109642" stroke="none" text-anchor="middle">and</text></g><g id="bool4221" class="bool"><ellipse cx="833.908174" cy="337.418032" rx="9.8800001" ry="7.3684001" /><text x="833.908174" y="340.441442" stroke="none" text-anchor="middle">and</text></g><g id="bool4222" class="bool"><ellipse cx="738.908174" cy="457.418032" rx="9.8800001" ry="7.3684001" /><text x="738.908174" y="460.441442" stroke="none" text-anchor="middle">and</text></g><g id="bool4225" class="bool"><ellipse cx="833.908174" cy="457.418032" rx="9.8800001" ry="7.3684001" /><text x="833.908174" y="460.441442" stroke="none" text-anchor="middle">or</text></g><g id="bool4230" class="bool"><ellipse cx="496.00827400000003" cy="277.418032" rx="9.8800001" ry="7.3684001" /><text x="496.00827400000003" y="280.441442" stroke="none" text-anchor="middle">and</text></g><g id="bool4231" class="bool"><ellipse cx="496.00827400000003" cy="126.733852" rx="9.8800001" ry="7.3684001" /><text x="496.00827400000003" y="129.75724200000002" stroke="none" text-anchor="middle">or</text></g><g id="bool4232" class="bool"><ellipse cx="253.10833399999999" cy="277.418032" rx="9.8800001" ry="7.3684001" /><text x="253.10833399999999" y="280.441442" stroke="none" text-anchor="middle">or</text><text x="253.10833399999999" y="254.99817" stroke="none" fill="#000000" text-anchor="middle">Computational Bio</text></g><g id="bool4235" class="bool"><ellipse cx="210.728334" cy="66.233839" rx="9.8800001" ry="7.3684001" /><text x="210.728334" y="69.257239" stroke="none" text-anchor="middle">and</text></g><g id="bool4242" class="bool"><ellipse cx="253.04834400000001" cy="397.418032" rx="9.8800001" ry="7.3684001" /><text x="253.04834400000001" y="400.441442" stroke="none" text-anchor="middle">or</text></g><g id="bool4245" class="bool"><ellipse cx="833.908174" cy="397.418032" rx="9.8800001" ry="7.3684001" /><text x="833.908174" y="400.441442" stroke="none" text-anchor="middle">and</text></g></g><g id="edges" stroke="black"><path id="pathp1832" class="path" d="M158.093344,292.38874200000004 158.071344,314.42294200000003" marker-end="url(#arrow)" source-node="bch441" target-node="bcb420" /><path id="pathp1833" class="path" d="M357.97124399999996,126.733842 335.980644,126.733842" marker-end="url(#arrow)" source-node="bch210" target-node="bch311" /><path id="pathp1834" class="path" d="M634.028444,126.733842 698.414944,126.733842" marker-end="url(#arrow)" source-node="bch242" target-node="bch372" /><path id="pathp1835" class="path" d="M624.647044,141.724942 804.078044,258.074942" marker-end="url(#arrow)" source-node="bch242" target-node="bch377" /><path id="pathp1836" class="path" d="M866.425244,277.418042 888.415844,277.418042" marker-end="url(#arrow)" source-node="bch377" target-node="bch378" /><path id="pathp1837" class="path" d="M1023.9081440000001,82.237742 1023.9081440000001,187.71774200000002" marker-end="url(#arrow)" source-node="chm247249" target-node="bool4216" /><path id="pathp1838" class="path" d="M1023.9081440000001,210.454642 1023.9081440000001,231.018942 1118.908144,231.018942 1118.908144,254.419942" marker-end="url(#arrow)" source-node="bool4216" target-node="bch375" /><path id="pathp1839" class="path" d="M1093.908144,180.42074200000002 1040.5818439999998,197.687442" marker-end="url(#arrow)" source-node="h4217" target-node="bool4216" /><path id="pathp1840" class="path" d="M1023.9081440000001,210.454642 1023.9081440000001,254.410142" marker-end="url(#arrow)" source-node="bool4216" target-node="bch373" /><path id="pathp1841" class="path" d="M905.1813440000001,292.403342 848.2117440000001,328.384142" marker-end="url(#arrow)" source-node="bch378" target-node="bool4221" /><path id="pathp1842" class="path" d="M833.908144,292.38874200000004 833.908144,322.04954200000003" marker-end="url(#arrow)" source-node="bch377" target-node="bool4221" /><path id="pathp1843" class="path" d="M843.788144,337.418042 1118.908144,337.418042 1118.908144,374.38874200000004" marker-end="url(#arrow)" source-node="bool4221" target-node="bch479" /><path id="pathp1844" class="path" d="M843.788144,337.418042 1023.9081440000001,337.418042 1023.9081440000001,374.38874200000004" marker-end="url(#arrow)" source-node="bool4221" target-node="bch472" /><path id="pathp1845" class="path" d="M738.908144,412.447342 738.908144,442.04954200000003" marker-end="url(#arrow)" source-node="bch370" target-node="bool4222" /><path id="pathp1846" class="path" d="M668.908144,457.418042 721.028144,457.418042" marker-end="url(#arrow)" source-node="h4223" target-node="bool4222" /><path id="pathp1847" class="path" d="M748.788144,457.418042 816.028144,457.418042" marker-end="url(#arrow)" source-node="bool4222" target-node="bool4225" /><path id="pathp1848" class="path" d="M843.788144,457.418042 888.447844,457.418042" marker-end="url(#arrow)" source-node="bool4225" target-node="bch473" /><path id="pathp1849" class="path" d="M668.908144,397.418042 698.4032440000001,397.418042" marker-end="url(#arrow)" source-node="h4228" target-node="bch370" /><path id="pathp1850" class="path" d="M487.329244,280.938942 387.50564399999996,321.435342" marker-end="url(#arrow)" source-node="bool4230" target-node="bch445" /><path id="pathp1851" class="path" d="M496.008244,284.786442 496.008244,457.418042 508.388144,457.418042" marker-end="url(#arrow)" source-node="bool4230" target-node="bch448" /><path id="pathp1852" class="path" d="M496.008244,284.786442 496.008244,337.418042 508.388144,337.418042" marker-end="url(#arrow)" source-node="bool4230" target-node="bch426" /><path id="pathp1853" class="path" d="M496.008244,284.786442 496.008244,337.418042 483.6283440000001,337.418042" marker-end="url(#arrow)" source-node="bool4230" target-node="bch422" /><path id="pathp1854" class="path" d="M496.008244,284.786442 496.008244,398.23384200000004 483.6274440000001,398.042842" marker-end="url(#arrow)" source-node="bool4230" target-node="bch440" /><path id="pathp1855" class="path" d="M496.008244,284.786442 496.008244,398.23384200000004 508.389144,398.042842" marker-end="url(#arrow)" source-node="bool4230" target-node="bch444" /><path id="pathp1856" class="path" d="M496.008244,284.786442 496.008244,457.418042 483.6283440000001,457.418042" marker-end="url(#arrow)" source-node="bool4230" target-node="bch447" /><path id="pathp1857" class="path" d="M422.973844,126.733842 478.128244,126.733842" marker-end="url(#arrow)" source-node="bch210" target-node="bool4231" /><path id="pathp1858" class="path" d="M569.0427440000001,126.733842 513.888244,126.733842" marker-end="url(#arrow)" source-node="bch242" target-node="bool4231" /><path id="pathp1859" class="path" d="M496.008244,134.10224200000002 496.008244,203.086242 1006.028144,203.086242" marker-end="url(#arrow)" source-node="bool4231" target-node="bool4216" /><path id="pathp1860" class="path" d="M496.008244,134.10224200000002 496.008244,203.086242 159.04494400000002,203.086242 63.10834399999999,203.086242 63.10834399999999,254.428242" marker-end="url(#arrow)" source-node="bool4231" target-node="bch425" /><path id="pathp1861" class="path" d="M496.008244,134.10224200000002 496.008244,262.04954200000003" marker-end="url(#arrow)" source-node="bool4231" target-node="bool4230" /><path id="pathp1862" class="path" d="M496.008244,134.10224200000002 496.008244,203.134142 159.092844,203.134142 158.412844,254.43864200000002" marker-end="url(#arrow)" source-node="bool4231" target-node="bch441" /><path id="pathp1863" class="path" d="M291.277244,141.706542 257.302544,262.505342" marker-end="url(#arrow)" source-node="bch311" target-node="bool4232" /><path id="pathp1864" class="path" d="M262.988344,277.418042 478.128244,277.418042" marker-end="url(#arrow)" source-node="bool4232" target-node="bool4230" /><path id="pathp1865" class="path" d="M253.10834400000002,284.786442 253.10834400000002,314.435442" marker-end="url(#arrow)" source-node="bool4232" target-node="bcb410" /><path id="pathp1866" class="path" d="M243.22834400000002,277.418042 198.56864399999998,277.418042" marker-end="url(#arrow)" source-node="bool4232" target-node="bch441" /><path id="pathp1867" class="path" d="M214.939444,141.706542 248.914144,262.505342" marker-end="url(#arrow)" source-node="mgy311" target-node="bool4232" /><path id="pathp1868" class="path" d="M210.72834400000002,73.60224199999999 210.72834400000002,103.71274199999999" marker-end="url(#arrow)" source-node="bool4235" target-node="mgy311" /><path id="pathp1869" class="path" d="M270.488344,66.233842 228.60834400000002,66.233842" marker-end="url(#arrow)" source-node="h4236" target-node="bool4235" /><path id="pathp1870" class="path" d="M324.27514399999995,442.403342 267.351944,406.451842" marker-end="url(#arrow)" source-node="csc373" target-node="bool4242" /><path id="pathp1871" class="path" d="M253.04834400000001,442.38874200000004 253.04834400000001,412.786442" marker-end="url(#arrow)" source-node="csc324" target-node="bool4242" /><path id="pathp1872" class="path" d="M253.05574399999998,390.04954200000003 253.085344,360.40054200000003" marker-end="url(#arrow)" source-node="bool4242" target-node="bcb410" /><path id="pathp1873" class="path" d="M468.984244,81.728042 423.60664399999996,107.745442" marker-end="url(#arrow)" source-node="chm138139151" target-node="bch210" /><path id="pathp1874" class="path" d="M523.032244,81.728042 568.409944,107.745442" marker-end="url(#arrow)" source-node="chm138139151" target-node="bch242" /><path id="pathp1875" class="path" d="M571.307444,66.233842 964.2226440000001,66.233842" marker-end="url(#arrow)" source-node="chm138139151" target-node="chm247249" /><path id="pathp1876" class="path" d="M833.908144,344.786442 833.908144,382.04954200000003" marker-end="url(#arrow)" source-node="bool4221" target-node="bool4245" /><path id="pathp1877" class="path" d="M668.908144,337.418042 737.152544,337.418042 819.5124440000001,388.490942" marker-end="url(#arrow)" source-node="h4226" target-node="bool4245" /><path id="pathp1878" class="path" d="M833.908144,404.786442 833.908144,442.04954200000003" marker-end="url(#arrow)" source-node="bool4245" target-node="bool4225" /><path id="pathp1879" class="path" d="M843.788144,397.418042 888.447844,397.418042" marker-end="url(#arrow)" source-node="bool4245" target-node="bch478" /><path id="pathp1880" class="path" d="M496.008244,50.759842000000006 496.008244,20.831842 118.468344,20.831842 118.468344,43.203242" marker-end="url(#arrow)" source-node="chm138139151" target-node="bio230" /><path id="pathp1881" class="path" d="M150.948544,66.233842 192.84834400000003,66.233842" marker-end="url(#arrow)" source-node="bio230" target-node="bool4235" /><path id="pathp1882" class="path" d="M348.108344,385.418042 348.108344,360.464942" marker-end="url(#arrow)" source-node="h4248" target-node="bch445" /><path id="pathp1883" class="path" d="M496.008244,134.10224200000002 496.008244,203.086242 643.908144,203.086242 643.908144,254.428242" marker-end="url(#arrow)" source-node="bool4231" target-node="bch340" /><path id="pathp1884" class="path" d="M676.3707440000001,277.418042 737.152544,277.418042 819.5124440000001,328.490942" marker-end="url(#arrow)" source-node="bch340" target-node="bool4221" /></g><g id="region-labels"><text x="272.39099" y="232.49817" stroke="none" fill="#000000" text-anchor="begin">Bioinformatics and</text><text x="61.30077" y="132.4463" stroke="none" fill="#000000" text-anchor="begin">Biology</text><text x="523.60541" y="178.34361" stroke="none" fill="#000000" text-anchor="begin">Introductory</text><text x="705.99316" y="38.845749" stroke="none" fill="#000000" text-anchor="begin">Chemistry</text><text x="1087.9708" y="462.68237" stroke="none" fill="#000000" text-anchor="begin">Seminar</text><text x="803.01648" y="178.60649" stroke="none" fill="#000000" text-anchor="begin">Laboratory</text><text x="18.434071" y="401.9646" stroke="none" fill="#000000" text-anchor="begin">Biophysics</text><text x="225.886" y="498.78326" stroke="none" fill="#000000" text-anchor="begin">Computer Science</text><text x="538.27026" y="232.61636" stroke="none" fill="#000000" text-anchor="begin">Lecture</text><text x="538.27026" y="255.11636" stroke="none" fill="#000000" text-anchor="begin">Courses</text></g></svg>