<?xml version="1.0" encoding="UTF-8"?>
<!DOCTYPE svg PUBLIC "-//W3C//DTD SVG 1.1//EN"
    "http://www.w3.org/Graphics/SVG/1.1/DTD/svg11.dtd">
<svg xmlns="http://www.w3.org/2000/svg" xmlns:xlink="http://www.w3.org/1999/xlink" width="1195" height="650" xmlns:svg="http://www.w3.org/2000/svg" xmlns:dc="http://purl.org/dc/elements/1.1/" xmlns:cc="http://creativecommons.org/ns#" xmlns:rdf="http://www.w3.org/1999/02/22-rdf-syntax-ns#" version="1.1"><defs><marker id="arrow" viewBox="0 0 10 10" refX="4" refY="5" markerUnits="strokeWidth" orient="auto" markerWidth="7" markerHeight="7"><polyline points="0,1 10,5 0,9" fill="black" /></marker></defs><g id="regions"><path id="regionp2010" class="region" d="M58.0,596.06299 58.0,875.06299 437.0,875.06299 437.0,479.06299 540.0,479.06299 540.0,231.06299 439.0,231.06299 439.0,371.06299 172.0,371.06299 172.0,596.06299 148.24297,595.46806 67.74955200000001,595.05647 -46.25044799999999,595.05647" style="fill:#ee00b5;" /><path id="regionp2011" class="region" d="M171.72593,371.06298999999996 439.0,371.06298999999996 439.0,231.06298999999996 172.0,231.06298999999996 172.0,371.06298999999996" style="fill:#eea900;" /><path id="regionp2012" class="region" d="M172.0,596.06299 172.0,307.06299 58.0,307.06299 58.0,596.06299" style="fill:#eef300;" /><path id="regionp2013" class="region" d="M172.0,307.06298999999996 172.0,231.06298999999996 540.0,231.06298999999996 540.0,326.06298999999996 847.0,326.06298999999996 847.0,91.06298999999997 58.0,91.06298999999997 58.0,307.06298999999996 98.14026,306.85573999999997 176.86446999999998,306.11528999999996 290.86447,306.11528999999996" style="fill:#42f300;" /><path id="regionp2014" class="region" d="M437.0,479.06299 540.0,479.06299 540.0,875.06299 437.0,875.06299" style="fill:#4238e4;" /><path id="regionp2015" class="region" d="M540.0,326.06298999999996 653.0,326.06298999999996 653.0,875.06299 540.0,875.06299" style="fill:#423800;" /><path id="regionp2016" class="region" d="M653.0,326.06298999999996 754.0,326.06298999999996 754.0,875.06299 653.0,875.06299" style="fill:#7a38ff;" /><path id="regionp2017" class="region" d="M754.0,326.06298999999996 846.99983,326.06298999999996 847.00017,875.06299 754.0,875.06299" style="fill:#7ad8ff;" /></g><g id="nodes" stroke="black"><g id="ita100" class="node" data-group="" text-rendering="geometricPrecision" shape-rendering="geometricPrecision" style=""><rect rx="4" ry="4" x="221.001776" y="125.66338999999999" width="74.0" height="29.0" style="fill:#99cc00;" /><text x="258.001776" y="144.87729000000002" stroke="none" text-anchor="middle">ITA100</text></g><rect /><g id="ita102" class="node" data-group="" text-rendering="geometricPrecision" shape-rendering="geometricPrecision" style=""><rect rx="4" ry="4" x="337.47316600000005" y="125.66338999999999" width="74.0" height="29.0" style="fill:#99cc00;" /><text x="374.47316600000005" y="144.87729000000002" stroke="none" text-anchor="middle">ITA102</text></g><rect /><g id="ita135" class="node" data-group="" text-rendering="geometricPrecision" shape-rendering="geometricPrecision" style=""><rect rx="4" ry="4" x="453.944566" y="125.66338999999999" width="74.0" height="29.0" style="fill:#99cc00;" /><text x="490.944566" y="144.87729000000002" stroke="none" text-anchor="middle">ITA135</text></g><rect /><g id="ita151" class="node" data-group="" text-rendering="geometricPrecision" shape-rendering="geometricPrecision" style=""><rect rx="4" ry="4" x="557.944566" y="125.66338999999999" width="74.0" height="29.0" style="fill:#99cc00;" /><text x="594.944566" y="144.87729000000002" stroke="none" text-anchor="middle">ITA151</text></g><rect /><g id="ita200" class="node" data-group="" text-rendering="geometricPrecision" shape-rendering="geometricPrecision" style=""><rect rx="4" ry="4" x="191.001776" y="378.99558" width="74.0" height="29.0" style="fill:#ff99cc;" /><text x="228.001776" y="398.20938" stroke="none" text-anchor="middle">ITA200</text></g><rect /><g id="ita201" class="node" data-group="" text-rendering="geometricPrecision" shape-rendering="geometricPrecision" style=""><rect rx="4" ry="4" x="191.001776" y="428.55869" width="74.0" height="29.0" style="fill:#ff99cc;" /><text x="228.001776" y="447.77249" stroke="none" text-anchor="middle">ITA201</text></g><rect /><g id="ita210" class="node" data-group="" text-rendering="geometricPrecision" shape-rendering="geometricPrecision" style=""><rect rx="4" ry="4" x="191.001776" y="477.1218" width="74.0" height="29.0" style="fill:#ff99cc;" /><text x="228.001776" y="496.3356" stroke="none" text-anchor="middle">ITA210</text></g><rect /><g id="ita233" class="node" data-group="" text-rendering="geometricPrecision" shape-rendering="geometricPrecision" style=""><rect rx="4" ry="4" x="191.001776" y="525.68488" width="74.0" height="29.0" style="fill:#ff99cc;" /><text x="228.001776" y="544.89881" stroke="none" text-anchor="middle">ITA233</text></g><rect /><g id="ita235" class="node" data-group="" text-rendering="geometricPrecision" shape-rendering="geometricPrecision" style=""><rect rx="4" ry="4" x="761.730276" y="340.55869" width="74.0" height="29.0" style="fill:#99ccff;" /><text x="798.730276" y="359.77249" stroke="none" text-anchor="middle">ITA235</text></g><rect /><g id="ita240" class="node" data-group="" text-rendering="geometricPrecision" shape-rendering="geometricPrecision" style=""><rect rx="4" ry="4" x="563.001756" y="339.05869" width="74.0" height="29.0" style="fill:#c0c0c0;" /><text x="600.001756" y="358.27249" stroke="none" text-anchor="middle">ITA240</text></g><rect /><g id="ita249" class="node" data-group="" text-rendering="geometricPrecision" shape-rendering="geometricPrecision" style=""><rect rx="4" ry="4" x="191.001776" y="574.24799" width="74.0" height="29.0" style="fill:#ff99cc;" /><text x="228.001776" y="593.46192" stroke="none" text-anchor="middle">ITA249</text></g><rect /><g id="ita250" class="node" data-group="" text-rendering="geometricPrecision" shape-rendering="geometricPrecision" style=""><rect rx="4" ry="4" x="221.001776" y="184.66339" width="74.0" height="29.0" style="fill:#99cc00;" /><text x="258.001776" y="203.87729000000002" stroke="none" text-anchor="middle">ITA250</text></g><rect /><g id="ita251" class="node" data-group="" text-rendering="geometricPrecision" shape-rendering="geometricPrecision" style=""><rect rx="4" ry="4" x="557.944566" y="184.66339" width="74.0" height="29.0" style="fill:#99cc00;" /><text x="594.944566" y="203.87729000000002" stroke="none" text-anchor="middle">ITA251</text></g><rect /><g id="ita299" class="node" data-group="" text-rendering="geometricPrecision" shape-rendering="geometricPrecision" style=""><rect rx="4" ry="4" x="667.001756" y="341.55869" width="74.0" height="29.0" style="fill:#cc99ff;" /><text x="704.001756" y="360.77249" stroke="none" text-anchor="middle">ITA299</text></g><rect /><g id="ita300" class="node" data-group="" text-rendering="geometricPrecision" shape-rendering="geometricPrecision" style=""><rect rx="4" ry="4" x="295.001776" y="376.99558" width="74.0" height="29.0" style="fill:#ff99cc;" /><text x="332.001776" y="396.20938" stroke="none" text-anchor="middle">ITA300</text></g><rect /><g id="ita310" class="node" data-group="" text-rendering="geometricPrecision" shape-rendering="geometricPrecision" style=""><rect rx="4" ry="4" x="191.001776" y="622.8111" width="74.0" height="29.0" style="fill:#ff99cc;" /><text x="228.001776" y="642.02497" stroke="none" text-anchor="middle">ITA310</text></g><rect /><g id="ita311" class="node" data-group="" text-rendering="geometricPrecision" shape-rendering="geometricPrecision" style=""><rect rx="4" ry="4" x="191.001776" y="671.3742100000001" width="74.0" height="29.0" style="fill:#ff99cc;" /><text x="228.001776" y="690.58808" stroke="none" text-anchor="middle">ITA311</text></g><rect /><g id="ita301" class="node" data-group="" text-rendering="geometricPrecision" shape-rendering="geometricPrecision" style=""><rect rx="4" ry="4" x="295.001776" y="425.55869" width="74.0" height="29.0" style="fill:#ff99cc;" /><text x="332.001776" y="444.77249" stroke="none" text-anchor="middle">ITA301</text></g><rect /><g id="ita312" class="node" data-group="" text-rendering="geometricPrecision" shape-rendering="geometricPrecision" style=""><rect rx="4" ry="4" x="191.001776" y="719.93732" width="74.0" height="29.0" style="fill:#ff99cc;" /><text x="228.001776" y="739.15119" stroke="none" text-anchor="middle">ITA312</text></g><rect /><g id="ita315" class="node" data-group="" text-rendering="geometricPrecision" shape-rendering="geometricPrecision" style=""><rect rx="4" ry="4" x="295.001776" y="474.1218" width="74.0" height="29.0" style="fill:#ff99cc;" /><text x="332.001776" y="493.3356" stroke="none" text-anchor="middle">ITA315</text></g><rect /><g id="ita320" class="node" data-group="" text-rendering="geometricPrecision" shape-rendering="geometricPrecision" style=""><rect rx="4" ry="4" x="295.001776" y="522.68488" width="74.0" height="29.0" style="fill:#ff99cc;" /><text x="332.001776" y="541.89881" stroke="none" text-anchor="middle">ITA320</text></g><rect /><g id="ita321" class="node" data-group="" text-rendering="geometricPrecision" shape-rendering="geometricPrecision" style=""><rect rx="4" ry="4" x="295.001776" y="571.8695700000001" width="74.0" height="29.0" style="fill:#ff99cc;" /><text x="332.001776" y="591.0835" stroke="none" text-anchor="middle">ITA321</text></g><rect /><g id="ita325" class="node" data-group="" text-rendering="geometricPrecision" shape-rendering="geometricPrecision" style=""><rect rx="4" ry="4" x="295.001776" y="621.05426" width="74.0" height="29.0" style="fill:#ff99cc;" /><text x="332.001776" y="640.26819" stroke="none" text-anchor="middle">ITA325</text></g><rect /><g id="ita326" class="node" data-group="" text-rendering="geometricPrecision" shape-rendering="geometricPrecision" style=""><rect rx="4" ry="4" x="295.001776" y="669.61749" width="74.0" height="29.0" style="fill:#ff99cc;" /><text x="332.001776" y="688.8313" stroke="none" text-anchor="middle">ITA326</text></g><rect /><g id="ita330" class="node" data-group="" text-rendering="geometricPrecision" shape-rendering="geometricPrecision" style=""><rect rx="4" ry="4" x="295.001776" y="718.1806" width="74.0" height="29.0" style="fill:#ff99cc;" /><text x="332.001776" y="737.39441" stroke="none" text-anchor="middle">ITA330</text></g><rect /><g id="ita332" class="node" data-group="" text-rendering="geometricPrecision" shape-rendering="geometricPrecision" style=""><rect rx="4" ry="4" x="191.001776" y="768.50037" width="74.0" height="29.0" style="fill:#ff99cc;" /><text x="228.001776" y="787.7143" stroke="none" text-anchor="middle">ITA332</text></g><rect /><g id="ita340" class="node" data-group="" text-rendering="geometricPrecision" shape-rendering="geometricPrecision" style=""><rect rx="4" ry="4" x="563.001756" y="387.1218" width="74.0" height="29.0" style="fill:#c0c0c0;" /><text x="600.001756" y="406.3356" stroke="none" text-anchor="middle">ITA340</text></g><rect /><g id="ita341" class="node" data-group="" text-rendering="geometricPrecision" shape-rendering="geometricPrecision" style=""><rect rx="4" ry="4" x="563.001756" y="436.68488" width="74.0" height="29.0" style="fill:#c0c0c0;" /><text x="600.001756" y="455.89877" stroke="none" text-anchor="middle">ITA341</text></g><rect /><g id="ita342" class="node" data-group="" text-rendering="geometricPrecision" shape-rendering="geometricPrecision" style=""><rect rx="4" ry="4" x="563.001756" y="485.24799" width="74.0" height="29.0" style="fill:#c0c0c0;" /><text x="600.001756" y="504.46189000000004" stroke="none" text-anchor="middle">ITA342</text></g><rect /><g id="ita345" class="node" data-group="" text-rendering="geometricPrecision" shape-rendering="geometricPrecision" style=""><rect rx="4" ry="4" x="563.001756" y="532.8111" width="74.0" height="29.0" style="fill:#c0c0c0;" /><text x="600.001756" y="552.02497" stroke="none" text-anchor="middle">ITA345</text></g><rect /><g id="ita347" class="node" data-group="" text-rendering="geometricPrecision" shape-rendering="geometricPrecision" style=""><rect rx="4" ry="4" x="563.001756" y="580.3742100000001" width="74.0" height="29.0" style="fill:#c0c0c0;" /><text x="600.001756" y="599.58808" stroke="none" text-anchor="middle">ITA347</text></g><rect /><g id="ita348" class="node" data-group="" text-rendering="geometricPrecision" shape-rendering="geometricPrecision" style=""><rect rx="4" ry="4" x="191.001776" y="817.06348" width="74.0" height="29.0" style="fill:#ff99cc;" /><text x="228.001776" y="836.27741" stroke="none" text-anchor="middle">ITA348</text></g><rect /><g id="ita350" class="node" data-group="" text-rendering="geometricPrecision" shape-rendering="geometricPrecision" style=""><rect rx="4" ry="4" x="87.001776" y="264.4325" width="74.0" height="29.0" style="fill:#99cc00;" /><text x="124.001776" y="283.6463" stroke="none" text-anchor="middle">ITA350</text></g><rect /><g id="ita351" class="node" data-group="" text-rendering="geometricPrecision" shape-rendering="geometricPrecision" style=""><rect rx="4" ry="4" x="563.001756" y="290.99558" width="74.0" height="29.0" style="fill:#99cc00;" /><text x="600.001756" y="310.20938" stroke="none" text-anchor="middle">ITA351</text></g><rect /><g id="ita356" class="node" data-group="" text-rendering="geometricPrecision" shape-rendering="geometricPrecision" style=""><rect rx="4" ry="4" x="761.730276" y="389.1218" width="74.0" height="29.0" style="fill:#99ccff;" /><text x="798.730276" y="408.3356" stroke="none" text-anchor="middle">ITA356</text></g><rect /><g id="ita357" class="node" data-group="" text-rendering="geometricPrecision" shape-rendering="geometricPrecision" style=""><rect rx="4" ry="4" x="761.730276" y="437.68488" width="74.0" height="29.0" style="fill:#99ccff;" /><text x="798.730276" y="456.89877" stroke="none" text-anchor="middle">ITA357</text></g><rect /><g id="ita358" class="node" data-group="" text-rendering="geometricPrecision" shape-rendering="geometricPrecision" style=""><rect rx="4" ry="4" x="761.730276" y="485.24799" width="74.0" height="29.0" style="fill:#99ccff;" /><text x="798.730276" y="504.46189000000004" stroke="none" text-anchor="middle">ITA358</text></g><rect /><g id="ita359" class="node" data-group="" text-rendering="geometricPrecision" shape-rendering="geometricPrecision" style=""><rect rx="4" ry="4" x="761.730276" y="535.8111" width="74.0" height="29.0" style="fill:#99ccff;" /><text x="798.730276" y="555.02497" stroke="none" text-anchor="middle">ITA359</text></g><rect /><g id="ita360" class="node" data-group="" text-rendering="geometricPrecision" shape-rendering="geometricPrecision" style=""><rect rx="4" ry="4" x="295.001776" y="264.4325" width="74.0" height="29.0" style="fill:#ffcc00;" /><text x="332.001776" y="283.6463" stroke="none" text-anchor="middle">ITA360</text></g><rect /><g id="ita363" class="node" data-group="" text-rendering="geometricPrecision" shape-rendering="geometricPrecision" style=""><rect rx="4" ry="4" x="295.001776" y="323.4325" width="74.0" height="29.0" style="fill:#ffcc00;" /><text x="332.001776" y="342.6463" stroke="none" text-anchor="middle">ITA363</text></g><rect /><g id="ita370" class="node" data-group="" text-rendering="geometricPrecision" shape-rendering="geometricPrecision" style=""><rect rx="4" ry="4" x="295.001776" y="766.74372" width="74.0" height="29.0" style="fill:#ff99cc;" /><text x="332.001776" y="785.95746" stroke="none" text-anchor="middle">ITA370</text></g><rect /><g id="ita371" class="node" data-group="" text-rendering="geometricPrecision" shape-rendering="geometricPrecision" style=""><rect rx="4" ry="4" x="662.365956" y="290.99558" width="74.0" height="29.0" style="fill:#99cc00;" /><text x="699.365956" y="310.20938" stroke="none" text-anchor="middle">ITA371</text></g><rect /><g id="ita380" class="node" data-group="" text-rendering="geometricPrecision" shape-rendering="geometricPrecision" style=""><rect rx="4" ry="4" x="87.001776" y="622.8111" width="74.0" height="29.0" style="fill:#ff99cc;" /><text x="124.001776" y="642.02497" stroke="none" text-anchor="middle">ITA380</text></g><rect /><g id="ita381" class="node" data-group="" text-rendering="geometricPrecision" shape-rendering="geometricPrecision" style=""><rect rx="4" ry="4" x="295.001776" y="815.30676" width="74.0" height="29.0" style="fill:#ff99cc;" /><text x="332.001776" y="834.52057" stroke="none" text-anchor="middle">ITA381</text></g><rect /><g id="ita390" class="node" data-group="" text-rendering="geometricPrecision" shape-rendering="geometricPrecision" style=""><rect rx="4" ry="4" x="87.001776" y="672.3742100000001" width="74.0" height="29.0" style="fill:#ff99cc;" /><text x="124.001776" y="691.58808" stroke="none" text-anchor="middle">ITA390</text></g><rect /><g id="ita395" class="node" data-group="" text-rendering="geometricPrecision" shape-rendering="geometricPrecision" style=""><rect rx="4" ry="4" x="761.730276" y="583.3742100000001" width="74.0" height="29.0" style="fill:#99ccff;" /><text x="798.730276" y="602.58808" stroke="none" text-anchor="middle">ITA395</text></g><rect /><g id="ita398" class="node" data-group="" text-rendering="geometricPrecision" shape-rendering="geometricPrecision" style=""><rect rx="4" ry="4" x="667.001756" y="389.1218" width="74.0" height="29.0" style="fill:#cc99ff;" /><text x="704.001756" y="408.3356" stroke="none" text-anchor="middle">ITA398</text></g><rect /><g id="ita399" class="node" data-group="" text-rendering="geometricPrecision" shape-rendering="geometricPrecision" style=""><rect rx="4" ry="4" x="667.001756" y="439.68488" width="74.0" height="29.0" style="fill:#cc99ff;" /><text x="704.001756" y="458.89877" stroke="none" text-anchor="middle">ITA399</text></g><rect /><g id="ita410" class="node" data-group="" text-rendering="geometricPrecision" shape-rendering="geometricPrecision" style=""><rect rx="4" ry="4" x="459.00178600000004" y="290.99558" width="74.0" height="29.0" style="fill:#ff99cc;" /><text x="496.00178600000004" y="310.20938" stroke="none" text-anchor="middle">ITA410</text></g><rect /><g id="ita420" class="node" data-group="" text-rendering="geometricPrecision" shape-rendering="geometricPrecision" style=""><rect rx="4" ry="4" x="459.00178600000004" y="339.55869" width="74.0" height="29.0" style="fill:#ff99cc;" /><text x="496.00178600000004" y="358.77249" stroke="none" text-anchor="middle">ITA420</text></g><rect /><g id="ita421" class="node" data-group="" text-rendering="geometricPrecision" shape-rendering="geometricPrecision" style=""><rect rx="4" ry="4" x="459.00178600000004" y="388.1218" width="74.0" height="29.0" style="fill:#ff99cc;" /><text x="496.00178600000004" y="407.3356" stroke="none" text-anchor="middle">ITA421</text></g><rect /><g id="ita431" class="node" data-group="" text-rendering="geometricPrecision" shape-rendering="geometricPrecision" style=""><rect rx="4" ry="4" x="459.00178600000004" y="485.24799" width="74.0" height="29.0" style="fill:#9999ff;" /><text x="496.00178600000004" y="504.46189000000004" stroke="none" text-anchor="middle">ITA431</text></g><rect /><g id="ita432" class="node" data-group="" text-rendering="geometricPrecision" shape-rendering="geometricPrecision" style=""><rect rx="4" ry="4" x="459.00178600000004" y="533.8111" width="74.0" height="29.0" style="fill:#9999ff;" /><text x="496.00178600000004" y="553.02497" stroke="none" text-anchor="middle">ITA432</text></g><rect /><g id="ita451" class="node" data-group="" text-rendering="geometricPrecision" shape-rendering="geometricPrecision" style=""><rect rx="4" ry="4" x="191.001776" y="264.4325" width="74.0" height="29.0" style="fill:#ffcc00;" /><text x="228.001776" y="283.6463" stroke="none" text-anchor="middle">ITA451</text></g><rect /><g id="ita441" class="node" data-group="" text-rendering="geometricPrecision" shape-rendering="geometricPrecision" style=""><rect rx="4" ry="4" x="563.001756" y="629.93732" width="74.0" height="29.0" style="fill:#c0c0c0;" /><text x="600.001756" y="649.15119" stroke="none" text-anchor="middle">ITA441</text></g><rect /><g id="ita452" class="node" data-group="" text-rendering="geometricPrecision" shape-rendering="geometricPrecision" style=""><rect rx="4" ry="4" x="191.001776" y="323.4325" width="74.0" height="29.0" style="fill:#ffcc00;" /><text x="228.001776" y="342.6463" stroke="none" text-anchor="middle">ITA452</text></g><rect /><g id="ita455" class="node" data-group="" text-rendering="geometricPrecision" shape-rendering="geometricPrecision" style=""><rect rx="4" ry="4" x="459.00178600000004" y="436.68488" width="74.0" height="29.0" style="fill:#ff99cc;" /><text x="496.00178600000004" y="455.89877" stroke="none" text-anchor="middle">ITA455</text></g><rect /><g id="ita460" class="node" data-group="" text-rendering="geometricPrecision" shape-rendering="geometricPrecision" style=""><rect rx="4" ry="4" x="87.001776" y="330.86939" width="74.0" height="29.0" style="fill:#ffff99;" /><text x="124.001776" y="350.08319" stroke="none" text-anchor="middle">ITA460</text></g><rect /><g id="ita471" class="node" data-group="" text-rendering="geometricPrecision" shape-rendering="geometricPrecision" style=""><rect rx="4" ry="4" x="761.730276" y="290.99558" width="74.0" height="29.0" style="fill:#99cc00;" /><text x="798.730276" y="310.20938" stroke="none" text-anchor="middle">ITA471</text></g><rect /><g id="ita489" class="node" data-group="" text-rendering="geometricPrecision" shape-rendering="geometricPrecision" style=""><rect rx="4" ry="4" x="87.001776" y="382.4325" width="74.0" height="29.0" style="fill:#ffff99;" /><text x="124.001776" y="401.6463" stroke="none" text-anchor="middle">ITA489</text></g><rect /><g id="ita490" class="node" data-group="" text-rendering="geometricPrecision" shape-rendering="geometricPrecision" style=""><rect rx="4" ry="4" x="87.001776" y="428.55869" width="74.0" height="29.0" style="fill:#ffff99;" /><text x="124.001776" y="447.77249" stroke="none" text-anchor="middle">ITA490</text></g><rect /><g id="ita495" class="node" data-group="" text-rendering="geometricPrecision" shape-rendering="geometricPrecision" style=""><rect rx="4" ry="4" x="667.001756" y="487.24799" width="74.0" height="29.0" style="fill:#cc99ff;" /><text x="704.001756" y="506.46189000000004" stroke="none" text-anchor="middle">ITA495</text></g><rect /><g id="ita496" class="node" data-group="" text-rendering="geometricPrecision" shape-rendering="geometricPrecision" style=""><rect rx="4" ry="4" x="667.001756" y="534.8111" width="74.0" height="29.0" style="fill:#cc99ff;" /><text x="704.001756" y="554.02497" stroke="none" text-anchor="middle">ITA496</text></g><rect /><g id="ita445" class="node" data-group="" text-rendering="geometricPrecision" shape-rendering="geometricPrecision" style=""><rect rx="4" ry="4" x="87.001776" y="720.93732" width="74.0" height="29.0" style="fill:#ff99cc;" /><text x="124.001776" y="740.15119" stroke="none" text-anchor="middle">ITA445</text></g><rect /></g><g id="bools"><g id="bool4558" class="bool"><ellipse cx="416.55867600000005" cy="199.16339" rx="9.8800001" ry="7.3684001" /><text x="416.55867600000005" y="202.30599" stroke="none" text-anchor="middle">or</text></g></g><g id="edges" stroke="black"><path id="pathp1983" class="path" d="M258.001776,154.65418999999997 258.001776,176.68919" marker-end="url(#arrow)" source-node="ita100" target-node="ita250" /><path id="pathp1984" class="path" d="M594.944576,154.65418999999997 594.944576,176.68919" marker-end="url(#arrow)" source-node="ita151" target-node="ita251" /><path id="pathp1985" class="path" d="M332.001776,551.6424900000001 332.001776,563.8886900000001" marker-end="url(#arrow)" source-node="ita320" target-node="ita321" /><path id="pathp1986" class="path" d="M221.00127600000002,199.16339 124.001776,199.16339 124.001776,256.40419" marker-end="url(#arrow)" source-node="ita250" target-node="ita350" /><path id="pathp1987" class="path" d="M600.0017760000001,213.67509 600.0017760000001,283.01409" marker-end="url(#arrow)" source-node="ita251" target-node="ita351" /><path id="pathp1988" class="path" d="M160.995876,278.93239 182.997976,278.93239" marker-end="url(#arrow)" source-node="ita350" target-node="ita451" /><path id="pathp1989" class="path" d="M228.001776,293.42319000000003 228.001776,315.45829000000003" marker-end="url(#arrow)" source-node="ita451" target-node="ita452" /><path id="pathp1990" class="path" d="M124.001776,293.43309 124.001776,322.88909" marker-end="url(#arrow)" source-node="ita350" target-node="ita460" /><path id="pathp1991" class="path" d="M294.96997600000003,199.16339 398.678676,199.16339" marker-end="url(#arrow)" source-node="ita250" target-node="bool4558" /><path id="pathp1992" class="path" d="M557.969576,199.16339 434.438576,199.16339" marker-end="url(#arrow)" source-node="ita251" target-node="bool4558" /><path id="pathp1993" class="path" d="M416.55867600000005,206.53188999999998 416.55867600000005,278.93239 377.03667600000006,278.93239" marker-end="url(#arrow)" source-node="bool4558" target-node="ita360" /><path id="pathp1994" class="path" d="M416.55867600000005,206.53188999999998 416.55867600000005,537.18489 377.03667600000006,537.18489" marker-end="url(#arrow)" source-node="bool4558" target-node="ita320" /><path id="pathp1995" class="path" d="M416.55867600000005,206.53188999999998 416.55867600000005,440.05869 377.03667600000006,440.05869" marker-end="url(#arrow)" source-node="bool4558" target-node="ita301" /><path id="pathp1996" class="path" d="M416.55867600000005,206.53188999999998 416.55867600000005,337.93239 377.03667600000006,337.93239" marker-end="url(#arrow)" source-node="bool4558" target-node="ita363" /><path id="pathp1997" class="path" d="M416.55867600000005,206.53188999999998 416.55867600000005,391.49559 377.03667600000006,391.49559" marker-end="url(#arrow)" source-node="bool4558" target-node="ita300" /><path id="pathp1998" class="path" d="M416.55867600000005,206.53188999999998 416.55867600000005,488.62179000000003 377.03667600000006,488.62179000000003" marker-end="url(#arrow)" source-node="bool4558" target-node="ita315" /><path id="pathp1999" class="path" d="M416.55867600000005,206.53188999999998 416.55867600000005,635.55429 377.03667600000006,635.55429" marker-end="url(#arrow)" source-node="bool4558" target-node="ita325" /><path id="pathp2000" class="path" d="M416.55867600000005,206.53188999999998 416.55867600000005,684.11739 377.03667600000006,684.11739" marker-end="url(#arrow)" source-node="bool4558" target-node="ita326" /><path id="pathp2001" class="path" d="M416.55867600000005,206.53188999999998 416.55867600000005,732.6805899999999 377.03667600000006,732.6805899999999" marker-end="url(#arrow)" source-node="bool4558" target-node="ita330" /><path id="pathp2002" class="path" d="M416.55867600000005,206.53188999999998 416.55867600000005,781.24369 377.03667600000006,781.24369" marker-end="url(#arrow)" source-node="bool4558" target-node="ita370" /><path id="pathp2003" class="path" d="M416.55867600000005,206.53188999999998 416.55867600000005,829.80679 377.03667600000006,829.80679" marker-end="url(#arrow)" source-node="bool4558" target-node="ita381" /><path id="pathp2004" class="path" d="M416.55867600000005,206.53188999999998 416.55867600000005,305.49559 451.03427600000003,305.49559" marker-end="url(#arrow)" source-node="bool4558" target-node="ita410" /><path id="pathp2005" class="path" d="M416.55867600000005,206.53188999999998 416.55867600000005,354.05869 451.03427600000003,354.05869" marker-end="url(#arrow)" source-node="bool4558" target-node="ita420" /><path id="pathp2006" class="path" d="M416.55867600000005,206.53188999999998 416.55867600000005,402.62179000000003 451.03427600000003,402.62179000000003" marker-end="url(#arrow)" source-node="bool4558" target-node="ita421" /><path id="pathp2007" class="path" d="M416.55867600000005,206.53188999999998 416.55867600000005,451.18489 451.03427600000003,451.18489" marker-end="url(#arrow)" source-node="bool4558" target-node="ita455" /><path id="pathp2008" class="path" d="M416.55867600000005,206.53188999999998 416.55867600000005,499.74798999999996 451.03427600000003,499.74798999999996" marker-end="url(#arrow)" source-node="bool4558" target-node="ita431" /><path id="pathp2009" class="path" d="M416.55867600000005,206.53188999999998 416.55867600000005,548.31109 451.03427600000003,548.31109" marker-end="url(#arrow)" source-node="bool4558" target-node="ita432" /></g><g id="region-labels"><text x="654.28571" y="184.63441" stroke="none" fill="#000000" text-anchor="begin">Italian Language</text><text x="203.39297" y="249.30948999999998" stroke="none" fill="#000000" text-anchor="begin">Italian Linguistics</text><text x="442.52695" y="611.18596" stroke="none" fill="#000000" text-anchor="begin">History of</text><text x="442.52695" y="636.18596" stroke="none" fill="#000000" text-anchor="begin">Italian </text><text x="442.52695" y="661.18596" stroke="none" fill="#000000" text-anchor="begin">Language</text><text x="568.53589" y="705.8809699999999" stroke="none" fill="#000000" text-anchor="begin">Italian </text><text x="568.53589" y="730.8809699999999" stroke="none" fill="#000000" text-anchor="begin">Cinema</text><text x="657.1073" y="615.8809" stroke="none" fill="#000000" text-anchor="begin">Research</text><text x="766.82684" y="657.79503" stroke="none" fill="#000000" text-anchor="begin">Courses </text><text x="766.82684" y="682.79503" stroke="none" fill="#000000" text-anchor="begin">Taught </text><text x="766.82684" y="707.79503" stroke="none" fill="#000000" text-anchor="begin">Abroad</text><text x="75.398293" y="792.0806699999999" stroke="none" fill="#000000" text-anchor="begin">Literature </text><text x="75.398293" y="817.0806699999999" stroke="none" fill="#000000" text-anchor="begin">and </text><text x="75.398293" y="842.0806699999999" stroke="none" fill="#000000" text-anchor="begin">Culture</text><text x="65.364956" y="499.37388999999996" stroke="none" fill="#000000" text-anchor="begin">Internship / </text><text x="65.364956" y="521.24889" stroke="none" fill="#000000" text-anchor="begin">Independent </text><text x="65.364956" y="543.12389" stroke="none" fill="#000000" text-anchor="begin">Study</text></g></svg>