<?xml version="1.0" encoding="UTF-8"?>
<!DOCTYPE svg PUBLIC "-//W3C//DTD SVG 1.1//EN"
    "http://www.w3.org/Graphics/SVG/1.1/DTD/svg11.dtd">
<svg xmlns="http://www.w3.org/2000/svg" xmlns:xlink="http://www.w3.org/1999/xlink" width="1195" height="650" xmlns:svg="http://www.w3.org/2000/svg" xmlns:dc="http://purl.org/dc/elements/1.1/" xmlns:cc="http://creativecommons.org/ns#" xmlns:rdf="http://www.w3.org/1999/02/22-rdf-syntax-ns#" version="1.1"><defs><marker id="arrow" viewBox="0 0 10 10" refX="4" refY="5" markerUnits="strokeWidth" orient="auto" markerWidth="7" markerHeight="7"><polyline points="0,1 10,5 0,9" fill="black" /></marker></defs><g id="regions"><path id="regionp2376" class="region" d="M0.0,370.0 276.0,370.0 276.0,552.0 0.0,552.0" style="fill:#06bda9;" /><path id="regionp2377" class="region" d="M276.0,0.0 621.0,0.0 621.0,605.0 508.0,605.0 508.0,406.0 397.0,406.0 397.0,136.0 276.0,136.0" style="fill:#00cdce;" /><path id="regionp2378" class="region" d="M276.0,136.0 276.0,605.0 508.0,605.0 508.0,534.0 397.0,534.0 397.0,136.0" style="fill:#81cd00;" /><path id="regionp2379" class="region" d="M397.23352,405.98489 507.97321,405.98489 507.97321,534.02232 397.23352,534.02232" style="fill:#00cd00;" /><path id="regionp2380" class="region" d="M621.0,0.0 750.3351700000001,0.0 750.3351700000001,606.1266 621.0,606.1266" style="fill:#c18900;" /><path id="regionp2381" class="region" d="M0.0,552.0 0.0,605.0 276.0,605.0 276.0,552.0" style="fill:#cb5d63;" /><path id="regionp2382" class="region" d="M0.0,0.0 276.0,0.0 276.0,370.0 0.0,370.0" style="fill:#7c0097;" /></g><g id="nodes" stroke="black"><g id="spa100" class="node" data-group="" text-rendering="geometricPrecision" shape-rendering="geometricPrecision" style=""><rect rx="4" ry="4" x="100.426097" y="12.890540000000001" width="74.0" height="29.0" style="fill:#cc99ff;" /><text x="137.426097" y="32.104438" stroke="none" text-anchor="middle">SPA100</text></g><rect /><g id="spa219" class="node" data-group="" text-rendering="geometricPrecision" shape-rendering="geometricPrecision" style=""><rect rx="4" ry="4" x="170.426097" y="239.42823099999998" width="74.0" height="29.0" style="fill:#cc99ff;" /><text x="207.426097" y="258.642131" stroke="none" text-anchor="middle">SPA219</text></g><rect /><g id="spa220" class="node" data-group="" text-rendering="geometricPrecision" shape-rendering="geometricPrecision" style=""><rect rx="4" ry="4" x="170.426097" y="100.390541" width="74.0" height="29.0" style="fill:#cc99ff;" /><text x="207.426097" y="119.604441" stroke="none" text-anchor="middle">SPA220</text></g><rect /><g id="spa221" class="node" data-group="" text-rendering="geometricPrecision" shape-rendering="geometricPrecision" style=""><rect rx="4" ry="4" x="170.426097" y="146.53444100000002" width="74.0" height="29.0" style="fill:#cc99ff;" /><text x="207.426097" y="165.748241" stroke="none" text-anchor="middle">SPA221</text></g><rect /><g id="spa254" class="node" data-group="" text-rendering="geometricPrecision" shape-rendering="geometricPrecision" style=""><rect rx="4" ry="4" x="310.426097" y="100.390541" width="74.0" height="29.0" style="fill:#00ccff;" /><text x="347.426097" y="119.604441" stroke="none" text-anchor="middle">SPA254</text></g><rect /><g id="spa255" class="node" data-group="" text-rendering="geometricPrecision" shape-rendering="geometricPrecision" style=""><rect rx="4" ry="4" x="310.426097" y="146.53444100000002" width="74.0" height="29.0" style="fill:#99cc00;" /><text x="347.426097" y="165.748241" stroke="none" text-anchor="middle">SPA255</text></g><rect /><g id="spa258" class="node" data-group="" text-rendering="geometricPrecision" shape-rendering="geometricPrecision" style=""><rect rx="4" ry="4" x="310.426097" y="60.534441" width="74.0" height="29.0" style="fill:#00ccff;" /><text x="347.426097" y="79.748241" stroke="none" text-anchor="middle">SPA258</text></g><rect /><g id="spa259" class="node" data-group="" text-rendering="geometricPrecision" shape-rendering="geometricPrecision" style=""><rect rx="4" ry="4" x="310.426097" y="192.67823099999998" width="74.0" height="29.0" style="fill:#99cc00;" /><text x="347.426097" y="211.892131" stroke="none" text-anchor="middle">SPA259</text></g><rect /><g id="spa299" class="node" data-group="" text-rendering="geometricPrecision" shape-rendering="geometricPrecision" style=""><rect rx="4" ry="4" x="637.426097" y="80.462551" width="74.0" height="29.0" style="fill:#ff9900;" /><text x="674.426097" y="99.676341" stroke="none" text-anchor="middle">SPA299</text></g><rect /><g id="spa320" class="node" data-group="" text-rendering="geometricPrecision" shape-rendering="geometricPrecision" style=""><rect rx="4" ry="4" x="170.426097" y="192.67823099999998" width="74.0" height="29.0" style="fill:#cc99ff;" /><text x="207.426097" y="211.892131" stroke="none" text-anchor="middle">SPA320</text></g><rect /><g id="spa322" class="node" data-group="" text-rendering="geometricPrecision" shape-rendering="geometricPrecision" style=""><rect rx="4" ry="4" x="170.426097" y="379.678231" width="74.0" height="29.0" style="fill:#00cc99;" /><text x="207.426097" y="398.892131" stroke="none" text-anchor="middle">SPA322</text></g><rect /><g id="spa323" class="node" data-group="" text-rendering="geometricPrecision" shape-rendering="geometricPrecision" style=""><rect rx="4" ry="4" x="170.426097" y="286.178231" width="74.0" height="29.0" style="fill:#cc99ff;" /><text x="207.426097" y="305.392131" stroke="none" text-anchor="middle">SPA323</text></g><rect /><g id="spa324" class="node" data-group="" text-rendering="geometricPrecision" shape-rendering="geometricPrecision" style=""><rect rx="4" ry="4" x="310.426097" y="286.178231" width="74.0" height="29.0" style="fill:#99cc00;" /><text x="347.426097" y="305.392131" stroke="none" text-anchor="middle">SPA324</text></g><rect /><g id="spa326" class="node" data-group="" text-rendering="geometricPrecision" shape-rendering="geometricPrecision" style=""><rect rx="4" ry="4" x="310.426097" y="332.928231" width="74.0" height="29.0" style="fill:#99cc00;" /><text x="347.426097" y="352.142131" stroke="none" text-anchor="middle">SPA326</text></g><rect /><g id="spa327" class="node" data-group="" text-rendering="geometricPrecision" shape-rendering="geometricPrecision" style=""><rect rx="4" ry="4" x="170.426097" y="557.8186410000001" width="74.0" height="29.0" style="fill:#ff6666;" /><text x="207.426097" y="577.0325710000001" stroke="none" text-anchor="middle">SPA327</text></g><rect /><g id="spa345" class="node" data-group="" text-rendering="geometricPrecision" shape-rendering="geometricPrecision" style=""><rect rx="4" ry="4" x="419.426097" y="452.98136099999994" width="74.0" height="29.0" style="fill:#00ff00;" /><text x="456.426097" y="472.195231" stroke="none" text-anchor="middle">SPA345</text></g><rect /><g id="spa341" class="node" data-group="" text-rendering="geometricPrecision" shape-rendering="geometricPrecision" style=""><rect rx="4" ry="4" x="419.426097" y="80.462551" width="74.0" height="29.0" style="fill:#00ccff;" /><text x="456.426097" y="99.676341" stroke="none" text-anchor="middle">SPA341</text></g><rect /><g id="spa352" class="node" data-group="" text-rendering="geometricPrecision" shape-rendering="geometricPrecision" style=""><rect rx="4" ry="4" x="419.426097" y="124.227941" width="74.0" height="29.0" style="fill:#00ccff;" /><text x="456.426097" y="143.441751" stroke="none" text-anchor="middle">SPA352</text></g><rect /><g id="spa368" class="node" data-group="" text-rendering="geometricPrecision" shape-rendering="geometricPrecision" style=""><rect rx="4" ry="4" x="419.426097" y="164.084041" width="74.0" height="29.0" style="fill:#00ccff;" /><text x="456.426097" y="183.297931" stroke="none" text-anchor="middle">SPA368</text></g><rect /><g id="spa375" class="node" data-group="" text-rendering="geometricPrecision" shape-rendering="geometricPrecision" style=""><rect rx="4" ry="4" x="419.426097" y="411.856331" width="74.0" height="29.0" style="fill:#00ff00;" /><text x="456.426097" y="431.070231" stroke="none" text-anchor="middle">SPA375</text></g><rect /><g id="spa381" class="node" data-group="" text-rendering="geometricPrecision" shape-rendering="geometricPrecision" style=""><rect rx="4" ry="4" x="419.426097" y="205.731331" width="74.0" height="29.0" style="fill:#00ccff;" /><text x="456.426097" y="224.94523099999998" stroke="none" text-anchor="middle">SPA381</text></g><rect /><g id="spa382" class="node" data-group="" text-rendering="geometricPrecision" shape-rendering="geometricPrecision" style=""><rect rx="4" ry="4" x="419.426097" y="246.981331" width="74.0" height="29.0" style="fill:#00ccff;" /><text x="456.426097" y="266.195231" stroke="none" text-anchor="middle">SPA382</text></g><rect /><g id="spa384" class="node" data-group="" text-rendering="geometricPrecision" shape-rendering="geometricPrecision" style=""><rect rx="4" ry="4" x="419.426097" y="288.231331" width="74.0" height="29.0" style="fill:#00ccff;" /><text x="456.426097" y="307.445231" stroke="none" text-anchor="middle">SPA384</text></g><rect /><g id="spa385" class="node" data-group="" text-rendering="geometricPrecision" shape-rendering="geometricPrecision" style=""><rect rx="4" ry="4" x="419.426097" y="329.481331" width="74.0" height="29.0" style="fill:#00ccff;" /><text x="456.426097" y="348.695231" stroke="none" text-anchor="middle">SPA385</text></g><rect /><g id="spa386" class="node" data-group="" text-rendering="geometricPrecision" shape-rendering="geometricPrecision" style=""><rect rx="4" ry="4" x="419.426097" y="370.731331" width="74.0" height="29.0" style="fill:#00ccff;" /><text x="456.426097" y="389.945231" stroke="none" text-anchor="middle">SPA386</text></g><rect /><g id="spa398" class="node" data-group="" text-rendering="geometricPrecision" shape-rendering="geometricPrecision" style=""><rect rx="4" ry="4" x="637.426097" y="124.227941" width="74.0" height="29.0" style="fill:#ff9900;" /><text x="674.426097" y="143.441751" stroke="none" text-anchor="middle">SPA398</text></g><rect /><g id="spa399" class="node" data-group="" text-rendering="geometricPrecision" shape-rendering="geometricPrecision" style=""><rect rx="4" ry="4" x="637.426097" y="164.084041" width="74.0" height="29.0" style="fill:#ff9900;" /><text x="674.426097" y="183.297931" stroke="none" text-anchor="middle">SPA399</text></g><rect /><g id="spa420" class="node" data-group="" text-rendering="geometricPrecision" shape-rendering="geometricPrecision" style=""><rect rx="4" ry="4" x="170.426097" y="332.928231" width="74.0" height="29.0" style="fill:#cc99ff;" /><text x="207.426097" y="352.142131" stroke="none" text-anchor="middle">SPA420</text></g><rect /><g id="spa421" class="node" data-group="" text-rendering="geometricPrecision" shape-rendering="geometricPrecision" style=""><rect rx="4" ry="4" x="170.426097" y="426.428231" width="74.0" height="29.0" style="fill:#00cc99;" /><text x="207.426097" y="445.642131" stroke="none" text-anchor="middle">SPA421</text></g><rect /><g id="spa422" class="node" data-group="" text-rendering="geometricPrecision" shape-rendering="geometricPrecision" style=""><rect rx="4" ry="4" x="170.426097" y="470.85636099999994" width="74.0" height="29.0" style="fill:#00cc99;" /><text x="207.426097" y="490.070231" stroke="none" text-anchor="middle">SPA422</text></g><rect /><g id="spa423" class="node" data-group="" text-rendering="geometricPrecision" shape-rendering="geometricPrecision" style=""><rect rx="4" ry="4" x="170.426097" y="514.337561" width="74.0" height="29.0" style="fill:#00cc99;" /><text x="207.426097" y="533.551371" stroke="none" text-anchor="middle">SPA423</text></g><rect /><g id="spa435" class="node" data-group="" text-rendering="geometricPrecision" shape-rendering="geometricPrecision" style=""><rect rx="4" ry="4" x="528.426097" y="80.462551" width="74.0" height="29.0" style="fill:#00ccff;" /><text x="565.426097" y="99.676341" stroke="none" text-anchor="middle">SPA435</text></g><rect /><g id="spa438" class="node" data-group="" text-rendering="geometricPrecision" shape-rendering="geometricPrecision" style=""><rect rx="4" ry="4" x="528.426097" y="124.227941" width="74.0" height="29.0" style="fill:#00ccff;" /><text x="565.426097" y="143.441751" stroke="none" text-anchor="middle">SPA438</text></g><rect /><g id="spa439" class="node" data-group="" text-rendering="geometricPrecision" shape-rendering="geometricPrecision" style=""><rect rx="4" ry="4" x="310.426097" y="379.678231" width="74.0" height="29.0" style="fill:#99cc00;" /><text x="347.426097" y="398.892131" stroke="none" text-anchor="middle">SPA439</text></g><rect /><g id="spa450" class="node" data-group="" text-rendering="geometricPrecision" shape-rendering="geometricPrecision" style=""><rect rx="4" ry="4" x="528.426097" y="164.084041" width="74.0" height="29.0" style="fill:#00ccff;" /><text x="565.426097" y="183.297931" stroke="none" text-anchor="middle">SPA450</text></g><rect /><g id="spa452" class="node" data-group="" text-rendering="geometricPrecision" shape-rendering="geometricPrecision" style=""><rect rx="4" ry="4" x="528.426097" y="205.731331" width="74.0" height="29.0" style="fill:#00ccff;" /><text x="565.426097" y="224.94523099999998" stroke="none" text-anchor="middle">SPA452</text></g><rect /><g id="spa454" class="node" data-group="" text-rendering="geometricPrecision" shape-rendering="geometricPrecision" style=""><rect rx="4" ry="4" x="528.426097" y="246.981331" width="74.0" height="29.0" style="fill:#00ccff;" /><text x="565.426097" y="266.195231" stroke="none" text-anchor="middle">SPA454</text></g><rect /><g id="spa467" class="node" data-group="" text-rendering="geometricPrecision" shape-rendering="geometricPrecision" style=""><rect rx="4" ry="4" x="310.426097" y="426.428231" width="74.0" height="29.0" style="fill:#99cc00;" /><text x="347.426097" y="445.642131" stroke="none" text-anchor="middle">SPA467</text></g><rect /><g id="spa468" class="node" data-group="" text-rendering="geometricPrecision" shape-rendering="geometricPrecision" style=""><rect rx="4" ry="4" x="528.426097" y="288.231331" width="74.0" height="29.0" style="fill:#00ccff;" /><text x="565.426097" y="307.445231" stroke="none" text-anchor="middle">SPA468</text></g><rect /><g id="spa471" class="node" data-group="" text-rendering="geometricPrecision" shape-rendering="geometricPrecision" style=""><rect rx="4" ry="4" x="528.426097" y="329.481331" width="74.0" height="29.0" style="fill:#00ccff;" /><text x="565.426097" y="348.695231" stroke="none" text-anchor="middle">SPA471</text></g><rect /><g id="spa475" class="node" data-group="" text-rendering="geometricPrecision" shape-rendering="geometricPrecision" style=""><rect rx="4" ry="4" x="310.426097" y="470.85636099999994" width="74.0" height="29.0" style="fill:#99cc00;" /><text x="347.426097" y="490.070231" stroke="none" text-anchor="middle">SPA475</text></g><rect /><g id="spa480" class="node" data-group="" text-rendering="geometricPrecision" shape-rendering="geometricPrecision" style=""><rect rx="4" ry="4" x="310.426097" y="514.337561" width="74.0" height="29.0" style="fill:#99cc00;" /><text x="347.426097" y="533.551371" stroke="none" text-anchor="middle">SPA480</text></g><rect /><g id="spa482" class="node" data-group="" text-rendering="geometricPrecision" shape-rendering="geometricPrecision" style=""><rect rx="4" ry="4" x="528.426097" y="370.731331" width="74.0" height="29.0" style="fill:#00ccff;" /><text x="565.426097" y="389.945231" stroke="none" text-anchor="middle">SPA482</text></g><rect /><g id="spa486" class="node" data-group="" text-rendering="geometricPrecision" shape-rendering="geometricPrecision" style=""><rect rx="4" ry="4" x="528.426097" y="411.856331" width="74.0" height="29.0" style="fill:#00ccff;" /><text x="565.426097" y="431.070231" stroke="none" text-anchor="middle">SPA486</text></g><rect /><g id="spa487" class="node" data-group="" text-rendering="geometricPrecision" shape-rendering="geometricPrecision" style=""><rect rx="4" ry="4" x="310.426097" y="557.8186410000001" width="74.0" height="29.0" style="fill:#99cc00;" /><text x="347.426097" y="577.0325710000001" stroke="none" text-anchor="middle">SPA487</text></g><rect /><g id="spa488" class="node" data-group="" text-rendering="geometricPrecision" shape-rendering="geometricPrecision" style=""><rect rx="4" ry="4" x="528.426097" y="452.98136099999994" width="74.0" height="29.0" style="fill:#00ccff;" /><text x="565.426097" y="472.195231" stroke="none" text-anchor="middle">SPA488</text></g><rect /><g id="spa489" class="node" data-group="" text-rendering="geometricPrecision" shape-rendering="geometricPrecision" style=""><rect rx="4" ry="4" x="528.426097" y="494.10636099999994" width="74.0" height="29.0" style="fill:#00ccff;" /><text x="565.426097" y="513.320231" stroke="none" text-anchor="middle">SPA489</text></g><rect /><g id="spa490" class="node" data-group="" text-rendering="geometricPrecision" shape-rendering="geometricPrecision" style=""><rect rx="4" ry="4" x="637.426097" y="205.731331" width="74.0" height="29.0" style="fill:#ff9900;" /><text x="674.426097" y="224.94523099999998" stroke="none" text-anchor="middle">SPA490</text></g><rect /><g id="spa491" class="node" data-group="" text-rendering="geometricPrecision" shape-rendering="geometricPrecision" style=""><rect rx="4" ry="4" x="637.426097" y="246.981331" width="74.0" height="29.0" style="fill:#ff9900;" /><text x="674.426097" y="266.195231" stroke="none" text-anchor="middle">SPA491</text></g><rect /></g><g id="bools"><g id="bool5220" class="bool"><ellipse cx="277.426097" cy="253.92823099999998" rx="9.8800001" ry="7.3684001" /><text x="277.426097" y="257.070841" stroke="none" text-anchor="middle">or</text></g><g id="bool5253" class="bool"><ellipse cx="137.426097" cy="253.92823099999998" rx="9.8800001" ry="7.3684001" /><text x="137.426097" y="257.070841" stroke="none" text-anchor="middle">or</text></g></g><g id="edges" stroke="black"><path id="pathp2331" class="path" d="M137.426107,41.874241 137.426107,114.890541 162.409507,114.890541" marker-end="url(#arrow)" source-node="spa100" target-node="spa220" /><path id="pathp2332" class="path" d="M137.426107,41.909941 137.426107,161.03444100000002 162.409507,161.03444100000002" marker-end="url(#arrow)" source-node="spa100" target-node="spa221" /><path id="pathp2333" class="path" d="M137.426107,41.908941 137.426107,69.034441 302.435107,69.034441" marker-end="url(#arrow)" source-node="spa100" target-node="spa258" /><path id="pathp2334" class="path" d="M244.44270699999998,114.890541 277.426107,114.890541 277.426107,80.390541 302.444507,80.390541" marker-end="url(#arrow)" source-node="spa220" target-node="spa258" /><path id="pathp2335" class="path" d="M244.44270699999998,114.890541 277.426107,114.890541 277.426107,207.178241 302.409507,207.178241" marker-end="url(#arrow)" source-node="spa220" target-node="spa259" /><path id="pathp2336" class="path" d="M244.44270699999998,114.890541 277.426107,114.890541 277.426107,207.178241 252.44270699999998,207.178241" marker-end="url(#arrow)" source-node="spa220" target-node="spa320" /><path id="pathp2337" class="path" d="M244.44270699999998,114.890541 277.426107,114.890541 277.426107,238.55974099999997" marker-end="url(#arrow)" source-node="spa220" target-node="bool5220" /><path id="pathp2338" class="path" d="M244.44270699999998,253.928241 259.546107,253.928241" marker-end="url(#arrow)" source-node="spa219" target-node="bool5220" /><path id="pathp2339" class="path" d="M277.426107,261.296741 277.426107,394.178241 252.44270699999998,394.178241" marker-end="url(#arrow)" source-node="bool5220" target-node="spa322" /><path id="pathp2340" class="path" d="M277.426107,261.296741 277.426107,300.678241 252.44270699999998,300.678241" marker-end="url(#arrow)" source-node="bool5220" target-node="spa323" /><path id="pathp2341" class="path" d="M277.426107,261.296741 277.426107,300.678241 302.409507,300.678241" marker-end="url(#arrow)" source-node="bool5220" target-node="spa324" /><path id="pathp2342" class="path" d="M277.426107,261.296741 277.426107,347.428241 302.409507,347.428241" marker-end="url(#arrow)" source-node="bool5220" target-node="spa326" /><path id="pathp2343" class="path" d="M277.426107,261.296741 277.426107,572.3186410000001 252.44270699999998,572.3186410000001" marker-end="url(#arrow)" source-node="bool5220" target-node="spa327" /><path id="pathp2344" class="path" d="M287.306107,253.928241 399.426107,253.928241 399.426107,467.481341 411.437307,467.481341" marker-end="url(#arrow)" source-node="bool5220" target-node="spa345" /><path id="pathp2345" class="path" d="M287.306107,253.928241 399.426107,253.928241 399.426107,94.96254100000003 411.437307,94.96254100000003" marker-end="url(#arrow)" source-node="bool5220" target-node="spa341" /><path id="pathp2346" class="path" d="M287.306107,253.928241 399.426107,253.928241 399.426107,138.72794100000004 411.437307,138.72794100000004" marker-end="url(#arrow)" source-node="bool5220" target-node="spa352" /><path id="pathp2347" class="path" d="M287.306107,253.928241 399.426107,253.928241 399.426107,178.584041 411.437307,178.584041" marker-end="url(#arrow)" source-node="bool5220" target-node="spa368" /><path id="pathp2348" class="path" d="M287.306107,253.928241 399.426107,253.928241 399.426107,426.356341 411.437307,426.356341" marker-end="url(#arrow)" source-node="bool5220" target-node="spa375" /><path id="pathp2349" class="path" d="M287.306107,253.928241 399.426107,253.928241 399.426107,220.231341 411.437307,220.231341" marker-end="url(#arrow)" source-node="bool5220" target-node="spa381" /><path id="pathp2350" class="path" d="M287.306107,253.928241 399.426107,253.928241 399.426107,261.481341 411.437307,261.481341" marker-end="url(#arrow)" source-node="bool5220" target-node="spa382" /><path id="pathp2351" class="path" d="M287.306107,253.928241 399.426107,253.928241 399.426107,302.731341 411.437307,302.731341" marker-end="url(#arrow)" source-node="bool5220" target-node="spa384" /><path id="pathp2352" class="path" d="M287.306107,253.928241 399.426107,253.928241 399.426107,343.981341 411.437307,343.981341" marker-end="url(#arrow)" source-node="bool5220" target-node="spa385" /><path id="pathp2353" class="path" d="M287.306107,253.928241 399.426107,253.928241 399.426107,385.231341 411.437307,385.231341" marker-end="url(#arrow)" source-node="bool5220" target-node="spa386" /><path id="pathp2354" class="path" d="M170.409507,207.178241 137.426107,207.178241 137.426107,238.55974100000003" marker-end="url(#arrow)" source-node="spa320" target-node="bool5253" /><path id="pathp2355" class="path" d="M170.409507,253.928241 155.306107,253.928241" marker-end="url(#arrow)" source-node="spa219" target-node="bool5253" /><path id="pathp2356" class="path" d="M137.426107,261.296741 137.426107,341.428241 162.409507,341.428241" marker-end="url(#arrow)" source-node="bool5253" target-node="spa420" /><path id="pathp2357" class="path" d="M170.409507,353.428241 137.426107,353.428241 137.426107,440.928241 162.409507,440.928241" marker-end="url(#arrow)" source-node="spa420" target-node="spa421" /><path id="pathp2358" class="path" d="M170.409507,353.428241 137.426107,353.428241 137.426107,485.356341 162.409507,485.356341" marker-end="url(#arrow)" source-node="spa420" target-node="spa422" /><path id="pathp2359" class="path" d="M170.409507,353.428241 137.426107,353.428241 137.426107,528.8375410000001 162.409507,528.8375410000001" marker-end="url(#arrow)" source-node="spa420" target-node="spa423" /><path id="pathp2360" class="path" d="M287.306107,253.928241 399.426107,253.928241 399.426107,60.46254100000003 510.926107,60.46254100000003 510.926107,94.96254100000003 520.409707,94.96254100000003" marker-end="url(#arrow)" source-node="bool5220" target-node="spa435" /><path id="pathp2361" class="path" d="M287.306107,253.928241 399.426107,253.928241 399.426107,60.46254100000003 510.926107,60.46254100000003 510.926107,138.72794100000004 520.409707,138.72794100000004" marker-end="url(#arrow)" source-node="bool5220" target-node="spa438" /><path id="pathp2362" class="path" d="M277.426107,261.296741 277.426107,394.178241 302.409507,394.178241" marker-end="url(#arrow)" source-node="bool5220" target-node="spa439" /><path id="pathp2363" class="path" d="M287.306107,253.928241 399.426107,253.928241 399.426107,60.46254100000003 510.926107,60.46254100000003 510.926107,178.584041 520.409707,178.584041" marker-end="url(#arrow)" source-node="bool5220" target-node="spa450" /><path id="pathp2364" class="path" d="M287.306107,253.928241 399.426107,253.928241 399.426107,60.46254100000003 510.926107,60.46254100000003 510.926107,220.231341 520.409707,220.231341" marker-end="url(#arrow)" source-node="bool5220" target-node="spa452" /><path id="pathp2365" class="path" d="M287.306107,253.928241 399.426107,253.928241 399.426107,60.46254100000003 510.926107,60.46254100000003 510.926107,261.481341 520.409707,261.481341" marker-end="url(#arrow)" source-node="bool5220" target-node="spa454" /><path id="pathp2366" class="path" d="M277.426107,261.296741 277.426107,440.928241 302.409507,440.928241" marker-end="url(#arrow)" source-node="bool5220" target-node="spa467" /><path id="pathp2367" class="path" d="M287.306107,253.928241 399.426107,253.928241 399.426107,60.46254100000003 510.926107,60.46254100000003 510.926107,302.731341 520.409707,302.731341" marker-end="url(#arrow)" source-node="bool5220" target-node="spa468" /><path id="pathp2368" class="path" d="M287.306107,253.928241 399.426107,253.928241 399.426107,60.46254100000003 510.926107,60.46254100000003 510.926107,343.981341 520.409707,343.981341" marker-end="url(#arrow)" source-node="bool5220" target-node="spa471" /><path id="pathp2369" class="path" d="M277.426107,261.296741 277.426107,485.356341 302.409507,485.356341" marker-end="url(#arrow)" source-node="bool5220" target-node="spa475" /><path id="pathp2370" class="path" d="M277.426107,261.296741 277.426107,528.837541 302.409507,528.837541" marker-end="url(#arrow)" source-node="bool5220" target-node="spa480" /><path id="pathp2371" class="path" d="M287.306107,253.928241 399.426107,253.928241 399.426107,60.46254100000003 510.926107,60.46254100000003 510.926107,385.231341 520.409707,385.231341" marker-end="url(#arrow)" source-node="bool5220" target-node="spa482" /><path id="pathp2372" class="path" d="M287.306107,253.928241 399.426107,253.928241 399.426107,60.46254100000003 510.926107,60.46254100000003 510.926107,426.356341 520.409707,426.356341" marker-end="url(#arrow)" source-node="bool5220" target-node="spa486" /><path id="pathp2373" class="path" d="M277.426107,261.296741 277.426107,572.3186410000001 302.409507,572.3186410000001" marker-end="url(#arrow)" source-node="bool5220" target-node="spa487" /><path id="pathp2374" class="path" d="M287.306107,253.928241 399.426107,253.928241 399.426107,60.46254100000003 510.926107,60.46254100000003 510.926107,467.481341 520.409707,467.481341" marker-end="url(#arrow)" source-node="bool5220" target-node="spa488" /><path id="pathp2375" class="path" d="M287.306107,253.928241 399.426107,253.928241 399.426107,60.46254100000003 510.926107,60.46254100000003 510.926107,508.606341 520.409707,508.606341" marker-end="url(#arrow)" source-node="bool5220" target-node="spa489" /></g><g id="region-labels"></g></svg>