<?xml version="1.0" encoding="UTF-8"?>
<!DOCTYPE svg PUBLIC "-//W3C//DTD SVG 1.1//EN"
    "http://www.w3.org/Graphics/SVG/1.1/DTD/svg11.dtd">
<svg xmlns="http://www.w3.org/2000/svg" xmlns:xlink="http://www.w3.org/1999/xlink" width="100%" height="100%" preserveAspectRatio="xMinYMin" viewBox="0 0 1194.7831 602.75958" xmlns:svg="http://www.w3.org/2000/svg" xmlns:dc="http://purl.org/dc/elements/1.1/" xmlns:cc="http://creativecommons.org/ns#" xmlns:rdf="http://www.w3.org/1999/02/22-rdf-syntax-ns#" version="1.1"><defs><marker id="arrow" viewBox="0 0 10 10" refX="4" refY="5" markerUnits="strokeWidth" orient="auto" markerWidth="7" markerHeight="7"><polyline points="0,1 10,5 0,9" fill="black" /></marker></defs><g id="regions"></g><g id="nodes" stroke="black"><g id="bio130" class="node" data-group="" text-rendering="geometricPrecision" shape-rendering="geometricPrecision" style=""><rect rx="4" ry="4" x="358.40839" y="81.70051" width="65.0" height="30.0" style="fill:#e68080;" /><text x="390.90839" y="102.74741" stroke="none" text-anchor="middle">BIO130</text></g><rect /><g id="bio230255" class="node" data-group="" text-rendering="geometricPrecision" shape-rendering="geometricPrecision" style=""><rect rx="4" ry="4" x="339.21881" y="157.194009" width="103.3793" height="30.0" style="fill:#e68080;" /><text x="390.90846" y="178.240809" stroke="none" text-anchor="middle">BIO230/255</text></g><rect /><g id="bio260hmb265" class="node" data-group="" text-rendering="geometricPrecision" shape-rendering="geometricPrecision" style=""><rect rx="4" ry="4" x="472.59811" y="157.194009" width="132.49609" height="30.0" style="fill:#ff9900;" /><text x="538.8461550000001" y="178.240809" stroke="none" text-anchor="middle">BIO260/HMB265</text></g><rect /><g id="csb201" class="node" data-group="" text-rendering="geometricPrecision" shape-rendering="geometricPrecision" style=""><rect rx="4" ry="4" x="508.22949" y="81.70051" width="65.0" height="30.0" style="fill:#e68080;" /><text x="540.7294899999999" y="102.74741" stroke="none" text-anchor="middle">CSB201</text></g><rect /><g id="csb202" class="node" data-group="" text-rendering="geometricPrecision" shape-rendering="geometricPrecision" style=""><rect rx="4" ry="4" x="603.22949" y="81.70051" width="65.0" height="30.0" style="fill:#e68080;" /><text x="635.72949" y="102.74741" stroke="none" text-anchor="middle">CSB202</text></g><rect /><g id="bio270" class="node" data-group="" text-rendering="geometricPrecision" shape-rendering="geometricPrecision" style=""><rect rx="4" ry="4" x="230.2742" y="157.194009" width="65.0" height="30.0" style="fill:#80b2ff;" /><text x="262.7742" y="178.240809" stroke="none" text-anchor="middle">BIO270</text></g><rect /><g id="bio271" class="node" data-group="" text-rendering="geometricPrecision" shape-rendering="geometricPrecision" style=""><rect rx="4" ry="4" x="85.514198" y="157.194009" width="65.0" height="30.0" style="fill:#80b2ff;" /><text x="118.014198" y="178.240809" stroke="none" text-anchor="middle">BIO271</text></g><rect /><g id="csb325" class="node" data-group="" text-rendering="geometricPrecision" shape-rendering="geometricPrecision" style=""><rect rx="4" ry="4" x="105.1471" y="381.930909" width="65.0" height="30.0" style="fill:#80b2ff;" /><text x="137.6471" y="402.97771900000004" stroke="none" text-anchor="middle">CSB325</text></g><rect /><g id="csb343" class="node" data-group="" text-rendering="geometricPrecision" shape-rendering="geometricPrecision" style=""><rect rx="4" ry="4" x="105.1471" y="261.930909" width="65.0" height="30.0" style="fill:#80b2ff;" /><text x="137.6471" y="282.977699" stroke="none" text-anchor="middle">CSB343</text></g><rect /><g id="csb345" class="node" data-group="" text-rendering="geometricPrecision" shape-rendering="geometricPrecision" style=""><rect rx="4" ry="4" x="210.6414" y="261.930909" width="65.0" height="30.0" style="fill:#80b2ff;" /><text x="243.1414" y="282.977699" stroke="none" text-anchor="middle">CSB345</text></g><rect /><g id="csb346" class="node" data-group="" text-rendering="geometricPrecision" shape-rendering="geometricPrecision" style=""><rect rx="4" ry="4" x="105.1471" y="321.930909" width="65.0" height="30.0" style="fill:#80b2ff;" /><text x="137.6471" y="342.97771900000004" stroke="none" text-anchor="middle">CSB346</text></g><rect /><g id="csb445" class="node" data-group="" text-rendering="geometricPrecision" shape-rendering="geometricPrecision" style=""><rect rx="4" ry="4" x="210.6414" y="321.930909" width="65.0" height="30.0" style="fill:#80b2ff;" /><text x="243.1414" y="342.97771900000004" stroke="none" text-anchor="middle">CSB445</text></g><rect /><g id="csb447" class="node" data-group="" text-rendering="geometricPrecision" shape-rendering="geometricPrecision" style=""><rect rx="4" ry="4" x="210.6414" y="381.930909" width="65.0" height="30.0" style="fill:#80b2ff;" /><text x="243.1414" y="402.97771900000004" stroke="none" text-anchor="middle">CSB447</text></g><rect /><g id="csb332" class="node" data-group="" text-rendering="geometricPrecision" shape-rendering="geometricPrecision" style=""><rect rx="4" ry="4" x="10.1471" y="261.930909" width="65.0" height="30.0" style="fill:#80b2ff;" /><text x="42.6471" y="282.977699" stroke="none" text-anchor="middle">CSB332</text></g><rect /><g id="csb432" class="node" data-group="" text-rendering="geometricPrecision" shape-rendering="geometricPrecision" style=""><rect rx="4" ry="4" x="10.1471" y="321.930909" width="65.0" height="30.0" style="fill:#80b2ff;" /><text x="42.6471" y="342.97771900000004" stroke="none" text-anchor="middle">CSB432</text></g><rect /><g id="csb327" class="node" data-group="" text-rendering="geometricPrecision" shape-rendering="geometricPrecision" style=""><rect rx="4" ry="4" x="305.64139" y="261.930909" width="65.0" height="30.0" style="fill:#80b2ff;" /><text x="338.14139" y="282.977699" stroke="none" text-anchor="middle">CSB327</text></g><rect /><g id="csb350" class="node" data-group="" text-rendering="geometricPrecision" shape-rendering="geometricPrecision" style=""><rect rx="4" ry="4" x="305.64139" y="321.930909" width="65.0" height="30.0" style="fill:#5dd5b8;" /><text x="338.14139" y="342.97771900000004" stroke="none" text-anchor="middle">CSB350</text></g><rect /><g id="csb351" class="node" data-group="" text-rendering="geometricPrecision" shape-rendering="geometricPrecision" style=""><rect rx="4" ry="4" x="411.17551" y="321.930909" width="65.0" height="30.0" style="fill:#5dd5b8;" /><text x="443.67551" y="342.97771900000004" stroke="none" text-anchor="middle">CSB351</text></g><rect /><g id="csb353" class="node" data-group="" text-rendering="geometricPrecision" shape-rendering="geometricPrecision" style=""><rect rx="4" ry="4" x="305.64139" y="381.930909" width="65.0" height="30.0" style="fill:#5dd5b8;" /><text x="338.14139" y="402.97771900000004" stroke="none" text-anchor="middle">CSB353</text></g><rect /><g id="csb472" class="node" data-group="" text-rendering="geometricPrecision" shape-rendering="geometricPrecision" style=""><rect rx="4" ry="4" x="358.40839" y="441.930909" width="65.0" height="30.0" style="fill:#ffec7a;" /><text x="390.90839" y="462.97771900000004" stroke="none" text-anchor="middle">CSB472</text></g><rect /><g id="csb450" class="node" data-group="" text-rendering="geometricPrecision" shape-rendering="geometricPrecision" style=""><rect rx="4" ry="4" x="411.17551" y="381.930909" width="65.0" height="30.0" style="fill:#5dd5b8;" /><text x="443.67551" y="402.97771900000004" stroke="none" text-anchor="middle">CSB450</text></g><rect /><g id="csb473" class="node" data-group="" text-rendering="geometricPrecision" shape-rendering="geometricPrecision" style=""><rect rx="4" ry="4" x="506.17551" y="501.930909" width="65.0" height="30.0" style="fill:#ff9900;" /><text x="538.67551" y="522.977719" stroke="none" text-anchor="middle">CSB473</text></g><rect /><g id="csb349" class="node" data-group="" text-rendering="geometricPrecision" shape-rendering="geometricPrecision" style=""><rect rx="4" ry="4" x="821.50153" y="321.736809" width="65.0" height="30.0" style="fill:#ff9900;" /><text x="854.00153" y="342.783719" stroke="none" text-anchor="middle">CSB349</text></g><rect /><g id="csb352" class="node" data-group="" text-rendering="geometricPrecision" shape-rendering="geometricPrecision" style=""><rect rx="4" ry="4" x="506.17551" y="441.930909" width="65.0" height="30.0" style="fill:#ffec7a;" /><text x="538.67551" y="462.97771900000004" stroke="none" text-anchor="middle">CSB352</text></g><rect /><g id="csb426" class="node" data-group="" text-rendering="geometricPrecision" shape-rendering="geometricPrecision" style=""><rect rx="4" ry="4" x="105.1471" y="441.930909" width="65.0" height="30.0" style="fill:#80b2ff;" /><text x="137.6471" y="462.97771900000004" stroke="none" text-anchor="middle">CSB426</text></g><rect /><g id="csb328" class="node" data-group="" text-rendering="geometricPrecision" shape-rendering="geometricPrecision" style=""><rect rx="4" ry="4" x="609.12152" y="381.930909" width="65.0" height="30.0" style="fill:#80b2ff;" /><text x="641.62152" y="402.97771900000004" stroke="none" text-anchor="middle">CSB328</text></g><rect /><g id="csb483" class="node" data-group="" text-rendering="geometricPrecision" shape-rendering="geometricPrecision" style=""><rect rx="4" ry="4" x="609.12152" y="501.930909" width="65.0" height="30.0" style="fill:#80b2ff;" /><text x="641.62152" y="522.977719" stroke="none" text-anchor="middle">CSB483</text></g><rect /><g id="csb435" class="node" data-group="" text-rendering="geometricPrecision" shape-rendering="geometricPrecision" style=""><rect rx="4" ry="4" x="1021.5015" y="381.833799" width="65.0" height="30.0" style="fill:#80b2ff;" /><text x="1054.0014999999999" y="402.880699" stroke="none" text-anchor="middle">CSB435</text></g><rect /><g id="csb452" class="node" data-group="" text-rendering="geometricPrecision" shape-rendering="geometricPrecision" style=""><rect rx="4" ry="4" x="916.50153" y="441.930909" width="65.0" height="30.0" style="fill:#5dd5b8;" /><text x="949.00153" y="462.97771900000004" stroke="none" text-anchor="middle">CSB452</text></g><rect /><g id="csb459" class="node" data-group="" text-rendering="geometricPrecision" shape-rendering="geometricPrecision" style=""><rect rx="4" ry="4" x="1021.5015" y="441.930909" width="65.0" height="30.0" style="fill:#5dd5b8;" /><text x="1054.0014999999999" y="462.97771900000004" stroke="none" text-anchor="middle">CSB459</text></g><rect /><g id="csb460" class="node" data-group="" text-rendering="geometricPrecision" shape-rendering="geometricPrecision" style=""><rect rx="4" ry="4" x="916.50153" y="501.930909" width="65.0" height="30.0" style="fill:#5dd5b8;" /><text x="949.00153" y="522.977719" stroke="none" text-anchor="middle">CSB460</text></g><rect /><g id="csb475" class="node" data-group="" text-rendering="geometricPrecision" shape-rendering="geometricPrecision" style=""><rect rx="4" ry="4" x="1021.5015" y="501.930909" width="65.0" height="30.0" style="fill:#5dd5b8;" /><text x="1054.0014999999999" y="522.977719" stroke="none" text-anchor="middle">CSB475</text></g><rect /><g id="csb458" class="node" data-group="" text-rendering="geometricPrecision" shape-rendering="geometricPrecision" style=""><rect rx="4" ry="4" x="821.50153" y="261.930909" width="65.0" height="30.0" style="fill:#80b2ff;" /><text x="854.00153" y="282.977699" stroke="none" text-anchor="middle">CSB458</text></g><rect /><g id="csb474" class="node" data-group="" text-rendering="geometricPrecision" shape-rendering="geometricPrecision" style=""><rect rx="4" ry="4" x="734.00153" y="157.194009" width="65.0" height="30.0" style="fill:#80b2ff;" /><text x="766.50153" y="178.240809" stroke="none" text-anchor="middle">CSB474</text></g><rect /><g id="csb331" class="node" data-group="" text-rendering="geometricPrecision" shape-rendering="geometricPrecision" style=""><rect rx="4" ry="4" x="411.17551" y="261.930909" width="65.0" height="30.0" style="fill:#80b2ff;" /><text x="443.67551" y="282.977699" stroke="none" text-anchor="middle">CSB331</text></g><rect /><g id="csb490" class="node" data-group="" text-rendering="geometricPrecision" shape-rendering="geometricPrecision" style=""><rect rx="4" ry="4" x="916.50153" y="261.736809" width="65.0" height="30.0" style="fill:#91f27a;" /><text x="949.00153" y="282.783699" stroke="none" text-anchor="middle">CSB490</text></g><rect /><g id="csb492" class="node" data-group="" text-rendering="geometricPrecision" shape-rendering="geometricPrecision" style=""><rect rx="4" ry="4" x="1021.5015" y="261.736809" width="65.0" height="30.0" style="fill:#91f27a;" /><text x="1054.0014999999999" y="282.783699" stroke="none" text-anchor="middle">CSB492</text></g><rect /><g id="h389" class="hybrid" data-group="" text-rendering="geometricPrecision" shape-rendering="geometricPrecision"><rect rx="4" ry="4" x="829.00153" y="167.437409" width="50.0" height="24.0" style="fill:#888888;" /><text x="854.00153" y="183.216719" stroke="none" fill="white" text-anchor="middle">CSB330</text></g><rect /><g id="csb498" class="node" data-group="" text-rendering="geometricPrecision" shape-rendering="geometricPrecision" style=""><rect rx="4" ry="4" x="1116.5015" y="321.736809" width="65.0" height="30.0" style="fill:#91f27a;" /><text x="1149.0015" y="342.783719" stroke="none" text-anchor="middle">CSB498</text></g><rect /><g id="csb499" class="node" data-group="" text-rendering="geometricPrecision" shape-rendering="geometricPrecision" style=""><rect rx="4" ry="4" x="1116.5015" y="441.930909" width="65.0" height="30.0" style="fill:#91f27a;" /><text x="1149.0015" y="462.97771900000004" stroke="none" text-anchor="middle">CSB499</text></g><rect /><g id="h397" class="hybrid" data-group="" text-rendering="geometricPrecision" shape-rendering="geometricPrecision"><rect rx="4" ry="4" x="1029.0015" y="167.437409" width="50.0" height="24.0" style="fill:#888888;" /><text x="1054.0015" y="183.216719" stroke="none" fill="white" text-anchor="middle">CSB325</text></g><rect /><g id="h399" class="hybrid" data-group="" text-rendering="geometricPrecision" shape-rendering="geometricPrecision"><rect rx="4" ry="4" x="924.00153" y="167.437409" width="50.0" height="24.0" style="fill:#888888;" /><text x="949.00153" y="183.216719" stroke="none" fill="white" text-anchor="middle">CSB352</text></g><rect /><g id="csb299" class="node" data-group="" text-rendering="geometricPrecision" shape-rendering="geometricPrecision" style=""><rect rx="4" ry="4" x="1116.5015" y="261.736809" width="65.0" height="30.0" style="fill:#91f27a;" /><text x="1149.0015" y="282.783699" stroke="none" text-anchor="middle">CSB299</text></g><rect /><g id="csb431" class="node" data-group="" text-rendering="geometricPrecision" shape-rendering="geometricPrecision" style=""><rect rx="4" ry="4" x="609.12152" y="441.930909" width="65.0" height="30.0" style="fill:#80b2ff;" /><text x="641.62152" y="462.97771900000004" stroke="none" text-anchor="middle">CSB431</text></g><rect /><g id="csb330" class="node" data-group="" text-rendering="geometricPrecision" shape-rendering="geometricPrecision" style=""><rect rx="4" ry="4" x="506.17551" y="381.930909" width="65.0" height="30.0" style="fill:#80b2ff;" /><text x="538.67551" y="402.97771900000004" stroke="none" text-anchor="middle">CSB330</text></g><rect /><g id="csb340" class="node" data-group="" text-rendering="geometricPrecision" shape-rendering="geometricPrecision" style=""><rect rx="4" ry="4" x="558.67548" y="561.9309089999999" width="65.0" height="30.0" style="fill:#5dd5b8;" /><text x="591.17548" y="582.9776889999999" stroke="none" text-anchor="middle">CSB340</text></g><rect /><g id="h410" class="hybrid" data-group="" text-rendering="geometricPrecision" shape-rendering="geometricPrecision"><rect rx="4" ry="4" x="829.00153" y="119.700512" width="50.0" height="24.0" style="fill:#888888;" /><text x="854.00153" y="135.479809" stroke="none" fill="white" text-anchor="middle">CSB350</text></g><rect /><g id="h412" class="hybrid" data-group="" text-rendering="geometricPrecision" shape-rendering="geometricPrecision"><rect rx="4" ry="4" x="741.50153" y="504.930909" width="50.0" height="24.0" style="fill:#888888;" /><text x="766.50153" y="520.710199" stroke="none" fill="white" text-anchor="middle">CSB331</text></g><rect /><g id="csb429" class="node" data-group="" text-rendering="geometricPrecision" shape-rendering="geometricPrecision" style=""><rect rx="4" ry="4" x="916.50153" y="381.930909" width="65.0" height="30.0" style="fill:#80b2ff;" /><text x="949.00153" y="402.97771900000004" stroke="none" text-anchor="middle">CSB429</text></g><rect /><g id="csb430" class="node" data-group="" text-rendering="geometricPrecision" shape-rendering="geometricPrecision" style=""><rect rx="4" ry="4" x="638.52148" y="261.930909" width="65.0" height="30.0" style="fill:#80b2ff;" /><text x="671.02148" y="282.977699" stroke="none" text-anchor="middle">CSB430</text></g><rect /><g id="csb497" class="node" data-group="" text-rendering="geometricPrecision" shape-rendering="geometricPrecision" style=""><rect rx="4" ry="4" x="1021.5015" y="321.736809" width="65.0" height="30.0" style="fill:#91f27a;" /><text x="1054.0014999999999" y="342.783719" stroke="none" text-anchor="middle">CSB497</text></g><rect /><g id="csb428" class="node" data-group="" text-rendering="geometricPrecision" shape-rendering="geometricPrecision" style=""><rect rx="4" ry="4" x="734.00153" y="381.930909" width="65.0" height="30.0" style="fill:#80b2ff;" /><text x="766.50153" y="402.97771900000004" stroke="none" text-anchor="middle">CSB428</text></g><rect /></g><g id="bools"><g id="bool322" class="bool"><ellipse cx="538.67548" cy="224.562409" rx="9.8800001" ry="7.3684001" /><text x="538.67548" y="227.58580899999998" stroke="none" text-anchor="middle">and</text></g><g id="bool327" class="bool"><ellipse cx="190.3942" cy="224.562409" rx="9.8800001" ry="7.3684001" /><text x="190.3942" y="227.58580899999998" stroke="none" text-anchor="middle">and</text></g><g id="bool384" class="bool"><ellipse cx="854.00153" cy="396.930909" rx="9.8800001" ry="7.3684001" /><text x="854.00153" y="399.954309" stroke="none" text-anchor="middle">or</text></g><g id="bool391" class="bool"><ellipse cx="766.50153" cy="131.700512" rx="9.8800001" ry="7.3684001" /><text x="766.50153" y="134.72401" stroke="none" text-anchor="middle">or</text></g><g id="bool392" class="bool"><ellipse cx="949.00153" cy="228.80590899999999" rx="9.8800001" ry="7.3684001" /><text x="949.00153" y="231.82930900000002" stroke="none" text-anchor="middle">or</text></g><g id="bool401" class="bool"><ellipse cx="1054.0015" cy="228.80590899999999" rx="9.8800001" ry="7.3684001" /><text x="1054.0015" y="231.82930900000002" stroke="none" text-anchor="middle">or</text></g><g id="bool416" class="bool"><ellipse cx="766.50153" cy="456.930909" rx="9.8800001" ry="7.3684001" /><text x="766.50153" y="459.954309" stroke="none" text-anchor="middle">or</text></g><g id="bool421" class="bool"><ellipse cx="1149.0015" cy="396.930909" rx="9.8800001" ry="7.3684001" /><text x="1149.0015" y="399.954309" stroke="none" text-anchor="middle">or</text></g><g id="bool422" class="bool"><ellipse cx="766.50153" cy="276.930909" rx="9.8800001" ry="7.3684001" /><text x="766.50153" y="279.954309" stroke="none" text-anchor="middle">or</text></g><g id="bool425" class="bool"><ellipse cx="714.00153" cy="516.9309089999999" rx="9.8800001" ry="7.3684001" /><text x="714.00153" y="519.954309" stroke="none" text-anchor="middle">or</text></g></g><g id="edges" stroke="black"><path id="pathp200" class="path" d="M390.9084,111.703409 390.9084,149.219009" marker-end="url(#arrow)" data-source-node="bio130" data-target-node="bio230255" /><path id="pathp201" class="path" d="M442.5927,172.194009 464.6249,172.194009" marker-end="url(#arrow)" data-source-node="bio230255" data-target-node="bio260hmb265" /><path id="pathp202" class="path" d="M538.7972,187.203909 538.7256,209.194009" marker-end="url(#arrow)" data-source-node="bio260hmb265" data-target-node="bool322" /><path id="pathp203" class="path" d="M390.9084,187.203909 390.9084,224.562409 520.7955,224.562409" marker-end="url(#arrow)" data-source-node="bio230255" data-target-node="bool322" /><path id="pathp204" class="path" d="M358.4056,96.700509 262.5271,96.700509 262.6989,149.19120900000001" marker-end="url(#arrow)" data-source-node="bio130" data-target-node="bio270" /><path id="pathp205" class="path" d="M230.2951,172.194009 158.4978,172.194009" marker-end="url(#arrow)" data-source-node="bio270" data-target-node="bio271" /><path id="pathp206" class="path" d="M138.7599,187.203909 176.8215,214.74230899999998" marker-end="url(#arrow)" data-source-node="bio271" data-target-node="bool327" /><path id="pathp207" class="path" d="M242.0286,187.203909 203.967,214.74230899999998" marker-end="url(#arrow)" data-source-node="bio270" data-target-node="bool327" /><path id="pathp208" class="path" d="M190.3837,231.930809 190.1471,396.930909 178.1263,396.930909" marker-end="url(#arrow)" data-source-node="bool327" data-target-node="csb325" /><path id="pathp209" class="path" d="M190.3595,231.930809 190.1471,276.930909 178.1263,276.930909" marker-end="url(#arrow)" data-source-node="bool327" data-target-node="csb343" /><path id="pathp210" class="path" d="M190.3595,231.930809 190.1471,276.930909 202.6668,276.930909" marker-end="url(#arrow)" data-source-node="bool327" data-target-node="csb345" /><path id="pathp211" class="path" d="M190.378,231.930809 190.1471,336.930909 178.1263,336.930909" marker-end="url(#arrow)" data-source-node="bool327" data-target-node="csb346" /><path id="pathp212" class="path" d="M190.378,231.930809 190.1471,336.930909 202.6668,336.930909" marker-end="url(#arrow)" data-source-node="bool327" data-target-node="csb445" /><path id="pathp213" class="path" d="M190.3837,231.930809 190.1471,396.930909 202.6668,396.930909" marker-end="url(#arrow)" data-source-node="bool327" data-target-node="csb447" /><path id="pathp214" class="path" d="M85.5195,172.194009 42.6471,172.194009 42.6471,253.92100899999997" marker-end="url(#arrow)" data-source-node="bio271" data-target-node="csb332" /><path id="pathp215" class="path" d="M42.6471,291.901609 42.6471,313.93570900000003" marker-end="url(#arrow)" data-source-node="csb332" data-target-node="csb432" /><path id="pathp216" class="path" d="M390.9084,187.203909 390.9084,276.930909 378.6313,276.930909" marker-end="url(#arrow)" data-source-node="bio230255" data-target-node="csb327" /><path id="pathp217" class="path" d="M390.9084,187.19570900000002 390.9084,336.930909 378.6313,336.930909" marker-end="url(#arrow)" data-source-node="bio230255" data-target-node="csb350" /><path id="pathp218" class="path" d="M390.9084,187.19570900000002 390.9084,336.930909 403.1856,336.930909" marker-end="url(#arrow)" data-source-node="bio230255" data-target-node="csb351" /><path id="pathp219" class="path" d="M390.9084,187.20020899999997 390.9084,396.930909 378.6313,396.930909" marker-end="url(#arrow)" data-source-node="bio230255" data-target-node="csb353" /><path id="pathp220" class="path" d="M390.9084,187.17460899999998 390.9084,433.948009" marker-end="url(#arrow)" data-source-node="bio230255" data-target-node="csb472" /><path id="pathp221" class="path" d="M390.9084,187.20020899999997 390.9084,396.930909 403.1856,396.930909" marker-end="url(#arrow)" data-source-node="bio230255" data-target-node="csb450" /><path id="pathp222" class="path" d="M538.6755,231.93090899999999 538.6755,336.930909 591.1755,336.930909 591.1755,516.9309089999999 579.1547,516.9309089999999" marker-end="url(#arrow)" data-source-node="bool322" data-target-node="csb473" /><path id="pathp223" class="path" d="M538.6755,231.93090899999999 538.6755,336.736809 813.4758,336.736809" marker-end="url(#arrow)" data-source-node="bool322" data-target-node="csb349" /><path id="pathp224" class="path" d="M538.6755,231.93090899999999 538.6755,336.930909 591.1755,336.930909 591.1755,456.930909 579.1547,456.930909" marker-end="url(#arrow)" data-source-node="bool322" data-target-node="csb352" /><path id="pathp225" class="path" d="M137.6471,411.901609 137.6471,433.93570900000003" marker-end="url(#arrow)" data-source-node="csb325" data-target-node="csb426" /><path id="pathp226" class="path" d="M538.6755,231.93090899999999 538.6755,337.242409 641.6215,337.242409 641.6215,373.921309" marker-end="url(#arrow)" data-source-node="bool322" data-target-node="csb328" /><path id="pathp227" class="path" d="M886.5192,336.779609 1001.5015,336.930909 1001.5015,396.930909 1013.5223,396.908609" marker-end="url(#arrow)" data-source-node="csb349" data-target-node="csb435" /><path id="pathp228" class="path" d="M886.5192,336.779609 1001.5015,336.930909 1001.5015,456.930909 989.4807,456.930909" marker-end="url(#arrow)" data-source-node="csb349" data-target-node="csb452" /><path id="pathp229" class="path" d="M886.5192,336.779609 1001.5015,336.930909 1001.5015,456.930909 1013.5222,456.930909" marker-end="url(#arrow)" data-source-node="csb349" data-target-node="csb459" /><path id="pathp230" class="path" d="M886.5192,336.779609 1001.5015,336.930909 1001.5015,516.9309089999999 989.4807,516.9309089999999" marker-end="url(#arrow)" data-source-node="csb349" data-target-node="csb460" /><path id="pathp231" class="path" d="M886.5192,336.779609 1001.5015,336.930909 1001.5015,516.9309089999999 1013.5222,516.9309089999999" marker-end="url(#arrow)" data-source-node="csb349" data-target-node="csb475" /><path id="pathp232" class="path" d="M554.0773,187.194209 591.627,224.174309 854.1246,224.174309 854.0552,253.91280899999998" marker-end="url(#arrow)" data-source-node="bio260hmb265" data-target-node="csb458" /><path id="pathp233" class="path" d="M854.0015,321.75610900000004 854.0015,299.945609" marker-end="url(#arrow)" data-source-node="csb349" data-target-node="csb458" /><path id="pathp234" class="path" d="M605.0757,172.194009 725.9802,172.194009" marker-end="url(#arrow)" data-source-node="bio260hmb265" data-target-node="csb474" /><path id="pathp235" class="path" d="M390.9084,187.203909 390.9084,276.930909 403.1856,276.930909" marker-end="url(#arrow)" data-source-node="bio230255" data-target-node="csb331" /><path id="pathp236" class="path" d="M854.0015,351.75590900000003 854.0015,381.562409" marker-end="url(#arrow)" data-source-node="csb349" data-target-node="bool384" /><path id="pathp237" class="path" d="M554.0773,187.194209 591.627,224.174309 854.1236,224.174309 914.9254,257.858609" marker-end="url(#arrow)" data-source-node="bio260hmb265" data-target-node="csb490" /><path id="pathp238" class="path" d="M832.0059,167.437409 781.4985,139.882409" marker-end="url(#arrow)" data-source-node="h389" data-target-node="bool391" /><path id="pathp239" class="path" d="M420.087,157.186909 469.6405,131.700509 748.6215,131.700509" marker-end="url(#arrow)" data-source-node="bio230255" data-target-node="bool391" /><path id="pathp240" class="path" d="M766.5015,139.069009 766.5015,149.216509" marker-end="url(#arrow)" data-source-node="bool391" data-target-node="csb474" /><path id="pathp241" class="path" d="M877.0931,191.437409 933.7966,220.904409" marker-end="url(#arrow)" data-source-node="h389" data-target-node="bool392" /><path id="pathp242" class="path" d="M886.5131,336.779609 1001.4736,336.930909 1001.4736,228.80590899999999 966.8815,228.80590899999999" marker-end="url(#arrow)" data-source-node="csb349" data-target-node="bool392" /><path id="pathp243" class="path" d="M949.0015,236.174309 949.0015,253.723909" marker-end="url(#arrow)" data-source-node="bool392" data-target-node="csb490" /><path id="pathp244" class="path" d="M949.0015,191.437409 949.0015,213.437409" marker-end="url(#arrow)" data-source-node="h399" data-target-node="bool392" /><path id="pathp245" class="path" d="M1054.0015,191.437409 1054.0015,213.437409" marker-end="url(#arrow)" data-source-node="h397" data-target-node="bool401" /><path id="pathp246" class="path" d="M886.521,336.736809 1001.5096,336.736809 1001.5096,228.80590899999999 1036.1215,228.80590899999999" marker-end="url(#arrow)" data-source-node="csb349" data-target-node="bool401" /><path id="pathp247" class="path" d="M1054.0015,236.174309 1054.0015,253.723909" marker-end="url(#arrow)" data-source-node="bool401" data-target-node="csb492" /><path id="pathp248" class="path" d="M674.1006,396.930909 714.0015,396.930909 714.0015,456.930909 682.1006,456.930909" marker-end="url(#arrow)" data-source-node="csb328" data-target-node="csb431" /><path id="pathp249" class="path" d="M538.6755,231.93090899999999 538.6755,336.930909 591.1755,336.930909 591.1755,396.930909 579.1547,396.930909" marker-end="url(#arrow)" data-source-node="bool322" data-target-node="csb330" /><path id="pathp250" class="path" d="M538.6755,231.93090899999999 538.6755,336.930909 591.1755,336.930909 591.1755,553.901609" marker-end="url(#arrow)" data-source-node="bool322" data-target-node="csb340" /><path id="pathp251" class="path" d="M623.7146,576.9309089999999 774.0015,576.9309089999999 854.0015,576.9309089999999 854.0015,412.299309" marker-end="url(#arrow)" data-source-node="csb340" data-target-node="bool384" /><path id="pathp252" class="path" d="M829.0015,131.700509 784.3815,131.700509" marker-end="url(#arrow)" data-source-node="h410" data-target-node="bool391" /><path id="pathp253" class="path" d="M863.8815,396.930909 908.5412,396.930909" marker-end="url(#arrow)" data-source-node="bool384" data-target-node="csb429" /><path id="pathp254" class="path" d="M886.5192,336.736809 1001.5015,336.736809 1001.5015,396.930909 989.4807,396.930909" marker-end="url(#arrow)" data-source-node="csb349" data-target-node="csb429" /><path id="pathp255" class="path" d="M766.5015,504.930909 766.5015,472.299309" marker-end="url(#arrow)" data-source-node="h412" data-target-node="bool416" /><path id="pathp256" class="path" d="M554.0773,187.194209 591.627,224.174309 671.0215,224.174309 671.0215,253.91280899999998" marker-end="url(#arrow)" data-source-node="bio260hmb265" data-target-node="csb430" /><path id="pathp257" class="path" d="M1077.6819,351.741209 1134.7144,387.878209" marker-end="url(#arrow)" data-source-node="csb497" data-target-node="bool421" /><path id="pathp258" class="path" d="M1149.0015,351.75590900000003 1149.0015,381.562409" marker-end="url(#arrow)" data-source-node="csb498" data-target-node="bool421" /><path id="pathp259" class="path" d="M1149.0015,404.299309 1149.0015,433.948409" marker-end="url(#arrow)" data-source-node="bool421" data-target-node="csb499" /><path id="pathp260" class="path" d="M832.0624,321.741509 780.39,286.423609" marker-end="url(#arrow)" data-source-node="csb349" data-target-node="bool422" /><path id="pathp261" class="path" d="M657.262,381.901609 754.6754,288.294809" marker-end="url(#arrow)" data-source-node="csb328" data-target-node="bool422" /><path id="pathp262" class="path" d="M756.6215,276.930909 711.4977,276.930909" marker-end="url(#arrow)" data-source-node="bool422" data-target-node="csb430" /><path id="pathp263" class="path" d="M832.1906,351.741209 794.8713,377.41440900000003" marker-end="url(#arrow)" data-source-node="csb349" data-target-node="csb428" /><path id="pathp264" class="path" d="M766.5015,449.562409 766.5015,419.913409" marker-end="url(#arrow)" data-source-node="bool416" data-target-node="csb428" /><path id="pathp265" class="path" d="M674.1006,396.930909 714.0015,396.930909 714.0015,501.562409" marker-end="url(#arrow)" data-source-node="csb328" data-target-node="bool425" /><path id="pathp266" class="path" d="M623.6512,576.9309089999999 714.0015,576.9309089999999 714.0015,532.299309" marker-end="url(#arrow)" data-source-node="csb340" data-target-node="bool425" /><path id="pathp267" class="path" d="M704.1215,516.9309089999999 682.1227,516.9309089999999" marker-end="url(#arrow)" data-source-node="bool425" data-target-node="csb483" /><path id="pathp268" class="path" d="M719.4009,510.760109 755.834,469.122209" marker-end="url(#arrow)" data-source-node="bool425" data-target-node="bool416" /></g><g id="region-labels"><text x="1184.9764" y="25.748047" stroke="none" fill="#e68080" text-anchor="end">Introductory</text><text x="1184.4247" y="52.911346" stroke="none" fill="#5dd5b8" text-anchor="end">Plant and Microbial Biology</text><text x="1184.1464" y="81.198685" stroke="none" fill="#80b2ff" text-anchor="end">Zoology</text><text x="1183.442" y="109.24136" stroke="none" fill="#ff9900" text-anchor="end">Geonome Biology</text><text x="1183.7233" y="137.49556" stroke="none" fill="#ffd57a" text-anchor="end">Bioinformatics</text><text x="1183.1931" y="165.1593" stroke="none" fill="#91f27a" text-anchor="end">Research</text></g></svg>