<?xml version="1.0" encoding="UTF-8"?>
<!DOCTYPE svg PUBLIC "-//W3C//DTD SVG 1.1//EN"
    "http://www.w3.org/Graphics/SVG/1.1/DTD/svg11.dtd">
<svg xmlns="http://www.w3.org/2000/svg" xmlns:xlink="http://www.w3.org/1999/xlink" width="100%" height="100%" preserveAspectRatio="xMinYMin" viewBox="0 0 900.0 720.0" xmlns:svg="http://www.w3.org/2000/svg" xmlns:dc="http://purl.org/dc/elements/1.1/" xmlns:cc="http://creativecommons.org/ns#" xmlns:rdf="http://www.w3.org/1999/02/22-rdf-syntax-ns#" version="1.1"><defs><marker id="arrow" viewBox="0 0 10 10" refX="4" refY="5" markerUnits="strokeWidth" orient="auto" markerWidth="7" markerHeight="7"><polyline points="0,1 10,5 0,9" fill="black" /></marker></defs><g id="regions"></g><g id="nodes" stroke="black"><g id="lin100" class="node" data-group="" text-rendering="geometricPrecision" shape-rendering="geometricPrecision" style=""><rect rx="4" ry="4" x="25.587580999999997" y="46.5493691" width="74.0" height="29.0" style="fill:#ff484c;" /><text x="62.587581" y="65.7632711" stroke="none" text-anchor="middle">LIN100</text></g><rect /><g id="lin200" class="node" data-group="" text-rendering="geometricPrecision" shape-rendering="geometricPrecision" style=""><rect rx="4" ry="4" x="159.587581" y="46.5493691" width="74.0" height="29.0" style="fill:#c0c0c0;" /><text x="196.587581" y="65.7632711" stroke="none" text-anchor="middle">LIN200</text></g><rect /><g id="lin201" class="node" data-group="" text-rendering="geometricPrecision" shape-rendering="geometricPrecision" style=""><rect rx="4" ry="4" x="110.88028" y="156.96846910000002" width="74.0" height="29.0" style="fill:#33cccc;" /><text x="147.88028" y="176.18236910000002" stroke="none" text-anchor="middle">LIN201</text></g><rect /><g id="lin203" class="node" data-group="" text-rendering="geometricPrecision" shape-rendering="geometricPrecision" style=""><rect rx="4" ry="4" x="266.25208" y="46.5493691" width="74.0" height="29.0" style="fill:#33cccc;" /><text x="303.25208" y="65.7632711" stroke="none" text-anchor="middle">LIN203</text></g><rect /><g id="lin204" class="node" data-group="" text-rendering="geometricPrecision" shape-rendering="geometricPrecision" style=""><rect rx="4" ry="4" x="380.69109" y="46.5493691" width="74.0" height="29.0" style="fill:#33cccc;" /><text x="417.69109" y="65.7632711" stroke="none" text-anchor="middle">LIN204</text></g><rect /><g id="lin228" class="node" data-group="" text-rendering="geometricPrecision" shape-rendering="geometricPrecision" style=""><rect rx="4" ry="4" x="110.88028" y="242.35456910000002" width="74.0" height="29.0" style="fill:#99ef00;" /><text x="147.88028" y="261.56845910000004" stroke="none" text-anchor="middle">LIN228</text></g><rect /><g id="lin229" class="node" data-group="" text-rendering="geometricPrecision" shape-rendering="geometricPrecision" style=""><rect rx="4" ry="4" x="110.88028" y="357.6619791" width="74.0" height="29.0" style="fill:#99ef00;" /><text x="147.88028" y="376.8758791" stroke="none" text-anchor="middle">LIN229</text></g><rect /><g id="lin232" class="node" data-group="" text-rendering="geometricPrecision" shape-rendering="geometricPrecision" style=""><rect rx="4" ry="4" x="110.88028" y="445.3079791" width="74.0" height="29.0" style="fill:#5ec792;" /><text x="147.88028" y="464.5217591" stroke="none" text-anchor="middle">LIN232</text></g><rect /><g id="lin241" class="node" data-group="" text-rendering="geometricPrecision" shape-rendering="geometricPrecision" style=""><rect rx="4" ry="4" x="110.88028" y="549.5087891" width="74.0" height="29.0" style="fill:#ff6666;" /><text x="147.88028" y="568.7226490999999" stroke="none" text-anchor="middle">LIN241</text></g><rect /><g id="lin251" class="node" data-group="" text-rendering="geometricPrecision" shape-rendering="geometricPrecision" style=""><rect rx="4" ry="4" x="110.88028" y="594.7096491" width="74.0" height="29.0" style="fill:#00ff00;" /><text x="147.88028" y="613.9235791" stroke="none" text-anchor="middle">LIN251</text></g><rect /><g id="lin299" class="node" data-group="" text-rendering="geometricPrecision" shape-rendering="geometricPrecision" style=""><rect rx="4" ry="4" x="779.61888" y="87.1954681" width="74.0" height="29.0" style="fill:#cc99ff;" /><text x="816.61888" y="106.4093661" stroke="none" text-anchor="middle">LIN299</text></g><rect /><g id="lin305" class="node" data-group="" text-rendering="geometricPrecision" shape-rendering="geometricPrecision" style=""><rect rx="4" ry="4" x="110.88028" y="639.9105791" width="74.0" height="29.0" style="fill:#3366ff;" /><text x="147.88028" y="659.1244491" stroke="none" text-anchor="middle">LIN305</text></g><rect /><g id="lin306" class="node" data-group="" text-rendering="geometricPrecision" shape-rendering="geometricPrecision" style=""><rect rx="4" ry="4" x="266.25208" y="490.5087591" width="74.0" height="29.0" style="fill:#5ec792;" /><text x="303.25208" y="509.7226791" stroke="none" text-anchor="middle">LIN306</text></g><rect /><g id="jlp315" class="node" data-group="" text-rendering="geometricPrecision" shape-rendering="geometricPrecision" style=""><rect rx="4" ry="4" x="511.40218" y="305.1982691" width="74.0" height="29.0" style="fill:#ffa04e;" /><text x="548.40218" y="324.4120791" stroke="none" text-anchor="middle">JLP315</text></g><rect /><g id="lin322" class="node" data-group="" text-rendering="geometricPrecision" shape-rendering="geometricPrecision" style=""><rect rx="4" ry="4" x="266.25208" y="357.6619791" width="74.0" height="29.0" style="fill:#99ef00;" /><text x="303.25208" y="376.8758791" stroke="none" text-anchor="middle">LIN322</text></g><rect /><g id="lin323" class="node" data-group="" text-rendering="geometricPrecision" shape-rendering="geometricPrecision" style=""><rect rx="4" ry="4" x="266.25208" y="198.8482591" width="74.0" height="29.0" style="fill:#99ef00;" /><text x="303.25208" y="218.0621791" stroke="none" text-anchor="middle">LIN323</text></g><rect /><g id="jal328" class="node" data-group="" text-rendering="geometricPrecision" shape-rendering="geometricPrecision" style=""><rect rx="4" ry="4" x="266.25208" y="156.96846910000002" width="74.0" height="29.0" style="fill:#9933ff;" /><text x="303.25208" y="176.18236910000002" stroke="none" text-anchor="middle">JAL328</text></g><rect /><g id="lin331" class="node" data-group="" text-rendering="geometricPrecision" shape-rendering="geometricPrecision" style=""><rect rx="4" ry="4" x="266.25208" y="445.3079791" width="74.0" height="29.0" style="fill:#5ec792;" /><text x="303.25208" y="464.5217591" stroke="none" text-anchor="middle">LIN331</text></g><rect /><g id="lin333" class="node" data-group="" text-rendering="geometricPrecision" shape-rendering="geometricPrecision" style=""><rect rx="4" ry="4" x="266.25208" y="401.48497910000003" width="74.0" height="29.0" style="fill:#5ec792;" /><text x="303.25208" y="420.6987591" stroke="none" text-anchor="middle">LIN333</text></g><rect /><g id="lin341" class="node" data-group="" text-rendering="geometricPrecision" shape-rendering="geometricPrecision" style=""><rect rx="4" ry="4" x="266.25208" y="549.5087891" width="74.0" height="29.0" style="fill:#ff6666;" /><text x="303.25208" y="568.7226490999999" stroke="none" text-anchor="middle">LIN341</text></g><rect /><g id="lin351" class="node" data-group="" text-rendering="geometricPrecision" shape-rendering="geometricPrecision" style=""><rect rx="4" ry="4" x="266.25208" y="594.7096491" width="74.0" height="29.0" style="fill:#00ff00;" /><text x="303.25208" y="613.9235791" stroke="none" text-anchor="middle">LIN351</text></g><rect /><g id="jal353" class="node" data-group="" text-rendering="geometricPrecision" shape-rendering="geometricPrecision" style=""><rect rx="4" ry="4" x="380.69109" y="156.96846910000002" width="74.0" height="29.0" style="fill:#9933ff;" /><text x="417.69109" y="176.18236910000002" stroke="none" text-anchor="middle">JAL353</text></g><rect /><g id="jlp355" class="node" data-group="" text-rendering="geometricPrecision" shape-rendering="geometricPrecision" style=""><rect rx="4" ry="4" x="671.49108" y="396.7254591" width="74.0" height="29.0" style="fill:#ffa04e;" /><text x="708.49108" y="415.9392691" stroke="none" text-anchor="middle">JLP355</text></g><rect /><g id="lin362" class="node" data-group="" text-rendering="geometricPrecision" shape-rendering="geometricPrecision" style=""><rect rx="4" ry="4" x="266.25208" y="315.4610591" width="74.0" height="29.0" style="fill:#c0c0c0;" /><text x="303.25208" y="334.67497910000003" stroke="none" text-anchor="middle">LIN362</text></g><rect /><g id="jlp374" class="node" data-group="" text-rendering="geometricPrecision" shape-rendering="geometricPrecision" style=""><rect rx="4" ry="4" x="511.40218" y="353.4992591" width="74.0" height="29.0" style="fill:#ffa04e;" /><text x="548.40218" y="372.7131591" stroke="none" text-anchor="middle">JLP374</text></g><rect /><g id="lin398" class="node" data-group="" text-rendering="geometricPrecision" shape-rendering="geometricPrecision" style=""><rect rx="4" ry="4" x="779.61888" y="129.3963691" width="74.0" height="29.0" style="fill:#cc99ff;" /><text x="816.61888" y="148.6102691" stroke="none" text-anchor="middle">LIN398</text></g><rect /><g id="lin399" class="node" data-group="" text-rendering="geometricPrecision" shape-rendering="geometricPrecision" style=""><rect rx="4" ry="4" x="779.61888" y="172.7092691" width="74.0" height="29.0" style="fill:#cc99ff;" /><text x="816.61888" y="191.9230791" stroke="none" text-anchor="middle">LIN399</text></g><rect /><g id="jal401" class="node" data-group="" text-rendering="geometricPrecision" shape-rendering="geometricPrecision" style=""><rect rx="4" ry="4" x="380.69109" y="401.48497910000003" width="74.0" height="29.0" style="fill:#9933ff;" /><text x="417.69109" y="420.6987591" stroke="none" text-anchor="middle">JAL401</text></g><rect /><g id="jal409" class="node" data-group="" text-rendering="geometricPrecision" shape-rendering="geometricPrecision" style=""><rect rx="4" ry="4" x="266.25208" y="273.2601591" width="74.0" height="29.0" style="fill:#9933ff;" /><text x="303.25208" y="292.47405910000003" stroke="none" text-anchor="middle">JAL409</text></g><rect /><g id="lin423" class="node" data-group="" text-rendering="geometricPrecision" shape-rendering="geometricPrecision" style=""><rect rx="4" ry="4" x="380.69109" y="198.8482591" width="74.0" height="29.0" style="fill:#99ef00;" /><text x="417.69109" y="218.0621791" stroke="none" text-anchor="middle">LIN423</text></g><rect /><g id="lin429" class="node" data-group="" text-rendering="geometricPrecision" shape-rendering="geometricPrecision" style=""><rect rx="4" ry="4" x="380.69109" y="357.6619791" width="74.0" height="29.0" style="fill:#cc99ff;" /><text x="417.69109" y="376.8758791" stroke="none" text-anchor="middle">LIN429</text></g><rect /><g id="lin432" class="node" data-group="" text-rendering="geometricPrecision" shape-rendering="geometricPrecision" style=""><rect rx="4" ry="4" x="380.69109" y="445.9968791" width="74.0" height="29.0" style="fill:#5ec792;" /><text x="417.69109" y="465.2107791" stroke="none" text-anchor="middle">LIN432</text></g><rect /><g id="lin439" class="node" data-group="" text-rendering="geometricPrecision" shape-rendering="geometricPrecision" style=""><rect rx="4" ry="4" x="380.69109" y="490.5087591" width="74.0" height="29.0" style="fill:#5ec792;" /><text x="417.69109" y="509.7226791" stroke="none" text-anchor="middle">LIN439</text></g><rect /><g id="lin441" class="node" data-group="" text-rendering="geometricPrecision" shape-rendering="geometricPrecision" style=""><rect rx="4" ry="4" x="380.69109" y="549.5087891" width="74.0" height="29.0" style="fill:#ff6666;" /><text x="417.69109" y="568.7226490999999" stroke="none" text-anchor="middle">LIN441</text></g><rect /><g id="lin451" class="node" data-group="" text-rendering="geometricPrecision" shape-rendering="geometricPrecision" style=""><rect rx="4" ry="4" x="380.69109" y="594.7096491" width="74.0" height="29.0" style="fill:#00ff00;" /><text x="417.69109" y="613.9235791" stroke="none" text-anchor="middle">LIN451</text></g><rect /><g id="lin456" class="node" data-group="" text-rendering="geometricPrecision" shape-rendering="geometricPrecision" style=""><rect rx="4" ry="4" x="380.69109" y="639.9105791" width="74.0" height="29.0" style="fill:#00ff00;" /><text x="417.69109" y="659.1244491" stroke="none" text-anchor="middle">LIN456</text></g><rect /><g id="lin458" class="node" data-group="" text-rendering="geometricPrecision" shape-rendering="geometricPrecision" style=""><rect rx="4" ry="4" x="110.88028" y="685.1114491" width="74.0" height="29.0" style="fill:#c0c0c0;" /><text x="147.88028" y="704.3252491" stroke="none" text-anchor="middle">LIN458</text></g><rect /><g id="jlp471" class="node" data-group="" text-rendering="geometricPrecision" shape-rendering="geometricPrecision" style=""><rect rx="4" ry="4" x="671.49108" y="353.4992591" width="74.0" height="29.0" style="fill:#ffa04e;" /><text x="708.49108" y="372.7131591" stroke="none" text-anchor="middle">JLP471</text></g><rect /><g id="jls472" class="node" data-group="" text-rendering="geometricPrecision" shape-rendering="geometricPrecision" style=""><rect rx="4" ry="4" x="673.55498" y="87.1954681" width="74.0" height="29.0" style="fill:#ff683a;" /><text x="710.55498" y="106.4093661" stroke="none" text-anchor="middle">JLS472</text></g><rect /><g id="jls473" class="node" data-group="" text-rendering="geometricPrecision" shape-rendering="geometricPrecision" style=""><rect rx="4" ry="4" x="673.55498" y="129.9523691" width="74.0" height="29.0" style="fill:#ff683a;" /><text x="710.55498" y="149.1662691" stroke="none" text-anchor="middle">JLS473</text></g><rect /><g id="jls475" class="node" data-group="" text-rendering="geometricPrecision" shape-rendering="geometricPrecision" style=""><rect rx="4" ry="4" x="673.55498" y="172.7092691" width="74.0" height="29.0" style="fill:#ff683a;" /><text x="710.55498" y="191.9230791" stroke="none" text-anchor="middle">JLS475</text></g><rect /><g id="jls474" class="node" data-group="" text-rendering="geometricPrecision" shape-rendering="geometricPrecision" style=""><rect rx="4" ry="4" x="671.49108" y="305.1982691" width="74.0" height="29.0" style="fill:#ff683a;" /><text x="708.49108" y="324.4120791" stroke="none" text-anchor="middle">JLS474</text></g><rect /><g id="h704" class="hybrid" data-group="" text-rendering="geometricPrecision" shape-rendering="geometricPrecision"><rect rx="4" ry="4" x="513.46608" y="134.9004691" width="50.0" height="24.0" style="fill:#888888;" /><text x="538.46608" y="150.8286691" stroke="none" fill="white" text-anchor="middle">LIN100</text></g><rect /><g id="h706" class="hybrid" data-group="" text-rendering="geometricPrecision" shape-rendering="geometricPrecision"><rect rx="4" ry="4" x="513.46608" y="175.2092691" width="50.0" height="24.0" style="fill:#888888;" /><text x="538.46608" y="191.1374591" stroke="none" fill="white" text-anchor="middle">LIN228</text></g><rect /><g id="h709" class="hybrid" data-group="" text-rendering="geometricPrecision" shape-rendering="geometricPrecision"><rect rx="4" ry="4" x="392.69109" y="275.7601591" width="50.0" height="24.0" style="fill:#888888;" /><text x="417.69109" y="291.6884691" stroke="none" fill="white" text-anchor="middle">LIN232</text></g><rect /><g id="jls475" class="node" data-group="" text-rendering="geometricPrecision" shape-rendering="geometricPrecision" style=""><rect rx="4" ry="4" x="673.55498" y="216.7755691" width="74.0" height="29.0" style="fill:#ff683a;" /><text x="710.55498" y="235.9893791" stroke="none" text-anchor="middle">JLS475</text></g><rect /><g id="jls476" class="node" data-group="" text-rendering="geometricPrecision" shape-rendering="geometricPrecision" style=""><rect rx="4" ry="4" x="673.55498" y="258.97637910000003" width="74.0" height="29.0" style="fill:#ff683a;" /><text x="710.55498" y="278.1902691" stroke="none" text-anchor="middle">JLS476</text></g><rect /><g id="jfl477" class="node" data-group="" text-rendering="geometricPrecision" shape-rendering="geometricPrecision" style=""><rect rx="4" ry="4" x="671.49108" y="439.95156910000003" width="74.0" height="29.0" style="fill:#99ccff;" /><text x="708.49108" y="459.1654591" stroke="none" text-anchor="middle">JFL477</text></g><rect /><g id="jfl478" class="node" data-group="" text-rendering="geometricPrecision" shape-rendering="geometricPrecision" style=""><rect rx="4" ry="4" x="671.49108" y="490.5087591" width="74.0" height="29.0" style="fill:#99ccff;" /><text x="708.49108" y="509.7226791" stroke="none" text-anchor="middle">JFL478</text></g><rect /><g id="lin481" class="node" data-group="" text-rendering="geometricPrecision" shape-rendering="geometricPrecision" style=""><rect rx="4" ry="4" x="511.40218" y="423.1129691" width="74.0" height="29.0" style="fill:#c0c0c0;" /><text x="548.40218" y="442.3267791" stroke="none" text-anchor="middle">LIN481</text></g><rect /><g id="lin495" class="node" data-group="" text-rendering="geometricPrecision" shape-rendering="geometricPrecision" style=""><rect rx="4" ry="4" x="779.61888" y="213.3505691" width="74.0" height="29.0" style="fill:#cc99ff;" /><text x="816.61888" y="232.5643691" stroke="none" text-anchor="middle">LIN495</text></g><rect /><g id="lin496" class="node" data-group="" text-rendering="geometricPrecision" shape-rendering="geometricPrecision" style=""><rect rx="4" ry="4" x="779.61888" y="258.97637910000003" width="74.0" height="29.0" style="fill:#cc99ff;" /><text x="816.61888" y="278.1902691" stroke="none" text-anchor="middle">LIN496</text></g><rect /><g id="lin497" class="node" data-group="" text-rendering="geometricPrecision" shape-rendering="geometricPrecision" style=""><rect rx="4" ry="4" x="779.61888" y="305.1982691" width="74.0" height="29.0" style="fill:#cc99ff;" /><text x="816.61888" y="324.4120791" stroke="none" text-anchor="middle">LIN497</text></g><rect /><g id="lin498" class="node" data-group="" text-rendering="geometricPrecision" shape-rendering="geometricPrecision" style=""><rect rx="4" ry="4" x="779.61888" y="353.4992591" width="74.0" height="29.0" style="fill:#cc99ff;" /><text x="816.61888" y="372.7131591" stroke="none" text-anchor="middle">LIN498</text></g><rect /><g id="lin499" class="node" data-group="" text-rendering="geometricPrecision" shape-rendering="geometricPrecision" style=""><rect rx="4" ry="4" x="779.61888" y="396.7254591" width="74.0" height="29.0" style="fill:#cc99ff;" /><text x="816.61888" y="415.9392691" stroke="none" text-anchor="middle">LIN499</text></g><rect /><g id="lin405" class="node" data-group="" text-rendering="geometricPrecision" shape-rendering="geometricPrecision" style=""><rect rx="4" ry="4" x="266.25208" y="639.9105791" width="74.0" height="29.0" style="fill:#3366ff;" /><text x="303.25208" y="659.1244491" stroke="none" text-anchor="middle">LIN405</text></g><rect /></g><g id="bools"><g id="bool650" class="bool"><ellipse cx="139.467579" cy="105.7502701" rx="9.8800001" ry="7.3684001" /><text x="139.467579" y="108.8927721" stroke="none" text-anchor="middle">or</text></g><g id="bool699" class="bool"><ellipse cx="631.61107" cy="319.6982691" rx="9.8800001" ry="7.3684001" /><text x="631.61107" y="322.8407591" stroke="none" text-anchor="middle">or</text></g><g id="bool708" class="bool"><ellipse cx="603.34609" cy="166.26886910000002" rx="9.8800001" ry="7.3684001" /><text x="603.34609" y="169.4114691" stroke="none" text-anchor="middle">and</text></g><g id="bool721" class="bool"><ellipse cx="477.68608" cy="437.6129691" rx="9.8800001" ry="7.3684001" /><text x="477.68608" y="440.7554591" stroke="none" text-anchor="middle">or</text></g></g><g id="edges" stroke="black"><path id="pathp324" class="path" d="M62.58758,75.5188691 62.58758,372.1619691 102.85628,372.1619691" marker-end="url(#arrow)" data-source-node="lin100" data-target-node="lin229" /><path id="pathp325" class="path" d="M147.88028,271.3524691 147.88028,349.6410691" marker-end="url(#arrow)" data-source-node="lin228" data-target-node="lin229" /><path id="pathp326" class="path" d="M62.58758,75.5063691 62.58758,459.8079691 102.85628,459.8079691" marker-end="url(#arrow)" data-source-node="lin100" data-target-node="lin232" /><path id="pathp327" class="path" d="M62.58758,75.5696691 62.58758,564.0088691 102.85628,564.0088691" marker-end="url(#arrow)" data-source-node="lin100" data-target-node="lin241" /><path id="pathp328" class="path" d="M62.58758,75.5362691 62.58758,609.2096690999999 102.85628,609.2096690999999" marker-end="url(#arrow)" data-source-node="lin100" data-target-node="lin251" /><path id="pathp329" class="path" d="M62.58758,75.57196909999999 62.58758,654.4105691 102.85628,654.4105691" marker-end="url(#arrow)" data-source-node="lin100" data-target-node="lin305" /><path id="pathp330" class="path" d="M184.89968,459.8079691 205.09967999999998,459.8079691 205.09967999999998,505.0087691 258.20528,505.0087691" marker-end="url(#arrow)" data-source-node="lin232" data-target-node="lin306" /><path id="pathp331" class="path" d="M184.86448,372.1619691 258.22708,372.1619691" marker-end="url(#arrow)" data-source-node="lin229" data-target-node="lin322" /><path id="pathp332" class="path" d="M184.86448,256.85456910000005 303.25208,256.85456910000005 303.25208,235.87256910000002" marker-end="url(#arrow)" data-source-node="lin228" data-target-node="lin323" /><path id="pathp333" class="path" d="M62.58758,75.5132691 62.58758,213.3482691 258.26518,213.3482691" marker-end="url(#arrow)" data-source-node="lin100" data-target-node="lin323" /><path id="pathp334" class="path" d="M62.58758,75.5858691 62.58758,105.7502691 121.58758,105.7502691" marker-end="url(#arrow)" data-source-node="lin100" data-target-node="bool650" /><path id="pathp335" class="path" d="M196.58758,75.5858691 196.58758,105.7502691 157.34758,105.7502691" marker-end="url(#arrow)" data-source-node="lin200" data-target-node="bool650" /><path id="pathp336" class="path" d="M139.46758,113.1186691 139.46758,148.9664691" marker-end="url(#arrow)" data-source-node="bool650" data-target-node="lin201" /><path id="pathp337" class="path" d="M139.46758,113.1186691 139.46758,125.7502691 303.25208,125.7502691 303.25208,148.9582691" marker-end="url(#arrow)" data-source-node="bool650" data-target-node="jal328" /><path id="pathp338" class="path" d="M184.86448,459.8079691 258.22708,459.8079691" marker-end="url(#arrow)" data-source-node="lin232" data-target-node="lin331" /><path id="pathp339" class="path" d="M184.89968,459.8079691 205.09967999999998,459.8079691 205.09967999999998,423.9849691 258.20528,423.9849691" marker-end="url(#arrow)" data-source-node="lin232" data-target-node="lin333" /><path id="pathp340" class="path" d="M184.89968,372.1619691 205.09967999999998,372.1619691 205.09967999999998,406.6619691 258.29108,406.6619691" marker-end="url(#arrow)" data-source-node="lin229" data-target-node="lin333" /><path id="pathp341" class="path" d="M184.86448,609.2096690999999 258.22708,609.2096690999999" marker-end="url(#arrow)" data-source-node="lin251" data-target-node="lin351" /><path id="pathp342" class="path" d="M139.46758,113.1186691 139.46758,125.7502691 417.69097999999997,125.7502691 417.69097999999997,148.9582691" marker-end="url(#arrow)" data-source-node="bool650" data-target-node="jal353" /><path id="pathp343" class="path" d="M184.89968,372.1619691 205.09967999999998,372.1619691 205.09967999999998,329.96106910000003 258.20528,329.96106910000003" marker-end="url(#arrow)" data-source-node="lin229" data-target-node="lin362" /><path id="pathp344" class="path" d="M340.24528,372.1619691 360.69097999999997,372.1619691 360.69097999999997,408.16666910000004 372.70228,408.16666910000004" marker-end="url(#arrow)" data-source-node="lin322" data-target-node="jal401" /><path id="pathp345" class="path" d="M340.24528,459.8079691 360.69097999999997,459.8079691 360.69097999999997,420.7551691 372.71458,420.7551691" marker-end="url(#arrow)" data-source-node="lin331" data-target-node="jal401" /><path id="pathp346" class="path" d="M184.89968,372.1619691 205.09967999999998,372.1619691 205.09967999999998,287.7602691 258.20528,287.7602691" marker-end="url(#arrow)" data-source-node="lin229" data-target-node="jal409" /><path id="pathp347" class="path" d="M340.27148,213.3482691 372.68237999999997,213.3482691" marker-end="url(#arrow)" data-source-node="lin323" data-target-node="lin423" /><path id="pathp348" class="path" d="M340.27148,372.1619691 372.68237999999997,372.1619691" marker-end="url(#arrow)" data-source-node="lin322" data-target-node="lin429" /><path id="pathp349" class="path" d="M340.22648,459.8079691 347.22638,459.8079691 347.22638,460.0951691 372.67938,460.0951691" marker-end="url(#arrow)" data-source-node="lin331" data-target-node="lin432" /><path id="pathp350" class="path" d="M340.28378,422.3705691 348.66587999999996,423.8159691 383.36028,442.2530691" marker-end="url(#arrow)" data-source-node="lin333" data-target-node="lin432" /><path id="pathp351" class="path" d="M340.27148,459.8079691 360.47158,459.8079691 360.47158,505.0087691 372.67158,505.0087691" marker-end="url(#arrow)" data-source-node="lin331" data-target-node="lin439" /><path id="pathp352" class="path" d="M340.27148,564.0088691 372.68237999999997,564.0088691" marker-end="url(#arrow)" data-source-node="lin341" data-target-node="lin441" /><path id="pathp353" class="path" d="M340.27148,609.2096690999999 372.68237999999997,609.2096690999999" marker-end="url(#arrow)" data-source-node="lin351" data-target-node="lin451" /><path id="pathp354" class="path" d="M340.27148,609.2096690999999 360.47158,609.2096690999999 360.47158,654.4105691 372.67158,654.4105691" marker-end="url(#arrow)" data-source-node="lin351" data-target-node="lin456" /><path id="pathp355" class="path" d="M62.58758,75.5869691 62.58758,699.6114690999999 102.85628,699.6114690999999" marker-end="url(#arrow)" data-source-node="lin100" data-target-node="lin458" /><path id="pathp356" class="path" d="M585.41498,367.9992691 663.5020800000001,367.9992691" marker-end="url(#arrow)" data-source-node="jlp374" data-target-node="jlp471" /><path id="pathp357" class="path" d="M585.4154800000001,367.9992691 631.61108,367.9992691 631.61108,335.0666691" marker-end="url(#arrow)" data-source-node="jlp374" data-target-node="bool699" /><path id="pathp358" class="path" d="M585.4154800000001,319.6982691 613.73108,319.6982691" marker-end="url(#arrow)" data-source-node="jlp315" data-target-node="bool699" /><path id="pathp359" class="path" d="M641.49108,319.6982691 663.47378,319.6982691" marker-end="url(#arrow)" data-source-node="bool699" data-target-node="jls474" /><path id="pathp360" class="path" d="M563.46608,146.9004691 569.19248,146.9004691 588.52268,157.8625691" marker-end="url(#arrow)" data-source-node="h704" data-target-node="bool708" /><path id="pathp361" class="path" d="M563.46608,187.2092691 569.19248,187.2092691 588.89398,175.1297691" marker-end="url(#arrow)" data-source-node="h706" data-target-node="bool708" /><path id="pathp362" class="path" d="M613.22608,166.26886910000002 633.22608,166.26886910000002 633.22608,101.6954691 665.58968,101.6954691" marker-end="url(#arrow)" data-source-node="bool708" data-target-node="jls472" /><path id="pathp363" class="path" d="M613.22608,166.26886910000002 633.22608,166.26886910000002 633.22608,144.4523691 665.58968,144.4523691" marker-end="url(#arrow)" data-source-node="bool708" data-target-node="jls473" /><path id="pathp364" class="path" d="M613.22608,166.26886910000002 633.22608,166.26886910000002 633.22608,187.2092691 665.58968,187.2092691" marker-end="url(#arrow)" data-source-node="bool708" data-target-node="jls475" /><path id="pathp365" class="path" d="M392.69097999999997,287.7602691 348.24178,287.7602691" marker-end="url(#arrow)" data-source-node="h709" data-target-node="jal409" /><path id="pathp366" class="path" d="M613.22608,166.26886910000002 633.22608,166.26886910000002 633.22608,231.2755691 665.58968,231.2755691" marker-end="url(#arrow)" data-source-node="bool708" data-target-node="jls475" /><path id="pathp367" class="path" d="M613.22608,166.26886910000002 633.67498,166.26886910000002 633.67498,273.4763691 665.57898,273.4763691" marker-end="url(#arrow)" data-source-node="bool708" data-target-node="jls476" /><path id="pathp368" class="path" d="M340.27148,372.1619691 360.47158,372.1619691 360.47158,337.6619691 477.68608,337.6619691 477.68608,422.2444691" marker-end="url(#arrow)" data-source-node="lin322" data-target-node="bool721" /><path id="pathp369" class="path" d="M340.27148,459.8079691 360.47158,459.8079691 360.47158,534.5088691 477.68608,534.5088691 477.68608,452.9813691" marker-end="url(#arrow)" data-source-node="lin331" data-target-node="bool721" /><path id="pathp370" class="path" d="M487.56608,437.6128691 503.40198,437.6128691" marker-end="url(#arrow)" data-source-node="bool721" data-target-node="lin481" /><path id="pathp371" class="path" d="M184.86448,654.4105691 258.22708,654.4105691" marker-end="url(#arrow)" data-source-node="lin305" data-target-node="lin405" /></g><g id="region-labels"><text x="770.59259" y="447.82272" stroke="none" text-anchor="begin">Research/</text><text x="770.59259" y="469.69772" stroke="none" text-anchor="begin">Independent </text><text x="770.59259" y="491.57272" stroke="none" text-anchor="begin">Study</text><text x="946.31842" y="93.893852" stroke="none" fill="#000000" text-anchor="begin"></text><text x="425.39551" y="101.638397" stroke="none" text-anchor="begin">Joint Linguistics </text><text x="425.39551" y="123.5134" stroke="none" text-anchor="begin">Anthropology </text><text x="425.39551" y="145.3884" stroke="none" text-anchor="begin">Courses</text><text x="468.25583" y="614.49872" stroke="none" fill="#0eff22" text-anchor="begin">Sociolinguistics</text><text x="16.844883" y="29.391502" stroke="none" text-anchor="begin">Introductory</text><text x="93.64373" y="496.27979" stroke="none" fill="#5ec792" text-anchor="begin">Morphology </text><text x="201.92499" y="496.27979" stroke="none" fill="#5ec792" text-anchor="begin"></text><text x="93.64373" y="518.15479" stroke="none" fill="#5ec792" text-anchor="begin">and Syntax</text><text x="454.20798" y="264.58145" stroke="none" text-anchor="begin">Joint Linguistics </text><text x="454.20798" y="286.45645" stroke="none" text-anchor="begin">Psychology Courses</text><text x="465.4574" y="568.63959" stroke="none" fill="#ff6666" text-anchor="begin">Semantics</text><text x="262.39594" y="687.0921" stroke="none" fill="#3366ff" text-anchor="begin">Quantitative </text><text x="376.52191" y="687.0921" stroke="none" fill="#3366ff" text-anchor="begin"></text><text x="262.39594" y="708.9671" stroke="none" fill="#3366ff" text-anchor="begin">Methods</text><text x="641.30609" y="541.83844" stroke="none" text-anchor="begin">Joint Linguistics </text><text x="641.30609" y="563.71344" stroke="none" text-anchor="begin">French Courses</text><text x="104.69233" y="406.75467" stroke="none" fill="#77ba00" text-anchor="begin">Phonology</text><text x="606.27622" y="48.328059999999994" stroke="none" fill="#ff683a" text-anchor="begin">Joint Linguistics </text><text x="606.27622" y="70.20306000000002" stroke="none" fill="#ff683a" text-anchor="begin">Psychology Courses</text><text x="283.6675699" y="30.723670000000002" stroke="none" text-anchor="begin">English Linguistics</text></g></svg>