<?xml version="1.0" encoding="UTF-8" standalone="no"?>
<!-- Created with Inkscape (http://www.inkscape.org/) -->

<svg
   xmlns:dc="http://purl.org/dc/elements/1.1/"
   xmlns:cc="http://creativecommons.org/ns#"
   xmlns:rdf="http://www.w3.org/1999/02/22-rdf-syntax-ns#"
   xmlns:svg="http://www.w3.org/2000/svg"
   xmlns="http://www.w3.org/2000/svg"
   xmlns:sodipodi="http://sodipodi.sourceforge.net/DTD/sodipodi-0.dtd"
   xmlns:inkscape="http://www.inkscape.org/namespaces/inkscape"
   width="114mm"
   height="127mm"
   viewBox="0 0 403.93677 449.99973"
   id="svg8229"
   version="1.1"
   inkscape:version="0.91 r13725"
   sodipodi:docname="EstonianInkscape.svg">
  <defs
     id="defs8231" />
  <sodipodi:namedview
     id="base"
     pagecolor="#ffffff"
     bordercolor="#666666"
     borderopacity="1.0"
     inkscape:pageopacity="0.0"
     inkscape:pageshadow="2"
     inkscape:zoom="1"
     inkscape:cx="168.46495"
     inkscape:cy="179.5778"
     inkscape:document-units="px"
     inkscape:current-layer="layer1"
     showgrid="false"
     inkscape:window-width="1366"
     inkscape:window-height="706"
     inkscape:window-x="-8"
     inkscape:window-y="-8"
     inkscape:window-maximized="1" />
  <metadata
     id="metadata8234">
    <rdf:RDF>
      <cc:Work
         rdf:about="">
        <dc:format>image/svg+xml</dc:format>
        <dc:type
           rdf:resource="http://purl.org/dc/dcmitype/StillImage" />
        <dc:title />
      </cc:Work>
    </rdf:RDF>
  </metadata>
  <g
     inkscape:label="Layer 1"
     inkscape:groupmode="layer"
     id="layer1"
     transform="translate(0,-602.36237)">
    <g
       style="font-style:normal;font-weight:normal;font-size:12px;font-family:Dialog;color-interpolation:auto;fill:#000000;fill-opacity:1;stroke:#000000;stroke-width:1;stroke-linecap:square;stroke-linejoin:miter;stroke-miterlimit:10;stroke-dasharray:none;stroke-dashoffset:0;stroke-opacity:1;color-rendering:auto;image-rendering:auto;shape-rendering:auto;text-rendering:auto"
       id="g8901"
       transform="translate(83.571433,702.00499)">
      <g
         id="g8780">
        <defs
           id="defs1">
          <clipPath
             id="clipPath1"
             clipPathUnits="userSpaceOnUse">
            <path
               id="path8784"
               d="M 0,0 242,0 242,289 0,289 0,0 Z"
               inkscape:connector-curvature="0" />
          </clipPath>
          <clipPath
             id="clipPath2"
             clipPathUnits="userSpaceOnUse">
            <path
               id="path8787"
               d="m 90,63 242,0 0,289 -242,0 0,-289 z"
               inkscape:connector-curvature="0" />
          </clipPath>
        </defs>
        <g
           id="g8789"
           transform="translate(-90,-63)"
           style="fill:#ffffff;stroke:#ffffff;shape-rendering:geometricPrecision;text-rendering:geometricPrecision">
          <path
             style="stroke:none"
             clip-path="url(#clipPath2)"
             d="m 90,63 242,0 0,289 -242,0 z"
             id="rect8791" />
        </g>
        <g
           id="g8793"
           transform="translate(-90,-63)"
           style="fill:#99cc00;stroke:#99cc00;shape-rendering:geometricPrecision;text-rendering:geometricPrecision">
          <path
             style="stroke:none"
             clip-path="url(#clipPath2)"
             d="m 109.4428,78.229897 66,0 c 2.216,0 4,1.784 4,4 l 0,21.000003 c 0,2.216 -1.784,4 -4,4 l -66,0 c -2.216,0 -4,-1.784 -4,-4 l 0,-21.000003 c 0,-2.216 1.784,-4 4,-4 z"
             id="rect8795" />
        </g>
        <g
           id="g8797"
           transform="translate(-90,-63)"
           stroke-miterlimit="1.45"
           style="font-family:sans-serif;stroke-linecap:butt;stroke-miterlimit:1.45000005;shape-rendering:geometricPrecision;text-rendering:geometricPrecision">
          <g
             clip-path="url(#clipPath2)"
             style="stroke:none"
             id="text8799">
            <path
               d="m 127.68302,97.443802 -5.74805,0 0,-8.724609 5.74805,0 0,1.03125 -4.58789,0 0,2.390625 4.58789,0 0,1.03125 -4.58789,0 0,3.240234 4.58789,0 0,1.03125 z"
               style="stroke:none"
               id="path4227" />
            <path
               d="m 135.86857,94.953568 q 0,0.509765 -0.24024,1.007812 -0.23437,0.498047 -0.66211,0.84375 -0.46875,0.375 -1.0957,0.585938 -0.62109,0.210937 -1.5,0.210937 -0.94336,0 -1.69922,-0.175781 -0.75,-0.175781 -1.52929,-0.521485 l 0,-1.453125 0.082,0 q 0.66211,0.550782 1.52929,0.84961 0.86719,0.298828 1.62891,0.298828 1.07813,0 1.67578,-0.404297 0.60352,-0.404297 0.60352,-1.078125 0,-0.580078 -0.28711,-0.855469 -0.28125,-0.27539 -0.86133,-0.427734 -0.43945,-0.117188 -0.95508,-0.193359 -0.50976,-0.07617 -1.08398,-0.19336 -1.16016,-0.246094 -1.72266,-0.83789 -0.55664,-0.597657 -0.55664,-1.552735 0,-1.095703 0.92578,-1.792969 0.92578,-0.703125 2.34961,-0.703125 0.91992,0 1.6875,0.175782 0.76758,0.175781 1.35938,0.433593 l 0,1.371094 -0.082,0 q -0.49804,-0.421875 -1.3125,-0.697265 -0.80859,-0.28125 -1.6582,-0.28125 -0.93164,0 -1.5,0.386718 -0.5625,0.386719 -0.5625,0.996094 0,0.544922 0.28125,0.855469 0.28125,0.310547 0.99024,0.474609 0.375,0.08203 1.0664,0.199219 0.69141,0.117187 1.17188,0.240234 0.97265,0.257813 1.46484,0.779297 0.49219,0.521485 0.49219,1.458985 z"
               style="stroke:none"
               id="path4229" />
            <path
               d="m 143.95451,89.750443 -3.11719,0 0,7.693359 -1.16016,0 0,-7.693359 -3.11719,0 0,-1.03125 7.39454,0 0,1.03125 z"
               style="stroke:none"
               id="path4231" />
            <path
               d="m 150.31779,97.443802 -4.72266,0 0,-0.890625 1.81641,0 0,-5.847656 -1.81641,0 0,-0.796875 q 0.36914,0 0.79102,-0.05859 0.42187,-0.06445 0.63867,-0.181641 0.26953,-0.146484 0.42187,-0.36914 0.15821,-0.228516 0.18164,-0.609375 l 0.90821,0 0,7.863281 1.78125,0 0,0.890625 z"
               style="stroke:none"
               id="path4233" />
            <path
               d="m 158.44474,93.078568 q 0,2.349609 -0.73828,3.451171 -0.73242,1.095704 -2.2793,1.095704 -1.57031,0 -2.29687,-1.113282 -0.72071,-1.113281 -0.72071,-3.421875 0,-2.326172 0.73243,-3.433593 0.73242,-1.113282 2.28515,-1.113282 1.57031,0 2.29102,1.13086 0.72656,1.125 0.72656,3.404297 z m -1.54102,2.660156 q 0.20508,-0.47461 0.2754,-1.113281 0.0762,-0.644532 0.0762,-1.546875 0,-0.890625 -0.0762,-1.546875 -0.0703,-0.65625 -0.28125,-1.113282 -0.20508,-0.451172 -0.5625,-0.679687 -0.35157,-0.228516 -0.90821,-0.228516 -0.55078,0 -0.91406,0.228516 -0.35742,0.228515 -0.56836,0.691406 -0.19922,0.433594 -0.27539,1.130859 -0.0703,0.697266 -0.0703,1.529297 0,0.914063 0.0644,1.529297 0.0644,0.615235 0.27539,1.101563 0.19336,0.457031 0.54492,0.697265 0.35742,0.240235 0.94336,0.240235 0.55078,0 0.91406,-0.228516 0.36329,-0.228516 0.5625,-0.691406 z"
               style="stroke:none"
               id="path4235" />
            <path
               d="m 166.08537,93.078568 q 0,2.349609 -0.73829,3.451171 -0.73242,1.095704 -2.27929,1.095704 -1.57032,0 -2.29688,-1.113282 -0.7207,-1.113281 -0.7207,-3.421875 0,-2.326172 0.73242,-3.433593 0.73242,-1.113282 2.28516,-1.113282 1.57031,0 2.29101,1.13086 0.72657,1.125 0.72657,3.404297 z m -1.54102,2.660156 q 0.20508,-0.47461 0.27539,-1.113281 0.0762,-0.644532 0.0762,-1.546875 0,-0.890625 -0.0762,-1.546875 -0.0703,-0.65625 -0.28125,-1.113282 -0.20508,-0.451172 -0.5625,-0.679687 -0.35156,-0.228516 -0.9082,-0.228516 -0.55078,0 -0.91407,0.228516 -0.35742,0.228515 -0.56835,0.691406 -0.19922,0.433594 -0.2754,1.130859 -0.0703,0.697266 -0.0703,1.529297 0,0.914063 0.0645,1.529297 0.0644,0.615235 0.27539,1.101563 0.19336,0.457031 0.54492,0.697265 0.35742,0.240235 0.94336,0.240235 0.55078,0 0.91406,-0.228516 0.36328,-0.228516 0.5625,-0.691406 z"
               style="stroke:none"
               id="path4237" />
          </g>
          <path
             style="fill:none;stroke-width:2;stroke-dasharray:12, 4"
             clip-path="url(#clipPath2)"
             d="m 109.4428,78.229897 66,0 c 2.216,0 4,1.784 4,4 l 0,21.000003 c 0,2.216 -1.784,4 -4,4 l -66,0 c -2.216,0 -4,-1.784 -4,-4 l 0,-21.000003 c 0,-2.216 1.784,-4 4,-4 z"
             id="rect8801" />
        </g>
        <g
           id="g8803"
           transform="translate(-90,-63)"
           style="fill:#99cc00;stroke:#99cc00;shape-rendering:geometricPrecision;text-rendering:geometricPrecision">
          <path
             style="stroke:none"
             clip-path="url(#clipPath2)"
             d="m 109.4428,124.4599 66,0 c 2.216,0 4,1.784 4,4 l 0,21 c 0,2.216 -1.784,4 -4,4 l -66,0 c -2.216,0 -4,-1.784 -4,-4 l 0,-21 c 0,-2.216 1.784,-4 4,-4 z"
             id="rect8805" />
        </g>
        <g
           id="g8807"
           transform="translate(-90,-63)"
           stroke-miterlimit="1.45"
           style="font-family:sans-serif;stroke-linecap:butt;stroke-miterlimit:1.45000005;shape-rendering:geometricPrecision;text-rendering:geometricPrecision">
          <g
             clip-path="url(#clipPath2)"
             style="stroke:none"
             id="text8809">
            <path
               d="m 127.68302,143.6738 -5.74805,0 0,-8.72461 5.74805,0 0,1.03125 -4.58789,0 0,2.39062 4.58789,0 0,1.03125 -4.58789,0 0,3.24024 4.58789,0 0,1.03125 z"
               style="stroke:none"
               id="path4242" />
            <path
               d="m 135.86857,141.18356 q 0,0.50977 -0.24024,1.00782 -0.23437,0.49804 -0.66211,0.84375 -0.46875,0.375 -1.0957,0.58593 -0.62109,0.21094 -1.5,0.21094 -0.94336,0 -1.69922,-0.17578 -0.75,-0.17578 -1.52929,-0.52148 l 0,-1.45313 0.082,0 q 0.66211,0.55078 1.52929,0.84961 0.86719,0.29883 1.62891,0.29883 1.07813,0 1.67578,-0.4043 0.60352,-0.4043 0.60352,-1.07812 0,-0.58008 -0.28711,-0.85547 -0.28125,-0.27539 -0.86133,-0.42774 -0.43945,-0.11718 -0.95508,-0.19336 -0.50976,-0.0762 -1.08398,-0.19336 -1.16016,-0.24609 -1.72266,-0.83789 -0.55664,-0.59765 -0.55664,-1.55273 0,-1.0957 0.92578,-1.79297 0.92578,-0.70312 2.34961,-0.70312 0.91992,0 1.6875,0.17578 0.76758,0.17578 1.35938,0.43359 l 0,1.37109 -0.082,0 q -0.49804,-0.42187 -1.3125,-0.69726 -0.80859,-0.28125 -1.6582,-0.28125 -0.93164,0 -1.5,0.38672 -0.5625,0.38672 -0.5625,0.99609 0,0.54492 0.28125,0.85547 0.28125,0.31055 0.99024,0.47461 0.375,0.082 1.0664,0.19922 0.69141,0.11719 1.17188,0.24023 0.97265,0.25781 1.46484,0.7793 0.49219,0.52148 0.49219,1.45898 z"
               style="stroke:none"
               id="path4244" />
            <path
               d="m 143.95451,135.98044 -3.11719,0 0,7.69336 -1.16016,0 0,-7.69336 -3.11719,0 0,-1.03125 7.39454,0 0,1.03125 z"
               style="stroke:none"
               id="path4246" />
            <path
               d="m 150.31779,143.6738 -4.72266,0 0,-0.89063 1.81641,0 0,-5.84765 -1.81641,0 0,-0.79688 q 0.36914,0 0.79102,-0.0586 0.42187,-0.0645 0.63867,-0.18164 0.26953,-0.14649 0.42187,-0.36914 0.15821,-0.22852 0.18164,-0.60938 l 0.90821,0 0,7.86328 1.78125,0 0,0.89063 z"
               style="stroke:none"
               id="path4248" />
            <path
               d="m 158.44474,139.30856 q 0,2.34961 -0.73828,3.45118 -0.73242,1.0957 -2.2793,1.0957 -1.57031,0 -2.29687,-1.11328 -0.72071,-1.11328 -0.72071,-3.42188 0,-2.32617 0.73243,-3.43359 0.73242,-1.11328 2.28515,-1.11328 1.57031,0 2.29102,1.13086 0.72656,1.125 0.72656,3.40429 z m -1.54102,2.66016 q 0.20508,-0.47461 0.2754,-1.11328 0.0762,-0.64453 0.0762,-1.54688 0,-0.89062 -0.0762,-1.54687 -0.0703,-0.65625 -0.28125,-1.11328 -0.20508,-0.45117 -0.5625,-0.67969 -0.35157,-0.22852 -0.90821,-0.22852 -0.55078,0 -0.91406,0.22852 -0.35742,0.22852 -0.56836,0.69141 -0.19922,0.43359 -0.27539,1.13086 -0.0703,0.69726 -0.0703,1.52929 0,0.91406 0.0644,1.5293 0.0644,0.61523 0.27539,1.10156 0.19336,0.45703 0.54492,0.69727 0.35742,0.24023 0.94336,0.24023 0.55078,0 0.91406,-0.22851 0.36329,-0.22852 0.5625,-0.69141 z"
               style="stroke:none"
               id="path4250" />
            <path
               d="m 165.59904,143.6738 -4.72266,0 0,-0.89063 1.81641,0 0,-5.84765 -1.81641,0 0,-0.79688 q 0.36914,0 0.79102,-0.0586 0.42187,-0.0645 0.63867,-0.18164 0.26953,-0.14649 0.42187,-0.36914 0.15821,-0.22852 0.18164,-0.60938 l 0.90821,0 0,7.86328 1.78125,0 0,0.89063 z"
               style="stroke:none"
               id="path4252" />
          </g>
          <path
             style="fill:none;stroke-width:2;stroke-dasharray:12, 4"
             clip-path="url(#clipPath2)"
             d="m 109.4428,124.4599 66,0 c 2.216,0 4,1.784 4,4 l 0,21 c 0,2.216 -1.784,4 -4,4 l -66,0 c -2.216,0 -4,-1.784 -4,-4 l 0,-21 c 0,-2.216 1.784,-4 4,-4 z"
             id="rect8811" />
        </g>
        <g
           id="g8813"
           transform="translate(-90,-63)"
           style="fill:#99cc00;stroke:#99cc00;shape-rendering:geometricPrecision;text-rendering:geometricPrecision">
          <path
             style="stroke:none"
             clip-path="url(#clipPath2)"
             d="m 109.4428,170.6898 66,0 c 2.216,0 4,1.784 4,4 l 0,21 c 0,2.216 -1.784,4 -4,4 l -66,0 c -2.216,0 -4,-1.784 -4,-4 l 0,-21 c 0,-2.216 1.784,-4 4,-4 z"
             id="rect8815" />
        </g>
        <g
           id="g8817"
           transform="translate(-90,-63)"
           stroke-miterlimit="1.45"
           style="font-family:sans-serif;stroke-linecap:butt;stroke-miterlimit:1.45000005;shape-rendering:geometricPrecision;text-rendering:geometricPrecision">
          <g
             clip-path="url(#clipPath2)"
             style="stroke:none"
             id="text8819">
            <path
               d="m 127.68302,189.9037 -5.74805,0 0,-8.72461 5.74805,0 0,1.03125 -4.58789,0 0,2.39063 4.58789,0 0,1.03125 -4.58789,0 0,3.24023 4.58789,0 0,1.03125 z"
               style="stroke:none"
               id="path4257" />
            <path
               d="m 135.86857,187.41347 q 0,0.50976 -0.24024,1.00781 -0.23437,0.49805 -0.66211,0.84375 -0.46875,0.375 -1.0957,0.58594 -0.62109,0.21093 -1.5,0.21093 -0.94336,0 -1.69922,-0.17578 -0.75,-0.17578 -1.52929,-0.52148 l 0,-1.45313 0.082,0 q 0.66211,0.55079 1.52929,0.84961 0.86719,0.29883 1.62891,0.29883 1.07813,0 1.67578,-0.4043 0.60352,-0.40429 0.60352,-1.07812 0,-0.58008 -0.28711,-0.85547 -0.28125,-0.27539 -0.86133,-0.42773 -0.43945,-0.11719 -0.95508,-0.19336 -0.50976,-0.0762 -1.08398,-0.19336 -1.16016,-0.2461 -1.72266,-0.83789 -0.55664,-0.59766 -0.55664,-1.55274 0,-1.0957 0.92578,-1.79297 0.92578,-0.70312 2.34961,-0.70312 0.91992,0 1.6875,0.17578 0.76758,0.17578 1.35938,0.43359 l 0,1.3711 -0.082,0 q -0.49804,-0.42188 -1.3125,-0.69727 -0.80859,-0.28125 -1.6582,-0.28125 -0.93164,0 -1.5,0.38672 -0.5625,0.38672 -0.5625,0.99609 0,0.54493 0.28125,0.85547 0.28125,0.31055 0.99024,0.47461 0.375,0.082 1.0664,0.19922 0.69141,0.11719 1.17188,0.24024 0.97265,0.25781 1.46484,0.77929 0.49219,0.52149 0.49219,1.45899 z"
               style="stroke:none"
               id="path4259" />
            <path
               d="m 143.95451,182.21034 -3.11719,0 0,7.69336 -1.16016,0 0,-7.69336 -3.11719,0 0,-1.03125 7.39454,0 0,1.03125 z"
               style="stroke:none"
               id="path4261" />
            <path
               d="m 150.81583,189.9037 -5.90625,0 0,-1.22461 q 0.61524,-0.52734 1.23047,-1.05469 0.6211,-0.52734 1.1543,-1.04882 1.125,-1.08985 1.54102,-1.72852 0.41601,-0.64453 0.41601,-1.38867 0,-0.67969 -0.45117,-1.06055 -0.44531,-0.38672 -1.24805,-0.38672 -0.5332,0 -1.15429,0.1875 -0.6211,0.1875 -1.2129,0.57422 l -0.0586,0 0,-1.23047 q 0.41602,-0.20507 1.10742,-0.375 0.69727,-0.16992 1.34766,-0.16992 1.3418,0 2.10351,0.65039 0.76172,0.64453 0.76172,1.75196 0,0.49804 -0.1289,0.93164 -0.12305,0.42773 -0.36914,0.81445 -0.22852,0.36328 -0.53907,0.71484 -0.30468,0.35157 -0.74414,0.7793 -0.62695,0.61523 -1.29492,1.19531 -0.66797,0.57422 -1.24805,1.06641 l 4.69336,0 0,1.00195 z"
               style="stroke:none"
               id="path4263" />
            <path
               d="m 158.44474,185.53847 q 0,2.34961 -0.73828,3.45117 -0.73242,1.0957 -2.2793,1.0957 -1.57031,0 -2.29687,-1.11328 -0.72071,-1.11328 -0.72071,-3.42187 0,-2.32618 0.73243,-3.4336 0.73242,-1.11328 2.28515,-1.11328 1.57031,0 2.29102,1.13086 0.72656,1.125 0.72656,3.4043 z m -1.54102,2.66015 q 0.20508,-0.47461 0.2754,-1.11328 0.0762,-0.64453 0.0762,-1.54687 0,-0.89063 -0.0762,-1.54688 -0.0703,-0.65625 -0.28125,-1.11328 -0.20508,-0.45117 -0.5625,-0.67969 -0.35157,-0.22851 -0.90821,-0.22851 -0.55078,0 -0.91406,0.22851 -0.35742,0.22852 -0.56836,0.69141 -0.19922,0.43359 -0.27539,1.13086 -0.0703,0.69726 -0.0703,1.5293 0,0.91406 0.0644,1.52929 0.0644,0.61524 0.27539,1.10157 0.19336,0.45703 0.54492,0.69726 0.35742,0.24024 0.94336,0.24024 0.55078,0 0.91406,-0.22852 0.36329,-0.22852 0.5625,-0.69141 z"
               style="stroke:none"
               id="path4265" />
            <path
               d="m 166.08537,185.53847 q 0,2.34961 -0.73829,3.45117 -0.73242,1.0957 -2.27929,1.0957 -1.57032,0 -2.29688,-1.11328 -0.7207,-1.11328 -0.7207,-3.42187 0,-2.32618 0.73242,-3.4336 0.73242,-1.11328 2.28516,-1.11328 1.57031,0 2.29101,1.13086 0.72657,1.125 0.72657,3.4043 z m -1.54102,2.66015 q 0.20508,-0.47461 0.27539,-1.11328 0.0762,-0.64453 0.0762,-1.54687 0,-0.89063 -0.0762,-1.54688 -0.0703,-0.65625 -0.28125,-1.11328 -0.20508,-0.45117 -0.5625,-0.67969 -0.35156,-0.22851 -0.9082,-0.22851 -0.55078,0 -0.91407,0.22851 -0.35742,0.22852 -0.56835,0.69141 -0.19922,0.43359 -0.2754,1.13086 -0.0703,0.69726 -0.0703,1.5293 0,0.91406 0.0645,1.52929 0.0644,0.61524 0.27539,1.10157 0.19336,0.45703 0.54492,0.69726 0.35742,0.24024 0.94336,0.24024 0.55078,0 0.91406,-0.22852 0.36328,-0.22852 0.5625,-0.69141 z"
               style="stroke:none"
               id="path4267" />
          </g>
          <path
             style="fill:none;stroke-width:2;stroke-dasharray:12, 4"
             clip-path="url(#clipPath2)"
             d="m 109.4428,170.6898 66,0 c 2.216,0 4,1.784 4,4 l 0,21 c 0,2.216 -1.784,4 -4,4 l -66,0 c -2.216,0 -4,-1.784 -4,-4 l 0,-21 c 0,-2.216 1.784,-4 4,-4 z"
             id="rect8821" />
        </g>
        <g
           id="g8823"
           transform="translate(-90,-63)"
           style="fill:#99cc00;stroke:#99cc00;shape-rendering:geometricPrecision;text-rendering:geometricPrecision">
          <path
             style="stroke:none"
             clip-path="url(#clipPath2)"
             d="m 109.4428,216.3797 66,0 c 2.216,0 4,1.784 4,4 l 0,21 c 0,2.216 -1.784,4 -4,4 l -66,0 c -2.216,0 -4,-1.784 -4,-4 l 0,-21 c 0,-2.216 1.784,-4 4,-4 z"
             id="rect8825" />
        </g>
        <g
           id="g8827"
           transform="translate(-90,-63)"
           stroke-miterlimit="1.45"
           style="font-family:sans-serif;stroke-linecap:butt;stroke-miterlimit:1.45000005;shape-rendering:geometricPrecision;text-rendering:geometricPrecision">
          <g
             clip-path="url(#clipPath2)"
             style="stroke:none"
             id="text8829">
            <path
               d="m 127.68302,235.59351 -5.74805,0 0,-8.72461 5.74805,0 0,1.03125 -4.58789,0 0,2.39062 4.58789,0 0,1.03125 -4.58789,0 0,3.24024 4.58789,0 0,1.03125 z"
               style="stroke:none"
               id="path4272" />
            <path
               d="m 135.86857,233.10327 q 0,0.50977 -0.24024,1.00781 -0.23437,0.49805 -0.66211,0.84375 -0.46875,0.375 -1.0957,0.58594 -0.62109,0.21094 -1.5,0.21094 -0.94336,0 -1.69922,-0.17578 -0.75,-0.17578 -1.52929,-0.52149 l 0,-1.45312 0.082,0 q 0.66211,0.55078 1.52929,0.84961 0.86719,0.29883 1.62891,0.29883 1.07813,0 1.67578,-0.4043 0.60352,-0.4043 0.60352,-1.07813 0,-0.58007 -0.28711,-0.85546 -0.28125,-0.2754 -0.86133,-0.42774 -0.43945,-0.11719 -0.95508,-0.19336 -0.50976,-0.0762 -1.08398,-0.19336 -1.16016,-0.24609 -1.72266,-0.83789 -0.55664,-0.59765 -0.55664,-1.55273 0,-1.09571 0.92578,-1.79297 0.92578,-0.70313 2.34961,-0.70313 0.91992,0 1.6875,0.17578 0.76758,0.17579 1.35938,0.4336 l 0,1.37109 -0.082,0 q -0.49804,-0.42187 -1.3125,-0.69726 -0.80859,-0.28125 -1.6582,-0.28125 -0.93164,0 -1.5,0.38672 -0.5625,0.38671 -0.5625,0.99609 0,0.54492 0.28125,0.85547 0.28125,0.31054 0.99024,0.47461 0.375,0.082 1.0664,0.19922 0.69141,0.11718 1.17188,0.24023 0.97265,0.25781 1.46484,0.7793 0.49219,0.52148 0.49219,1.45898 z"
               style="stroke:none"
               id="path4274" />
            <path
               d="m 143.95451,227.90015 -3.11719,0 0,7.69336 -1.16016,0 0,-7.69336 -3.11719,0 0,-1.03125 7.39454,0 0,1.03125 z"
               style="stroke:none"
               id="path4276" />
            <path
               d="m 150.81583,235.59351 -5.90625,0 0,-1.22461 q 0.61524,-0.52735 1.23047,-1.05469 0.6211,-0.52734 1.1543,-1.04883 1.125,-1.08984 1.54102,-1.72851 0.41601,-0.64454 0.41601,-1.38868 0,-0.67968 -0.45117,-1.06054 -0.44531,-0.38672 -1.24805,-0.38672 -0.5332,0 -1.15429,0.1875 -0.6211,0.1875 -1.2129,0.57422 l -0.0586,0 0,-1.23047 q 0.41602,-0.20508 1.10742,-0.375 0.69727,-0.16992 1.34766,-0.16992 1.3418,0 2.10351,0.65039 0.76172,0.64453 0.76172,1.75195 0,0.49805 -0.1289,0.93164 -0.12305,0.42773 -0.36914,0.81445 -0.22852,0.36328 -0.53907,0.71485 -0.30468,0.35156 -0.74414,0.77929 -0.62695,0.61524 -1.29492,1.19532 -0.66797,0.57422 -1.24805,1.0664 l 4.69336,0 0,1.00196 z"
               style="stroke:none"
               id="path4278" />
            <path
               d="m 158.44474,231.22827 q 0,2.34961 -0.73828,3.45117 -0.73242,1.09571 -2.2793,1.09571 -1.57031,0 -2.29687,-1.11328 -0.72071,-1.11329 -0.72071,-3.42188 0,-2.32617 0.73243,-3.43359 0.73242,-1.11328 2.28515,-1.11328 1.57031,0 2.29102,1.13085 0.72656,1.125 0.72656,3.4043 z m -1.54102,2.66016 q 0.20508,-0.47461 0.2754,-1.11328 0.0762,-0.64453 0.0762,-1.54688 0,-0.89062 -0.0762,-1.54687 -0.0703,-0.65625 -0.28125,-1.11328 -0.20508,-0.45118 -0.5625,-0.67969 -0.35157,-0.22852 -0.90821,-0.22852 -0.55078,0 -0.91406,0.22852 -0.35742,0.22851 -0.56836,0.6914 -0.19922,0.4336 -0.27539,1.13086 -0.0703,0.69727 -0.0703,1.5293 0,0.91406 0.0644,1.5293 0.0644,0.61523 0.27539,1.10156 0.19336,0.45703 0.54492,0.69727 0.35742,0.24023 0.94336,0.24023 0.55078,0 0.91406,-0.22852 0.36329,-0.22851 0.5625,-0.6914 z"
               style="stroke:none"
               id="path4280" />
            <path
               d="m 165.59904,235.59351 -4.72266,0 0,-0.89063 1.81641,0 0,-5.84766 -1.81641,0 0,-0.79687 q 0.36914,0 0.79102,-0.0586 0.42187,-0.0645 0.63867,-0.18164 0.26953,-0.14649 0.42187,-0.36915 0.15821,-0.22851 0.18164,-0.60937 l 0.90821,0 0,7.86328 1.78125,0 0,0.89063 z"
               style="stroke:none"
               id="path4282" />
          </g>
          <path
             style="fill:none;stroke-width:2;stroke-dasharray:12, 4"
             clip-path="url(#clipPath2)"
             d="m 109.4428,216.3797 66,0 c 2.216,0 4,1.784 4,4 l 0,21 c 0,2.216 -1.784,4 -4,4 l -66,0 c -2.216,0 -4,-1.784 -4,-4 l 0,-21 c 0,-2.216 1.784,-4 4,-4 z"
             id="rect8831" />
        </g>
        <g
           id="g8833"
           transform="translate(-90,-63)"
           style="fill:#99cc00;stroke:#99cc00;shape-rendering:geometricPrecision;text-rendering:geometricPrecision">
          <path
             style="stroke:none"
             clip-path="url(#clipPath2)"
             d="m 109.7713,262.06949 66,0 c 2.216,0 4,1.784 4,4 l 0,21 c 0,2.216 -1.784,4 -4,4 l -66,0 c -2.216,0 -4,-1.784 -4,-4 l 0,-21 c 0,-2.216 1.784,-4 4,-4 z"
             id="rect8835" />
        </g>
        <g
           id="g8837"
           transform="translate(-90,-63)"
           stroke-miterlimit="1.45"
           style="font-family:sans-serif;stroke-linecap:butt;stroke-miterlimit:1.45000005;shape-rendering:geometricPrecision;text-rendering:geometricPrecision">
          <g
             clip-path="url(#clipPath2)"
             style="stroke:none"
             id="text8839">
            <path
               d="m 128.01152,281.28339 -5.74805,0 0,-8.72461 5.74805,0 0,1.03125 -4.58789,0 0,2.39062 4.58789,0 0,1.03125 -4.58789,0 0,3.24024 4.58789,0 0,1.03125 z"
               style="stroke:none"
               id="path4287" />
            <path
               d="m 136.19707,278.79315 q 0,0.50977 -0.24024,1.00781 -0.23437,0.49805 -0.66211,0.84375 -0.46875,0.375 -1.0957,0.58594 -0.62109,0.21094 -1.5,0.21094 -0.94336,0 -1.69922,-0.17578 -0.75,-0.17578 -1.5293,-0.52149 l 0,-1.45312 0.082,0 q 0.66211,0.55078 1.52929,0.84961 0.86719,0.29883 1.62891,0.29883 1.07812,0 1.67578,-0.4043 0.60352,-0.4043 0.60352,-1.07813 0,-0.58007 -0.28711,-0.85546 -0.28125,-0.2754 -0.86133,-0.42774 -0.43945,-0.11719 -0.95508,-0.19336 -0.50977,-0.0762 -1.08398,-0.19336 -1.16016,-0.24609 -1.72266,-0.83789 -0.55664,-0.59765 -0.55664,-1.55273 0,-1.09571 0.92578,-1.79297 0.92578,-0.70313 2.34961,-0.70313 0.91992,0 1.6875,0.17578 0.76758,0.17579 1.35937,0.4336 l 0,1.37109 -0.082,0 q -0.49804,-0.42187 -1.3125,-0.69726 -0.80859,-0.28125 -1.6582,-0.28125 -0.93164,0 -1.5,0.38672 -0.5625,0.38671 -0.5625,0.99609 0,0.54492 0.28125,0.85547 0.28125,0.31054 0.99023,0.47461 0.375,0.082 1.06641,0.19922 0.69141,0.11718 1.17188,0.24023 0.97265,0.25781 1.46484,0.7793 0.49219,0.52148 0.49219,1.45898 z"
               style="stroke:none"
               id="path4289" />
            <path
               d="m 144.283,273.59003 -3.11718,0 0,7.69336 -1.16016,0 0,-7.69336 -3.11719,0 0,-1.03125 7.39453,0 0,1.03125 z"
               style="stroke:none"
               id="path4291" />
            <path
               d="m 150.37675,277.08221 q 0.28125,0.25196 0.4629,0.63282 0.18164,0.38086 0.18164,0.98437 0,0.59766 -0.2168,1.0957 -0.2168,0.49805 -0.60938,0.86719 -0.43945,0.41016 -1.03711,0.60938 -0.59179,0.19336 -1.30078,0.19336 -0.72656,0 -1.42968,-0.17578 -0.70313,-0.16993 -1.1543,-0.375 l 0,-1.22461 0.0879,0 q 0.49805,0.32812 1.17187,0.54492 0.67383,0.21679 1.30079,0.21679 0.36914,0 0.78515,-0.12304 0.41602,-0.12305 0.67383,-0.36328 0.26953,-0.25782 0.39844,-0.56836 0.13476,-0.31055 0.13476,-0.78516 0,-0.46875 -0.15234,-0.77344 -0.14648,-0.31054 -0.41016,-0.48632 -0.26367,-0.18165 -0.63867,-0.2461 -0.375,-0.0703 -0.80859,-0.0703 l -0.52735,0 0,-0.97266 0.41016,0 q 0.89063,0 1.41797,-0.36914 0.5332,-0.375 0.5332,-1.08984 0,-0.31641 -0.13476,-0.55078 -0.13477,-0.24024 -0.375,-0.39258 -0.25196,-0.15234 -0.53907,-0.21094 -0.28711,-0.0586 -0.65039,-0.0586 -0.55664,0 -1.18359,0.19922 -0.62695,0.19922 -1.18359,0.5625 l -0.0586,0 0,-1.22461 q 0.41602,-0.20508 1.10742,-0.375 0.69727,-0.17578 1.34766,-0.17578 0.63867,0 1.125,0.11718 0.48633,0.11719 0.87891,0.375 0.42187,0.28125 0.63867,0.67969 0.2168,0.39844 0.2168,0.93164 0,0.72656 -0.51563,1.27149 -0.50977,0.53906 -1.20703,0.67968 l 0,0.082 q 0.28125,0.0469 0.64453,0.19922 0.36328,0.14649 0.61523,0.36914 z"
               style="stroke:none"
               id="path4293" />
            <path
               d="m 158.77324,276.91815 q 0,2.34961 -0.73828,3.45117 -0.73242,1.09571 -2.2793,1.09571 -1.57031,0 -2.29687,-1.11328 -0.72071,-1.11329 -0.72071,-3.42188 0,-2.32617 0.73242,-3.43359 0.73243,-1.11328 2.28516,-1.11328 1.57031,0 2.29102,1.13085 0.72656,1.125 0.72656,3.4043 z m -1.54102,2.66016 q 0.20508,-0.47461 0.27539,-1.11328 0.0762,-0.64453 0.0762,-1.54688 0,-0.89062 -0.0762,-1.54687 -0.0703,-0.65625 -0.28125,-1.11328 -0.20507,-0.45118 -0.5625,-0.67969 -0.35156,-0.22852 -0.9082,-0.22852 -0.55078,0 -0.91406,0.22852 -0.35742,0.22851 -0.56836,0.6914 -0.19922,0.4336 -0.27539,1.13086 -0.0703,0.69727 -0.0703,1.5293 0,0.91406 0.0644,1.5293 0.0645,0.61523 0.27539,1.10156 0.19336,0.45703 0.54492,0.69727 0.35742,0.24023 0.94336,0.24023 0.55078,0 0.91406,-0.22852 0.36328,-0.22851 0.5625,-0.6914 z"
               style="stroke:none"
               id="path4295" />
            <path
               d="m 166.41386,276.91815 q 0,2.34961 -0.73828,3.45117 -0.73242,1.09571 -2.27929,1.09571 -1.57032,0 -2.29688,-1.11328 -0.7207,-1.11329 -0.7207,-3.42188 0,-2.32617 0.73242,-3.43359 0.73242,-1.11328 2.28516,-1.11328 1.57031,0 2.29101,1.13085 0.72656,1.125 0.72656,3.4043 z m -1.54101,2.66016 q 0.20508,-0.47461 0.27539,-1.11328 0.0762,-0.64453 0.0762,-1.54688 0,-0.89062 -0.0762,-1.54687 -0.0703,-0.65625 -0.28125,-1.11328 -0.20508,-0.45118 -0.5625,-0.67969 -0.35156,-0.22852 -0.9082,-0.22852 -0.55079,0 -0.91407,0.22852 -0.35742,0.22851 -0.56836,0.6914 -0.19921,0.4336 -0.27539,1.13086 -0.0703,0.69727 -0.0703,1.5293 0,0.91406 0.0644,1.5293 0.0645,0.61523 0.27539,1.10156 0.19336,0.45703 0.54493,0.69727 0.35742,0.24023 0.94336,0.24023 0.55078,0 0.91406,-0.22852 0.36328,-0.22851 0.5625,-0.6914 z"
               style="stroke:none"
               id="path4297" />
          </g>
          <path
             style="fill:none;stroke-width:2;stroke-dasharray:12, 4"
             clip-path="url(#clipPath2)"
             d="m 109.7713,262.06949 66,0 c 2.216,0 4,1.784 4,4 l 0,21 c 0,2.216 -1.784,4 -4,4 l -66,0 c -2.216,0 -4,-1.784 -4,-4 l 0,-21 c 0,-2.216 1.784,-4 4,-4 z"
             id="rect8841" />
        </g>
        <g
           id="g8843"
           transform="translate(-90,-63)"
           style="fill:#99cc00;stroke:#99cc00;shape-rendering:geometricPrecision;text-rendering:geometricPrecision">
          <path
             style="stroke:none"
             clip-path="url(#clipPath2)"
             d="m 109.7713,307.75931 66,0 c 2.216,0 4,1.784 4,4 l 0,21 c 0,2.216 -1.784,4 -4,4 l -66,0 c -2.216,0 -4,-1.784 -4,-4 l 0,-21 c 0,-2.216 1.784,-4 4,-4 z"
             id="rect8845" />
        </g>
        <g
           id="g8847"
           transform="translate(-90,-63)"
           stroke-miterlimit="1.45"
           style="font-family:sans-serif;stroke-linecap:butt;stroke-miterlimit:1.45000005;shape-rendering:geometricPrecision;text-rendering:geometricPrecision">
          <g
             clip-path="url(#clipPath2)"
             style="stroke:none"
             id="text8849">
            <path
               d="m 128.01152,326.97321 -5.74805,0 0,-8.72461 5.74805,0 0,1.03125 -4.58789,0 0,2.39062 4.58789,0 0,1.03125 -4.58789,0 0,3.24024 4.58789,0 0,1.03125 z"
               style="stroke:none"
               id="path4302" />
            <path
               d="m 136.19707,324.48297 q 0,0.50977 -0.24024,1.00781 -0.23437,0.49805 -0.66211,0.84375 -0.46875,0.375 -1.0957,0.58594 -0.62109,0.21094 -1.5,0.21094 -0.94336,0 -1.69922,-0.17578 -0.75,-0.17578 -1.5293,-0.52149 l 0,-1.45312 0.082,0 q 0.66211,0.55078 1.52929,0.84961 0.86719,0.29883 1.62891,0.29883 1.07812,0 1.67578,-0.4043 0.60352,-0.4043 0.60352,-1.07813 0,-0.58007 -0.28711,-0.85547 -0.28125,-0.27539 -0.86133,-0.42773 -0.43945,-0.11719 -0.95508,-0.19336 -0.50977,-0.0762 -1.08398,-0.19336 -1.16016,-0.24609 -1.72266,-0.83789 -0.55664,-0.59766 -0.55664,-1.55273 0,-1.09571 0.92578,-1.79297 0.92578,-0.70313 2.34961,-0.70313 0.91992,0 1.6875,0.17578 0.76758,0.17579 1.35937,0.4336 l 0,1.37109 -0.082,0 q -0.49804,-0.42187 -1.3125,-0.69726 -0.80859,-0.28125 -1.6582,-0.28125 -0.93164,0 -1.5,0.38671 -0.5625,0.38672 -0.5625,0.9961 0,0.54492 0.28125,0.85547 0.28125,0.31054 0.99023,0.47461 0.375,0.082 1.06641,0.19922 0.69141,0.11718 1.17188,0.24023 0.97265,0.25781 1.46484,0.7793 0.49219,0.52148 0.49219,1.45898 z"
               style="stroke:none"
               id="path4304" />
            <path
               d="m 144.283,319.27985 -3.11718,0 0,7.69336 -1.16016,0 0,-7.69336 -3.11719,0 0,-1.03125 7.39453,0 0,1.03125 z"
               style="stroke:none"
               id="path4306" />
            <path
               d="m 151.34355,324.51813 -1.29492,0 0,2.45508 -1.125,0 0,-2.45508 -4.17773,0 0,-1.34766 4.2246,-4.92187 1.07813,0 0,5.33203 1.29492,0 0,0.9375 z m -2.41992,-0.9375 0,-3.9375 -3.38086,3.9375 3.38086,0 z"
               style="stroke:none"
               id="path4308" />
            <path
               d="m 158.77324,322.60797 q 0,2.34961 -0.73828,3.45117 -0.73242,1.09571 -2.2793,1.09571 -1.57031,0 -2.29687,-1.11329 -0.72071,-1.11328 -0.72071,-3.42187 0,-2.32617 0.73242,-3.43359 0.73243,-1.11329 2.28516,-1.11329 1.57031,0 2.29102,1.13086 0.72656,1.125 0.72656,3.4043 z m -1.54102,2.66016 q 0.20508,-0.47461 0.27539,-1.11328 0.0762,-0.64454 0.0762,-1.54688 0,-0.89062 -0.0762,-1.54687 -0.0703,-0.65625 -0.28125,-1.11329 -0.20507,-0.45117 -0.5625,-0.67968 -0.35156,-0.22852 -0.9082,-0.22852 -0.55078,0 -0.91406,0.22852 -0.35742,0.22851 -0.56836,0.6914 -0.19922,0.4336 -0.27539,1.13086 -0.0703,0.69727 -0.0703,1.5293 0,0.91406 0.0644,1.5293 0.0645,0.61523 0.27539,1.10156 0.19336,0.45703 0.54492,0.69726 0.35742,0.24024 0.94336,0.24024 0.55078,0 0.91406,-0.22852 0.36328,-0.22851 0.5625,-0.6914 z"
               style="stroke:none"
               id="path4310" />
            <path
               d="m 166.41386,322.60797 q 0,2.34961 -0.73828,3.45117 -0.73242,1.09571 -2.27929,1.09571 -1.57032,0 -2.29688,-1.11329 -0.7207,-1.11328 -0.7207,-3.42187 0,-2.32617 0.73242,-3.43359 0.73242,-1.11329 2.28516,-1.11329 1.57031,0 2.29101,1.13086 0.72656,1.125 0.72656,3.4043 z m -1.54101,2.66016 q 0.20508,-0.47461 0.27539,-1.11328 0.0762,-0.64454 0.0762,-1.54688 0,-0.89062 -0.0762,-1.54687 -0.0703,-0.65625 -0.28125,-1.11329 -0.20508,-0.45117 -0.5625,-0.67968 -0.35156,-0.22852 -0.9082,-0.22852 -0.55079,0 -0.91407,0.22852 -0.35742,0.22851 -0.56836,0.6914 -0.19921,0.4336 -0.27539,1.13086 -0.0703,0.69727 -0.0703,1.5293 0,0.91406 0.0644,1.5293 0.0645,0.61523 0.27539,1.10156 0.19336,0.45703 0.54493,0.69726 0.35742,0.24024 0.94336,0.24024 0.55078,0 0.91406,-0.22852 0.36328,-0.22851 0.5625,-0.6914 z"
               style="stroke:none"
               id="path4312" />
          </g>
          <path
             style="fill:none;stroke-width:2;stroke-dasharray:12, 4"
             clip-path="url(#clipPath2)"
             d="m 109.7713,307.75931 66,0 c 2.216,0 4,1.784 4,4 l 0,21 c 0,2.216 -1.784,4 -4,4 l -66,0 c -2.216,0 -4,-1.784 -4,-4 l 0,-21 c 0,-2.216 1.784,-4 4,-4 z"
             id="rect8851" />
        </g>
        <g
           id="g8853"
           transform="translate(-90,-63)"
           style="fill:#99ccff;stroke:#99ccff;shape-rendering:geometricPrecision;text-rendering:geometricPrecision">
          <path
             style="stroke:none"
             clip-path="url(#clipPath2)"
             d="m 246.44279,262.06949 66,0 c 2.216,0 4,1.784 4,4 l 0,21 c 0,2.216 -1.784,4 -4,4 l -66,0 c -2.216,0 -4,-1.784 -4,-4 l 0,-21 c 0,-2.216 1.784,-4 4,-4 z"
             id="rect8855" />
        </g>
        <g
           id="g8857"
           transform="translate(-90,-63)"
           stroke-miterlimit="1.45"
           style="font-family:sans-serif;stroke-linecap:butt;stroke-miterlimit:1.45000005;shape-rendering:geometricPrecision;text-rendering:geometricPrecision">
          <g
             clip-path="url(#clipPath2)"
             style="stroke:none"
             id="text8859">
            <path
               d="m 264.68314,281.28339 -5.74805,0 0,-8.72461 5.74805,0 0,1.03125 -4.58789,0 0,2.39062 4.58789,0 0,1.03125 -4.58789,0 0,3.24024 4.58789,0 0,1.03125 z"
               style="stroke:none"
               id="path4317" />
            <path
               d="m 272.86868,278.79315 q 0,0.50977 -0.24023,1.00781 -0.23438,0.49805 -0.66211,0.84375 -0.46875,0.375 -1.0957,0.58594 -0.6211,0.21094 -1.5,0.21094 -0.94336,0 -1.69922,-0.17578 -0.75,-0.17578 -1.5293,-0.52149 l 0,-1.45312 0.082,0 q 0.66211,0.55078 1.5293,0.84961 0.86719,0.29883 1.6289,0.29883 1.07813,0 1.67579,-0.4043 0.60351,-0.4043 0.60351,-1.07813 0,-0.58007 -0.28711,-0.85546 -0.28125,-0.2754 -0.86133,-0.42774 -0.43945,-0.11719 -0.95507,-0.19336 -0.50977,-0.0762 -1.08399,-0.19336 -1.16015,-0.24609 -1.72265,-0.83789 -0.55665,-0.59765 -0.55665,-1.55273 0,-1.09571 0.92579,-1.79297 0.92578,-0.70313 2.34961,-0.70313 0.91992,0 1.6875,0.17578 0.76757,0.17579 1.35937,0.4336 l 0,1.37109 -0.082,0 q -0.49805,-0.42187 -1.3125,-0.69726 -0.80859,-0.28125 -1.6582,-0.28125 -0.93164,0 -1.5,0.38672 -0.5625,0.38671 -0.5625,0.99609 0,0.54492 0.28125,0.85547 0.28125,0.31054 0.99023,0.47461 0.375,0.082 1.06641,0.19922 0.6914,0.11718 1.17187,0.24023 0.97266,0.25781 1.46485,0.7793 0.49218,0.52148 0.49218,1.45898 z"
               style="stroke:none"
               id="path4319" />
            <path
               d="m 280.95462,273.59003 -3.11719,0 0,7.69336 -1.16015,0 0,-7.69336 -3.11719,0 0,-1.03125 7.39453,0 0,1.03125 z"
               style="stroke:none"
               id="path4321" />
            <path
               d="m 288.01517,278.82831 -1.29492,0 0,2.45508 -1.125,0 0,-2.45508 -4.17774,0 0,-1.34766 4.22461,-4.92187 1.07813,0 0,5.33203 1.29492,0 0,0.9375 z m -2.41992,-0.9375 0,-3.9375 -3.38086,3.9375 3.38086,0 z"
               style="stroke:none"
               id="path4323" />
            <path
               d="m 295.45657,281.28339 -5.90625,0 0,-1.22461 q 0.61524,-0.52735 1.23047,-1.05469 0.6211,-0.52734 1.1543,-1.04883 1.125,-1.08984 1.54101,-1.72851 0.41602,-0.64454 0.41602,-1.38868 0,-0.67968 -0.45117,-1.06054 -0.44531,-0.38672 -1.24805,-0.38672 -0.5332,0 -1.1543,0.1875 -0.62109,0.1875 -1.21289,0.57422 l -0.0586,0 0,-1.23047 q 0.41602,-0.20508 1.10742,-0.375 0.69727,-0.16992 1.34766,-0.16992 1.3418,0 2.10351,0.65039 0.76172,0.64453 0.76172,1.75195 0,0.49805 -0.1289,0.93164 -0.12305,0.42773 -0.36914,0.81445 -0.22852,0.36328 -0.53907,0.71485 -0.30468,0.35156 -0.74414,0.77929 -0.62695,0.61524 -1.29492,1.19532 -0.66797,0.57422 -1.24805,1.0664 l 4.69336,0 0,1.00196 z"
               style="stroke:none"
               id="path4325" />
            <path
               d="m 303.08548,276.91815 q 0,2.34961 -0.73828,3.45117 -0.73242,1.09571 -2.2793,1.09571 -1.57031,0 -2.29687,-1.11328 -0.72071,-1.11329 -0.72071,-3.42188 0,-2.32617 0.73243,-3.43359 0.73242,-1.11328 2.28515,-1.11328 1.57031,0 2.29102,1.13085 0.72656,1.125 0.72656,3.4043 z m -1.54102,2.66016 q 0.20508,-0.47461 0.27539,-1.11328 0.0762,-0.64453 0.0762,-1.54688 0,-0.89062 -0.0762,-1.54687 -0.0703,-0.65625 -0.28125,-1.11328 -0.20507,-0.45118 -0.5625,-0.67969 -0.35156,-0.22852 -0.9082,-0.22852 -0.55078,0 -0.91406,0.22852 -0.35742,0.22851 -0.56836,0.6914 -0.19922,0.4336 -0.27539,1.13086 -0.0703,0.69727 -0.0703,1.5293 0,0.91406 0.0645,1.5293 0.0644,0.61523 0.27539,1.10156 0.19336,0.45703 0.54492,0.69727 0.35742,0.24023 0.94336,0.24023 0.55078,0 0.91406,-0.22852 0.36329,-0.22851 0.5625,-0.6914 z"
               style="stroke:none"
               id="path4327" />
          </g>
          <path
             style="fill:none;stroke-width:2;stroke-dasharray:12, 4"
             clip-path="url(#clipPath2)"
             d="m 246.44279,262.06949 66,0 c 2.216,0 4,1.784 4,4 l 0,21 c 0,2.216 -1.784,4 -4,4 l -66,0 c -2.216,0 -4,-1.784 -4,-4 l 0,-21 c 0,-2.216 1.784,-4 4,-4 z"
             id="rect8861" />
        </g>
        <g
           id="g8863"
           transform="translate(-90,-63)"
           style="fill:#99ccff;stroke:#99ccff;shape-rendering:geometricPrecision;text-rendering:geometricPrecision">
          <path
             style="stroke:none"
             clip-path="url(#clipPath2)"
             d="m 246.44279,307.75931 66,0 c 2.216,0 4,1.784 4,4 l 0,21 c 0,2.216 -1.784,4 -4,4 l -66,0 c -2.216,0 -4,-1.784 -4,-4 l 0,-21 c 0,-2.216 1.784,-4 4,-4 z"
             id="rect8865" />
        </g>
        <g
           id="g8867"
           transform="translate(-90,-63)"
           stroke-miterlimit="1.45"
           style="font-family:sans-serif;stroke-linecap:butt;stroke-miterlimit:1.45000005;shape-rendering:geometricPrecision;text-rendering:geometricPrecision">
          <g
             clip-path="url(#clipPath2)"
             style="stroke:none"
             id="text8869">
            <path
               d="m 264.68314,326.97321 -5.74805,0 0,-8.72461 5.74805,0 0,1.03125 -4.58789,0 0,2.39062 4.58789,0 0,1.03125 -4.58789,0 0,3.24024 4.58789,0 0,1.03125 z"
               style="stroke:none"
               id="path4332" />
            <path
               d="m 272.86868,324.48297 q 0,0.50977 -0.24023,1.00781 -0.23438,0.49805 -0.66211,0.84375 -0.46875,0.375 -1.0957,0.58594 -0.6211,0.21094 -1.5,0.21094 -0.94336,0 -1.69922,-0.17578 -0.75,-0.17578 -1.5293,-0.52149 l 0,-1.45312 0.082,0 q 0.66211,0.55078 1.5293,0.84961 0.86719,0.29883 1.6289,0.29883 1.07813,0 1.67579,-0.4043 0.60351,-0.4043 0.60351,-1.07813 0,-0.58007 -0.28711,-0.85547 -0.28125,-0.27539 -0.86133,-0.42773 -0.43945,-0.11719 -0.95507,-0.19336 -0.50977,-0.0762 -1.08399,-0.19336 -1.16015,-0.24609 -1.72265,-0.83789 -0.55665,-0.59766 -0.55665,-1.55273 0,-1.09571 0.92579,-1.79297 0.92578,-0.70313 2.34961,-0.70313 0.91992,0 1.6875,0.17578 0.76757,0.17579 1.35937,0.4336 l 0,1.37109 -0.082,0 q -0.49805,-0.42187 -1.3125,-0.69726 -0.80859,-0.28125 -1.6582,-0.28125 -0.93164,0 -1.5,0.38671 -0.5625,0.38672 -0.5625,0.9961 0,0.54492 0.28125,0.85547 0.28125,0.31054 0.99023,0.47461 0.375,0.082 1.06641,0.19922 0.6914,0.11718 1.17187,0.24023 0.97266,0.25781 1.46485,0.7793 0.49218,0.52148 0.49218,1.45898 z"
               style="stroke:none"
               id="path4334" />
            <path
               d="m 280.95462,319.27985 -3.11719,0 0,7.69336 -1.16015,0 0,-7.69336 -3.11719,0 0,-1.03125 7.39453,0 0,1.03125 z"
               style="stroke:none"
               id="path4336" />
            <path
               d="m 288.01517,324.51813 -1.29492,0 0,2.45508 -1.125,0 0,-2.45508 -4.17774,0 0,-1.34766 4.22461,-4.92187 1.07813,0 0,5.33203 1.29492,0 0,0.9375 z m -2.41992,-0.9375 0,-3.9375 -3.38086,3.9375 3.38086,0 z"
               style="stroke:none"
               id="path4338" />
            <path
               d="m 295.45657,326.97321 -5.90625,0 0,-1.22461 q 0.61524,-0.52735 1.23047,-1.05469 0.6211,-0.52735 1.1543,-1.04883 1.125,-1.08984 1.54101,-1.72852 0.41602,-0.64453 0.41602,-1.38867 0,-0.67968 -0.45117,-1.06054 -0.44531,-0.38672 -1.24805,-0.38672 -0.5332,0 -1.1543,0.1875 -0.62109,0.1875 -1.21289,0.57422 l -0.0586,0 0,-1.23047 q 0.41602,-0.20508 1.10742,-0.375 0.69727,-0.16992 1.34766,-0.16992 1.3418,0 2.10351,0.65039 0.76172,0.64453 0.76172,1.75195 0,0.49805 -0.1289,0.93164 -0.12305,0.42773 -0.36914,0.81445 -0.22852,0.36328 -0.53907,0.71485 -0.30468,0.35156 -0.74414,0.77929 -0.62695,0.61524 -1.29492,1.19532 -0.66797,0.57421 -1.24805,1.0664 l 4.69336,0 0,1.00196 z"
               style="stroke:none"
               id="path4340" />
            <path
               d="m 302.59915,326.97321 -4.72265,0 0,-0.89063 1.8164,0 0,-5.84766 -1.8164,0 0,-0.79687 q 0.36914,0 0.79101,-0.0586 0.42188,-0.0645 0.63867,-0.18165 0.26953,-0.14648 0.42188,-0.36914 0.1582,-0.22851 0.18164,-0.60937 l 0.9082,0 0,7.86328 1.78125,0 0,0.89063 z"
               style="stroke:none"
               id="path4342" />
          </g>
          <path
             style="fill:none;stroke-width:2;stroke-dasharray:12, 4"
             clip-path="url(#clipPath2)"
             d="m 246.44279,307.75931 66,0 c 2.216,0 4,1.784 4,4 l 0,21 c 0,2.216 -1.784,4 -4,4 l -66,0 c -2.216,0 -4,-1.784 -4,-4 l 0,-21 c 0,-2.216 1.784,-4 4,-4 z"
             id="rect8871" />
          <path
             id="path8873"
             clip-path="url(#clipPath2)"
             d="m 142.4428,107.2219 0,9.2638"
             inkscape:connector-curvature="0"
             style="fill:none" />
          <path
             id="path8875"
             clip-path="url(#clipPath2)"
             d="m 142.4428,124.4857 5,-12 -5,3 -5,-3 z"
             inkscape:connector-curvature="0"
             style="stroke:none" />
          <path
             id="path8877"
             clip-path="url(#clipPath2)"
             d="m 142.4428,153.4519 0,9.2637"
             inkscape:connector-curvature="0"
             style="fill:none" />
          <path
             id="path8879"
             clip-path="url(#clipPath2)"
             d="m 142.4428,170.7156 5,-12 -5,3 -5,-3 z"
             inkscape:connector-curvature="0"
             style="stroke:none" />
          <path
             id="path8881"
             clip-path="url(#clipPath2)"
             d="m 142.4428,199.691 0,8.6604"
             inkscape:connector-curvature="0"
             style="fill:none" />
          <path
             id="path8883"
             clip-path="url(#clipPath2)"
             d="m 142.4428,216.3514 5,-12 -5,3 -5,-3 z"
             inkscape:connector-curvature="0"
             style="stroke:none" />
          <path
             id="path8885"
             clip-path="url(#clipPath2)"
             d="m 142.5471,245.3808 0.0622,8.6606"
             inkscape:connector-curvature="0"
             style="fill:none" />
          <path
             id="path8887"
             clip-path="url(#clipPath2)"
             d="m 142.6669,262.0412 4.9136,-12.0356 -4.9783,3.0358 -5.0215,-2.9639 z"
             inkscape:connector-curvature="0"
             style="stroke:none" />
          <path
             id="path8889"
             clip-path="url(#clipPath2)"
             d="m 179.7754,276.5695 54.6328,0"
             inkscape:connector-curvature="0"
             style="fill:none" />
          <path
             id="path8891"
             clip-path="url(#clipPath2)"
             d="m 242.4082,276.5695 -12,-5 3,5 -3,5 z"
             inkscape:connector-curvature="0"
             style="stroke:none" />
          <path
             id="path8893"
             clip-path="url(#clipPath2)"
             d="m 179.375,310.0226 55.8591,-18.6739"
             inkscape:connector-curvature="0"
             style="fill:none" />
          <path
             id="path8895"
             clip-path="url(#clipPath2)"
             d="m 242.8213,288.8122 -12.9661,-0.9374 4.4305,3.7909 -1.26,5.6932 z"
             inkscape:connector-curvature="0"
             style="stroke:none" />
        </g>
      </g>
    </g>
    <rect
       style="fill:#bbff56;fill-opacity:0.47337281;stroke:none;stroke-width:1;stroke-miterlimit:10;stroke-dasharray:none;stroke-opacity:1"
       id="rect8963"
       width="147"
       height="348"
       x="64.000008"
       y="648.36212" />
    <rect
       style="fill:#bbffff;fill-opacity:0.47337281;stroke:none;stroke-width:1;stroke-miterlimit:10;stroke-dasharray:none;stroke-opacity:1"
       id="rect8963-9"
       width="128"
       height="348"
       x="210.50002"
       y="647.36212" />
    <text
       xml:space="preserve"
       style="font-style:normal;font-weight:normal;font-size:15px;line-height:125%;font-family:sans-serif;letter-spacing:0px;word-spacing:0px;color-interpolation:auto;fill:#000000;fill-opacity:1;stroke:none;stroke-width:1px;stroke-linecap:butt;stroke-linejoin:miter;stroke-miterlimit:10;stroke-dasharray:none;stroke-dashoffset:0;stroke-opacity:1;color-rendering:auto;image-rendering:auto;shape-rendering:auto;text-rendering:auto"
       x="101.40319"
       y="678.81256"
       id="text4214"
       sodipodi:linespacing="125%"><tspan
         sodipodi:role="line"
         x="101.40319"
         y="678.81256"
         id="tspan4216"><tspan
           x="101.40319"
           y="678.81256"
           style="font-style:normal;font-variant:normal;font-weight:normal;font-stretch:normal;font-size:15px;font-family:Verdana;-inkscape-font-specification:Verdana"
           id="tspan4218">Estonian </tspan></tspan><tspan
         sodipodi:role="line"
         x="101.40319"
         y="697.56256"
         id="tspan4220"><tspan
           x="101.40319"
           y="697.56256"
           style="font-style:normal;font-variant:normal;font-weight:normal;font-stretch:normal;font-size:15px;font-family:Verdana;-inkscape-font-specification:Verdana"
           id="tspan4222">Language</tspan></tspan></text>
    <text
       xml:space="preserve"
       style="font-style:normal;font-weight:normal;font-size:15px;line-height:125%;font-family:sans-serif;letter-spacing:0px;word-spacing:0px;color-interpolation:auto;fill:#000000;fill-opacity:1;stroke:none;stroke-width:1px;stroke-linecap:butt;stroke-linejoin:miter;stroke-miterlimit:10;stroke-dasharray:none;stroke-dashoffset:0;stroke-opacity:1;color-rendering:auto;image-rendering:auto;shape-rendering:auto;text-rendering:auto"
       x="226.1299"
       y="862.92755"
       id="text4204"
       sodipodi:linespacing="125%"><tspan
         sodipodi:role="line"
         x="226.1299"
         y="862.92755"
         id="tspan4206"><tspan
           x="226.1299"
           y="862.92755"
           style="font-style:normal;font-variant:normal;font-weight:normal;font-stretch:normal;font-size:15px;font-family:Verdana;-inkscape-font-specification:Verdana"
           id="tspan4208">Independent </tspan></tspan><tspan
         sodipodi:role="line"
         x="226.1299"
         y="881.67755"
         id="tspan4210"><tspan
           x="226.1299"
           y="881.67755"
           style="font-style:normal;font-variant:normal;font-weight:normal;font-stretch:normal;font-size:15px;font-family:Verdana;-inkscape-font-specification:Verdana"
           id="tspan4212">Study</tspan></tspan></text>
  </g>
</svg>
