<?xml version="1.0" encoding="UTF-8" standalone="no"?>
<svg xmlns="http://www.w3.org/2000/svg" width="336.25" height="73.925">
  <g fill="#0f2d5b">
    <path d="M29.55 61.34c-1.29 1.623-4.033 3.37-7.34 4.68l-.156.056c-1.306.52-2.438.968-3.116 1.727-.16.18-.265.394-.32.622-.026-.143-.048-.312-.048-.516v-2.1c0-1.83 1.584-2.56 3.596-3.48.72-.33 1.466-.67 2.214-1.1 1.73-.99 3.994-2.71 4.66-4.3.36-.85.355-1.52.24-2.03l.014.03.6 1.25.443.94c.44.91.657 2.38-.786 4.19zm-7.455 6.518l.263.215c.098.077.18.154.25.234.003.004.007.012.016.015.008.015.013.026.024.037.078.12.086.26.028.4-.21.51-1.19 1.02-2.665 1.01h-.31l-.45-.46-.16-.15c-.21-.21-.2-.78.12-1.13.42-.47 1.05-.81 1.8-1.15.29.3.73.66 1.1.96zm.822 1.198c.01.08.013.168.013.26v2.963c0 .94-1.572 1.28-2.92 1.28h-9.008c-1.348 0-2.918-.34-2.918-1.29v-2.96c0-.09.004-.18.016-.26.346.55 1.346 1.09 2.905 1.07h9.006c1.56.01 2.56-.52 2.91-1.08zm-14.55-.697c.01-.02.017-.03.03-.04 0-.01.004-.02.012-.02.07-.08.15-.16.24-.24l.27-.22c.36-.29.8-.65 1.08-.96.74.33 1.38.67 1.8 1.14.31.35.32.92.11 1.13-.05.04-.11.1-.17.15l-.45.45H11c-1.47.01-2.452-.5-2.662-1.01-.06-.15-.05-.28.027-.41zm.596-2.29l-.152-.06c-3.31-1.3-6.05-3.05-7.34-4.67-1.44-1.82-1.23-3.29-.79-4.2l.45-.95.6-1.25c.01-.02.02-.02.02-.03-.12.5-.12 1.18.23 2.03.68 1.59 2.94 3.31 4.67 4.3.75.42 1.49.76 2.21 1.09 2.01.92 3.6 1.64 3.6 3.47v2.1c0 .2-.02.37-.05.51-.05-.23-.15-.45-.31-.63-.68-.76-1.81-1.21-3.11-1.73zM2.327 54.39c.28-.464.732-.767 1.2-.807.008 0 .01-.004.016-.004.056-.01.11-.01.164-.01.605 1.02 1.25 1.97 1.918 2.86-.305.1-.676.09-1.013-.05-.337-.14-.584-.38-.67-.66-.016-.07-.075-.12-.14-.13-.068-.01-.135.01-.174.07l-1.09 1.58c-.088-.15-.175-.3-.24-.46-.373-.91-.365-1.76.03-2.41zM.413 25.323h30.185v11.495H.413V25.324zm25.04 31.507c.34.07.73.04 1.086-.11.32-.13.54-.358.7-.614.19.28.81 1.172 1.01 1.47-.35.484-.81.958-1.32 1.405l-1.49-2.15zM4.07 58.982c-.506-.447-.967-.92-1.316-1.404.205-.3.818-1.19 1.016-1.47.156.254.382.48.706.612.353.15.74.176 1.088.106L4.07 58.984zM19.01 69.58l.19.195h-7.38l.19-.198c.43-.398.8-.74.8-1.67v-2.1c0-2.056-1.766-2.86-3.812-3.798-.71-.33-1.447-.66-2.183-1.09-.666-.38-1.603-.99-2.468-1.71l1.613-2.34c4.295 5.52 9.37 8.48 9.458 8.52.05.03.12.03.176 0 .09-.05 5.163-3.01 9.458-8.53l1.613 2.34c-.856.71-1.797 1.33-2.462 1.7-.736.42-1.47.75-2.183 1.08-2.047.93-3.81 1.74-3.81 3.8v2.1c0 .92.37 1.27.798 1.67zm9.68-15.187c.395.654.402 1.508.028 2.41-.066.155-.15.304-.24.457l-1.09-1.575c-.035-.054-.103-.08-.175-.07-.062.01-.12.06-.14.125-.083.277-.327.517-.667.657s-.714.146-1.017.044c.67-.89 1.31-1.85 1.91-2.87.06.01.12.01.17.02.01 0 .01.01.01.01.47.04.92.35 1.2.81zM.414 37.176H30.6v3.403c0 15.25-14.154 23.9-15.096 24.46-.938-.56-15.09-9.22-15.09-24.47v-3.4zm30.25 19.82l-.445-.95-.61-1.262c-.48-.924-1.22-1.465-2.12-1.552 2-3.517 3.45-7.747 3.45-12.653V25.14c0-.095-.08-.18-.18-.18H.23c-.1 0-.18.085-.18.18v15.44c0 4.905 1.45 9.135 3.455 12.652-.89.087-1.635.632-2.106 1.552l-.6 1.27-.43.94c-.4.82-.81 2.5.83 4.57 1.32 1.666 4.13 3.456 7.49 4.786l.15.06c.29.11.56.22.83.33-.27.27-.66.58-.96.83l-.27.22c-.07.05-.14.11-.19.16h-.02c-.03.023-.04.045-.06.067-.28.31-.44.665-.44 1.276v2.96c0 1.21 1.69 1.643 3.27 1.643h9.01c1.58 0 3.28-.435 3.28-1.646V69.3c0-.61-.16-.965-.44-1.272-.03-.02-.04-.044-.06-.066-.01-.005-.01 0-.02-.01-.06-.054-.12-.112-.19-.163l-.27-.22c-.31-.25-.69-.57-.97-.84.26-.11.54-.21.83-.33l.15-.06c3.36-1.33 6.16-3.12 7.49-4.79 1.64-2.07 1.23-3.75.83-4.57"/>
    <path fill-rule="evenodd" d="M17.76 70.74c-.094.02-.184.037-.275.055-.275.088-.465.27-.602.5-.05.092-.087.212-.11.325-.033.132-.033.336-.007.475.097.516.362.79.887.873.87.14 1.42-.84 1.117-1.628-.154-.39-.458-.607-1.01-.6zm.115 2.01c-.56.093-.792-.633-.676-1.17.05-.25.16-.486.38-.577.05-.015.11-.03.17-.044.14 0 .24.01.33.06.49.29.47 1.61-.21 1.72zM28.19 60.09c-.293-.286-.643-.326-1.117-.045-.07.066-.144.128-.213.197-.198.215-.286.48-.306.76-.01.11.007.24.034.357.024.13.122.35.194.46.3.42.638.54 1.122.34.808-.32.87-1.53.285-2.09h-.01zm-.183 1.77c-.448.377-.944-.2-1.064-.756-.063-.26-.063-.533.09-.726.04-.04.082-.084.13-.128.114-.074.21-.11.305-.107.55.022 1.08 1.267.54 1.717zm-16.852 8.89c-.074-.017-.235-.013-.306.01-.25.648-.49 1.3-.74 1.946-.05.022-.14.022-.19.022v.21h.75v-.214c-.08 0-.16-.004-.25-.007l.12-.384c.25-.003.49-.007.73-.007.06.098.12.27.13.39-.08.008-.15.012-.23.012v.21H12v-.214c-.065 0-.13-.004-.19-.007-.227-.658-.455-1.31-.68-1.966zm-.523 1.363c.094-.295.198-.59.296-.887.008.004.013.004.02.008l.286.88h-.602zm3.328.413c-.088-.163-.225-.522-.397-.577 0-.01-.003-.02-.004-.03.37-.1.62-.68.24-.98-.29-.24-.9-.18-1.41-.18l-.01.2.21.01v1.72c-.08 0-.15.01-.21.01-.01.07-.01.13-.01.2v.01h.82v-.21c-.08 0-.16-.01-.25-.01v-.66c.09 0 .2-.02.27.01.2.08.32.68.49.85.04.04.45.01.53.01v-.21c-.07-.01-.14-.01-.2-.02-.07-.04-.09-.12-.13-.18zm-.985-.675c.007-.28.007-.58.01-.86.114-.01.25-.02.34.02.24.1.37.44.184.68-.1.14-.3.17-.54.17zm2.818-.06h-.012v-.02c.38-.15.58-.64.14-.88-.29-.17-.9-.1-1.33-.09v.2c.07 0 .15 0 .23.01v1.73c-.08.01-.15.01-.22.02 0 .07 0 .14-.01.21.5 0 1.1.06 1.42-.12.23-.13.43-.48.22-.78-.11-.16-.23-.17-.42-.24zm-.59-.8c.234-.01.42.01.523.15.036.06.072.16.055.26-.04.27-.26.36-.58.34 0-.24.01-.49.01-.74zm.682 1.46c-.046.19-.195.27-.394.3-.09.02-.24 0-.28-.05-.03-.03-.02-.11-.02-.18 0-.09-.01-.52.02-.58.37 0 .78.11.68.51zm5 .09c-.092-.16-.222-.52-.402-.57 0 0 0-.01-.003-.02.376-.1.622-.68.25-.97-.294-.23-.9-.17-1.414-.17l-.01.21.212.01v1.72l-.207.02v.21h.83v-.21c-.07 0-.15 0-.23-.01.01-.22.01-.44.01-.66.1 0 .2-.01.27.02.21.09.33.69.5.86.04.04.45.01.54.01l.01-.21c-.07-.01-.13-.01-.2-.02-.07-.03-.09-.11-.12-.18zm-.987-.67c.002-.29.006-.58.006-.86.12-.01.25-.02.347.02.24.1.37.44.19.68-.11.14-.29.17-.53.17zm6.13-10.72c.053-.03.105-.07.152-.11l-.097-.19c-.218.15-.433.3-.65.44.03.07.063.14.097.2l.217-.13c.068.31.158 1.22.167 1.43.012.08.018.17.025.25v.01c-.05.02-.22-.21-.27-.26l-.54-.61c-.08-.09-.18-.19-.26-.28.08-.05.16-.1.24-.14l-.08-.2c-.28.15-.55.31-.83.46.03.07.05.14.08.2l.17-.09c.1.12.23.25.34.37l.75.78c.11.11.22.22.32.33l.27-.16c-.03-.52-.07-1.05-.1-1.57-.01-.21-.03-.47-.05-.68zm-1.61 2.57c.012.08.078.27.045.34s-.523.32-.61.33c-.105-.19-.184-.43-.283-.63.112-.05.45-.23.508-.23l.092.17.208-.1c-.092-.2-.18-.4-.267-.6l-.19.1.05.19c-.04.08-.39.24-.49.3-.12-.26-.22-.5-.34-.76.17-.08.44-.25.59-.28.08.05.16.18.21.27l.2-.12c.01-.05-.21-.41-.25-.49-.4.22-.9.48-1.31.66-.05.75-.13 1.51-.19 2.25-.06.03-.11.08-.17.11.03.07.06.13.08.2.24-.09.46-.21.7-.31-.03-.06-.06-.12-.09-.19-.07.03-.14.07-.22.1l.03-.79c.17-.08.38-.18.56-.27.1.2.19.46.29.66-.07.05-.15.07-.22.11.03.06.07.13.1.19.45-.2.98-.47 1.41-.69-.06-.17-.11-.35-.16-.53-.08.02-.15.05-.23.07zm-1.73.23l-.012-.01c.02-.32.056-.62.094-.94h.016c.124.27.226.48.357.75l-.456.22zm-19.62-4.28l.136.12c.028-.07.064-.14.088-.2-.18-.17-.362-.35-.55-.53-.028.07-.066.13-.103.2.05.07.13.13.19.19-.18.2-.85.93-.9.98l-.01.01c-.03-.05.24-1.55.28-1.69l.18.21.11-.19c-.19-.23-.39-.48-.55-.75-.05.06-.1.12-.14.18.03.06.07.12.1.18-.05.19-.34 2.09-.36 2.3.06.09.12.17.18.25.37-.26 1.19-1.09 1.32-1.23zm5.32 3.15l-.702-.35c-.027.06-.057.13-.09.19l.236.14c-.252.53-.635 1.74-1.186 1.38-.383-.25-.242-.56-.026-1.01.126-.25.263-.54.386-.79.083.04.162.08.24.12.032-.06.06-.13.093-.18-.26-.14-.52-.28-.78-.41-.04.06-.07.12-.1.19l.16.09c0 .11-.18.41-.23.53-.27.55-.53.97-.28 1.36.05.09.15.18.25.25.15.11.34.18.47.19.63.06.92-.8 1.27-1.54.05.02.11.06.17.08l.09-.19zm1.926.92c-.538-.3-1.114-.54-1.665-.8-.1.18-.19.36-.29.54l.22.13.22-.3c.1-.01.28.08.4.13-.24.53-.5 1.09-.73 1.62-.09-.02-.17-.06-.25-.09l-.1.19.86.38c.03-.06.06-.13.09-.19-.09-.04-.17-.08-.25-.12l.74-1.61c.12.06.29.15.33.24l-.12.33c.01.05.18.09.23.12.09-.17.18-.35.27-.53zm-6.512-1.95c.093-.18.192-.36.29-.54-.054-.04-.103-.08-.16-.13-.034.05-.065.1-.1.15-.028.02-.275-.19-.33-.24.108-.2.23-.43.348-.66.112.09.354.26.402.37.04.08-.067.25-.08.35.01.05.132.1.177.13l.25-.55c-.37-.29-.74-.59-1.11-.88-.04.06-.08.12-.11.19l.16.14c-.28.55-.5.99-.78 1.53-.06-.03-.11-.08-.17-.12l-.11.19c.36.33.72.63 1.11.93.1-.15.22-.31.32-.47 0 0 .01-.01.01-.02l-.17-.18c-.04.05-.21.28-.25.29-.08.01-.39-.28-.45-.37.01-.11.26-.53.33-.66.1.08.24.18.31.27-.02.06-.05.13-.08.19l.16.13zm1.922-.13c.033-.06.07-.13.103-.2-.25-.15-.494-.31-.73-.48-.04.06-.077.15-.11.21l.18.13c-.257.53-.497 1.04-.75 1.57-.064-.03-.122-.06-.182-.1-.035.06-.068.14-.103.21.402.28.817.53 1.235.77.122-.16.232-.31.357-.46 0-.01.006-.02.012-.03l-.182-.17c-.09.11-.21.24-.316.3-.13-.05-.368-.18-.478-.29.003-.13.554-1.18.732-1.56.057.01.17.09.232.13"/>
    <path d="M13.886 39.267h-.672l-.653-.427c-.03-.025-.07-.044-.11-.044h-.86c-.16 0-.3-.102-.5-.24-.29-.216-.7-.505-1.42-.505-.81 0-1.22.32-1.41.57-.19-.26-.6-.57-1.41-.57-.72 0-1.12.29-1.42.51-.19.14-.33.24-.5.24h-.87c-.04 0-.09.02-.12.05l-.65.42h-.67c-.1 0-.17.08-.17.17v5.94c0 .1.08.17.18.17h4.61c.11.1.35.28.72.35.18.04.49.03.64 0 .37-.07.6-.25.7-.34h4.62c.1 0 .18-.08.18-.17v-5.94c0-.09-.07-.17-.17-.17zm14.416.015h-.672l-.665-.423c-.03-.03-.07-.05-.107-.05h-.862c-.17 0-.31-.1-.504-.24-.294-.22-.702-.51-1.427-.51-.818 0-1.22.32-1.417.57-.2-.27-.6-.58-1.41-.58-.73 0-1.133.29-1.425.5-.197.14-.33.24-.5.24h-.864c-.05 0-.09.02-.12.04l-.66.42H17c-.094 0-.175.08-.175.17v5.94c0 .09.08.17.175.17h4.62c.103.1.35.29.72.35.18.03.486.02.642-.01.357-.07.59-.25.696-.35h4.62c.09 0 .17-.08.17-.17v-5.94c0-.1-.08-.18-.17-.18zm-7.025 10.703c-2.782-3.38-6.756-1.695-6.795-1.676-.75.14-1.387.48-1.81.7l-.363.17-.5.06-.84.1c-.44.09-1.01.4-1.73.8l-.51.27c-.85.46-1.05.83-1.09.94-.18.09-.3.23-.34.4-.01.02-.01.05-.01.09 0 .14.06.28.16.38.16.49.59.39.61.4.02 0 .16-.04.16-.04.21-.07.42 0 .53.27l-.01.05c-.04.09-.21.21-.28.24-.06.02-.11.06-.09.11.12.42.7.27.96.24l.07-.01.24-.04c.32-.06.92-.08 1.22-.02.19.04.4.15.6.27-.04.07-.05.2-.12.23l-.25.04c-.37.06-.98.08-1.19.58-.19.47-.07.85-.01.99l.14.18c.1.04.3-.13.48-.23.4-.24.33-.35.33-.4.02-.15.12-.21.14-.21l.09.04c.24.1.85.28 1.17.11-.02.12-.12.49-.33.59-.16.09-.37.09-.55.08-.18 0-.32 0-.41.07-.15.12-.38.48-.44.57-.02.04-.02.09 0 .12l.03.07c.02.04.06.06.1.06l1.15-.01h.15c.33.01.73-.04.95-.24l.17-.14.58-.47.56-.5.27-.22c.05-.05.1-.15.13-.24.24.15.76.44 1.01.55-.1-.01-.41.03-.71.15-.34.13-.51.3-.81.66-.02.02 0 .1-.04.09-.02.03-.04.03-.02.07.09.15.56.41.73.45.14.03.32-.02.52-.07l.32-.07c.12-.01 1.53-.05 2.48-.04l-.53.49c-.5.33-1.29.81-2.13 1.51-.91.74-1.58 1.74-1.58 2.43 0 .1-.11.22-.09.3.05.18.19.4.56.44 1.82.2 2.87-.93 3.74-1.87l.22-.24c.61-.65 1.06-1.42 1.36-1.94.12-.22.26-.44.3-.48.86-.6 1.91-2.16 2.14-3.88.18-1.31-.15-2.51-.94-3.47zM.31 36.975l30.437.03v3.41c0 15.25-14.31 24.218-15.25 24.772C14.557 64.633.28 55.892.28 40.637l.03-3.663"/>
    <path d="M22.063 53.397c-.217 1.61-1.23 3.177-2.068 3.765-.085.06-.18.217-.385.556-.298.51-.748 1.282-1.345 1.914l-.23.245c-.89.96-1.9 2.048-3.625 1.863-.194-.022-.312-.11-.362-.27-.153-.51.41-1.684 1.47-2.557.84-.698 1.606-1.214 2.11-1.556l.63-.453c.05-.044.094-.1.13-.158.013-.01.022-.026.025-.04.16-.255.2-.537.2-.555.003-.03 0-.06-.025-.09-.024-.03-.056-.04-.09-.04-.007 0-.74-.02-1.325-.32-.433-.21-.728-.58-.927-1.15-.276-.78.14-1.3.54-1.81.302-.38.59-.75.53-1.19-.01-.06-.075-.11-.143-.1-.064.01-.105.07-.105.13v.02c.006.03.008.06.008.09 0 .3-.225.59-.485.91-.31.4-.68.87-.68 1.49 0 .18.03.37.1.57.13.35.3.63.49.86-.43-.11-1.08-.33-1.64-.71-.02-.01-.05-.01-.07-.01.08-.51 0-1.26-.04-1.55-.01-.06-.07-.11-.14-.1-.06.01-.11.08-.1.15.1.75.11 1.63-.05 1.77l-.26.21-.63.51-.6.5-.19.16c-.15.13-.57.12-.82.11h-.57c.06-.13.1-.26.05-.3-.07-.05-.3.17-.42.31h-.24c.13-.22.3-.46.36-.52l.26-.01c.21.01.46.01.68-.11.37-.19.43-.52.44-.63.03-.15-.22-.96-.36-1.16-.15-.22-.79-.68-1.28-.78-.35-.07-.97.04-1.33.11l-.2.03-.1.01c-.15.02-.48.04-.63-.08.1-.05.22-.13.28-.26l.01-.25c-.2-.52-.6-.38-.77-.33l-.1.02c.01 0-.26-.04-.41-.35l.23-.13c.06-.04.09-.11.05-.17-.03-.06-.1-.08-.17-.05l-.24.13c-.02-.05-.04-.11-.03-.16.02-.1.11-.19.25-.25.03-.01.06-.04.07-.07 0-.01.14-.39 1.01-.85l.52-.28c.71-.39 1.28-.7 1.69-.79l1.36-.17.42-.2c.42-.22 1.05-.54 1.8-.69.06-.02 3.94-1.65 6.65 1.62.76.92 1.07 2.07.89 3.32zm-6.408 3.135l-.366.08c-.16.042-.33.09-.41.068-.02 0-.03-.007-.05-.014.05-.085.15-.244.3-.347.26-.19.61-.29.53-.33-.13-.07-.43-.03-.65.05-.28.11-.42.31-.51.45-.09-.06-.16-.11-.2-.15.15-.31.37-.52.65-.63.39-.16.52-.12.52-.12.15.03 1.19.2 1.42.2l.01-.01c.05.03.09.06.13.09.48.23 1.02.31 1.28.34-.03.07-.06.18-.12.28-.48-.01-2.4-.02-2.58 0zm-3.495-1.564c-.2.2-.69-.01-.9-.103l-.186-.062c-.157 0-.352.172-.386.43-.01.037-.085.1-.175.17-.025-.038-.06-.114-.078-.213-.017-.164 0-.376-.04-.394-.056-.03-.28.368-.144.764-.07.036-.13.057-.18.07-.03-.052-.11-.206-.11-.458 0-.124.03-.274.09-.428.16-.383.62-.46.96-.52l.29-.06c.16-.058.25-.164.3-.252.15.106.27.212.31.27.1.135.22.53.29.775 0 .003-.01.003-.02.01zm9.194-5.05c-2.83-3.418-6.87-1.716-6.908-1.7-.762.152-1.41.492-1.838.715l-.373.18-.495.058-.856.11c-.443.1-1.02.41-1.756.81l-.515.29c-.862.46-1.06.84-1.108.95-.178.1-.3.24-.335.41-.002.03-.005.06-.005.09 0 .14.053.28.162.39.16.5.636.54.655.54.024 0 .167-.03.167-.03.21-.07.35-.09.46.19l-.01.06c-.05.1-.22.18-.3.21-.06.03-.1.09-.08.15.12.43.72.36.98.33l.07-.01.24-.04c.33-.06.93-.17 1.24-.1.19.04.41.15.61.28-.04.07-.1.13-.18.16l-.25.05c-.38.06-.95.17-1.16.67-.2.47-.07.86-.01 1l.18.24c.1.04.33-.08.51-.18.41-.24.43-.39.43-.44.02-.14.11-.2.14-.21 0 .01.09.04.09.04.24.11.72.32 1.05.15-.03.12-.08.28-.29.39-.17.09-.39.09-.57.08-.18 0-.32 0-.42.08-.14.12-.44.61-.5.71-.02.04-.02.09 0 .13l.04.07c.02.03.06.06.11.06h1.17l.15.01c.33.01.78.03 1.01-.17l.17-.14.62-.51.62-.5.27-.22c.05-.05.09-.12.12-.22.25.16.5.29.75.4-.1 0-.29.02-.59.14-.35.14-.62.41-.8.78-.01.02-.01.05-.01.07-.01.03-.01.07 0 .11.09.16.57.42.75.46.14.03.33-.02.52-.07l.33-.07c.12-.02 1.37-.01 2.33-.01l-.52.37c-.51.35-1.28.87-2.14 1.57-.91.77-1.57 1.87-1.57 2.57 0 .1.01.18.03.25.05.19.19.41.57.45 1.85.2 2.94-.98 3.83-1.94l.23-.24c.62-.65 1.07-1.44 1.38-1.96.12-.21.25-.44.3-.48.88-.6 1.94-2.19 2.18-3.93.18-1.32-.15-2.54-.96-3.51"/>
    <path d="M10.755 50.003c-.123-.066-.263-.073-.392-.033-.238.092-.315.36-.18.42.134.066.208-.076.258-.094.03-.004.08-.037.16-.004.08.037.08.094.08.105.01.03.02.16.13.183.11.026.35-.39-.05-.577m-2.11 1.63c-.17.35.28.803.43.733.15-.077-.2-.383-.1-.587.11-.23.86-.55.85-.68-.01-.13-1.02.18-1.17.52m9.11 6.6c-.35-.02-.68-.06-.71.1-.02.16.34.2.71.22.25.01.69-.05.66-.19-.02-.14-.42-.13-.65-.14m-.86.8c-.42-.02-.82-.06-.85.1-.03.16.41.2.85.22.3.01.83-.05.8-.19-.03-.14-.52-.13-.8-.14m-.75.81c-.4-.02-.77-.06-.8.1-.02.16.38.19.8.21.28.01.78-.05.75-.19-.03-.13-.48-.11-.74-.12m-.7.85c-.29-.01-.58-.04-.6.09-.01.13.29.17.6.19.21 0 .58-.04.56-.16-.02-.12-.36-.11-.55-.12m-6.59-9.5l.1-.04c.1-.04.15-.14.12-.23-.03-.1-.13-.15-.22-.12l-.09.04c-.09.03-.14.13-.11.23.03.09.14.14.23.12m5.5-1.89c-.03-.05-.1-.07-.14-.05l-.98.33c-.09.04-.12.16-.08.26.05.09.16.16.25.12l.92-.51c.05-.03.07-.11.04-.16m.09 1.02c.05-.01.08-.09.06-.15-.01-.06-.09-.09-.13-.08l-.76.11c-.09.02-.14.14-.11.24.03.09.13.19.23.16l.73-.3m-.04.7l-.59-.02c-.09.01-.15.11-.14.2.01.09.08.18.18.17l.61-.12c.05-.01.09-.08.08-.14-.01-.05-.08-.09-.13-.09m-.12.87l-.44-.11c-.08 0-.14.08-.15.16 0 .08.06.18.14.18l.47-.04c.05 0 .1-.06.09-.11 0-.05-.05-.09-.1-.09m4.08-3.12c-.09-.02-.19.04-.21.13-.02.1.04.19.14.22 0 0 .52.16.91.33.08.03.16.01.2-.06.04-.07.01-.16-.06-.2-.45-.23-.95-.4-.97-.41m.2.84c-.09-.02-.17.03-.19.12-.02.09.03.17.12.19 0 0 .39.1.7.23.06.02.14.01.17-.06.03-.07.01-.14-.05-.18-.4-.21-.72-.31-.73-.32m.04.78c-.07-.01-.14.03-.16.09-.01.07.03.15.1.16 0 0 .36.1.48.16.06.02.13.01.16-.05.03-.06.01-.12-.05-.15-.36-.2-.46-.2-.53-.21m-.04.69c-.06 0-.13.03-.14.09-.02.07.02.13.08.14 0 0 .21.05.31.08.06.01.12 0 .15-.05.03-.06.01-.12-.04-.15-.11-.06-.3-.12-.35-.12m2.36-.47c-.36-.35-.54-.47-.56-.48-.08-.05-.19-.02-.24.06-.06.09-.03.2.06.25 0 0 .2.1.54.37.06.05.15.05.2 0 .06-.06.06-.15 0-.21m-.71.35c-.08-.04-.17-.02-.21.06-.05.08-.01.17.06.22 0 0 .12.03.38.23.06.04.14.04.19-.01.05-.05.05-.13-.01-.18-.33-.3-.38-.32-.4-.33m-.23.67c-.07-.03-.14-.01-.18.05-.03.06-.02.14.05.18 0 0 .14.07.24.16.05.04.12.04.16 0 .05-.05.05-.13 0-.17-.04-.04-.19-.19-.26-.22m-.26.55c-.05-.02-.13-.02-.17.03-.04.05-.03.13.03.16.01.01.05.02.13.09.04.04.1.05.15.02.05-.04.05-.11.02-.15-.08-.09-.09-.13-.14-.14m1.67.13c.04.05.11.07.16.04.06-.04.08-.11.04-.17-.03-.06-.1-.19-.15-.23-.06-.05-.13-.05-.18 0-.05.05-.05.13 0 .18 0 0 .06.06.14.17m-.34.13c-.04-.03-.11-.04-.16 0-.04.05-.04.12.01.17l.08.08c.05.04.1.06.14.03.06-.03.06-.09.04-.15-.02-.05-.05-.11-.09-.13m7.23-7.13h-4.7c-.05 0-.1.03-.13.07 0 0-.2.23-.57.3-.12.02-.39.03-.52 0-.38-.07-.59-.31-.59-.31-.04-.04-.09-.06-.14-.06h-4.7v-5.7h.36v5.22c0 .09.08.18.18.18h4.12c.11.1.41.33.84.38l.25-.01c.41-.06.7-.28.82-.38h4.11c.1 0 .19-.09.19-.18V39.5h.36v5.8zm-10.6-5.83l.4-.26v5.03c0 .1.08.18.18.18h.9c.32 0 .62-.13.94-.27.35-.16.72-.31 1.14-.31.6 0 1.03.51 1.04.52.03.04.08.06.13.06h.18v-.01H23c.04 0 .09-.02.13-.06 0 0 .44-.51 1.03-.51.41 0 .78.16 1.14.31.32.13.62.27.93.27h.9c.09 0 .18-.08.18-.18v-5.03c.15.11.33.22.39.26v5.12h-4c-.05 0-.1.01-.13.05 0 0-.27.28-.66.33h-.18c-.39-.04-.67-.33-.67-.33-.03-.04-.08-.05-.13-.05h-4.1v-5.1zm.75-.41h.71c.29 0 .5-.15.73-.32.29-.22.62-.46 1.25-.46 1.08 0 1.27.62 1.28.64l-.01 5.07c-.2-.19-.62-.51-1.17-.51-.49 0-.91.18-1.28.34-.3.13-.55.24-.79.24h-.72v-5zm4.32-.18c0 .02.19-.6 1.27-.6.63 0 .96.24 1.25.45.23.16.44.31.73.31h.71V44h-.72c-.24 0-.5-.116-.8-.24-.36-.16-.79-.346-1.28-.346-.54 0-.96.32-1.16.51v-5.11zm5.62.31h-.69l-.68-.45c-.03-.03-.07-.05-.11-.05h-.89c-.18 0-.32-.11-.52-.25-.3-.22-.72-.53-1.46-.53-.84 0-1.26.33-1.45.59-.21-.27-.62-.59-1.45-.59-.75 0-1.16.31-1.46.53-.2.15-.35.25-.52.25h-.88c-.05 0-.09.02-.12.05l-.68.45H17c-.1 0-.18.07-.18.18v6.15c0 .11.08.19.18.19h4.74c.11.1.357.29.74.36.185.03.5.03.657 0 .37-.06.61-.25.72-.35h4.74c.1 0 .18-.08.18-.18V39.3c0-.105-.08-.18-.18-.18"/>
    <path d="M19.297 39.94c.086-.004.405-.026.8-.205l.294-.14.56-.22c.33-.086.67-.045.77-.023-.04-.008-.06-.048-.06-.095.02-.044.06-.07.09-.06 0 0-.41-.086-.84.02l-.58.237-.28.135c-.37.16-.66.18-.74.19-.04 0-.08.03-.07.08 0 .04.04.07.08.07m0 1.05c.09-.01.41-.03.8-.2l.3-.15.56-.22c.33-.09.67-.05.77-.02.05.01.09-.02.1-.07.01-.05-.01-.08-.06-.1 0 0-.41-.09-.84.02l-.58.23-.29.14c-.37.16-.66.18-.74.19-.04 0-.07.04-.07.08s.04.08.08.07m0 1.07c.09 0 .41-.03.8-.2l.3-.15.56-.22c.33-.08.67-.05.77-.03.05.01.09-.02.1-.06.01-.05-.01-.09-.06-.1 0 0-.42-.09-.84.03l-.59.23-.28.13c-.37.17-.66.18-.74.18-.04 0-.07.04-.07.09 0 .04.03.08.08.08m.8.85l.29-.14.55-.22c.33-.08.67-.04.77-.02-.04-.01-.06-.05-.06-.1.02-.04.05-.07.09-.06 0 0-.41-.09-.84.02l-.58.23-.29.14c-.36.16-.65.19-.74.19-.04 0-.08.03-.07.08 0 .04.04.08.08.08.09 0 .41-.02.81-.2m3.47-3.56c.11-.02.45-.06.78.02l.55.22.3.14c.4.18.72.2.81.2.04 0 .08-.03.08-.08s-.03-.09-.07-.09c-.08 0-.38-.03-.74-.19l-.29-.14-.58-.24c-.42-.1-.84-.02-.84-.02-.04.01-.07.05-.06.09.01.05.05.08.09.07m0 1.06c.11-.03.45-.06.78.02l.55.22.3.14c.4.17.72.2.8.2.04 0 .08-.03.08-.08s-.03-.09-.08-.09c-.08 0-.37-.03-.74-.19l-.29-.14-.58-.23c-.43-.11-.84-.02-.85-.02-.04.01-.06.05-.06.09.01.04.06.07.09.06m0 1.06c.11-.03.46-.06.78.02l.55.22.3.14c.4.17.72.2.81.2.04 0 .08-.03.08-.08 0-.06-.03-.09-.07-.1-.09 0-.38-.02-.74-.19l-.29-.14-.58-.23c-.35-.09-.7-.06-.85-.03-.04.01-.07.05-.06.09.01.04.05.07.09.06m1.32 1.31l.3.13c.4.18.72.2.81.2.04 0 .08-.04.08-.08 0-.05-.03-.08-.07-.08-.08-.01-.37-.03-.74-.19l-.29-.14-.58-.23c-.35-.09-.7-.06-.85-.03-.04.01-.07.05-.06.09.01.05.05.07.09.06.11-.02.45-.06.78.02l.55.23M5 39.88c.08 0 .4-.022.8-.2l.29-.14.55-.22c.32-.084.67-.043.77-.02-.04-.004-.07-.044-.06-.09.01-.05.05-.07.09-.06-.01 0-.42-.09-.84.02l-.6.24-.29.13c-.37.16-.66.18-.74.19-.04 0-.08.03-.08.08.01.04.04.076.085.07m0 1.06c.09-.01.4-.03.8-.2l.3-.15.55-.22c.32-.087.66-.047.76-.02.04.01.083-.02.09-.067.01-.04-.02-.08-.06-.09-.01 0-.42-.09-.85.02l-.58.23-.3.14c-.365.16-.662.185-.74.19-.042 0-.08.04-.08.08.008.046.04.08.08.075m0 1.07c.09 0 .41-.03.8-.2l.3-.14.555-.22c.32-.08.66-.047.77-.02.042.01.08-.02.09-.06.02-.05-.01-.09-.06-.1 0 0-.42-.086-.84.03l-.586.23-.29.133c-.36.17-.66.19-.74.19-.04.01-.073.04-.073.09.01.05.04.08.08.08m0 1.05c.09 0 .41-.02.8-.2l.3-.14.55-.23c.32-.08.67-.04.77-.02-.04 0-.07-.05-.06-.09.01-.04.05-.06.1-.05 0 0-.42-.09-.84.02l-.58.23-.29.14c-.36.17-.66.19-.74.19-.04 0-.07.04-.07.08.01.04.04.08.09.08m4.32-3.85c.01.05-.02.09-.06.1.11-.02.45-.06.78.02l.55.22.29.14c.4.18.71.2.8.2.05.01.09-.03.09-.07.01-.05-.03-.08-.08-.08-.08-.01-.37-.03-.74-.19l-.28-.14-.59-.24c-.42-.11-.84-.02-.84-.02.04-.01.09.01.09.06m-.06 1.16c.11-.03.45-.07.77.02l.55.22.3.14c.39.17.71.19.8.19.05 0 .08-.03.08-.08.01-.04-.03-.08-.07-.08-.08-.01-.37-.03-.74-.19l-.28-.14-.59-.23c-.42-.11-.84-.03-.84-.03-.04.02-.07.05-.06.1.01.04.05.07.1.06m.77 1.08l.55.22.3.14c.4.18.72.21.81.21.05 0 .08-.03.08-.08 0-.06-.03-.09-.08-.1-.08 0-.37-.02-.74-.19l-.28-.13-.59-.23c-.42-.12-.84-.03-.84-.03-.04.01-.07.05-.06.09.01.04.05.07.1.06.11-.02.45-.06.77.02m.55 1.29l.3.13c.4.18.72.2.81.21.04 0 .08-.04.08-.08s-.04-.08-.08-.08c-.08 0-.38-.02-.75-.19l-.28-.14-.59-.23c-.42-.11-.84-.03-.84-.03.04-.01.08.02.09.06.01.05-.01.09-.06.1.11-.02.45-.06.77.02l.55.23"/>
    <path d="M13.886 45.33h-4.64c-.05 0-.1.023-.138.067-.002.004-.2.234-.57.303-.12.022-.39.026-.526 0-.383-.066-.592-.303-.592-.306-.035-.04-.088-.063-.138-.063H2.644v-5.79h.37v5.22c0 .1.08.19.176.19h4.116c.12.11.426.34.846.39h.25c.412-.05.702-.28.818-.37h4.114c.104 0 .184-.08.184-.18v-5.22h.368v5.8zM3.37 39.465c.068-.043.244-.156.4-.262v5.038c0 .1.08.18.18.18h.896c.318 0 .618-.13.938-.27.354-.15.716-.31 1.137-.31.59 0 1.03.51 1.03.52.04.04.08.06.14.06l.18.01h.01l.01.01.18-.01c.05 0 .1-.01.14-.05.01 0 .44-.51 1.03-.51.42 0 .79.16 1.14.31.32.14.62.27.94.27h.9c.1 0 .18-.08.18-.17v-5.04l.4.27v5.1H9.17c-.05 0-.094.02-.13.06-.003.01-.27.28-.66.33H8.2c-.395-.03-.677-.32-.68-.32-.03-.03-.08-.06-.13-.06 0 .01-3.677.01-4.01.01V39.5zm.756-.412h.705c.3 0 .51-.157.73-.32.3-.213.63-.454 1.26-.454 1.08 0 1.27.61 1.28.64l-.01 5.06c-.2-.19-.61-.5-1.16-.5-.49 0-.91.18-1.28.33-.29.13-.55.23-.79.23h-.72v-5zm4.32-.18c0 .02.19-.594 1.27-.594.628 0 .96.24 1.25.45.23.16.44.32.73.32h.705v5h-.72c-.24 0-.49-.11-.79-.24-.37-.16-.78-.34-1.28-.34-.54 0-.95.31-1.16.49v-5.1zm5.614.304h-.685l-.676-.434c-.04-.03-.07-.05-.12-.05h-.89c-.18 0-.32-.104-.52-.246-.31-.223-.72-.526-1.47-.526-.84 0-1.26.33-1.46.59-.2-.27-.62-.59-1.45-.59-.75 0-1.16.31-1.47.53-.2.14-.34.25-.52.25h-.88c-.06 0-.1.03-.13.06l-.67.43h-.68c-.1 0-.18.08-.18.19v6.15c0 .1.08.18.18.18H7.2c.11.11.358.3.74.37.185.04.5.02.657 0 .37-.06.61-.25.72-.36h4.736c.1 0 .184-.08.184-.18v-6.15c0-.1-.082-.18-.182-.18m1.396-5.75c-2.26 0-4.67.55-4.67 1.56 0 .46.51.83 1.28 1.09.08.03.31.09.33.05.01-.01-.27-.14-.27-.14-.69-.31-.96-.71-.96-.99 0-.56 1.85-1.19 4.32-1.19s4.32.63 4.32 1.2c0 .29-.25.68-.92.99 0 0-.25.12-.27.14-.02.04.3-.04.3-.04.76-.26 1.26-.62 1.26-1.08 0-1.01-2.41-1.56-4.67-1.56m5.36-1.74c-.21.27-.66 1.04-.71 1.28v.03l-.02-.01c-.18-.1-.42-.22-.73-.34-.98-.37-2.38-.58-3.85-.58h-.02c-1.46 0-2.87.21-3.85.58-.31.12-.55.24-.74.34 0 .01-.02.02-.02.02l-.01-.03c-.05-.24-.49-1-.71-1.27-.06-.07-.15 0-.11.07.35.67.46 1.24.49 1.46.02.11.03.19.13.23.06.03.12.02.17-.01.21-.13.48-.29.92-.46.94-.35 2.3-.55 3.72-.55h.02c1.43 0 2.78.2 3.73.56.44.17.71.32.91.46.06.03.12.04.18.01.09-.04.11-.12.13-.22.04-.21.14-.78.49-1.46.04-.06-.04-.14-.1-.06"/>
    <path d="M15.798 32.918c0-.175-.136-.32-.313-.32s-.322.145-.322.32c0 .176.145.318.322.318.177 0 .313-.142.313-.318m-2.24.182c0-.178-.147-.323-.32-.323-.178 0-.32.145-.32.324 0 .18.142.32.32.32.173 0 .32-.14.32-.31m-2.295.98c.154-.08.21-.28.125-.43-.086-.15-.283-.21-.43-.12-.155.09-.213.28-.125.44.087.16.28.21.43.13m1.05-.72c0-.09-.07-.16-.165-.16-.09 0-.166.08-.166.17 0 .09.076.17.166.17.094 0 .166-.07.166-.16m2.206-.4c0-.09-.074-.17-.168-.17-.085 0-.166.08-.166.17 0 .09.08.17.166.17.094 0 .17-.07.17-.16m3.518.13c0-.18-.142-.32-.317-.32-.176 0-.318.15-.318.33 0 .18.142.32.318.32.175 0 .317-.13.317-.31m1.962.42c-.153-.09-.344-.03-.43.13-.084.16-.03.35.123.44.154.08.346.03.434-.13.08-.15.02-.34-.13-.43m-1.03-.17c0-.09-.07-.16-.17-.16s-.17.08-.17.17c0 .1.07.17.16.17s.16-.07.16-.16m-2.2-.38c0-.09-.08-.17-.17-.17-.09 0-.17.08-.17.17 0 .09.07.17.16.17s.17-.07.17-.17m-1.3-3.94c-.18 0-.33.14-.33.32-.01.18.14.33.32.33s.32-.15.32-.33c0-.18-.15-.32-.33-.32m0-.9c-.18 0-.33.14-.33.32-.01.17.14.32.32.32s.32-.15.32-.32c0-.18-.15-.32-.33-.32m0-.9c-.18 0-.32.14-.32.33-.01.17.14.32.32.32s.32-.15.32-.32c0-.19-.15-.33-.32-.33m-1.55.73c.17 0 .32-.15.32-.33 0-.18-.15-.32-.32-.32-.19 0-.33.15-.33.33 0 .18.14.32.32.32m-1.06-.35c.17 0 .32-.14.32-.32s-.15-.32-.32-.32c-.18 0-.33.14-.33.32s.15.32.33.32m-1.1-.23c.17 0 .32-.15.32-.32 0-.18-.16-.32-.33-.32-.18 0-.32.15-.32.33 0 .18.15.33.32.33m-1.11.16c.18 0 .32-.14.32-.32s-.14-.33-.32-.33-.32.15-.32.33c0 .18.14.32.32.32m-.96.6c.18 0 .32-.14.32-.32s-.15-.32-.33-.32c-.18 0-.32.14-.32.32s.14.32.32.32m-.56.98c.18 0 .32-.14.32-.32 0-.17-.15-.32-.33-.32-.17 0-.32.15-.32.32 0 .18.15.32.33.32m.33.82c0-.18-.14-.32-.32-.32s-.33.15-.33.33c0 .18.14.32.32.32s.32-.14.32-.32m.08.72c-.18 0-.32.15-.32.33 0 .18.14.32.32.32s.32-.15.32-.32c0-.18-.15-.33-.33-.33m5.92 5.27c-2.23 0-3.38-.44-3.38-.63s1.15-.63 3.38-.63 3.38.44 3.38.64c0 .19-1.15.64-3.38.64zm3.74-.63c0-.78-2.45-.99-3.74-.99s-3.74.21-3.74.99 2.45.99 3.74.99 3.74-.21 3.74-.99m-4.2-8.78h.34V27c0 .1.08.18.18.18.09 0 .18-.08.18-.18v-.36h.4c.1 0 .18-.077.18-.18 0-.096-.08-.18-.18-.18h-.34v-.33c0-.1-.08-.17-.18-.17-.1 0-.18.07-.18.17v.324h-.34c-.1 0-.18.09-.18.18 0 .1.08.18.18.18M11.58 28c.43 0 .85.16 1.3.32.18.067.36.13.53.19-.05 0-.1-.01-.15-.01-.6.02-1.18.24-1.48.55-.66-.01-1.14.19-1.44.57-.13.17-.21.36-.25.54-.1-.26-.17-.53-.17-.79 0-.77.7-1.35 1.64-1.35zm2.88.65v.19c-.1-.08-.22-.14-.33-.19.11 0 .21 0 .33-.01zm-.4 1.616c-.1-.1-.26-.19-.52-.2-.04 0-.08.01-.12.01-.01-.02-.01-.04-.01-.07-.1-.48-.61-.72-.83-.78-.16-.04-.3.06-.3.06-.2.15-.48.47-.48.88 0 .06 0 .11.01.17.002.03.01.05.02.07-.04.01-.08.02-.118.04-.336.16-.43.39-.446.55V31c0 .23.13.415.25.54-.008.01-.01.01-.01.02-.01.034-.02.065-.02.1 0 .11.06.22.15.3-.02.004-.04.003-.06.003-.19-.058-.43-.225-.55-.66-.22-.754.64-1.353.55-1.48-.04-.06-.17-.003-.17-.003-.42.22-.83.66-.77 1.29-.05-.09-.11-.18-.17-.274v-.02c-.06-.22-.07-.68.18-1.02.24-.3.65-.45 1.22-.43.06.006.11-.025.15-.072.17-.22.67-.455 1.27-.47.3-.005.84.04 1.17.45l.02.007v.47c-.14-.14-.31-.28-.53-.39-.06-.03-.22-.08-.36-.09-.12-.01-.22.03-.22.07 0 .05.28.15.53.34.18.14.35.32.44.44-.16-.03-.25.04-.25.13zm2.4-.96c.33-.4.87-.45 1.17-.44.59.01 1.1.25 1.27.47.03.05.09.08.14.07.57-.02.98.13 1.21.43.26.34.25.81.18 1.02v.02l-.17.28c.05-.63-.36-1.07-.78-1.28 0 0-.13-.054-.17.006-.09.13.77.73.55 1.48-.137.44-.376.6-.57.66h-.064c.092-.08.14-.19.14-.3 0-.03 0-.06-.006-.1-.005 0-.014-.01-.014-.02.12-.12.26-.31.26-.53V31c-.01-.16-.1-.38-.44-.54l-.11-.03c.01-.02.02-.04.02-.06.02-.05.02-.11.02-.16 0-.4-.28-.73-.48-.87 0 0-.14-.1-.29-.06-.23.06-.73.3-.83.78v.07c-.04 0-.08-.01-.12-.01-.25.01-.42.1-.51.2 0-.08-.09-.16-.25-.12.1-.12.26-.3.44-.44.25-.19.52-.29.52-.34 0-.04-.1-.07-.22-.06-.14.01-.3.07-.36.1-.21.11-.39.25-.52.39v-.47h.02zm-.02-.65c.12.01.22.01.33.01-.12.05-.23.11-.33.19v-.19zm1.58-.32c.44-.16.86-.32 1.3-.32.93 0 1.63.59 1.63 1.36 0 .26-.07.53-.17.79-.04-.18-.12-.37-.25-.53-.3-.38-.79-.58-1.44-.57-.3-.31-.88-.53-1.47-.543-.05 0-.1.01-.15.01.18-.06.36-.13.54-.19zM10.7 31.9v.04-.01c.16.316.56.58 1.07.41.26-.08.53-.134.69-.44.08-.15.14-.36-.03-.584-.05-.06-.18-.13-.24-.1-.05.02-.08.12-.02.19.08.09.03.27-.11.35-.1.05-.21 0-.23-.04 0-.02.19-.15.02-.29-.14-.1-.48-.44-.01-.66.37-.18.65.32.69.39.03.07.07.04.06-.03-.08-.35-.38-.47-.46-.86-.06-.29.15-.53.26-.63.04-.03.1-.05.16-.02.15.05.4.19.46.47.08.39-.16.61-.09.97.01.07.07.08.07.01 0-.08.07-.65.48-.63.52.02.33.46.24.61-.11.2.12.24.12.25.02.04-.07.15-.19.13-.16-.01-.27-.16-.23-.28.03-.09-.04-.17-.1-.17-.07-.01-.16.11-.18.18-.08.27.06.44.2.56.26.21.66.19.87.17.73-.08.77-.52.77-.52-.15.06-.48.18-.48.18h-.03c-.07 0-.11-.05-.11-.11v-.7c0-.07.05-.12.11-.12 0 0 .03 0 .04.01l.5.2-.14-.41c-.01-.01-.02-.03-.02-.04 0-.07.05-.11.12-.11h.83c.06 0 .11.04.11.11 0 .01 0 .03-.01.04l-.15.4.5-.2.05-.01c.05 0 .11.05.11.12v.69c0 .06-.05.11-.11.11h-.04s-.34-.12-.49-.18c0 0 .04.44.77.52.215.02.62.05.88-.17.14-.12.277-.29.2-.56-.02-.07-.11-.19-.18-.18-.05 0-.123.08-.094.16.04.12-.06.27-.23.28-.12.01-.21-.1-.19-.14.003-.01.225-.05.123-.25-.09-.15-.28-.59.24-.61.4-.02.47.55.48.63.01.07.06.06.07-.01.07-.353-.17-.58-.08-.97.06-.28.32-.42.46-.473.05-.02.12-.01.16.02.11.1.32.34.26.63-.07.4-.37.51-.45.87-.01.07.03.1.06.03.04-.07.32-.57.69-.39.47.22.13.56 0 .66-.18.14.02.27.01.29-.01.04-.13.09-.23.04-.14-.08-.19-.258-.1-.35.05-.07.02-.17-.03-.19-.06-.03-.19.04-.23.09-.17.22-.11.43-.03.583.16.3.43.36.69.44.52.17.92-.1 1.07-.41v.01l.01-.03c.34-.465 1.13-1.547 1.13-2.536 0-.98-.86-1.71-2-1.71-.5 0-.97.17-1.43.34-.5.18-.97.35-1.46.3v-1.01c0-.1-.08-.18-.17-.18-.1 0-.18.08-.18.18v2.63h-1.2v-2.64c0-.095-.08-.176-.19-.176-.1 0-.18.08-.18.17v1.007c-.49.05-.96-.11-1.46-.3-.46-.17-.93-.34-1.42-.34-1.14 0-2 .74-2 1.71 0 .99.79 2.07 1.13 2.53M17 27.97c.18 0 .324-.146.324-.324 0-.18-.143-.32-.322-.32-.18 0-.32.15-.32.33 0 .18.14.32.32.32m1.06-.35c.18 0 .32-.145.32-.32 0-.18-.14-.32-.32-.32s-.33.14-.33.32.15.32.33.32m1.093-.24c.18 0 .32-.147.32-.32 0-.18-.14-.327-.32-.327s-.32.15-.32.32.144.32.324.32m1.11.16c.17 0 .32-.14.32-.32s-.15-.33-.32-.33c-.19 0-.32.15-.32.33 0 .18.13.32.32.32m.96.6c.18 0 .32-.14.32-.32s-.15-.32-.33-.32c-.18 0-.32.14-.32.32s.14.32.32.32m.55.98c.18 0 .32-.14.32-.32s-.15-.32-.33-.32c-.18 0-.32.14-.32.32s.14.32.32.32m-.01.49c-.18 0-.32.15-.32.33 0 .18.14.33.32.33s.32-.14.32-.32-.14-.33-.32-.33m-.4 1.05c-.17 0-.32.15-.32.32 0 .18.15.32.32.32.18 0 .32-.15.32-.33 0-.18-.14-.32-.32-.32m5.12-18.12c-.02.1-.06.17-.11.21-.12.08-.36.04-.51.01l-.3.01c-.1.07-.11.18-.12.3-.01.14-.03.26-.1.29-.09.04-.38-.08-.5-.14-.17-.08-.29-.13-.39-.03l-.07.17c-.02.07-.04.11-.06.13-.1-.13-.26-.2-.35-.24v-.01c.03-.06.07-.16.07-.27 0-.12-.06-.27-.25-.43-.19-.16-.5-.09-.74-.04l-.22.03c-.02-.01-.08-.11-.11-.19.09-.02.17-.05.25-.08.07-.01.14-.03.23-.03.32-.02 1.56.19 1.56.03 0-.13-.74-.28-1.23-.32.26-.24.36-.5.4-.64l.03-.05s.04-.03.06-.04c.04.03.07.09.1.2.02.09.05.19.15.23.11.04.18 0 .34-.1.19-.13.66-.42.83-.24.13.13.1.22.06.32-.06.17-.04.28.08.34l.18.04c.56.09.76.22.72.51zm-.67.52V13v.044zm-1.24.44l.08.03c-.03 0-.05-.02-.09-.04zm-.53.44c-.03.07-.09.08-.31.06l-.32.05-.1.25c0 .09-.01.1-.04.11-.08.05-.2.03-.33.01l-.13-.02c-.1-.04-.2-.07-.29-.09l-.11-.04c.03-.07.07-.16.07-.27 0-.07-.02-.15-.08-.23-.12-.15-.4-.19-.84-.24l-.23-.03c0-.04.01-.08.01-.12 0-.1-.03-.19-.13-.27-.16-.13-.54-.16-1.02-.06-.02-.06-.06-.16-.09-.22l.04-.01c.2-.03.52-.07.73-.24.55.31 1.22.28 1.55.14.03-.01.05-.03.07-.04.06.07.13.15.22.19l.41-.03c.13-.03.38-.08.44-.04.15.12.14.15.09.26l-.05.31c.03.1.12.14.22.18.23.1.29.16.2.35zm-1.72.31l.04.01-.04-.01zm.59 1.44c-.1.14-.23.12-.46.05l-.16-.04c-.12 0-.19.08-.24.15-.06.07-.1.13-.23.14-.14.01-.32-.19-.43-.3l-.24-.18c-.16-.03-.23.12-.26.17-.03.08-.06.13-.22.11-.17-.02-.35-.46-.43-.66-.09-.22-.13-.33-.25-.37-.15-.06-.26.06-.3.1-.14-.14-.25-.65-.3-1.06.27.1.68.27.91.45.2.14.57.45.66.36.1-.09-.23-.49-.45-.65-.24-.18-.48-.32-.7-.44.68-.25 1.12-.2 1.19-.15l-.02.07-.02.18c.03.18.2.2.57.24.17.02.53.06.6.12 0 .01-.02.05-.06.13-.03.06-.07.13-.07.2 0 .03.01.06.03.1.05.12.18.16.38.21.11.03.32.09.37.14-.01 0-.06.06-.06.06-.06.06-.14.14-.14.26 0 .02 0 .04.01.06l.19.23c.12.1.17.15.17.2 0 .03-.01.06-.03.09zm-4.38-2.29c.09-.2.2-.44.3-.65.06-.1.18-.18.38-.27.07-.03.54-.31.47-.43-.07-.12-.55.07-.62.11-.23.11-.5.27-.52.29-.16.09-.33.25-.51.42-.05-.13-.07-.3.04-.44l.19-.13c.16-.08.31-.18.35-.43.23.03.44.04.53 0 .15-.08.19-.24.2-.34.02.01.04.01.04.01.28.07.8.21 1.18-.13.08-.07.12-.15.12-.23 0-.04-.04-.08-.05-.11.09.01.21.02.32.02 0 .01.01.04.01.08v.03c-.01.07-.08.13-.19.21l-.21.22c-.01.02-.02.06-.02.09 0 .1.06.17.1.22.05.05.08.09.08.17v.03c-.02.21-.23.27-.62.32l-.37.11c-.05.05-.07.1-.07.15 0 .11.09.2.13.24l.07.1-.05.06c-.07.05-.36.11-.5.14l-.25.07c-.23-.02-.41 0-.56.03zm-1.12 1.7c-.94 1.43-.47 3.62-.24 4.02l.02.06c.23.4.54.95 1.81 1.48l.15.07c.84.35 1.16.49 1.32.67-.25.03-.41.1-.5.15-.2-.11-.42-.19-.65-.19-.14 0-.24.02-.34.04l-.09-.21c-.2-.4-.56-.56-.91-.7-.45-.2-.93-.39-1.22-1.14-.15-.4-.22-.92-.25-1.41-.02-.35-.13-1.46-.22-1.46-.09.01-.16 1.13-.14 1.48.03.52.1 1.08.27 1.52.34.89.93 1.14 1.4 1.33.35.16.63.27.76.62l.01.06c-.13-.05-.31-.12-.55-.12-.36 0-.58.1-.7.18-.2-.12-.43-.19-.66-.19-.09 0-.16.01-.23.02-.02-.17-.08-.39-.24-.56-.13-.13-.31-.2-.51-.2-.41 0-.75.32-.95.87v.04l-.03.01c-.19-.11-.4-.17-.61-.18-.01-.07-.01-.15-.01-.23l.01-.01c.01-.03.01-.05 0-.08.02-.13.05-.28.12-.4.05-.12.13-.25.21-.38.42-.72.44-1.4.35-1.4-.1 0-.43.83-.66 1.22-.08.14-.16.27-.22.39-.07.13-.1.26-.13.4-.39-.05-1.26-.07-1.64.64l-.01.02c-.2-.11-.42-.18-.65-.18-.32 0-.51.1-.63.17l-.05-.03c.47-.32 1.22-.7 1.75-.97l.29-.14c.8-.41 1.32-1.25 1.48-2.37.02-.1 0-.14-.6-1.1-.27-.44-.61-.98-.67-1.12-.11-.3-.86-1.5-1.75-1.82.17-.04.35-.09.55-.16.12-.04.19-.12.21-.22.01-.02.01-.05.01-.07 0-.09-.04-.19-.09-.28.12.01.24.03.34-.02.09-.05.2-.17.19-.42-.01-.17-.03-.36-.06-.54h.01c.1.02.48.31.46 1.39-.05 1.6 1.61 2.73 1.73 2.76.07.01.16-.01.2-.06.12-.11.17-.38.17-.71 0-.41-.06-.91-.14-1.35-.28-1.61-1.24-1.89-1.59-1.99l-.09-.03c.14-.11.32-.29.42-.5l.06.05c.27.12.6 0 .84-.1v.03c0 .32-.01.98.42 1.71l.51.85.26.43c.04.07.13.1.2.08.28-.08.51-1.62.51-1.64 0-.07.01-.15.01-.25 0-.36-.07-.85-.24-1.29v-.01c.02.03.05.05.09.05.09.03.19-.02.22-.12.08-.3.14-.54.18-.73 0 .06.01.11.01.15l.07.37c.11.13.23.07.55-.09.11-.06.25-.13.39-.19-.21.29-.4.63-.56 1.06-.16.42-.18.91-.2 1.33-.01.3-.03.6-.09.76-.01.02-.01.04-.01.07 0 .06.03.12.1.15.07.04.17.02.22-.05.2-.27.64-.83 1.05-1.26-.08.19-.15.37-.17.46v.03c0 .05.03.11.07.14.06.04.14.04.19.01.02-.01.28-.14.7-.1l.01.02c-.35.12-1.07.47-1.64 1.34zm3.17 8.31c-.34 0-.53-.15-.54-.15-.07-.07-.19-.05-.25.02-.01 0-.12.14-.47.14-.31 0-.6-.15-.78-.41l-.76-1.11c-.03-.04-.07-.07-.11-.11.09-.04.22-.07.4-.07.34 0 .53.15.54.15.07.06.19.04.25-.03.01-.01.12-.15.47-.15.3 0 .6.15.78.4 0-.01.76 1.11.76 1.11.03.04.07.07.11.11-.08.03-.22.06-.4.06zm-4.5-1.87c-.13-.07-.34-.16-.64-.16-.08 0-.15 0-.22.01.1-.2.26-.42.51-.42.1 0 .18.03.25.09.1.11.14.3.16.42-.03.02-.05.03-.06.04zm-.99.25l.03.06c-.02-.02-.03-.04-.05-.06l.02-.01zm-1.29-.39c-.14.03-.24.09-.31.13-.13-.06-.34-.15-.64-.15h-.05c.33-.2.76-.18.99-.15-.01.06 0 .11 0 .17zm1.6 2.01c-.34 0-.54-.15-.54-.15-.08-.07-.19-.05-.25.02-.01 0-.13.14-.48.14-.3 0-.6-.15-.78-.41l-.77-1.11c-.03-.05-.07-.08-.1-.12.08-.03.2-.06.36-.06.34 0 .54.15.54.16.07.06.19.05.25-.03 0-.01.12-.15.47-.15.3 0 .6.16.77.4l.76 1.11c.03.05.08.08.11.13-.09.03-.2.05-.37.05zm-5.25 0c-.38 0-.6-.16-.6-.16-.07-.06-.18-.05-.25.02 0 .01-.14.15-.52.15s-.65-.13-.84-.41c-.12-.16-.17-.58-.01-.89.15-.28.43-.42.83-.42.31 0 .75.16.93.4l.76 1.11c.03.05.09.07.13.12-.1.02-.24.06-.44.06zm-.27-1.62l.01.02c-.01-.01-.01-.02-.02-.03h.01zm.59-8.24c.03-.01.09-.11.09-.11l.11-.3c-.02-.17-.19-.17-.35-.17-.09 0-.17 0-.25-.01h-.04c-.26-.03-.49-.11-.58-.35 0 .05.11-.08.11-.08.08-.08.24-.23.12-.39l-.27-.1c-.33-.04-.43-.11-.43-.26 0-.03.08-.08.13-.1.09-.05.22-.13.22-.27l-.16-.27c-.23-.2-.31-.32-.19-.52.05-.08.1-.1.13-.11.17-.03.45.16.56.23l.1.06c.18.07.27-.12.32-.21l.06-.11c.35.11.43.43.45.62 0 .08.07.16.16.16.08.01.16-.04.18-.13.04-.14.12-.29.17-.31.1.09.35.51.33 1.01-.01.08.05.16.13.18.07.02.16-.02.2-.09.03-.07.1-.14.13-.15.07.04.23.32.26 1.04l-.02.09c-.06.03-.37-.08-.65-.27 0 0-.01 0-.02-.01l-.05-.03c-.19-.12-.42-.28-.66-.45 0 0-.57-.42-.65-.3-.08.13.46.6.46.6.23.17.46.33.65.46.02.01.04.02.05.03.21.2.38.44.41.54-.66.22-1.13.23-1.26.03zm.07 1.71l-.02-.03c-.04-.1-.1-.22-.23-.25-.06-.01-.13-.02-.22.06-.15.11-.22.29-.29.48-.1.28-.21.56-.58.64-.16.03-.16.02-.19-.11-.03-.11-.09-.35-.36-.33l-.41.15c-.15.07-.55.27-.64.22-.15-.23-.01-.43.29-.72l.16-.17c.09-.16-.02-.29-.08-.36-.08-.11-.14-.18 0-.37.15-.22.35-.2.56-.17.11.02.23.03.32-.06.04-.04.05-.09.05-.13 0-.11-.1-.2-.14-.24l-.09-.1c.02 0 .06-.03.06-.03.29-.15.7.08.86.16.08.05.14.08.22.05.05-.02.09-.07.11-.11.04-.1-.01-.18-.07-.28l-.09-.21c.06-.06.15-.07.22-.06.08.01.15.01.21.01-.05.08-.1.17-.1.26 0 .04.01.09.04.13.06.11.15.19.26.24-.45.14-.68.31-1.01.56-.19.14-.59.48-.57.58.02.1 1.12-.55 1.59-.73.14-.06.38-.12.58-.17-.01.01-.02.03-.03.05-.13.47-.32.88-.46 1.01zm-2.84-.99c-.05.06-.06.11-.09.16l-.05-.03c-.05-.04-.07-.1-.13-.07l-.24.12c-.17.13-.61.5-.82.31-.07-.07-.09-.14-.1-.26l-.1-.29-.35-.07c-.31.01-.48-.01-.55-.21-.01-.05-.03-.12 0-.16.03-.07.19-.11.3-.15l.3-.16.01-.4-.02-.2c.12-.07.29.03.5.17.16.11.33.22.47.11.14-.1.13-.3.13-.49-.01-.08-.02-.24.01-.28.12-.07.4-.12.56.01h.02c.15.15.31.25.42.31-.07.18.01.43.2.62.06.06.16.13.31.19-.09.07-.16.15-.18.24v.04c0 .05.02.1.05.14-.21-.01-.47.04-.68.33zm-1.74.22H6zm-.4-1.95l-.26.12c-.24.15-.42.25-.63.06-.07-.06-.09-.09.06-.28.06-.08.17-.22.06-.36l-.26-.13c-.39-.1-.61-.21-.57-.47.03-.12.07-.15.09-.16.1-.06.31-.02.46.01l.37.01c.17-.09.13-.28.11-.42-.04-.27-.01-.28.06-.29.21-.04.48.19.64.33.14.12.22.19.34.17.15-.03.18-.17.2-.25.03-.14.05-.18.13-.19.13-.03.43.23.66.57 0 .01.01.01.02.01l.03.07c.02.03.07.19.07.19l.1.28c-.16-.05-.33-.09-.49-.12-.37-.05-1.47 0-1.47.15-.01.14.98.14 1.29.18.07.01.15.02.22.04-.14.1-.17.27-.17.44v.15s0 .05-.01.09l-.04-.03c-.21-.14-.54-.37-.87-.18-.05-.02-.1-.02-.16-.02zm.5-2.72c-.26.1-.38.13-.44.06l-.04-.11c.01-.11.14-.23.18-.26.05-.04.08-.12.06-.19s-.08-.13-.15-.14c-.16-.03-.62-.15-.75-.39-.04-.1-.04-.21.03-.35.1-.21.24-.21.5-.13h.26c.12-.06.11-.2.1-.31-.02-.2-.01-.26.06-.29.19-.07.44.06.6.21l.28.35.1.14c.15.12.34.05.54-.02l.23-.07s-.01 0-.01.01c0 .05.03.18.03.18.03.11.06.24.11.34-.17.08-.33.21-.39.45-.01.05-.02.11-.02.16 0 .36.31.56.46.65 0 0 .02.02.04.03.01.03.01.07.01.1 0 .02 0 .04-.01.06-.08.05-.14.09-.18.13-.15.01-.45.01-.62.29l-.01.01c-.07-.08-.16-.16-.25-.23.13-.18.28-.44.12-.64-.24-.33-.61-.17-.88-.07zm.15-3.41c.02-.06.14-.12.23-.16l.2-.13c.08-.09.06-.21.02-.38-.08-.39-.08-.64.12-.73.1-.04.19.04.34.23l.27.23c.21.05.31-.15.39-.3.03-.07.1-.2.15-.22.14 0 .21.46.24.65.04.24.06.38.2.43.19.05.32-.1.39-.18.06-.08.1-.12.12-.11.12.04.15.37.16.56.01.22.02.38.14.46.06.04.23.13.47-.04.19.18.49.21.67.22l.16.02v.01c0 .09-.04.18-.06.23-.64-.21-1.12-.1-1.36-.04l-.1.02-.13.01-.37.14c-.02 0-.02.01-.03.03-.18-.13-.41-.33-.59-.56-.29-.36-.43-.78-.53-.75-.22.08.06.66.21.87.22.32.65.71.91.86v.02c0 .15.02.31.06.47-.22.09-.29.32-.32.43l-.01.03-.08.02h-.02c-.04-.07-.09-.25-.11-.32-.04-.19-.08-.34-.19-.43-.16-.11-.36-.04-.55.03L7 8.1c-.05-.04-.11-.08-.11-.11 0-.01.01-.02.02-.03l-.25-.31c0-.01-.01-.01-.01-.01.08-.08.26-.19.33-.19.08 0 .17-.06.19-.13.036-.15-.08-.21-.226-.27-.72-.34-.83-.54-.79-.64zm3.2.13V6.5c.01-.002 0 .005.01.038zm.2-1.63c.27-.3.58-.13.92.08l.31.14c.02 0 .04-.01.07-.01.03.3.4.4.77.46-.1.25-.15.66.18 1.22h-.01c-.08.09-.1.2-.08.33.06.24.32.51.64.64.39.16.78.17 1.11.06l.07.01.03-.05c.01-.01.02-.01.03-.02.02.23.14.4.25.51-.08.07-.14.15-.18.24-.11-.04-.25-.07-.4-.03-.29-.36-.63-.26-.81-.19-.09-.2-.28-.53-.53-.64h-.37c-.06.03-.11.05-.15.08-.15-.32-.38-.53-.65-.6-.03 0-.05 0-.07-.01.02-.09.03-.2 0-.31-.05-.21-.28-.22-.47-.23-.38-.03-.51-.07-.51-.3l.07-.19.09-.32-.19-.32c-.24-.28-.32-.43-.19-.57zm.87-1.21c.01-.12.12-.17.26-.24.08-.03.17-.07.2-.17l-.08-.27c-.2-.36-.37-.74-.13-.91.32-.22.58-.04.94.34.12.14.19.22.3.21.14-.01.21-.13.29-.27.05-.1.15-.26.21-.25.29.04.32.69.32.93 0 .17.01.27.13.32.1.04.18-.02.23-.05.08-.07.17-.11.32-.03-.02.08-.02.16-.02.24 0 .13.01.24.01.34v.07c-.17-.01-.37.01-.49.28-.03.06-.04.12-.04.18 0 .2.12.4.26.58-.13-.06-.24-.09-.35-.11-.04-.13-.13-.39-.3-.68-.14-.24-.58-.73-.69-.6-.12.13.21.52.33.71.09.14.16.28.21.4-.13-.07-.3-.12-.47-.05-.26.11-.23.41-.2.6-.44-.07-.52-.13-.52-.16 0-.05.05-.09.13-.17l.21-.33c.01-.2-.19-.26-.42-.32-.4-.12-.73-.24-.69-.55zm1.44-1.93c.02-.09.06-.11.24-.13.1-.01.21-.01.28-.11.07-.1.03-.2-.05-.4-.09-.24-.26-.67-.07-.76.24-.11.58.32.73.5l.18.18c.06.02.17.04.27-.13.04-.06.05-.09.21-.05.17.06.21.57.18.92-.01.08.03.16.1.19s.15.02.21-.05c.05-.06.13-.11.16-.11.06.11.03.67-.03 1.06-.14-.07-.29-.1-.46-.06-.12.03-.19.09-.26.17-.19-.1-.36-.09-.48-.04-.02-.39-.09-1.08-.62-1.16-.25-.04-.4.14-.5.31-.07-.09-.14-.2-.11-.31zm.18-.4c.01.02.02.05.02.05-.01-.03-.02-.04-.02-.05zM13.47 4h.01v.06c-.01-.03-.02-.04-.02-.04zm1.14-.38l.23.2c.12.03.21-.07.28-.14l.14-.13c.32.22.26.53.05.97l-.08.26c.05.25.35.26.55.26l.2.02c-.07.1-.13.24-.17.38-.15.04-.27.1-.35.21-.13.14-.16.32-.16.51-.14-.12-.29-.22-.48-.25-.04-.11-.09-.28-.13-.47-.1-.44-.21-.96-.33-.93-.08.02-.07.5 0 .95.02.18.06.35.1.48-.11.03-.19.08-.26.15-.04-.11-.09-.2-.14-.26-.07-.07-.14-.1-.2-.107-.05-.117-.12-.217-.18-.3.09-.07.1-.13.1-.16.01-.1-.03-.155-.15-.29-.29-.33-.41-.546-.37-.636.04-.09.06-.08.17-.07.08.01.2.03.29-.06.08-.085.07-.2.05-.4-.03-.31-.05-.644.13-.69.25-.064.51.29.66.48zm.49-.45c.07-.11.25-.14.39-.14.06 0 .14-.05.18-.1.06-.12 0-.25-.13-.48-.13-.26-.36-.68-.18-.79.06-.04.12-.02.23.01l.35-.01c.1-.06.14-.18.21-.39.06-.21.19-.6.34-.58.12.02.21.08.28.19.14.24.1.64.05.79-.04.07-.01.17.04.23.1.09.21.03.28-.01.03-.02.14-.07.17-.07.27.42.03.8-.24 1.13-.09.1-.16.19-.1.3.06.12.18.12.27.12.13 0 .21.01.23.06.02.1-.13.52-.36.88-.09.04-.16.09-.21.11-.17.08-.44.2-.68.41.06-.25.2-.81.25-1.28.05-.48.06-.86-.08-.84-.07 0-.13.45-.23.93-.11.48-.24.98-.28 1.11h-.11s-.09-.01-.16-.02V4.7c.07-.144.2-.425.2-.723 0-.24-.09-.496-.38-.687-.15-.104-.29-.07-.4-.01.01-.035.02-.07.04-.096zm2.08-1.52v.02c0 .04-.01.08-.02.12.01-.03.01-.09.02-.13zm.19-.49l.21.14c.15.04.25-.09.36-.24.18-.24.34-.43.56-.38.19.05.21.24.17.57-.02.13-.03.24.06.32l.18.06c.1.02.24.04.36.25.09.17-.29.5-.5.64-.07.04-.1.11-.08.19.02.07.09.13.17.13.05 0 .06.02.07.03.02.04.03.1.02.15h-.22c-.39.14-.55.62-.65.9l-.02.05c-.1-.02-.24-.04-.39.03.09-.2.17-.42.17-.6 0-.054-.01-.11-.03-.15-.07-.19-.23-.25-.36-.27.15-.19.33-.47.33-.83 0-.18-.05-.38-.19-.57-.11-.17-.28-.17-.42-.13.01-.064.03-.1.03-.16 0-.09-.01-.185-.03-.28.05.024.1.06.16.125zm1.97 2.69l.32-.22c.15-.157.36-.39.57-.4.1 0 .21.055.32.166.07.07.1.14.1.2-.01.155-.2.32-.32.44l-.21.303c0 .14.1.22.18.27.08.06.13.09.12.22-.01.08-.11.21-.33.35-.02 0-.05.02-.06.03-.11.07-.25.14-.42.21-.05.02-.13.09-.14.14-.03.1.03.17.07.22.06.08.09.12.06.21-.05.14-.25.27-.35.32-.06-.01-.11-.02-.16-.02l-.05-.01c0-.05-.01-.09-.01-.09-.01-.22-.04-.52-.272-.65-.11-.05-.22-.05-.33-.02.07-.1.15-.2.25-.3.28-.31.59-.61.53-.69-.09-.1-.48.17-.81.48-.13.14-.24.28-.334.39-.02-.24-.08-.46-.19-.69l-.02-.06c-.02-.07-.05-.18-.13-.26.11-.12.21-.1.31-.07l.1.02c.15 0 .196-.13.26-.31.07-.21.21-.6.44-.69l.09-.02c.04.02.078.12.1.18.04.12.1.3.286.3zm1.12.55s.02-.01.03-.03v.01s-.01 0-.04.03zm.32.46h.1l.15-.15c.04-.09.29-.38.39-.4 0 .02.14.13.14.13l.27.18.35-.2c.14-.12.4-.36.54-.32.14.04.18.11.22.2l.17.19.28-.03c.26-.09.52-.15.68.05.05.06.05.11.04.14-.03.17-.31.36-.44.42-.04.02-.07.07-.08.11-.02.05-.02.09.01.14.04.09.09.23.1.33-.47-.08-.79.31-.98.54 0 0-.06.07-.1.11-.03-.017-.06-.04-.06-.04-.1-.077-.24-.18-.43-.195-.01-.12-.06-.25-.2-.4.08-.05.16-.1.26-.17.317-.18.66-.41.606-.48-.06-.07-.45.08-.79.22-.16.07-.29.17-.37.23-.317-.09-.63.09-.83.2 0 0-.09.05-.14.075-.05-.112-.13-.243-.23-.35.192-.15.32-.31.33-.49zm1.05-.63c-.02.01-.03.02-.03.02.02-.02.02-.02.03-.02zm1.4-.12c-.02 0-.04.01-.04.01.03-.01.03-.01.04-.01zm.99 2.2c.15-.07.51-.23.7-.16.03.02.07.04.11.12.11.25-.01.41-.25.59-.03.01-.05.03-.07.05-.04.04-.09.07-.15.1-.18.12-.34.23-.4.39-.03.08-.06.1.01.15l.17.12c.15.06.26.11.24.31-.01.08-.15.21-1.05.2-.22 0-.32 0-.37.12-.04.11.01.19.08.28.05.08.17.25.14.32-.16.37-1.1.32-1.41.3h-.13c-.07-.05-.15-.09-.24-.1.04-.11.08-.23.07-.34.13-.11.23-.24.31-.37.03-.02.15-.1.27-.17.53-.32 1.07-.93.96-.98-.09-.04-.72.4-1.06.62.02-.18.02-.33.01-.42-.01-.04.02-.1.02-.1.05-.13.13-.356-.04-.53-.15-.156-.35-.1-.47-.046.09-.14.22-.3.34-.33.13-.03.21.022.33.114l.23.13c.17.05.29-.09.424-.26.21-.25.4-.46.65-.41.06.01.1.07.13.187.02.08.06.2.19.22l.22-.066zm1.02 1.224l.02.29c.09.22.34.15.53.09.32-.09.46-.098.54.065.16.35-.01.52-.39.71l-.21.17c-.07.14.02.29.1.4.03.06.1.16.09.19-.1.18-.54.08-.84.02-.28-.07-.46-.11-.58-.01-.15.11-.14.26-.13.35l-.01.09c-.04.14-.24.14-.54.11-.14-.02-.27-.03-.34.07-.28-.12-.66-.16-1.15-.11-.02-.02-.03-.05-.05-.07-.07-.06-.17-.1-.3-.12.02-.06.04-.11.04-.18 0-.03 0-.06-.01-.1.47.03 1.46.06 1.7-.52.03-.05.04-.11.04-.16 0-.12-.05-.23-.11-.33.5.01 1.26-.02 1.3-.52V7.9c0-.3-.17-.45-.31-.53.05-.03.1-.06.14-.09.04-.03.09-.06.14-.09.22.02.3.08.32.1.04.05.03.12.02.23zm-3.74 2.76s0-.018-.01-.02l.04-.03v-.004l-.04.08c0-.012-.01-.03-.01-.03zm-.03-.08c.01.033.02.05.02.06-.02-.03-.03-.06-.03-.06zM18.82 8.9c-.02-.1-.08-.136-.13-.18.23-.128.52-.308.63-.55.01.23.07.467.2.68-.28.032-.58.315-.82.54l-.03.025c.01-.014.03-.024.04-.04.08-.12.11-.244.11-.365V8.9zm1.07-.166l-.06-.06c-.08-.13-.113-.28-.133-.42l.192.49zm-.11-1.11l.01-.01c.074-.12.164-.19.25-.25l-.253.26zm.39-.51l.01-.05v.05zm1.768.06l-.05.16.01.1c.008.05.01.11.01.17 0 .24-.06.59-.41.88-.32-.12-.61-.28-.79-.55l-.13-.29c-.034-.12-.057-.24-.05-.4.48-.29.905-.17 1.045-.13.03.01.03.024.06.017l.24-.05s.12-.03.125-.04c-.02.01-.057.15-.057.15zm-2.35-.57c.15-.09.356-.25.424-.47.02-.05.03-.11.03-.16 0-.12-.044-.21-.087-.27.09-.045.17-.095.25-.135.09.07.2.27.24.35.02.04.18.17.18.17.14.04.28-.04.44-.14.26-.15.46-.25.63-.11.16.12.17.23.16.28-.253.15-.43.47-.5.6-.344-.04-.666.03-.973.2-.16-.04-.66.1-.91.53-.07.11-.113.26-.143.42l-.16-.17c.3-.26.47-.53.47-.81 0-.09-.02-.19-.06-.28zm-3.52-1.52c-.003.01-.01.01-.01.01l-.024-.03c.01.016.018.02.036.034zm1.004-.32l.11-.06c.08-.04.19-.12.275-.09.1.03.113.08.14.19l.027.09c.07.15.22.48.15.96-.01-.004-.02-.01-.03-.02-.135-.07-.905-.314-1.49-.354.17-.426.606-.63.8-.7zm-4.88 2.38c0-.01-.005-.01-.01-.01l.01.02zm-.03-1.91c-.01-.06-.04-.22-.01-.25.072-.032.21.09.274.14.02.02.03.04.05.04l.2.05c.2.01.6.04.92.63-.225.07-.533.19-.825.35-.24.14-.44.27-.59.39-.3-.56-.13-.86-.05-1.01l.05-.13-.01-.205zm.43 3.14h.005c.044.03.025.07.044.12 0-.01-.02-.06-.05-.11zm-2.973.41c-.14.14-.2.15-.21.15 0-.01-.01-.01-.01-.01-.4-.232-.54-.692-.54-1.062v-.02l-.05-.22s-.01-.05-.01-.068c0 .028.08.017.08.017l.16-.01.14-.02c.21-.05.61-.12 1.12.04-.03.22-.33.88-.66 1.21zM7.5 11.47l-.055-.19c0-.016-.026-.06-.03-.07-.053-.107-.088-.19-.03-.286.064-.096.168-.104.288-.1l.133-.014c.01 0 .12-.078.12-.078.14-.12.38-.31.77-.2-.04.09-.06.17-.06.26 0 .21.12.37.23.49l-.66 1.1c-.15-.08-.42-.27-.54-.5l-.154-.41zm3.548-.968c-.08.03-.125.11-.18.18-.128-.27-.32-.49-.624-.56-.22-.05-.33.14-.4.28-.18-.126-.466-.3-.757-.237-.058.017-.11.044-.158.07-.28-.106-.5-.106-.7-.062-.01-.05-.02-.093-.02-.124l-.2-.21c-.19-.12-.33-.24-.29-.43.04-.15.16-.22.33-.25.05.01.1 0 .14-.04l.3-.14.06-.16c.03-.12.05-.17.1-.18.11.21.27.41.5.54.04.26.18.46.42.56.4.18 1.01.07 1.34-.08.08.14.19.26.27.34l-.13.12c-.05.06-.08.18-.08.29v.07zm2.173 2.14c.02.01.05.01.05.01.35.106 1.09.32 1.34 1.71.1.62.13 1.03.13 1.296 0 .177-.01.28-.03.354-.36-.27-1.34-1.16-1.34-2.27l.01-.18c0-.4-.06-.68-.15-.92zm.2-1.26v.14c-.02.226-.34.49-.49.59-.08-.068-.15-.11-.22-.14-.04-.1-.15-.47-.22-.914-.13-.816-.17-1.11-.27-1.074-.11.033-.16.29-.06 1.075.02.18.05.35.08.49-.03-.03-.05-.05-.08-.07l-.27-.04c-.02.01-.03.02-.05.03-.06-.36-.22-.68-.4-.86 0-.02 0-.05-.01-.07-.02-.05-.02-.17-.01-.21.03-.01.24-.28.24-.28.03-.12-.05-.2-.15-.3-.17-.16-.31-.32-.25-.49.01-.02.03-.03.11-.07l.16-.07c.09-.08.08-.18.07-.33-.02-.32-.01-.64.29-.77h.08c.16.07.32.39.39.59.02.03.03.05.06.08.1.08.21.03.29 0 .16-.07.29-.1.41.01-.16.14-.23.31-.23.48 0 .17.06.32.13.45-.12.11-.27.29-.27.5 0 .48.5.58.79.63-.06.09-.12.2-.12.36 0 .08.02.17.05.26zm2.85-.03c-.06-.05-.14-.126-.23-.24-.03-.05-.21-.25-.44-.43-.41-.3-.96-.61-1.01-.51-.05.09.44.424.79.73.24.212.4.473.5.67.02.014.02.04.03.06.03.052.05.11.08.17l-.05.004c-.32.056-.43.075-.8-.07L15 11.65c.013-.04.02-.25.02-.25 0-.05.02-.07-.02-.1-.05-.03-.056-.01-.11 0l-.33.07c-.17.08-.465.2-.63.13-.014-.02-.08-.04-.12-.17-.09-.27-.01-.36.08-.44.06-.06.14-.14.12-.26-.025-.16-.185-.19-.366-.22-.34-.06-.533-.13-.533-.29 0-.1.14-.24.24-.313.04-.026.07-.07.08-.116.01-.04 0-.09-.03-.14-.02-.01-.3-.41-.02-.61.26-.19.42-.04.46.01.05.06.13.08.2.06.07-.02.12-.09.12-.16 0-.01.01-.25.18-.29.15-.03.54.42.65.77.02.05.07.11.13.13.11.04.2-.03.32-.11.06-.03.22-.14.27-.12.15.12.29.7.29.88 0 .05.04.15.08.17.1.09.22.06.33.05l.16-.02c0 .05-.04.39-.23 1.06zm-.21.794c.07.28.09.57.09.797 0 .09 0 .17-.01.24-.01.21-.14.72-.24 1.06l-.58-.97c-.28-.478-.35-.91-.36-1.226.01 0 .01.01.02.01.46.186.65.15 1 .09l.09-.014zm.47-2.2c-.09-.007-.17.005-.24.02-.03-.27-.16-.814-.4-1.02-.23-.19-.52-.01-.67.1-.15-.31-.46-.75-.8-.828-.02-.022-.04-.04-.05-.054-.14-.113-.28-.26-.26-.487.02-.105.13-.16.25-.2.18-.086.17-.23.15-.422-.03-.423-.01-.704.23-.76.29-.064.55.23.77.54l.27.257c.16.05.28-.08.35-.17.11-.12.14-.13.16-.12.15.07.21.25.23.34-.04.11-.05.21-.05.32 0 .29.11.58.19.77-.07.03-.15.07-.23.16-.12.14-.17.316-.17.5 0 .38.18.8.32 1.07zm.37.557c0 .02 0 .036-.01.036.01-.02.01-.03.02-.03zm-.19-.5c.01-.01.02-.02.04-.032h.02c0 .03-.01.06-.02.08l-.04-.04zm.99.176c-.11.28-.19.56-.22.69l-.22.11-.1.04v-.03c-.01-.24-.03-.42-.06-.55.13-.04.36-.14.61-.26zm-.61-.11c.04-.17.08-.35.13-.54.1-.31.73-1.4.57-1.46-.14-.06-.75 1.01-.85 1.36-.03.11-.06.21-.09.31-.13-.26-.26-.6-.26-.85 0-.1.03-.2.09-.26.05-.06.08-.06.14-.06l.14-.03c.08-.03.11-.09.11-.15 0-.07-.03-.15-.06-.22-.07-.16-.18-.46-.18-.7 0-.07.01-.14.04-.2.04-.09.11-.15.23-.19l.06.04c.13.08.23.09.31.01l.08-.22c.02-.17.09-.69.31-.69l.09.04c.05.02.14.07.24.03l.09-.08c.36-.33.46-.3.47-.29.06.03.08.24.09.35.01.17.02.3.13.37l.26.05.13.02c.14.32-.11.58-.39.79-.06.05-.15.12-.12.24l.15.16.11.07c.04.16-.43.42-.59.51l-.26.22c-.04.04-.07.02-.06.09.01.05.04.03.09.06l.21.1.07.01c.09.38-.97.92-1.42 1.09zm.77 3.08c-.16.18-.31.36-.45.52 0-.06.01-.1.01-.16.02-.4.04-.86.18-1.23.1-.26.21-.48.32-.68.12.07.28.13.44.17-.01.11-.05.13-.16.18l-.32.23c-.23.29-.17.69-.02.93zm2.41-2.28l.11.25.05.06c-.24.18-.61.08-.85.01l-.31-.03c-.13.06-.16.2-.17.29l-.02.09c-.13.02-.75-.12-.96-.24.14-.2.29-.36.43-.45.01 0 .01-.01.01-.01.18-.09.4-.19.6-.25.43-.14 1.02-.4.97-.5-.04-.11-.64.02-1.08.16-.35.12-.88.31-1.12.41.13-.42.37-.92.56-.95.07.14.19.15.23.15l.32-.23c.44-.42.59-.47.64-.45l.05.06.17.17c.13.05.24-.03.39-.12.08-.05.28-.18.34-.16.09.03.1.07.13.13l.15.19h.37c.15-.03.49-.11.53 0 .1.24-.01.33-.27.47-.13.06-.26.13-.26.28l.07.23.03.14c-.02.07-.08.11-.16.13-.03-.01-.06 0-.09.01-.1.01-.22 0-.37-.02l-.33.02c-.05.01-.07-.02-.1.03-.04.04 0 .04.02.1zm3.78-.03c0-.01-.11.09-.11.09l-.16.14-.07.15c-.07.22-.21.65-1.02.8-.01-.03-.03-.05-.04-.08-.11-.19-.24-.39-.28-.68-.05-.41 0-.72.05-.9.66-.07 1.11.01 1.28.25.02.02.19.12.19.12.05.02.16.06.17.09zm.25.25c-.02.06-.07.11-.14.12.04-.03.09-.08.14-.13zm1.66.59c.01-.06.04-.11.04-.18 0-.13-.04-.28-.19-.43-.37-.39-.97-.01-1.27.18-.03-.1-.08-.2-.16-.29.03-.05.04-.11.03-.17-.02-.23-.25-.33-.38-.39l-.02-.01c.28.02.71.02.82-.38l.02-.23c-.04-.02.28.03.28.03.4.08 1 .22 1.22-.21.03-.06.04-.12.04-.18 0-.15-.09-.28-.15-.38 0 0-.01-.03-.03-.06.18-.09.65-.33.65-.79 0-.12-.02-.25-.09-.39-.21-.48-.69-.34-.96-.26l-.09.02v-.03c.01-.05.01-.1.01-.16 0-.11-.02-.23-.11-.34-.06-.07-.14-.12-.25-.16.11-.13.19-.28.19-.47 0-.1-.01-.2-.06-.3-.06-.16-.17-.27-.31-.32-.31-.13-.7.04-.94.14-.01-.04-.03-.09-.05-.13.02-.07.04-.13.04-.2 0-.14-.03-.27-.08-.37.17-.11.43-.32.48-.59.01-.03.01-.07.01-.1 0-.12-.04-.24-.13-.34-.33-.41-.83-.24-1.07-.16l-.03.01c-.07-.15-.17-.31-.44-.37-.31-.08-.63.2-.86.4 0 0-.06.05-.1.09-.01-.02-.03-.04-.03-.04l-.35-.23c-.31-.06-.66.45-.74.58h-.01c-.06-.09-.13-.16-.18-.2l.03-.04c.17-.15.43-.38.44-.69 0-.16-.07-.31-.2-.44-.18-.18-.37-.28-.57-.27-.36.01-.64.31-.83.51l-.03.02c-.02-.06-.05-.12-.08-.18.02-.06.03-.13.03-.2 0-.08-.02-.17-.04-.24-.02-.06-.06-.09-.09-.13.2-.17.47-.43.47-.72 0-.08-.02-.16-.06-.23-.18-.33-.41-.39-.56-.42l.01-.01c.01-.07.02-.17.02-.27 0-.27-.07-.59-.46-.68-.47-.12-.78.29-.94.51 0 0-.02.03-.05.05-.09-.1-.27-.26-.54-.22-.12-.2-.3-.32-.53-.34-.45-.06-.62.47-.73.83l-.06.17-.06-.01c-.12-.03-.31-.08-.51.03-.18.1-.24.26-.24.43 0 .28.17.6.29.83 0 0 .03.05.05.11-.2.04-.37.11-.47.25-.05.06-.07.14-.09.21-.03-.02-.05-.05-.08-.08.06-.3.2-1.26-.02-1.52-.06-.08-.16-.13-.26-.13-.04 0-.07.03-.11.04 0-.36-.07-.84-.44-.96-.28-.08-.43-.01-.52.08-.22-.28-.64-.79-1.12-.56-.22.1-.29.29-.29.49 0 .25.12.53.19.71l.01.03c-.17.02-.43.07-.5.39-.01.05-.01.1-.01.14v.04c-.27-.2-.63-.33-1.03-.05-.2.14-.27.32-.27.52 0 .32.17.66.27.83-.15.07-.38.19-.41.49v.09c0 .56.61.74.96.84l.06.02s-.01 0-.01.01c-.03.04-.21.14-.28.15 0-.01-.12-.08-.12-.08-.29-.19-.88-.57-1.38-.03-.12.12-.16.25-.16.37 0 .28.22.53.34.68l.1.13c-.01 0-.05.11-.05.11l-.11.36c0 .04.01.06.01.1-.01.01-.05.03-.08.05l-.02-.17c-.03-.33-.05-.77-.41-.89-.23-.06-.37.08-.46.18-.01-.01-.01-.03-.01-.03-.05-.36-.14-.95-.59-.95-.24-.01-.37.22-.46.4L7.58 5l-.04-.04c-.14-.17-.4-.485-.76-.334-.31.133-.38.405-.38.67 0 .18.03.34.05.46l.02.09c-.03.01-.05.02-.05.02-.15.08-.34.17-.41.37-.03.06-.03.11-.03.16 0 .37.44.64.78.82-.09.06-.17.12-.23.183-.2-.11-.438-.15-.66-.07-.26.1-.31.32-.31.5 0 .02.01.04.01.07-.22-.06-.59-.11-.81.34-.065.14-.09.26-.09.37 0 .13.03.23.08.3.15.28.47.42.72.5-.05.07-.11.15-.12.25l.12.39c.24.28.58.14.83.03.29-.12.4-.14.47-.05 0 .03-.07.16-.17.27-.06-.01-.12-.02-.18-.01-.25.05-.34.21-.38.35-.22-.19-.57-.48-.94-.4-.295.07-.357.28-.357.46 0 .09.02.17.03.23l-.044-.01c-.22-.05-.51-.11-.74.03-.12.09-.2.22-.23.4-.01.05-.02.1-.02.14 0 .5.52.66.79.73-.07.09-.15.21-.15.36 0 .11.04.23.17.33.43.4.85.11 1.07-.03l.02-.01.03.2.02.11c-.03.02-.08.03-.08.03-.18.05-.41.12-.52.33-.04.07-.05.14-.05.22 0 .07.01.15.04.22.16.48.67.46.9.45 0 0 .04 0 .07-.01v.03c.02.14.04.34.21.5.44.4 1.03-.1 1.29-.3l.01-.01.14.11c.03.11.1.2.14.25l-.04.05c-.15.15-.47.44-.47.8 0 .12.04.25.13.38.22.32.7.09 1.09-.09l.26-.12c0 .02.01.04.01.04.03.14.12.47.6.37.56-.11.73-.55.84-.86.03-.1.07-.18.11-.25.04.05.21.24.21.24l.24-.04c.33-.2.57-.96.65-1.24.68.32 1.32 1.31 1.42 1.56.06.16.31.57.69 1.18.23.35.49.78.54.9-.14.98-.59 1.71-1.27 2.05l-.29.14c-.63.32-1.58.79-2.03 1.17-.04-.01-.09-.02-.14-.02-.38 0-.6.11-.72.18-.24-.13-.53-.2-.77-.2-.69-.01-1.01.33-1.16.61-.22.43-.16.99.04 1.26.26.37.65.56 1.14.56.36 0 .56-.1.68-.18.13.07.36.16.69.16.39 0 .61-.1.74-.17.2.12.42.19.65.19.32 0 .52-.1.63-.18.13.07.34.16.64.16.34 0 .56-.09.68-.16.2.11.42.18.65.18.32 0 .52-.09.63-.17.12.07.34.16.64.16.34 0 .56-.09.68-.16.2.11.41.18.64.18.32 0 .52-.1.63-.18.12.07.34.16.64.16.34 0 .56-.09.68-.17.2.12.42.18.65.18.32 0 .52-.09.63-.17.13.07.34.16.64.16.39 0 .61-.11.72-.19.25.13.54.21.79.21.55 0 .96-.22 1.17-.64.22-.43.15-.98-.05-1.24-.29-.37-.65-.54-1.14-.54-.35 0-.56.1-.68.18-.11-.05-.28-.12-.5-.15-.21-.41-.52-.55-1.61-1.01l-.15-.06c-1.16-.49-1.43-.95-1.64-1.33l-.04-.05c-.19-.34-.58-2.38.24-3.65.47-.72 1.05-1.04 1.38-1.17.06.35.16.83.34 1.01l.28.15.16-.09.04.11c.14.35.34.83.72.88.3.04.44-.09.52-.21.16.17.4.41.69.4.27-.02.42-.19.49-.28.17.06.61.21.87-.18.07-.11.1-.21.1-.3 0-.23-.2-.39-.31-.47 0 0-.01-.01-.02-.01.06-.07.16-.16.16-.31.1 0 .21-.02.32-.08.17-.11.19-.27.2-.37 0-.01.01-.01.02 0 .17.01.53.06.68-.28.03-.08.05-.15.05-.22.16-.07.23-.2.27-.31.23.11.55.25.79.14.26-.12.29-.41.31-.58.2.04.53.1.77-.07.14-.1.22-.25.25-.46.01-.04.02-.08.02-.12 0-.6-.7-.74-.99-.78m18.3 38.61l.11.01V51l-.1.004c-2.01.18-2.18.2-2.18 4.67v2.4c0 1.39 0 4.29 3.67 4.29 4.04 0 4.33-2.606 4.33-6.89v-1.1c0-.86-.11-2.593-.52-2.995-.29-.28-.93-.32-1.59-.32h-.11v-.76l.78.03 1.75.03 2.27-.05.29-.01-.05.72h-.1c-1.52.08-1.53.47-1.56 1.36v.08l-.03 1.86c-.1 6.18-.39 9.16-6.01 9.16-3.55 0-5.42-1.54-5.42-4.45l.16-4.21c0-1.97-.18-3.45-.45-3.61-.2-.14-.48-.14-1.34-.14h-.11l-.04-.71.11-.02c.26-.03 2.06-.06 2.95-.06l.75-.02c.83-.02 1.95-.04 2.45-.02zm22.11-.1l1.37.09c.31.02 1.31.03 2.7.03h.1v.7h-.11c-.72 0-1.46.14-1.58 1.02-.09.5-.16 4.55-.16 6.29 0 1.16 0 3.86.06 4.89l.02.12-.83.01-.03-.04-9.31-9.7-.03.75-.07 5.33c-.03 2.1-.03 2.37 2.43 2.8l.09.01v.74l-1.01-.08-1.44-.06-3.01.13v-.59l.01-.08.84-.19c.47-.09.75-.14.84-.88.1-.72.19-3.27.19-4.1l.03-2.24c.07-3.66-.2-3.86-1.99-4.19l-.08-.02.01-.63-.02-.12.92.07.96.03 1.44-.03.04.04s8.78 9.15 8.95 9.33c.01-.36-.02-3.47-.02-3.47-.07-5.15.32-5.2-2.17-5.35h-.12l.14-.64c.07-.05.9-.04.9-.04zm6.53.21V51h.11c1.69.06 1.98.4 2.11.75.24.56.29 4.23.29 5.59v.224c0 1.11 0 3.71-.35 4.31-.11.2-.56.55-2.23.68h-.1v.655l2.07-.07h1.89l3.15.1v-.12l-.04-.6h-.1c-1.37 0-1.81-.03-1.98-.56-.08-.28-.12-1.51-.12-3.64 0-5.03.03-6.36.31-6.85.35-.56 1.56-.49 1.92-.46l.12.01v-.76h-1.54l-2.18.05-1.44-.03-.61-.03-1.14-.03H73v.11zm8.8.01l.03.56.08.01c1.75.22 1.82.22 3.24 3.1l2.98 6 .02.05c.49 1.03 1.24 2.57 1.5 3.47l.01.08h.64l.03-.08c.44-1.29.76-2.18 1.79-4.19l3.16-6.14c.73-1.45 1.04-1.82 2.47-2.1l.08-.02v-.7h-.11c-.81.04-1.6.04-2.41 0l-2.48-.06-.01.1-.04.67.11-.01c.65 0 1.52.08 1.52.78 0 .38-.28 1.01-.47 1.43l-.05.11c-.65 1.44-1.06 2.23-1.49 3.07l-1.44 2.94-.34.73c-1.43-2.27-4.01-8.34-4.02-8.7 0-.16.03-.18 1.1-.31l.33-.05v-.71l-1.98.01-1.08-.01c-.75 0-2.27-.03-3.06-.09l-.13-.01.01.12zm28.22-.15c-1.6.1-4.12.12-5.79.12-1.02 0-3.56-.05-4.5-.08h-.11v.64l.08.02c1.11.19 1.18.22 1.26.46.12.3.26 1.47.26 5.38 0 1.67-.13 4.3-.3 5.2-.08.44-.63.58-1.5.67l-.11.01.1.72.1-.01c1.75-.19 3.87-.19 5.14-.19l5.21.07.05-.08c.27-.43.68-1.07.97-3.14l.02-.12-.63-.04-.03.07c-.44 1.19-1.33 2.41-4.5 2.41-1.12 0-1.6-.14-2.22-.38-.06-.36-.12-.9-.16-2.48l-.03-2.37c.84-.1 1.6-.11 1.94-.11 2.54 0 2.74.2 3.09 1.75l.02.09h.61v-.11c-.03-1.7-.03-2.1.07-3.88l.01-.11h-.69l-.02.08c-.26.95-.46 1.14-.82 1.19-1.87.23-3.69.16-4.13.13l-.06-1.7c0-.82.07-2.1.22-3.01.68-.12 1.96-.24 2.51-.24 1.44 0 2.29.19 2.66.59.32.33.32.81.29 1.36v.1l.73.09v-.13c0-.13.09-.65.16-1.02l.07-.48c.1-.66.1-.99.1-1.31v-.11l-.11.01zm8 5.99c.39.05.95.06 1.3.06 1.16 0 3.12-.32 3.12-2.43 0-1.12-.82-2.77-3.08-2.77-1.26 0-1.26.04-1.3 2.2 0 0-.03 2.76-.04 2.94zm2.12-6.05c2.73 0 4.64 1.45 4.64 3.52 0 1.68-1.47 2.83-2.9 3.22 2.62 3.67 3.1 4.23 4.14 5.18.03.03.85.82 1.89.88h.11l-.05.68h-.1c-2.26 0-3.39-.85-4.01-1.32-1.99-1.52-3.93-4.51-4.31-5.14-.11 0-1.36-.05-1.56-.06v1.72l-.01.58c0 .87.01 2.14.21 2.52.14.25 1.18.54 1.73.71l.07.01.04.69-.13-.02c-.78-.13-2-.22-2.85-.22-.45 0-2.45.12-2.89.16H114l-.15-.58.116-.02c.26-.04 1.33-.31 1.576-.77.2-.41.19-2.67.19-3.64V55c0-3.88-.17-3.882-1.72-3.98h-.11l.05-.76.19.01 1.15.06 1.2.027c.29 0 1.05-.06 1.78-.126l1.77-.06zm9.22 3.65c0 2.2 1.9 2.97 3.28 3.53l.12.04c2.36.95 3.45 1.38 3.45 3 0 .96-.72 1.98-2.3 1.98-1.4 0-2.42-.59-3.04-1.09-.74-.62-.93-1.54-1-1.84l-.02-.08H129l.04.13c.43 1.42.58 2.06.54 3.67v.1l.64.04.03-.08c.03-.07.14-.31.29-.31.15 0 .6.11.79.16l.09.02.19.06c.32.09.78.23 1.6.23 3.18 0 4.89-1.92 4.89-3.71 0-2.54-2.53-3.53-4.19-4.18-1.59-.6-2.79-1.16-2.79-2.44 0-1.26.98-2.1 2.43-2.1 1.31 0 2.24.72 2.46.97.53.48.66 1.05.784 1.6l.02.08.093.02h.57l-.17-1.66c0-.61.13-1.27.196-1.52l.02-.12-.58-.08s-.35.23-.42.28c-1.185-.32-1.78-.41-2.617-.41-2.73 0-4.64 1.51-4.64 3.68zm11.54-3.45V51h.1c1.7.06 1.98.4 2.11.75.23.56.28 4.23.28 5.59v.22c0 1.11.01 3.71-.34 4.31-.11.2-.55.55-2.23.67h-.09v.65l2.06-.07h1.89l3.14.09-.01-.12-.04-.6h-.1c-1.38 0-1.82-.03-1.99-.56-.08-.28-.13-1.51-.13-3.64 0-5.03.03-6.36.31-6.85.35-.56 1.56-.486 1.92-.45l.12.01v-.76h-1.54l-2.19.053-1.44-.03-.61-.02-1.13-.03h-.11v.11zm21.77-.4h-.42l-.03.04c-.07.09-.19.25-.87.28l-2.62.03H155l-2.86-.03c-.68-.04-.8-.2-.87-.29l-.03-.04h-.48l-.03.07c-.06.13-.95 2.43-.99 2.57l-.02.07.6.36.05-.12c.41-1.08.84-1.58 3.12-1.58.72 0 1.33.05 1.74.08.145 1.75.16 3.44.16 4.71 0 1.22-.04 4.83-.16 5.6-.05.28-.135.46-1.25.65l-.804.11-.31.04.13.72 1.08-.08.3-.02 2.1-.05h.33l1.16.01.88.04.94.03.01-.1.08-.64-.59-.06-.13-.02c-.55-.07-.96-.2-1.11-.35-.14-.16-.38-1-.38-4.73l.06-2.66.07-3.03c0-.26 0-.28 1.19-.28l.05.01.717-.01h.15c2.113 0 2.28.44 2.64 1.4l.11.3.6-.36-.14-.69c-.2-1.01-.38-1.86-.43-1.96l-.02-.08h-.07zm11.53.36v.7h.15c.65.03 1.55.07 1.55.58 0 .15-.28.91-2.74 4.43-1.06-1.26-3.4-4.24-3.4-4.63 0-.14 0-.3 1.49-.33h.1v-.75l-1.24.03-2.4.03-2.59-.03v.7h.11c.65 0 1.02.08 1.34.29.79.55 3.58 4.08 3.68 4.23l1.23 1.57c.06.91.13 1.93.13 3.18 0 1.933 0 2.335-1.82 2.4h-.1l-.04.64.1.013c.27.02 1.11-.04 1.92-.1l1.39-.09 1.05.05.21.01 1.42.07-.01-.11v-.54l-.1-.01c-1.78-.16-1.8-.39-1.83-.73v-.13c-.04-.79-.06-1.68-.06-2.65 0-.72.01-1.5.03-2.3.03-.05 2.55-3.87 2.55-3.87.81-1.24.61-1.92 2.36-1.95h.11v-.74h-.1c-.23-.02-.28.02-.9.05l-.84.03-1-.05-.7-.04-.98-.04h-.11v.11zm24.32 12.07c2.39 0 3.86-2.33 3.86-4.48 0-3.36-1.93-6.83-5.17-6.83-2.59 0-3.95 2.28-3.95 4.54 0 3.33 1.96 6.76 5.24 6.76zM197.74 50c4.29 0 6.85 3.37 6.85 6.62 0 3.66-3.23 6.76-7.05 6.76-3.73 0-6.66-2.98-6.66-6.76 0-3.53 3.2-6.63 6.85-6.63zm19.77.09c-1.89.18-2.32.18-4.42.18l-2.22-.03-2.29-.07-.77.04-.58.06-.01.1v.45l.11.01c.57.03 1.11.08 1.35.43.33.5.36 1.02.36 5.57 0 2.14-.19 4.56-.26 4.91-.11.5-.82.68-1.35.77l-.08.015-.04.686.12-.01c1.29-.1 2.69-.13 3.06-.13l1.13.03 2.1.1v-.76l-.15-.01c-1.49-.15-1.99-.4-2.15-.59-.16-.19-.22-.96-.22-1.78 0-.25.01-.48.01-.72l.09-2.34 1.07-.06c1.17 0 2.64.27 3.02.44.19.07.37.48.45 1.05l.014.1h.65v-.1c.12-1.33.11-2.65.07-3.65v-.11h-.68l-.015.09c-.16.94-.22 1.33-2.76 1.33-.76 0-1-.03-1.73-.12h-.06c-.02-.22-.03-.47-.03-.74 0-.29.01-.6.02-.91 0 0 .04-2.67.04-3.1.74-.07 1.38-.1 1.56-.1 1.41 0 2.66.25 3.16.64.4.31.57.82.68 1.27l.02.09.72-.04-.01-.11c-.02-.2.03-.91.07-1.53l.07-1.37-.12.01zm24.15-.19h-.41l-.03.04c-.06.09-.19.25-.87.28l-2.62.03h-3.67l-2.86-.03c-.68-.04-.8-.2-.87-.29l-.04-.05h-.49l-.02.08c-.05.13-.95 2.43-.98 2.57l-.02.08.6.36.04-.12c.41-1.07.85-1.58 3.12-1.58.73 0 1.34.05 1.76.09.13 1.75.15 3.432.15 4.71 0 1.22-.03 4.83-.17 5.603-.04.28-.13.46-1.24.65l-.81.11-.32.04.14.72 1.08-.07.29-.02 2.1-.05h.33l1.16.01.88.04.94.03.02-.09.08-.64-.59-.06-.14-.02c-.55-.07-.96-.2-1.11-.35-.147-.16-.39-.99-.39-4.72l.06-2.66.07-3.03c0-.26 0-.28 1.2-.28l.04.007.71-.01h.16c2.12 0 2.28.44 2.63 1.4l.12.3.6-.36-.14-.69c-.2-1.01-.38-1.86-.42-1.96l-.04-.08h-.07zm9.54 12.44c2.38 0 3.86-2.32 3.86-4.48 0-3.35-1.94-6.82-5.17-6.82-2.59 0-3.94 2.28-3.94 4.54 0 3.33 1.95 6.76 5.23 6.76zM250.51 50c4.29 0 6.85 3.37 6.85 6.62 0 3.66-3.23 6.76-7.05 6.76-3.73 0-6.65-2.97-6.65-6.75 0-3.53 3.19-6.63 6.85-6.63zm13.31 6.15c.38.05.94.05 1.29.05 1.16 0 3.12-.32 3.12-2.42 0-1.12-.81-2.77-3.08-2.77-1.26 0-1.26.03-1.3 2.19 0 0-.03 2.76-.03 2.94zm2.12-6c2.72 0 4.63 1.45 4.63 3.526 0 1.68-1.476 2.83-2.89 3.23 2.61 3.67 3.09 4.235 4.133 5.18.03.034.853.82 1.883.885l.104.01-.05.69h-.09c-2.26 0-3.38-.85-4.01-1.32-1.98-1.52-3.93-4.5-4.3-5.14-.1 0-1.36-.04-1.56-.05v2.31c0 .88.03 2.14.22 2.52.13.24 1.18.54 1.73.71l.07.01.05.69-.13-.02c-.78-.13-2-.22-2.85-.22-.44 0-2.45.12-2.89.16l-.09.01-.15-.58.13-.02c.27-.04 1.32-.31 1.58-.77.2-.41.19-2.66.19-3.64V55c0-3.88-.16-3.88-1.73-3.98h-.11l.05-.76.2.02 1.15.06 1.21.03c.29 0 1.05-.05 1.78-.12l1.78-.06zM282 62.43c2.388 0 3.865-2.33 3.865-4.49 0-3.35-1.94-6.822-5.17-6.822-2.58 0-3.94 2.29-3.94 4.54 0 3.33 1.95 6.764 5.24 6.764zm-.69-12.35c4.295 0 6.856 3.37 6.856 6.626 0 3.66-3.23 6.76-7.05 6.76-3.73 0-6.65-2.975-6.65-6.76 0-3.525 3.2-6.626 6.85-6.626zm20.115.09s1.05.07 1.36.095c.32.026 1.31.034 2.71.034h.1v.7h-.106c-.72 0-1.47.14-1.58 1.02-.09.5-.17 4.56-.17 6.29 0 1.16 0 3.86.07 4.9v.12l-.84.01-.03-.05-9.32-9.69-.02.76-.07 5.33c-.04 2.1-.04 2.37 2.42 2.8l.09.02v.62l-.01.12-1.01-.08-1.44-.06-3.01.13v-.67l.84-.19c.47-.09.74-.15.84-.89.09-.72.19-3.27.19-4.09l.03-2.25c.07-3.66-.21-3.86-2-4.19l-.08-.01.01-.63-.02-.12.91.07.97.03 1.43-.03.03.04s8.78 9.15 8.95 9.33c.02-.36-.02-3.47-.02-3.47-.07-5.15.32-5.2-2.17-5.35l-.11-.01.13-.64c.07-.05.9-.04.9-.04zm19.08-.19h-.42l-.03.047c-.07.09-.19.25-.87.28l-2.62.03h-3.66l-2.857-.03c-.684-.04-.81-.2-.87-.29l-.03-.036h-.48l-.023.08c-.06.13-.954 2.43-.98 2.58l-.03.08.61.36.05-.12c.396-1.07.836-1.58 3.12-1.58.725 0 1.34.06 1.754.09.13 1.75.16 3.44.16 4.71 0 1.23-.04 4.84-.17 5.61-.05.28-.14.47-1.25.66l-.8.11-.32.04.14.72 1.08-.07.3-.02 2.1-.05h.33l1.15.01.89.04.93.03.02-.09.07-.64-.58-.06-.15-.01c-.56-.07-.96-.2-1.12-.35-.14-.16-.39-1-.39-4.73l.06-2.66.07-3.03c0-.26 0-.28 1.2-.28l.04.01.7-.01h.16c2.1 0 2.26.44 2.62 1.4l.12.3.6-.36-.16-.69c-.2-1-.38-1.85-.43-1.96l-.04-.08h-.07zm4.29 5.68c0-2.25 1.35-4.54 3.93-4.54 3.24 0 5.17 3.47 5.17 6.83 0 2.16-1.48 4.48-3.872 4.48-3.28 0-5.24-3.44-5.24-6.768zm-2.3 1.05c0 3.79 2.91 6.76 6.65 6.76 3.82 0 7.053-3.1 7.053-6.76 0-3.25-2.57-6.623-6.86-6.623-3.66 0-6.85 3.1-6.85 6.63M52.553 40.19c-1.243.373-2.84.822-4.71.822-4.03 0-8.34-2.815-8.34-8.146 0-5.68 4.807-8.02 8.817-8.02 1.57 0 2.82.422 3.27.597.23.074.65.224 1.1.224.08 0 .38-.075.45-.075.1 0 .15.1.15.1 0 .025-.12.647-.17.698-.2.697-.35 1.544-.44 2.316-.32-.05-.37-.2-.37-.523 0-.673-.1-.897-.2-1.046-.4-.623-2.366-1.645-4.284-1.645-3.462 0-6.23 2.666-6.23 7.35 0 6.002 4.836 7.622 6.7 7.622 2.74 0 3.666-1.445 4.487-2.915.15-.28.2-.35.326-.35.1 0 .23.05.23.22 0 .2-.17.79-.22.97l-.52 1.79m7.72.2c1.67 0 3.07-1.47 3.07-3.76 0-2.22-1.54-4.54-3.66-4.54-1.67 0-2.89 1.47-2.89 3.49 0 2.24 1.45 4.8 3.49 4.8zm0-8.87c2.54 0 4.71 1.99 4.71 4.61 0 2.49-1.86 4.83-4.83 4.83-1.94 0-4.95-1.2-4.95-4.69 0-2.89 2.32-4.76 5.08-4.76m14.19 4.26c0-1.92-.55-3.07-1.89-3.07-1.05 0-2.39.77-2.82.99-.02.5-.02 2.26-.02 2.44v1.25c0 1.84 0 2.14.05 2.36.05.22.18.5 1.67.72v.42c-.3 0-1.79-.1-2.12-.1l-2.81.05.03-.38c1.3-.3 1.69-.48 1.69-4.04 0-3.31-.47-3.34-1.72-3.39v-.4c.95-.23 1.8-.6 2.67-1.12.15-.1.2-.1.25-.1.4 0 .33 1.47.3 1.74.62-.35 2.67-1.54 3.91-1.54.68 0 1.75.3 2.1 1.52 1.49-.8 2.77-1.22 3.89-1.22 2.47 0 2.47 1.84 2.47 4.26v2.66c0 1.27.05 1.32.47 1.37.2.03 1.12.25 1.35.27l-.17.32H79.2l-.077-.33c1.29-.33 1.54-.38 1.54-4.06 0-2.12-.4-3.52-2.22-3.52-.847 0-1.77.33-2.54.67.123.85.123 5.08.123 6.03 0 .62.22.64 1.49.82v.37H76c-.45 0-2.62.1-3.117.1l-.076-.38c1.52-.3 1.72-.57 1.72-3.61V35.7m13.19 3.6l1.122.37c.87.3 1.37.43 1.77.43.94 0 3.16-.68 3.16-3.14 0-2.64-2.12-4.54-3.61-4.54-.35 0-.8.15-2.42.72l-.03 6.15zm0 6.1c0 1.494.13 1.594.85 1.644l1.144.08c0 .15 0 .28-.02.43h-.45c-1.94 0-2.17.025-4.36.174 0-.18 0-.23-.02-.38.87-.07.99-.25 1.14-.596.3-.77.32-4.36.32-5.5l.03-1.52c0-.82-.03-5.35-.13-5.9-.1-.45-.47-.97-.84-.97-.17 0-.37.1-.9.32l-.1-.35c.2-.124 1-.5 1.49-.75 1.15-.543 1.45-.92 1.62-1.14.13.37.13.52.28 1.72l1.05-.43c.67-.27 1.79-.67 2.47-.67 1.82 0 3.86 1.92 3.86 4.36 0 4.237-4.68 4.91-5.58 4.91-.3 0-.97-.08-1.79-.35 0 .42-.05 2.34-.05 2.71v2.216m8.82-12.5l2.69-1.49c.2-.1.2-.1.25-.1.1 0 .18.08.18.23l-.15 2.09c-.05.82-.15 2.29-.15 3.06 0 1.17 0 3.19 2.07 3.19.92 0 1.87-.524 2.89-1.02 0-.15 0-.92.02-1.2l.08-2.49c.07-2.19-.2-2.316-1.52-2.366l-.02-.45 3.24-.75c-.07 1.35-.3 4.71-.3 5.88 0 1.37.07 1.99.23 2.49.52-.02.9-.12 1.37-.3v.55c-.8.224-2.09.65-2.79.9-.23-.7-.28-1.17-.33-1.72-1.24.624-3.06 1.52-4.13 1.52-.52 0-2.39-.3-2.26-3.61l.1-2.74c.02-.72.05-1.496-.53-1.496-.22 0-.42.1-.92.325v-.5m13.23-.35c-.37-.05-.57-.07-1.29-.07l.03-.3c1.5-.92 2.07-1.57 3.07-2.89l-.12 2.19c.52.05 1.14.1 2.29.1.42 0 .6 0 1.29-.03l-.03.75c-.42.05-.87.08-1.29.08-.27 0-1.52-.08-1.77-.08-.6 0-.57.15-.6 1.4l-.05 3.79c-.02 1-.02 2.52 1.57 2.52.67 0 1.62-.38 2.34-.7l.05.25c-.55.6-2.36 1.37-3.61 1.37-.84 0-1.91-.45-1.91-2.42V37.3l.05-4.736m9.84 2.39c.1-.05 1.29-.32 1.59-.37.87-.2.97-.225.97-.4 0-.273-.77-1.92-2.39-1.92-1.39 0-1.69 2.095-1.77 3.04l1.6-.35zm-1.62.825c.07 1.42.17 2.12.87 3.04.95 1.22 1.92 1.22 2.27 1.22.64 0 1.47-.17 2.54-.95l.22.3c-.7.5-2.12 1.52-3.76 1.52-2.49 0-3.69-2.27-3.69-4.33 0-3.89 3.16-5.09 3.81-5.09.9 0 2.42.32 3.24 2.22.08.17.15.3.55.3l.03.45-6.08 1.32m10.44-4.76c.05.74.05.87.05 2.06l1.47-.85c.25-.15.9-.52 1.55-.95.1.08.18.13.28.18.35.17.77.37.77 1.02 0 .69-.67 1.07-1.32 1.14 0-.57-.3-.85-.75-.85-.57 0-1.29.48-1.62.75-.4.35-.4.35-.42 1.32 0 .3-.08 1.67-.08 2.17 0 .62.05 2.49.25 2.94.13.27.33.27.7.27h.32l1.45-.03-.03.52-5.63.15.02-.37c1.24-.22 1.52-.27 1.52-4.93 0-1.79-.08-2.44-.95-2.44-.18 0-.58.05-.77.1l.04-.4 3.14-1.82m21-2.39c-.2-2.72-2.89-3.17-4.16-3.17-3.19 0-3.32 2.56-3.32 3.04 0 2.11 1.75 2.76 3.74 3.53 1.95.75 4.69 1.79 4.69 4.81 0 2.24-1.77 4.13-5.4 4.13-.3 0-1.72 0-3.56-.5-.23-.05-.32-.07-.4-.07-.32 0-.27.28-.25.42l-.5-.03c.03-1.37-.35-2.99-.67-4.06.17-.05.22-.07.4-.1.47 1.5.65 2.07 1.59 2.59.7.38 2.24 1.07 4.06 1.07.5 0 3.12 0 3.12-2.76 0-2.42-1.77-3.09-3.94-3.91-2.49-.92-4.39-1.94-4.39-4.38 0-2.29 1.7-4.29 5.21-4.29.45 0 1.28 0 2.52.27.5.1.55.1.62.1.33 0 .58-.15.83-.3.07 0 .17.02.25.05-.08.52-.2 1.29-.18 1.92.03.42.13 1.34.13 1.59l-.37.03m10.6 11.03c-.9.75-2.12 1.35-3.34 1.35-1.27 0-2.89-.58-3.68-1.47-.53-.6-.8-1.85-.8-2.82 0-3.26 3.04-5.41 5.03-5.41.67 0 2.83.55 2.83 1 0 .13-.57 1.15-.9 1.15-.15 0-.74-.37-.87-.42-.35-.15-1.39-.55-2.19-.55-2.06 0-2.46 1.74-2.46 3.21 0 3.24 2.52 4.41 3.86 4.41 1 0 1.87-.53 2.34-.8l.18.35m4.28-14.3c.5 0 .92.42.92.94 0 .5-.39.94-.92.94-.52 0-.94-.42-.94-.95 0-.55.44-.95.94-.95zm-2.74 15.12c.5-.05 1.05-.13 1.17-.38.15-.3.23-3.24.23-3.84 0-2.32-.07-2.67-.27-2.89-.13-.12-1.17-.08-1.17-.27 0-.18.12-.23.22-.25.97-.3 2.02-.92 2.84-1.6.08 0 .15.03.23.05-.25 1.1-.4 4.09-.4 5.36 0 .53.02 2.67.2 3.27.1.3.25.32.82.37.62.02.67.05.84.07l.15.35-4.91.12.05-.38m9.51-5.5c.1-.05 1.3-.32 1.6-.37.87-.2.97-.23.97-.4 0-.27-.77-1.92-2.39-1.92-1.4 0-1.7 2.09-1.77 3.04l1.59-.35zm-1.62.82c.08 1.42.18 2.12.88 3.04.94 1.22 1.92 1.22 2.27 1.22.65 0 1.47-.17 2.54-.94l.22.3c-.7.5-2.12 1.52-3.76 1.52-2.49 0-3.69-2.26-3.69-4.33 0-3.88 3.17-5.08 3.81-5.08.9 0 2.42.32 3.24 2.22.08.17.15.3.55.3l.02.45-6.08 1.32m10.36 1c-.03 1.9-.03 2.09.05 2.74.05.48.07.72 1.59.9l-.02.38c-.44-.05-1.34-.08-2.04-.08h-2.66l-.02-.4c1.37-.25 1.42-.52 1.49-1.02.15-.95.18-2.94.18-3.61 0-2.64-.13-2.64-1.6-2.79 0-.08 0-.15-.03-.23.85-.23 2.3-.93 2.32-.95.03-.03.45-.25.55-.25.28 0 .28.65.28 1.52 1.6-.9 2.77-1.4 3.86-1.4 2.52 0 2.52 1.92 2.52 3.74v2.89c0 .69 0 1.72.15 1.87.15.15 1.1.3 1.24.37l.03.37c-.3-.05-.82-.12-2.12-.12-1.02 0-1.97.07-2.44.12v-.35c.87-.17 1.2-.4 1.37-.7.27-.57.32-3.21.32-3.71 0-1.6 0-3.44-1.89-3.44-.1 0-1.35 0-3.04.87l-.08 3.26m17.28 2.87c-.9.75-2.12 1.35-3.34 1.35-1.27 0-2.89-.57-3.68-1.47-.52-.6-.8-1.85-.8-2.82 0-3.27 3.04-5.41 5.03-5.41.68 0 2.84.55 2.84 1 0 .12-.57 1.14-.89 1.14-.15 0-.75-.37-.87-.42-.35-.15-1.4-.55-2.19-.55-2.07 0-2.47 1.74-2.47 3.21 0 3.24 2.51 4.41 3.86 4.41 1 0 1.87-.52 2.34-.8l.18.35m4.83-4.68c.1-.05 1.29-.32 1.59-.37.87-.2.97-.23.97-.4 0-.28-.78-1.92-2.39-1.92-1.4 0-1.7 2.09-1.77 3.04l1.59-.35zm-1.62.82c.07 1.42.17 2.12.87 3.04.95 1.22 1.92 1.22 2.27 1.22.65 0 1.47-.18 2.54-.95l.23.3c-.7.5-2.12 1.52-3.76 1.52-2.49 0-3.68-2.27-3.68-4.33 0-3.89 3.17-5.08 3.81-5.08.9 0 2.42.32 3.24 2.21.08.17.15.3.55.3l.03.45-6.08 1.32"/>
  </g>
</svg>
